<svg xmlns="http://www.w3.org/2000/svg" viewBox="0 0 500.4255 749.8723"><defs><style>.cls-1{isolation:isolate;}.cls-2,.cls-8{font-size:14px;font-family:Como-Bold, Como;font-weight:700;}.cls-2,.cls-4,.cls-5{fill:#fff;}.cls-3{fill:#12bbc2;}.cls-4{font-size:12px;font-family:Como-SemiBold, Como;font-weight:600;}.cls-6{mix-blend-mode:color-dodge;}.cls-10,.cls-7{fill:none;stroke-miterlimit:10;}.cls-7{stroke:#fff;}.cls-11,.cls-8{fill:#00193e;}.cls-9{fill:aqua;}.cls-10{stroke:aqua;}.cls-11{font-size:29px;font-family:Como-ExtraBold, Como;font-weight:800;}</style></defs><g class="cls-1"><g id="Layer_11" data-name="Layer 11"><g id="_6" data-name="6"><g id="_1" data-name="1"><text class="cls-2" transform="translate(51.8529 191.7332)">Happiness and positivity</text></g></g></g><g id="Layer_12" data-name="Layer 12"><g id="_6_copy" data-name="6 copy"><g id="_4-3" data-name="4"><path class="cls-3" d="M59.063,552.6567H437.1779a17.05,17.05,0,0,1,17.05,17.05v0a17.05,17.05,0,0,1-17.05,17.05H59.063a17.05,17.05,0,0,1-17.05-17.05v0a17.05,17.05,0,0,1,17.05-17.05Z" transform="translate(496.2409 1139.4136) rotate(180)"/><rect class="cls-3" x="41.9111" y="593.3251" width="333.1679" height="29.4575" rx="14.7287" transform="translate(416.9901 1216.1076) rotate(180)"/><text class="cls-2" transform="translate(51.6954 536.3158)">Contributing to the upbringing and transformation of generations</text><text class="cls-4" transform="translate(50.9354 566.7074)">Enhancing awareness among children, adolescents, and youth through <tspan x="0" y="14.4004">wareness programs aimed at developing their personalities.</tspan></text><path class="cls-5" d="M44.86,609.785a2.7543,2.7543,0,1,0-2.1622,2.1623A2.7569,2.7569,0,0,0,44.86,609.785Z"/><path class="cls-5" d="M44.86,571.7951a2.7543,2.7543,0,1,0-2.1622,2.1624A2.7568,2.7568,0,0,0,44.86,571.7951Z"/><text class="cls-4" transform="translate(50.9354 611.6775)">Encouraging self-discovery and boosting self-confidence.</text><g class="cls-6"><path class="cls-7" d="M32.471,519.7767H470.9844c8.1856,0,14.8212,5.9476,14.8212,13.2842h0c0,7.3368-6.6356,13.2843-14.8212,13.2843H32.471Z"/><path class="cls-5" d="M46.716,535.0533a15.33,15.33,0,1,0-13.207,13.2072A15.3362,15.3362,0,0,0,46.716,535.0533Z"/><path class="cls-5" d="M46.716,652.9461a15.33,15.33,0,1,0-13.207,13.2073A15.3361,15.3361,0,0,0,46.716,652.9461Z"/><path class="cls-5" d="M46.716,409.861a15.33,15.33,0,1,0-13.207,13.2072A15.3363,15.3363,0,0,0,46.716,409.861Z"/><path class="cls-5" d="M46.716,300.86a15.33,15.33,0,1,0-13.207,13.2072A15.3362,15.3362,0,0,0,46.716,300.86Z"/><path class="cls-5" d="M46.716,190.4423A15.33,15.33,0,1,0,33.509,203.65,15.3362,15.3362,0,0,0,46.716,190.4423Z"/></g><text class="cls-8" transform="translate(26.819 536.3163)">4</text></g><g id="_5-2" data-name="5"><g class="cls-6"><path class="cls-7" d="M32.3,637.67H441.3387a13.2843,13.2843,0,0,1,13.2842,13.2843h0a13.2842,13.2842,0,0,1-13.2842,13.2842H32.3Z"/></g><text class="cls-2" transform="translate(53.4952 655.4647)">Training children, adolescents, and youth on values and skills</text><rect class="cls-3" x="41.9111" y="707.3799" width="333.1679" height="29.4575" rx="14.7287" transform="translate(416.9901 1444.2173) rotate(-180)"/><rect class="cls-3" x="41.9111" y="670.5825" width="433.7637" height="29.4575" rx="14.7287" transform="translate(517.5858 1370.6225) rotate(-180)"/><text class="cls-4" transform="translate(50.9354 688.7622)">Providing multi-method training to convey values and develop personal skills.</text><path class="cls-5" d="M44.86,723.84a2.7543,2.7543,0,1,0-2.1622,2.1623A2.7568,2.7568,0,0,0,44.86,723.84Z"/><path class="cls-5" d="M44.86,685.85a2.7543,2.7543,0,1,0-2.1622,2.1623A2.7569,2.7569,0,0,0,44.86,685.85Z"/><text class="cls-4" transform="translate(50.9354 725.7323)">Promoting critical thinking and problem-solving abilities.</text><text class="cls-8" transform="translate(26.819 655.38)">5</text></g><g id="_3-2" data-name="3"><g id="_2-2" data-name="2"><path class="cls-5" d="M44.6892,488.5927a2.7543,2.7543,0,1,0-2.1623,2.1623A2.757,2.757,0,0,0,44.6892,488.5927Z"/></g><g id="_1-3" data-name="1"><path class="cls-5" d="M44.86,444.3556a2.7543,2.7543,0,1,0-2.1622,2.1624A2.7568,2.7568,0,0,0,44.86,444.3556Z"/></g><g class="cls-6"><path class="cls-7" d="M32.3,393.4224H281.3387a13.2842,13.2842,0,0,1,13.2842,13.2842h0a13.2842,13.2842,0,0,1-13.2842,13.2843H32.3Z"/></g><rect class="cls-3" x="42.013" y="426.7663" width="440.3001" height="34.1001" rx="17.05" transform="translate(524.326 887.6327) rotate(180)"/><rect class="cls-3" x="42.013" y="470.0039" width="440.3001" height="34.1001" rx="17.05" transform="translate(524.326 974.1078) rotate(180)"/><text class="cls-4" transform="translate(50.9354 440.8169)">Training children and adolescents on modern scientific and practical curricula<tspan x="0" y="14.4004">and skills.</tspan></text><text class="cls-4" transform="translate(50.9354 483.4764)">Empowering them to contribute to creating opportunities and opening fields<tspan x="0" y="14.4004">for them in the future.</tspan></text><text class="cls-2" transform="translate(50.9571 410.869)">Preparing generations for the future</text><text class="cls-8" transform="translate(26.819 411.7054)">3</text></g><g id="_2-3" data-name="2"><g id="_2-4" data-name="2"><rect class="cls-3" x="41.9111" y="350.4527" width="395.9915" height="29.4575" rx="14.7287" transform="translate(479.8137 730.3629) rotate(-180)"/><path class="cls-5" d="M44.86,366.5911a2.7543,2.7543,0,1,0-2.1622,2.1624A2.7568,2.7568,0,0,0,44.86,366.5911Z"/><text class="cls-4" transform="translate(50.9354 368.8052)">Maintaining values of community development through training work.</text></g><g id="_1-4" data-name="1"><rect class="cls-3" x="41.2185" y="318.4629" width="278.4045" height="25.6813" rx="12.8407" transform="translate(360.8414 662.6072) rotate(180)"/><path class="cls-5" d="M44.86,331.6013a2.7543,2.7543,0,1,0-2.1622,2.1623A2.7568,2.7568,0,0,0,44.86,331.6013Z"/><text class="cls-4" transform="translate(50.9354 333.8147)">Encouraging participation in volunteer activities.</text></g><g class="cls-6"><path class="cls-7" d="M32.4709,284.4208H425.51a13.2843,13.2843,0,0,1,13.2842,13.2843h0A13.2842,13.2842,0,0,1,425.51,310.9893H32.4709Z"/></g><text class="cls-2" transform="translate(51.3223 301.8671)">Enhancing the value of volunteering and impact in society</text><text class="cls-8" transform="translate(26.819 303.1309)">2</text></g><g id="_1-5" data-name="1"><g id="_2-5" data-name="2"><rect class="cls-3" x="41.5883" y="240.0355" width="386.4602" height="29.4575" rx="14.7287" transform="translate(469.6367 509.5286) rotate(-180)"/><path class="cls-5" d="M44.5371,256.1739a2.7543,2.7543,0,1,0-2.1622,2.1624A2.7568,2.7568,0,0,0,44.5371,256.1739Z"/></g><g id="_1-6" data-name="1"><rect class="cls-3" x="40.8956" y="208.0457" width="444.9099" height="25.6813" rx="12.8407" transform="translate(526.7012 441.7728) rotate(-180)"/><path class="cls-5" d="M44.5371,221.1841a2.7543,2.7543,0,1,0-2.1622,2.1623A2.7568,2.7568,0,0,0,44.5371,221.1841Z"/></g><g class="cls-6"><path class="cls-7" d="M32.1481,174.0037H209.1866a13.2842,13.2842,0,0,1,13.2843,13.2842h0a13.2841,13.2841,0,0,1-13.2843,13.2842H32.1481Z"/></g><text class="cls-4" transform="translate(50.9354 223.8932)">Creating a safe and positive environment that encourages happiness and joy.</text><text class="cls-4" transform="translate(51.9354 258.3879)">Promoting companionship and positive interaction among trainees.</text><text class="cls-8" transform="translate(25.819 192.4499)">1</text></g></g><g id="_7_copy" data-name="7 copy"><circle class="cls-9" cx="253.4385" cy="87.2541" r="67.3428"/><circle class="cls-10" cx="253.4385" cy="87.2541" r="76.44"/><circle class="cls-10" cx="184.3209" cy="51.5339" r="7.8401" transform="translate(7.6717 125.1887) rotate(-38.2543)"/><path class="cls-9" d="M186.8351,53.9856a3.5117,3.5117,0,1,0-4.9658.0625A3.5116,3.5116,0,0,0,186.8351,53.9856Z"/><polyline class="cls-10" points="184.321 51.595 155.233 22.515 -4.521 22.515"/><circle class="cls-10" cx="322.0675" cy="51.5339" r="7.84" transform="translate(82.1905 272.5367) rotate(-51.7457)"/><path class="cls-9" d="M319.5534,53.9856a3.5117,3.5117,0,1,1,4.9658.0625A3.5116,3.5116,0,0,1,319.5534,53.9856Z"/><polyline class="cls-10" points="322.068 51.595 351.156 22.515 510.91 22.515"/><circle class="cls-10" cx="184.3209" cy="120.7418" r="7.84" transform="matrix(0.6192, -0.7853, 0.7853, 0.6192, -24.6169, 190.726)"/><path class="cls-9" d="M186.8351,118.29a3.5117,3.5117,0,1,1-4.9658-.0625A3.5116,3.5116,0,0,1,186.8351,118.29Z"/><polyline class="cls-10" points="184.321 120.681 155.233 149.761 -4.521 149.761"/><circle class="cls-10" cx="322.0675" cy="120.7418" r="7.8401" transform="translate(-5.6002 225.3358) rotate(-38.2543)"/><path class="cls-9" d="M319.5534,118.29a3.5117,3.5117,0,1,0,4.9658-.0625A3.5116,3.5116,0,0,0,319.5534,118.29Z"/><polyline class="cls-10" points="322.068 120.681 351.156 149.761 510.91 149.761"/></g><g id="Layer_10_copy" data-name="Layer 10 copy"><text class="cls-8" transform="translate(89.1655 -50.0576)">“We believe in the importance of the teacher’s role<tspan x="0.5044" y="19">in nurturing generations and shaping their future.”</tspan></text></g><text class="cls-11" transform="translate(214.5646 96.0812)">Goals</text></g></g></svg>