<svg xmlns="http://www.w3.org/2000/svg" viewBox="0 0 500.4255 368.0916">
  <defs>
    <style>
      .cls-1 {
        isolation: isolate;
      }

      .cls-2,
      .cls-3 {
        fill: none;
        stroke-miterlimit: 10;
      }

      .cls-2 {
        stroke: #fff;
      }

      .cls-3 {
        stroke: aqua;
      }

      .cls-4 {
        fill: aqua;
      }

      .cls-5 {
        fill: #12bbc2;
      }

      .cls-6 {
        font-size: 14px;
        font-family: Como-Bold;
        font-weight: 600;
      }

      .cls-6,
      .cls-9 {
        fill: #fff;
      }

      .cls-7 {
        font-size: 24px;
        font-family:comoBold;
        font-weight: 800;
      }

      .cls-7,
      .cls-8 {
        fill: #00193e;
      }

      .cls-10 {
        fill: #ffb900;
      }

      .cls-11 {
        fill: #fde039;
      }

      .cls-12 {
        fill: #d5e0d6;
      }

      .cls-13 {
        fill: #c1cfc2;
      }

      .cls-14 {
        fill: #636363;
      }

      .cls-15 {
        opacity: 0.5;
        mix-blend-mode: multiply;
      }

      .cls-16 {
        fill: #bababa;
      }
    </style>
  </defs>
  <g class="cls-1">
    <g id="Layer_12" data-name="Layer 12">
      <g id="_1_copy" data-name="1 copy">
        <circle class="cls-2" cx="250.3078" cy="82.289" r="68.7565" />
        <circle class="cls-3" cx="250.3078" cy="82.289" r="68.7565" />
        <path class="cls-4" d="M189.7659,84.16a60.5745,60.5745,0,1,1,58.5554,58.5548A60.5762,60.5762,0,0,1,189.7659,84.16Z" />
        <g id="من_نحن" data-name="من نحن">
          <rect class="cls-5" x="24.9594" y="162.3948" width="456.4371" height="198.7754" rx="99.3876" />
          <text class="cls-6" transform="translate(167.7049 187.5809)">We, as Neqat Noor, aspire to become <tspan x="-27.7119" y="16.7998" xml:space="preserve"> a hub for education, transformation, and </tspan>
          </text>
        </g>
        <text class="cls-7" transform="translate(198.0464 89.3402)">About Us</text>
        <text class="cls-6" transform="translate(66.2289 226.5956)">personal development, all driven by dedicated and skilled <tspan x="-4.8237" y="19">volunteers. We firmly believe in the importance of teaching</tspan>
          <tspan x="34.3345" y="38" xml:space="preserve">life skills and citizenship to children and youth.</tspan>
          <tspan x="-12.4458" y="57">These skills empower them to adapt to a changing world and</tspan>
          <tspan x="-20.167" y="76">achieve success in education, employment, and personal goals.</tspan>
          <tspan x="8.4839" y="95">Education should be built upon a forward-thinking and</tspan>
          <tspan x="11.5908" y="114">comprehensive vision to empower future generations.</tspan>
        </text>
      </g>
      <path class="cls-8" d="M142.4928,173.0341a4.6419,4.6419,0,0,1-4.6579-5.0955,4.5254,4.5254,0,0,1,4.8268-4.1484c2.2819.0388,4.6635,2.2625,4.6053,4.47A4.93,4.93,0,0,1,142.4928,173.0341Z" />
      <path class="cls-8" d="M161.33,197.8a1.6193,1.6193,0,0,1-.75,1.6034,2.0218,2.0218,0,0,1-2.08-.072,3.27,3.27,0,0,1-.9194-2.3622c-.6176-5.4472-1.6754-6.2143-3.0905-9.13-.1219-.2548-.31-.7339-.5871-.8308-.7339-.2548-.7948.51-.8142.75-.3157,4.032-.82,7.837-2.9825,11.3956a3.6636,3.6636,0,0,1-1.6173,1.6089,1.7712,1.7712,0,0,1-1.944-.3711,1.3217,1.3217,0,0,1-.432-1.6837,17.2926,17.2926,0,0,1,.7643-1.7169,13.4581,13.4581,0,0,0,1.5369-9.075c-.0581-.3406-.8529-2.1656-.9221-2.5034.0526-.0582.1744-.1717.3378-.324-.1384-.648-.2714-1.2961-.3683-1.9524a51.29,51.29,0,0,0-2.8939-9.9168,1.37,1.37,0,0,1-.0471-.1385,5.7655,5.7655,0,0,0,3.0019-3.744.17.17,0,0,0,.1551-.0416,4.57,4.57,0,0,0,1.3708-2.7748c.3849-2.041.1025-4.1262.3988-6.17.1024-.7118.2132-1.501,1.1077-1.753a1.3784,1.3784,0,0,1,1.728.4957,4.4186,4.4186,0,0,1,.6287,1.5148,1.83,1.83,0,0,0-1.6588,2.1822c.011.3323.0166.6674.0553.9969a6.3611,6.3611,0,0,1-1.008,4.1983,24.8353,24.8353,0,0,1-2.2182,3.32c-.1827.205.1883.2631.144.5484.69-.8281,1.0856-1.5785,1.7253-2.44a7.9763,7.9763,0,0,0,1.7308-6.2392,1.6424,1.6424,0,0,1,1.4843-2.1545,1.6956,1.6956,0,0,1,1.9136,1.573c.3683,3.8548.2132,7.8038-2.473,10.9968-.2686.3212-.8723.8031-.3766,1.1465.3489.2409.4016-.5566.6508-.8391.0969-.108.1495-.2548.2409-.3683a10.0549,10.0549,0,0,0,.5982-.817l.0055.0194a32.5567,32.5567,0,0,0,1.4788,3.7912c.0416-.108.0859-.21.1274-.324,1.49,3.6,3.0795,8.3826,4.4253,12.0436a21.2591,21.2591,0,0,1,1.1216,3.3259A32.8446,32.8446,0,0,1,161.33,197.8Z" />
      <path class="cls-9" d="M136.8976,164.0574c-1.6024,1.2706-1.429,3.0125-1.245,4.75A7.9435,7.9435,0,0,1,136.8976,164.0574Z" />
      <path class="cls-9" d="M162.8936,196.163a2.7735,2.7735,0,0,0,.9441-3.0656,3.379,3.379,0,0,0-2.5708-1.8378,14.9744,14.9744,0,0,0-.4393-1.5557q-.4459-1.3-.92-2.59c-.7012-1.9127-1.4409-3.811-2.194-5.7038q-.5649-1.42-1.1369-2.8371c-.1307-.3251-.262-.65-.3909-.9759a13.469,13.469,0,0,0,2.2246-1.4638,5.5923,5.5923,0,0,0,2.0219-6.6323,8.1284,8.1284,0,0,0-2.0749-3.255,7.5885,7.5885,0,0,0-2.599-2.1481c-.0082-.3982-.0283-.8022-.0731-1.221a3.0252,3.0252,0,0,0-1.6115-2.1784,6.3861,6.3861,0,0,0-.9079-.1192,2.2975,2.2975,0,0,0-2.0692-2.5,1.8337,1.8337,0,0,0-2.09,1.1989,17.7488,17.7488,0,0,0-.1653,2.8714c-.1059.0312-.21.0634-.31.0953a6.3347,6.3347,0,0,0-2.74,2.1852,5.323,5.323,0,0,0-3.3094-1.3479c-2.5368-.022-5.3776,2.3167-5.3776,4.8682a5.6062,5.6062,0,0,0,5.4085,5.8054,2.9524,2.9524,0,0,0,1.3464-.2534c.46,1.0671,1.0917,2.4508,1.4154,3.4248a43.59,43.59,0,0,1,1.233,4.6519,10.0082,10.0082,0,0,0-1.69,1.6133c-1.4455,1.7488,1.1488,2.6873,2.53,2.7126a.2337.2337,0,0,0,.1226-.0319c.2525,1.1095.467,2.0544.4915,2.19a11.2244,11.2244,0,0,1-.6757,6.9151c-.4773,1.0814-1.0128,2.137-1.5161,3.2072a2.1406,2.1406,0,0,0,1.0149,2.9838,2.8261,2.8261,0,0,0,3.2141-.7039,18.3133,18.3133,0,0,0,3.0171-8.2669c.18-1.4116.3292-5.6327.9789-4.4232a27.8546,27.8546,0,0,1,2.6,7.1641,24.4075,24.4075,0,0,0,.69,3.7992c-1.5195.7508-2.9185,1.6547-4.4179,2.444-1.2316.6483-2.4593,1.0749-3.1139,2.4034a1.46,1.46,0,0,0,.3233,1.8762c-2.262.5786-4.5,1.2662-6.7532,1.8564-7.9118,2.0729-22.3828,4.2862-36.1479,1.1856a18.4992,18.4992,0,0,1-4.4186-1.4509,3.9017,3.9017,0,0,1-1.8587-2.0494,4.6675,4.6675,0,0,1-.253-1.2563,3.2,3.2,0,0,1,.0582-.8618q.6051-1.4368,1.3322-.6553c-.2093.2425.1424.5974.3531.3532.9978-1.1559-1.605-1.5178-2.0709-.1188a4.4382,4.4382,0,0,0,2.8589,5.34,41.612,41.612,0,0,0,4.31,1.311c5.2554,1.4575,13.6843,1.553,17.6121,1.45a102.6023,102.6023,0,0,0,11.3378-1.3884A86.5934,86.5934,0,0,0,148,206.5481c.866-.2417,1.7354-.4751,2.6083-.6927,1.6832.9975,4.8907,1.2586,5.9713,1.2867,1.4866.0388,3.7015.2062,4.971-.7408,1.1865-.8851-.3943-1.8324-1.2-2.0107a16.1352,16.1352,0,0,0-5.6022.1066c-1.3361.1919-2.6554.469-3.9656.7889-2.0527-1.38,1.1156-3.0843,2.3373-3.6721.9243-.4447,1.7641-1.0625,2.6454-1.5837a17.5162,17.5162,0,0,1,1.7107-.8588,2.5728,2.5728,0,0,0,2.5029,1.0711,2.11,2.11,0,0,0,1.7444-1.9809q.02-.5862.03-1.1737a6.334,6.334,0,0,1,.7961-.599C162.6651,196.3855,162.781,196.2767,162.8936,196.163Zm-5.8172,8.6018a12.1542,12.1542,0,0,1,3.362.1564c.3914.0865,1.23.3836.9385.9505-.2027.3944-.9517.4959-1.3329.5755a16.6741,16.6741,0,0,1-5.7761.0178,10.322,10.322,0,0,1-2.8236-.8133A34.0215,34.0215,0,0,1,157.0764,204.7648Zm-1.5984-36.2036c.1094-1.3857.2667-2.6306.2825-3.93a4.8169,4.8169,0,0,1,1.5213,1.2736,21.6084,21.6084,0,0,1,1.665,1.7589,6.73,6.73,0,0,1,1.2687,5.3141c-.3965,1.7126-2.2395,2.9684-3.6457,3.8073-.189.1128-.381.22-.5749.3246-.1871-.4677-.9614-2.2577-1.2142-2.8222-.2808-.627-.3176-1.2518-.6224-1.8675-.0406-.0913.2378-.6234.3012-.7558a10.8076,10.8076,0,0,0,.43-1.0308,13.1165,13.1165,0,0,0,.5372-2.2644C155.431,168.3392,155.4505,168.55,155.478,168.5612Zm-6.0328-8.21c.1024-.7137.2145-1.5026,1.11-1.7533a1.3812,1.3812,0,0,1,1.728.4956,4.4088,4.4088,0,0,1,.6284,1.5157,1.72,1.72,0,0,0-1.6276,1.5345,2.7823,2.7823,0,0,0-1.9749-.1178A15.6285,15.6285,0,0,1,149.4452,160.3514Zm-.9922,2.4515c.1183-.0477.2466-.0959.38-.1419-.0173,1.2672-.0309,2.5479-.0988,3.2041a3.6945,3.6945,0,0,1-1.0562,2.4334c.0407-.2554.0033.0519.0061-.2109a4.7963,4.7963,0,0,0-1.5279-3.3191A6.3221,6.3221,0,0,1,148.453,162.8029Zm-5.96,10.2318a4.6436,4.6436,0,0,1-4.6581-5.0959,4.5254,4.5254,0,0,1,4.8278-4.1483c2.2817.0386,4.6621,2.2631,4.6058,4.47A4.9337,4.9337,0,0,1,142.4928,173.0347Zm2.0743.184a1.38,1.38,0,0,1-.0478-.1375,5.7585,5.7585,0,0,0,3.0013-3.7447.1766.1766,0,0,0,.157-.04,4.596,4.596,0,0,0,1.371-2.7766,24.1606,24.1606,0,0,0,.2464-3.9985,2.3442,2.3442,0,0,1,1.86.1265.2455.2455,0,0,0,.0958.04c.0005.0343,0,.0672.001.1023.0129.3327.0182.6666.0556.9965A6.3593,6.3593,0,0,1,150.3,167.985a25.1758,25.1758,0,0,1-2.218,3.32c-.1828.206.1883.2642.1424.5482.69-.8266,1.0869-1.5773,1.7255-2.4381a7.9777,7.9777,0,0,0,1.7312-6.24,1.6431,1.6431,0,0,1,1.4842-2.1554,1.6941,1.6941,0,0,1,1.9128,1.5741c.37,3.8536.2142,7.8022-2.4719,10.9975-.2694.32-.8727.802-.3766,1.1449.3481.2407.4-.5549.65-.8381.0964-.1093.15-.2558.2423-.37.2165-.268.4138-.54.597-.8147l.0043.0176a33.714,33.714,0,0,0,1.5054,3.85c.0341.0811.2829.834.3124.7535l.0025.0061c-1.3049.653-2.6916,1.1583-4.0381,1.7014a24.3357,24.3357,0,0,0-4.4276,2.1305A56.7371,56.7371,0,0,0,144.5671,173.2187Zm2.7806,12.1873a4.5075,4.5075,0,0,1-1.8146-.42c-1.2689-.5782-.1356-1.7181.4305-2.2885.2153-.2169.434-.4142.6561-.5983.1055.5011.4371,1.9584.745,3.3109C147.3585,185.4093,147.3542,185.4062,147.3477,185.406Zm7.1417,2.4324c-.1231-.2538-.31-.7336-.587-.83-.7337-.2559-.7944.5078-.8133.7508-.3155,4.0321-.82,7.8364-2.9832,11.3962a3.6684,3.6684,0,0,1-1.6177,1.6077,1.7752,1.7752,0,0,1-1.9453-.3713,1.3241,1.3241,0,0,1-.4315-1.6824,17.4788,17.4788,0,0,1,.765-1.7184,13.4524,13.4524,0,0,0,1.5366-9.0744,10.9627,10.9627,0,0,1-.3177-1.6c-.2282-1.0567-.4741-2.1091-.6357-3.18-.07-.4607-.1633-.9566-.2729-1.4716a15.5669,15.5669,0,0,1,3.2441-1.6413c1.7284-.6965,3.595-1.3339,5.3107-2.1963,1.4143,3.4416,2.7315,6.9213,4.0146,10.416a20.9989,20.9989,0,0,1,1.1215,3.3266,29.7867,29.7867,0,0,1,.4474,5.2625,26.6881,26.6881,0,0,1-3.4463,1.6227,6.2419,6.2419,0,0,1-.2979-1.4852C156.9614,191.5231,155.9055,190.7556,154.4894,187.8384Zm6.8406,9.96a1.6242,1.6242,0,0,1-.7509,1.6045,2.0236,2.0236,0,0,1-2.0792-.0714,1.6274,1.6274,0,0,1-.4062-.44c.1988-.09.3976-.1792.5932-.2717.908-.4293,1.8066-.7939,2.642-1.2739C161.3294,197.4972,161.3305,197.65,161.33,197.7986Zm.9649-1.7261a5.3322,5.3322,0,0,1-.5375.4606,24.6394,24.6394,0,0,0-.3837-4.7628,3.1545,3.1545,0,0,1,1.9008,1.3585C164.08,194.2145,163.0209,195.355,162.2949,196.0725Z" />
      <path class="cls-9" d="M145.1,201.2h-1.4358a.25.25,0,0,0,0,.4994H145.1A.25.25,0,0,0,145.1,201.2Z" />
      <path class="cls-9" d="M164.1409,206.1322h-1.6856a.25.25,0,0,0,0,.4994h1.6856A.25.25,0,0,0,164.1409,206.1322Z" />
      <path class="cls-9" d="M152.9415,156.5478a2.6523,2.6523,0,0,0-2.35-.718,2.492,2.492,0,0,0-1.9618,2.03c-.056.3148.3416.26.3416-.0627,0-.74.5923-1.0917,1.2361-1.3554a2.2413,2.2413,0,0,1,2.381.46C152.825,157.1184,153.1791,156.7662,152.9415,156.5478Z" />
      <path class="cls-9" d="M99.6419,205.4354a2.7933,2.7933,0,0,1-.1274-3.6512c.1888-.2618-.2448-.5107-.4312-.2521a3.3116,3.3116,0,0,0,.4552,4.2564C99.77,206.0128,99.8734,205.66,99.6419,205.4354Z" />
      <path class="cls-9" d="M130.1176,203.0732h-1.8729a.25.25,0,0,0,0,.4994h1.8729A.25.25,0,0,0,130.1176,203.0732Z" />
      <path class="cls-8" d="M109.0789,176.59a21.8225,21.8225,0,0,0,6.7991,2.7341,18.115,18.115,0,0,0,1.9047.4024,4.6987,4.6987,0,0,1,.1049-.9855,31.1954,31.1954,0,0,1,1.1662-4.3982c-.9031.374-2.0452.805-2.9242,1.1314a2.94,2.94,0,0,1-2.71-.226c-.6389-.3975-1.3088-.745-1.9636-1.1171a7.1413,7.1413,0,0,0-2.0537-.9239,1.6129,1.6129,0,0,0-1.7044,1.9047A2.5376,2.5376,0,0,0,109.0789,176.59Z" />
      <path class="cls-8" d="M123.0347,172.5385a4.3912,4.3912,0,0,0,6.1781-3.9193c-.0489-1.898-.5361-2.4877-2.4052-2.9642-.6481-.1653-1.3826-.1877-1.8281-.786-.5167-.6938-1.1324-.61-1.81-.3327a4.3837,4.3837,0,0,0-1.835,1.4582C120.0269,167.7031,120.293,171.42,123.0347,172.5385Z" />
      <path class="cls-8" d="M118.1541,180.6672c-.165,2.3753-.5623,4.7182-.8528,7.075-.3835,3.1108-.6975,6.2345-.964,9.3548-.1,1.1651-.2291,2.9-.2975,4.067-.07,1.1962.5136,2.0954,2.1357,1.921a1.517,1.517,0,0,0,1.2158-.9767,17.5287,17.5287,0,0,0,.3106-1.7843c.27-2.3218,1.0076-9.4692,1.1575-10.4774a1.2787,1.2787,0,0,1,.0542-.2194c.148-.4392.32-.9023.8494-.9508.566-.0518.7591.4264.9115.8526.1388.3882,1.2059,11.2985,1.2877,12.3511a1.51,1.51,0,0,0,1.6761,1.4869,1.4922,1.4922,0,0,0,1.7889-1.4938,35.1425,35.1425,0,0,0,.0223-4.9766,145.6019,145.6019,0,0,1,.2044-16.2275,10.5168,10.5168,0,0,1,1.2348-3.9c.8207-1.49,1.5123-3.0415,2.2952-4.5481a4.5392,4.5392,0,0,0,.3683-3.6062,16.7806,16.7806,0,0,0-1.8819-4.3432,5.0728,5.0728,0,0,0-2.5437-1.9856,1.5529,1.5529,0,0,0-1.479.2366,1.226,1.226,0,0,0-.5559,1.24,1.3684,1.3684,0,0,0,1.0035,1.1148,8.4885,8.4885,0,0,0,1.5249.42,2.2211,2.2211,0,0,1,1.9635,1.9237,4.9251,4.9251,0,0,1-5.8252,6.1459,5.5741,5.5741,0,0,1-1.7748-.7672,4.4061,4.4061,0,0,0-2.0987,1.5211,11.8481,11.8481,0,0,0-1.1062,2.9857A21.9679,21.9679,0,0,0,118.1541,180.6672Z" />
      <path class="cls-9" d="M137.02,190.73c-.99-4.0989-.68-12.0033,2.9821-17.8074.1719-.2723-.3155-.5141-.4994-.25-3.1838,4.5764-4.0844,12.4883-3.4648,15.8634.59,3.2162,1.924,6.3582,1.9861,9.65a8.58,8.58,0,0,1-.8962,4.0341,8.31,8.31,0,0,1-3.73,3.2944c-3.3261,1.8392-7.2215,1.8246-10.9143,1.7834-3.4312-.0383-7.07.1979-10.4089-.7459-.8142-.23-4.41-1.5059-4.1715-2.7469.3682-1.9149,3.3859-2.5636,4.877-3.0384.9116-.29,1.8254-.5761,2.7425-.8506-.036.4651-.0682.9156-.094,1.3273a2.0073,2.0073,0,0,0,1.591,2.235,2.4269,2.4269,0,0,0,.4868.0727c1.1293.1687,1.8621-.0438,2.2936-1.0906a9.9736,9.9736,0,0,0,.4816-2.6471c.0515-.4142.1026-.841.1534-1.273a3.4243,3.4243,0,0,0,.908-.6142,2.88,2.88,0,0,0-.351-4.344c.1023-.9169.2046-1.8186.3078-2.674a2.5965,2.5965,0,0,1,.2887-1.086c.1623-.2623.3775-.2222.514.0313a1.6121,1.6121,0,0,1,.1578.5409c.28,2.054,1.034,9.641,1.1345,11.5247a1.976,1.976,0,0,0,.6043,1.5046,2.6951,2.6951,0,0,0,3.57-.2621,4.2939,4.2939,0,0,0,.49-2.6906c-.0155-2.601-.0782-5.2018-.13-7.8024-.0152-.7535-.0764-5.7244-.0065-9.022a14.8958,14.8958,0,0,1,2.0037-7.6941,30.2346,30.2346,0,0,0,2.2-4.589,3.85,3.85,0,0,0,.191-2.2212,15.0583,15.0583,0,0,0-1.3578-3.82,6.48,6.48,0,0,0-3.26-3.4533,2.3483,2.3483,0,0,0-2.5285.3367c-.547.417-.5261,1.2246-1.0935,1.5038a17.01,17.01,0,0,0-1.8994.6848,4.9236,4.9236,0,0,0-2.1745,4.7519,5.03,5.03,0,0,0,1.5521,3.1211,4.5584,4.5584,0,0,0-1.9688,1.109,22.0994,22.0994,0,0,1-3.0807,1.4316,3.39,3.39,0,0,1-3.0425-.1693c-.8366-.5123-1.7-.981-2.546-1.4778a4.5012,4.5012,0,0,0-1.3547-.5608,2.2025,2.2025,0,0,0-2.3439,2.845,3.1906,3.1906,0,0,0,1.6669,1.7587,24.8146,24.8146,0,0,0,7.8212,2.8865c.8854.1637.8769.2051.8021,1.0966-.1643,1.9579-1.301,12.0743-1.6547,15.1861-.1029.9046-.2061,1.9922-.2918,3.0379-.3818.1031-.7625.21-1.1405.3275-2.3028.7136-6.5488,1.3407-7.066,4.2745-.1606.9106,2.0982,2.6812,5.8715,3.3143a72.2827,72.2827,0,0,0,11.7149.49c5.39.0227,12.8375-1.9137,13.5053-8.2854C138.7669,196.4818,137.7255,193.6518,137.02,190.73Zm-17.318,9.5945a17.5287,17.5287,0,0,1-.3106,1.7843,1.5169,1.5169,0,0,1-1.2157.9767c-1.6222.1744-2.2059-.7248-2.1358-1.921.0246-.42.0573-.9146.0936-1.4287.5154-.15,1.0317-.2979,1.55-.4372.7344-.1974,1.491-.3037,2.1929-.5354C119.8081,199.3869,119.7481,199.9271,119.7019,200.324Zm.8092-2.4424c.14-1.2164.2778-2.4747.4153-3.7149A2.3451,2.3451,0,0,1,120.5111,197.8816Zm.8236-31.8871a4.3837,4.3837,0,0,1,1.835-1.4582c.6774-.2773,1.2931-.3611,1.81.3327.4455.5983,1.18.6207,1.8281.786,1.8691.4765,2.3563,1.0662,2.4052,2.9642a4.3912,4.3912,0,0,1-6.1781,3.9193C120.293,171.42,120.0269,167.7031,121.3347,165.9945Zm-5.4567,13.33a21.8234,21.8234,0,0,1-6.7991-2.7341,2.5379,2.5379,0,0,1-1.3807-1.4781,1.6129,1.6129,0,0,1,1.7044-1.9047,7.1413,7.1413,0,0,1,2.0537.9239c.6548.3721,1.3247.72,1.9636,1.1171a2.94,2.94,0,0,0,2.71.2259c.879-.3263,2.0211-.7573,2.9242-1.1313a31.1954,31.1954,0,0,0-1.1662,4.3982,4.7045,4.7045,0,0,0-.105.9855A18.1186,18.1186,0,0,1,115.878,179.3245Zm.4593,17.7725c.2665-3.12.5805-6.244.964-9.3548.2905-2.3568.6878-4.7.8527-7.075a21.979,21.979,0,0,1,.6247-3.5609,11.8519,11.8519,0,0,1,1.1062-2.9857,4.4061,4.4061,0,0,1,2.0987-1.5211,5.5741,5.5741,0,0,0,1.7748.7672,4.9251,4.9251,0,0,0,5.8252-6.1459,2.2211,2.2211,0,0,0-1.9635-1.9237,8.4885,8.4885,0,0,1-1.5249-.42,1.3684,1.3684,0,0,1-1.0035-1.1148,1.226,1.226,0,0,1,.5559-1.24,1.5529,1.5529,0,0,1,1.479-.2366,5.0722,5.0722,0,0,1,2.5437,1.9856,16.7772,16.7772,0,0,1,1.8819,4.3432,4.5389,4.5389,0,0,1-.3683,3.6061c-.7829,1.5067-1.4745,3.0584-2.2952,4.5482a10.5168,10.5168,0,0,0-1.2348,3.9,145.626,145.626,0,0,0-.2044,16.2275,35.1425,35.1425,0,0,1-.0223,4.9766,1.4922,1.4922,0,0,1-1.7889,1.4938,1.51,1.51,0,0,1-1.6761-1.4869c-.0818-1.0526-1.1489-11.9629-1.2877-12.3511-.1524-.4262-.3455-.9044-.9115-.8526-.53.0485-.7014.5116-.8494.9508a1.2787,1.2787,0,0,0-.0542.2194c-.117.7871-.592,5.3156-.9234,8.3689a3.1486,3.1486,0,0,1-.3722.1387c-1.1184.3375-2.26.6037-3.3956.8966C116.2241,198.4855,116.2848,197.7121,116.3373,197.097Z" />
      <path class="cls-9" d="M128.9192,160.6c-1.0311-1.4457-2.6386-1.751-3.6009-.6512A3.5569,3.5569,0,0,1,128.9192,160.6Z" />
      <path class="cls-9" d="M139.4032,196.4949c-.1043-.3025-.54-.691-.4346-.3856a7.1374,7.1374,0,0,1-.1937,4.8065c-.1422.2876-.0079.613.1349.3243A6.41,6.41,0,0,0,139.4032,196.4949Z" />
      <path class="cls-9" d="M79.2007,172.9985c-.3542-.7829-.9047-.7979-1.5392-.793-.44.0034-1.1858.2171-1.2982.7436a5.9415,5.9415,0,0,0,.0568,2.7561,1.8492,1.8492,0,0,0,2.0474,1.4424c.8284-.1875.9607-.9377.9729-1.6821.003-.1854,0-.3708,0-.5563A4.3786,4.3786,0,0,0,79.2007,172.9985Z" />
      <path class="cls-9" d="M93.4212,161.4033a4.5394,4.5394,0,0,0-4.3437-4.6532,4.9951,4.9951,0,0,0-5.22,4.7659,4.8289,4.8289,0,0,0,4.6784,4.8318A4.77,4.77,0,0,0,93.4212,161.4033Z" />
      <path class="cls-9" d="M98.4931,176.5935a1.7871,1.7871,0,0,0,2.0884-.537,4.68,4.68,0,0,0,.9611-2.64c-.0114-.1849-.0085-.3719-.0365-.5542-.1441-.9392-.8332-1.7743-1.5153-1.745-.916.0392-1.2173.7466-1.4053,1.4912-.1957.7753-.3494,1.5619-.5,2.3477C97.97,175.5585,97.7625,176.21,98.4931,176.5935Z" />
      <path class="cls-9" d="M95.7167,193.1769c-.8076-6.4424-1.2457-12.913-1.6044-19.391a8.0307,8.0307,0,0,1-.1449-2.2955c.4113.0382.292.3493.3259.5625.12.7563.21,1.515.282,2.2751a.2133.2133,0,0,1,.1163.0462,7.96,7.96,0,0,0,2.8855,1.4351,2.62,2.62,0,0,1,.0416-.65c.2-1.09.4715-2.1675.72-3.2488l-.01-.0015a3.2432,3.2432,0,0,1-1.6872-1.2813c-.5217-.6346-1.0147-1.2959-1.5894-1.885a7.4631,7.4631,0,0,0-5.1515-2.0977,5.7886,5.7886,0,0,1-1.434.1557c-.1128-.0016-.2254-.0082-.3377-.017a14.7553,14.7553,0,0,0-3.3584.6671,5.5566,5.5566,0,0,0-2.2568,1.7214c-1.0113,1.1742-1.8763,2.5114-3.3619,3.1175a1.9192,1.9192,0,0,1,.6511,1.2528,6.8025,6.8025,0,0,1,.0209,2.121,3.2319,3.2319,0,0,1-.1579.723c.7582-.2262,1.5064-.4818,2.24-.78a5.1391,5.1391,0,0,0,.7527-.3266,3.31,3.31,0,0,0,.4393-.4492.8037.8037,0,0,1,.24-.18c-.0038-.4985-.0063-.997-.004-1.4954.0013-.288-.077-.6111.2809-.8624.0142,1.5036.3589,2.982.26,4.4951-.2548,3.8846-.4,7.7778-.7338,11.6551-.2429,2.8252-.2265,5.672-.7045,8.479a1.852,1.852,0,0,0,1.8633,2.2219,1.642,1.642,0,0,0,1.9634-1.3254c.3845-1.3734.91-6.61,1.4673-10.9529a3.5234,3.5234,0,0,1,.4643-1.5822.9032.9032,0,0,1,1.671.0222c.743,1.2858,1.8,9.4593,2.3045,12.0951a1.7768,1.7768,0,0,0,2.4676,1.5161,1.476,1.476,0,0,0,1.1517-1.4816A18.0922,18.0922,0,0,0,95.7167,193.1769Z" />
      <path class="cls-8" d="M79.2007,172.9985c-.3542-.7829-.9047-.7979-1.5392-.793-.44.0034-1.1858.2171-1.2982.7436a5.9415,5.9415,0,0,0,.0568,2.7561,1.8492,1.8492,0,0,0,2.0474,1.4424c.8284-.1875.9607-.9377.9729-1.6821.003-.1854,0-.3708,0-.5563A4.3786,4.3786,0,0,0,79.2007,172.9985Z" />
      <path class="cls-8" d="M93.4212,161.4033a4.5394,4.5394,0,0,0-4.3437-4.6532,4.9951,4.9951,0,0,0-5.22,4.7659,4.8289,4.8289,0,0,0,4.6784,4.8318A4.77,4.77,0,0,0,93.4212,161.4033Z" />
      <path class="cls-8" d="M98.4931,176.5935a1.7871,1.7871,0,0,0,2.0884-.537,4.68,4.68,0,0,0,.9611-2.64c-.0114-.1849-.0085-.3719-.0365-.5542-.1441-.9392-.8332-1.7743-1.5153-1.745-.916.0392-1.2173.7466-1.4053,1.4912-.1957.7753-.3494,1.5619-.5,2.3477C97.97,175.5585,97.7625,176.21,98.4931,176.5935Z" />
      <path class="cls-8" d="M95.7167,193.1769c-.8076-6.4424-1.2457-12.913-1.6044-19.391a8.0307,8.0307,0,0,1-.1449-2.2955c.4113.0382.292.3493.3259.5625.12.7563.21,1.515.282,2.2751a.2133.2133,0,0,1,.1163.0462,7.96,7.96,0,0,0,2.8855,1.4351,2.62,2.62,0,0,1,.0416-.65c.2-1.09.4715-2.1675.72-3.2488l-.01-.0015a3.2432,3.2432,0,0,1-1.6872-1.2813c-.5217-.6346-1.0147-1.2959-1.5894-1.885a7.4631,7.4631,0,0,0-5.1515-2.0977,5.7886,5.7886,0,0,1-1.434.1557c-.1128-.0016-.2254-.0082-.3377-.017a14.7553,14.7553,0,0,0-3.3584.6671,5.5566,5.5566,0,0,0-2.2568,1.7214c-1.0113,1.1742-1.8763,2.5114-3.3619,3.1175a1.9192,1.9192,0,0,1,.6511,1.2528,6.8025,6.8025,0,0,1,.0209,2.121,3.2319,3.2319,0,0,1-.1579.723c.7582-.2262,1.5064-.4818,2.24-.78a5.1391,5.1391,0,0,0,.7527-.3266,3.31,3.31,0,0,0,.4393-.4492.8037.8037,0,0,1,.24-.18c-.0038-.4985-.0063-.997-.004-1.4954.0013-.288-.077-.6111.2809-.8624.0142,1.5036.3589,2.982.26,4.4951-.2548,3.8846-.4,7.7778-.7338,11.6551-.2429,2.8252-.2265,5.672-.7045,8.479a1.852,1.852,0,0,0,1.8633,2.2219,1.642,1.642,0,0,0,1.9634-1.3254c.3845-1.3734.91-6.61,1.4673-10.9529a3.5234,3.5234,0,0,1,.4643-1.5822.9032.9032,0,0,1,1.671.0222c.743,1.2858,1.8,9.4593,2.3045,12.0951a1.7768,1.7768,0,0,0,2.4676,1.5161,1.476,1.476,0,0,0,1.1517-1.4816A18.0922,18.0922,0,0,0,95.7167,193.1769Z" />
      <path class="cls-9" d="M116.9944,188.88a34.411,34.411,0,0,0-2.059-2.88,20.2143,20.2143,0,0,1-1.7505-4.4565,77.3782,77.3782,0,0,0-2.917-8.6178,7.7528,7.7528,0,0,0-4.585-4.5865c-2.1737-.701-4.2139.5633-5.5617,2.1785a.2494.2494,0,0,0-.0593.1813,1.4716,1.4716,0,0,0-.834.1694,4.1914,4.1914,0,0,0-.7532.4128c-.0117-.0052-.024.24-.0379.2364-.9312-.2273-1.5032-1.4231-2.0714-2.1259a11.4165,11.4165,0,0,0-1.8527-1.9277,7.1886,7.1886,0,0,0-3.6682-1.1395,5.2531,5.2531,0,0,0,3.04-5.0354c.17-2.8652-2.909-5.36-5.1878-5.2631-2.7559.117-5.55,2.8082-5.56,5.3692a5.13,5.13,0,0,0,3.5054,5.1414,6.3789,6.3789,0,0,0-3.8075,1.6951c-.2611.253-.5152.53-.7691.8157a4.43,4.43,0,0,0-2.1438-.1212c-1.5659.3-3.0048,1.2289-2.9909,2.9588-.065.0163-.1289.033-.19.05a1.4145,1.4145,0,0,0-.9438,1.1275,6.1487,6.1487,0,0,0,.2291,2.6677,2.2822,2.2822,0,0,0,.9625,1.4266,2.368,2.368,0,0,0,.394.2152,2.5159,2.5159,0,0,0,.2757.0983.2468.2468,0,0,0-.0336.0667,22.3638,22.3638,0,0,1-1.7753,4.939,37.8981,37.8981,0,0,1-2.9629,4.4158,23.6074,23.6074,0,0,0-4.5609,9.035c-.7511,3.5311-.67,4.4443,1.3819,7.4922q-.3466.0862-.6928.1789c-3.6448.9785-7.2885,2.4276-11.0524,2.8736-2.1422.2538-4.6394-.1252-6.2131-1.7206-1.0671-1.0818-.4024-2.7149.3977-3.7326.5273-.6708,1.3267-1.0489,1.837-1.7512.19-.2611-.2439-.51-.4312-.2521-.8058,1.1091-2.0385,1.5989-2.5438,2.9618a2.7954,2.7954,0,0,0,.2014,2.9016c1.6835,2.0441,5.5491,2.3985,8.0021,2.0321,3.6238-.5413,6.42-1.8286,9.935-2.8311.2843-.081.5736-.1584.8651-.2338.1294.1727.2639.3435.4065.5112,2.0016,2.3548,5.3131,2.6347,8.194,2.7022,1.5531.0365,4.1469.1212,5.14-1.3812,1.1584-1.7531-3.31-2.9831-4.2322-3.0781a28.0155,28.0155,0,0,0-9.32.7007,10.4565,10.4565,0,0,1-1.2079-2.3434c-1.3615-3.6785.48-7.9672,2.4047-11.0812,1.8123-2.9318,4.174-5.4453,5.6112-8.6142a23.2312,23.2312,0,0,0,1.098-3.5919.2554.2554,0,0,0,.007-.1068,2.7439,2.7439,0,0,0,.3019.0174.9087.9087,0,0,0,.3456-.0726,1.24,1.24,0,0,0,.4047-.2788,1.8975,1.8975,0,0,0,.2933-.3849.1945.1945,0,0,0,.1092-.0014,23.6643,23.6643,0,0,0,2.5654-.6425,4.1074,4.1074,0,0,0,.8942-.4179,2.6427,2.6427,0,0,0,.3146-.3613c.01,1.2151-.2285,2.18-.2668,3.3939-.1309,4.1406-.6249,8.2587-.8107,12.3991a34.6747,34.6747,0,0,1-.4743,5.2486,2.6344,2.6344,0,0,0,1.6157,2.9493,2.79,2.79,0,0,0,2.281-.05,2.4086,2.4086,0,0,0,1.3852-1.93c.2936-3.101,1.4141-10.765,1.5184-11.4985.0522-.3674.05-.37.4218-.431.4017-.0662.525.0355.6469.2978.1814.39.9777,5.8353,1.459,8.13.2911,1.388.1551,2.8166.6323,4.1613a2.2284,2.2284,0,0,0,2.326,1.3622,2.4374,2.4374,0,0,0,1.5842-.6226,1.79,1.79,0,0,0,.2926-.39c.1191-.2116.7016-1.0906.4695-3.8155-.2795-3.2806-1.136-10.2725-1.45-16.6053q.3815.1.7662.1664c1.2169.2092,2.9048.1359,3.5805-1.06a2.4171,2.4171,0,0,0,.5441-.0888,2.0649,2.0649,0,0,0,.4565-.195,2.3274,2.3274,0,0,0,.6684-.5917,4.9765,4.9765,0,0,0,.8875-3.5959,2.2373,2.2373,0,0,0-1.3625-1.8279c1.7929-2.1171,4.2385-2.8294,6.6727-1.2185,2.0424,1.3517,2.94,4.1009,3.7006,6.2889.857,2.4661,1.5252,4.9947,2.3577,7.4689a16.813,16.813,0,0,0,1.4871,3.2679,29.4324,29.4324,0,0,1,1.8312,2.4988C116.6987,189.424,117.1291,189.17,116.9944,188.88ZM80.6173,203.3077a4.77,4.77,0,0,1,2.6222,1.5442c.555.7214-.6773,1.1769-1.1378,1.3422a10.7763,10.7763,0,0,1-3.9606.3537,13.1206,13.1206,0,0,1-5.5849-1.1189,6.173,6.173,0,0,1-2.0435-1.7111A22.2917,22.2917,0,0,1,80.6173,203.3077Zm3.24-41.7917a4.995,4.995,0,0,1,5.22-4.7658,4.5392,4.5392,0,0,1,4.3436,4.653,4.77,4.77,0,0,1-4.8856,4.9446A4.829,4.829,0,0,1,83.8572,161.516Zm-1.3436,7.6567a5.5577,5.5577,0,0,1,2.2568-1.7215,14.7562,14.7562,0,0,1,3.3584-.667c.1124.0088.2249.0154.3377.017a5.7886,5.7886,0,0,0,1.434-.1557,7.4629,7.4629,0,0,1,5.1515,2.0977c.5746.5891,1.0677,1.25,1.5895,1.885a3.2438,3.2438,0,0,0,1.6871,1.2814l.01.0013c-.2484,1.0814-.52,2.1586-.72,3.2489a2.62,2.62,0,0,0-.0416.65,7.9591,7.9591,0,0,1-2.8854-1.4351.2136.2136,0,0,0-.1163-.0462c-.0716-.76-.1618-1.5188-.2821-2.2751-.0338-.2132.0854-.5243-.3259-.5625a8.0343,8.0343,0,0,0,.145,2.2955q.0965,1.7432.2039,3.4854a15.8564,15.8564,0,0,1-2.1561-1.0264,28.342,28.342,0,0,1-3.7247-2.9694c-1.0557-.8762-2.1515-1.6965-3.2678-2.4933a12.68,12.68,0,0,0-2.6744-1.5856Zm-.8925.3776a7.9756,7.9756,0,0,1-2.8747,2.3681c-.1729.068-.1123.0835-.3273.0132a3.3842,3.3842,0,0,0-.5268-.1415,1.7417,1.7417,0,0,0-.461-.0009C77.4761,169.6071,79.7229,169.2,81.6211,169.55Zm-2.18,5.3589c0,.1855.0026.3709,0,.5563-.0121.7444-.1446,1.4946-.9728,1.6821a1.8493,1.8493,0,0,1-2.0475-1.4424,5.94,5.94,0,0,1-.0567-2.7561c.1124-.5265.8582-.74,1.2981-.7436.6345-.0049,1.1851.01,1.5392.793A4.3771,4.3771,0,0,1,79.4408,174.9092Zm16.2759,18.2677a18.0922,18.0922,0,0,1,.0725,4.2587,1.4759,1.4759,0,0,1-1.1517,1.4816,1.7767,1.7767,0,0,1-2.4675-1.5161c-.5046-2.6358-1.5616-10.8093-2.3046-12.0951a.9032.9032,0,0,0-1.6709-.0222,3.5222,3.5222,0,0,0-.4643,1.5822c-.5573,4.3428-1.0829,9.5795-1.4674,10.9529a1.6418,1.6418,0,0,1-1.9634,1.3253,1.8519,1.8519,0,0,1-1.8633-2.2219c.4781-2.8069.4615-5.6536.7045-8.4789.3334-3.8773.4791-7.77.7339-11.6551.0992-1.5131-.2455-2.9915-.26-4.4951-.3578.2513-.2795.5744-.2808.8624-.0024.4983,0,.9968.0039,1.4954a.8049.8049,0,0,0-.24.18,3.31,3.31,0,0,1-.4393.4492,5.1452,5.1452,0,0,1-.7527.3266c-.7332.2986-1.4814.5543-2.24.78a3.2319,3.2319,0,0,0,.1579-.723,6.8025,6.8025,0,0,0-.0209-2.121,1.9192,1.9192,0,0,0-.6511-1.2528,7.8984,7.8984,0,0,0,2.9558-2.6319,5.3016,5.3016,0,0,1,1.33.5282,46.9283,46.9283,0,0,1,6.7318,5.222,12.4827,12.4827,0,0,0,4.1813,2.4249C94.671,182.9586,95.0774,188.0767,95.7167,193.1769Zm-.7684-15.6837c-.037-.8234-.0647-1.6341-.08-2.421a6.8513,6.8513,0,0,0,2.7341,1.1666.2154.2154,0,0,0,.0556.0062,1.2106,1.2106,0,0,0,.4834.6415,1.3106,1.3106,0,0,0,.3552.163,1.697,1.697,0,0,0,.2424.0523C97.9655,178.11,96.4056,177.9583,94.9483,177.4932Zm6.5578-4.6305c.028.1823.0251.3693.0365.5542a4.6806,4.6806,0,0,1-.961,2.64,1.6918,1.6918,0,0,1-1.2858.6722.2255.2255,0,0,0-.3093-.001,1.3146,1.3146,0,0,1-.4934-.1342c-.7306-.3834-.5232-1.035-.4077-1.6369.1507-.7858.3044-1.5724.5-2.3477.1879-.7446.4893-1.452,1.4052-1.4912C100.6729,171.0884,101.362,171.9235,101.5061,172.8627Z" />
      <path class="cls-9" d="M75.0964,176.2388a8.505,8.505,0,0,1-.12-2.2145c.0318-.5528.0966-1.1037.1411-1.6559.0187-.2309-.0289-.48-.2956-.4845-.2543-.004-.1981.2547-.206.43-.0209.4622-.0733.9262-.0515,1.3866C74.6053,174.5706,74.3978,175.4949,75.0964,176.2388Z" />
      <path class="cls-9" d="M103.335,174.6994a4.3837,4.3837,0,0,0-.5833-3.8722A15.6247,15.6247,0,0,1,103.335,174.6994Z" />
      <path class="cls-9" d="M74.9008,198.6646a10.02,10.02,0,0,0,3.91.0913A11.7368,11.7368,0,0,0,74.9008,198.6646Z" />
      <path class="cls-9" d="M99.1081,198.6305a9.902,9.902,0,0,0-2.511.0035c.8217.4738,1.6964.149,2.4647.4441.1615.0621.3986.1189.4285-.1441C99.5162,198.7054,99.2774,198.6551,99.1081,198.6305Z" />
      <path class="cls-9" d="M71.82,185.8746a34.33,34.33,0,0,0-3.6434,5.9368c-.1219.2982.3615.177.4816-.117a31.2154,31.2154,0,0,1,3.515-5.4667A.25.25,0,0,0,71.82,185.8746Z" />
      <path class="cls-9" d="M68.1158,172.3677a28.9844,28.9844,0,0,1-7.4279,3.9369c-1.0226.3443-2.0735-.0039-3.1149.0759-.7629.0585-.1111-.9045-.67-1.2049a3.65,3.65,0,0,0-.2578,1.8565c-.0325,2.6159,1.9019,21.18,1.7713,22.2722a10.8291,10.8291,0,0,1-.1923,1.3952c-.2656,1.0407-.53,1.7583-2.3143,1.5912-1.1722-.11-1.52-.8408-1.6155-1.8327-.1761-1.8362-.8339-9.5492-1.3-11.5311-.1486-.6311-.4157-1.19-1.0376-1.219s-.9889.565-1.1416,1.12c-.2591.9421-.4267,8.692-.6772,11.58a2.29,2.29,0,0,1-2.0856,2.3212,2.0262,2.0262,0,0,1-2.2833-2.1591c.0213-2.4314.0759-3.0579.1616-4.9728.1251-2.7973.1843-5.5652.0955-8.3517a96.1653,96.1653,0,0,1,.3621-10.6331c.0178-.226.1639-.5044-.3049-.7594a13.6936,13.6936,0,0,0-.47,3.3667c-.1885,2.6763-.2006,5.354-.1558,8.0324-.445.11-1.5453-.0525-1.7391-.6479-.5876-1.805-.277-3.5765-.0078-5.6432a52.3884,52.3884,0,0,1,1.0673-5.8674c.3716-1.4962,1.5462-3.9588,3.4709-4.8768.2276-.1749.4251-.1684.61-.39a.2864.2864,0,0,1,.0556-.05,3.9414,3.9414,0,0,0,1.5965.2305,7.1012,7.1012,0,0,0,2.0554-.4426,32.5072,32.5072,0,0,1,3.947,1.3342c1.5853.5816,3.1653,1.2913,4.8909.4828,1.3016-.61,2.6012-1.224,3.9064-1.8261a8.1278,8.1278,0,0,1,1.1044-.4354,1.5191,1.5191,0,0,1,1.9709.6633A2.0481,2.0481,0,0,1,68.1158,172.3677Z" />
      <path class="cls-9" d="M46.1991,165.0625a4.4987,4.4987,0,0,1,8.9971.0423c.16,2.3894-2.3129,4.2727-4.7835,4.339A4.37,4.37,0,0,1,46.1991,165.0625Z" />
      <path class="cls-8" d="M68.1158,172.3677a28.9844,28.9844,0,0,1-7.4279,3.9369c-1.0226.3443-2.0735-.0039-3.1149.0759-.7629.0585-.1111-.9045-.67-1.2049a3.65,3.65,0,0,0-.2578,1.8565c-.0325,2.6159,1.9019,21.18,1.7713,22.2722a10.8291,10.8291,0,0,1-.1923,1.3952c-.2656,1.0407-.53,1.7583-2.3143,1.5912-1.1722-.11-1.52-.8408-1.6155-1.8327-.1761-1.8362-.8339-9.5492-1.3-11.5311-.1486-.6311-.4157-1.19-1.0376-1.219s-.9889.565-1.1416,1.12c-.2591.9421-.4267,8.692-.6772,11.58a2.29,2.29,0,0,1-2.0856,2.3212,2.0262,2.0262,0,0,1-2.2833-2.1591c.0213-2.4314.0759-3.0579.1616-4.9728.1251-2.7973.1843-5.5652.0955-8.3517a96.1653,96.1653,0,0,1,.3621-10.6331c.0178-.226.1639-.5044-.3049-.7594a13.6936,13.6936,0,0,0-.47,3.3667c-.1885,2.6763-.2006,5.354-.1558,8.0324-.445.11-1.5453-.0525-1.7391-.6479-.5876-1.805-.277-3.5765-.0078-5.6432a52.3884,52.3884,0,0,1,1.0673-5.8674c.3716-1.4962,1.5462-3.9588,3.4709-4.8768.2276-.1749.4251-.1684.61-.39a.2864.2864,0,0,1,.0556-.05,3.9414,3.9414,0,0,0,1.5965.2305,7.1012,7.1012,0,0,0,2.0554-.4426,32.5072,32.5072,0,0,1,3.947,1.3342c1.5853.5816,3.1653,1.2913,4.8909.4828,1.3016-.61,2.6012-1.224,3.9064-1.8261a8.1278,8.1278,0,0,1,1.1044-.4354,1.5191,1.5191,0,0,1,1.9709.6633A2.0481,2.0481,0,0,1,68.1158,172.3677Z" />
      <path class="cls-8" d="M46.1991,165.0625a4.4987,4.4987,0,0,1,8.9971.0423c.16,2.3894-2.3129,4.2727-4.7835,4.339A4.37,4.37,0,0,1,46.1991,165.0625Z" />
      <path class="cls-9" d="M42.9965,186.0706a2.3652,2.3652,0,0,0,.8553,1.517,3.4537,3.4537,0,0,0,1.616.2465c.02,1,.0456,2,.0724,3,.0817,3.0487-.3084,6.1607-.2686,9.2115.0145,1.1094-.1991,1.9275.8152,2.5693a3.2183,3.2183,0,0,0,2.97.326A2.2817,2.2817,0,0,0,50.62,200.73c.2775-3.1789.5543-11.0623.6992-11.806.0585-.3.2772-.66.6427-.6408.3325.017.37.3853.448.6634a100.5223,100.5223,0,0,1,1.2654,11.1011A2.8732,2.8732,0,0,0,54.71,202.52a2.9723,2.9723,0,0,0,3.367-.2886,4.7341,4.7341,0,0,0,.8624-3.496c-.0753-2.0256-1.5414-15.7693-1.7448-20.6522-.0194-.464-.3215-1.3416.57-1.2q.3727.0591.75.0856a8.3792,8.3792,0,0,0,4.5284-1.0412,44.4285,44.4285,0,0,0,5.5525-3.2438c1.2252-.82.5533-3.2721-.27-3.876a2.7574,2.7574,0,0,0-2.7784-.044c-.7222.3322-1.95.9648-2.6331,1.37a5.9925,5.9925,0,0,1-6.5716.1278,15.1,15.1,0,0,0-3.153-.9584l-.0226-.0035a4.4664,4.4664,0,0,0,2.584-4.1665,5.0979,5.0979,0,0,0-4.7351-5.0189c-3.5172-.2731-5.3546,2.1987-5.3533,5.0466a5.0878,5.0878,0,0,0,2.7741,4.4118,8.066,8.066,0,0,0-3.6969,3.9028,40.1713,40.1713,0,0,0-1.5927,7.6319A13.6091,13.6091,0,0,0,42.9965,186.0706Zm7.4162-16.6268a4.37,4.37,0,0,1-4.2136-4.3813,4.4987,4.4987,0,0,1,8.9971.0423C55.3557,167.4942,52.8833,169.3775,50.4127,169.4438ZM43.71,180.9617a52.3884,52.3884,0,0,1,1.0673-5.8674c.3715-1.4962,1.5462-3.9588,3.4709-4.8768.2276-.1749.4251-.1684.61-.39a.2864.2864,0,0,1,.0556-.05,3.9414,3.9414,0,0,0,1.5965.2305,7.1045,7.1045,0,0,0,2.0554-.4426,32.5072,32.5072,0,0,1,3.947,1.3342c1.5853.5816,3.1653,1.2913,4.8909.4828,1.3016-.61,2.6012-1.224,3.9064-1.8262a8.14,8.14,0,0,1,1.1044-.4353,1.5191,1.5191,0,0,1,1.9709.6633,2.0481,2.0481,0,0,1-.2694,2.584,28.9844,28.9844,0,0,1-7.4279,3.9369c-1.0226.3443-2.0735-.0039-3.1149.0759-.7629.0585-.1111-.9045-.67-1.2049a3.65,3.65,0,0,0-.2578,1.8565c-.0325,2.6159,1.9019,21.18,1.7713,22.2722a10.8291,10.8291,0,0,1-.1923,1.3952c-.2656,1.0407-.53,1.7583-2.3143,1.5912-1.1722-.11-1.52-.8408-1.6155-1.8327-.1761-1.8362-.8339-9.5492-1.3-11.5311-.1486-.6311-.4157-1.19-1.0376-1.219s-.9889.565-1.1416,1.12c-.2592.9421-.4267,8.692-.6772,11.58a2.29,2.29,0,0,1-2.0856,2.3212,2.0262,2.0262,0,0,1-2.2833-2.1591c.0213-2.4314.0758-3.0579.1616-4.9728.1251-2.7973.1843-5.5652.0955-8.3517a96.1653,96.1653,0,0,1,.3621-10.6331c.0178-.226.1639-.5044-.3049-.7594a13.6936,13.6936,0,0,0-.47,3.3667c-.1885,2.6763-.2006,5.354-.1559,8.0324-.4449.11-1.5452-.0525-1.739-.6479C43.1305,184.8,43.4411,183.0284,43.71,180.9617Z" />
      <path class="cls-9" d="M69.845,170.4223c-.0954-1.4148-.649-1.6293-1.136-2.6079a3.37,3.37,0,0,1,1.6451,2.3374.3084.3084,0,0,1-.1759.4409A.2277.2277,0,0,1,69.845,170.4223Z" />
      <path class="cls-9" d="M61.3014,202.7314a4.0457,4.0457,0,0,1-2.5644.0108A3.5871,3.5871,0,0,1,61.3014,202.7314Z" />
      <path class="cls-9" d="M45.388,202.7314a4.0457,4.0457,0,0,1-2.5644.0108A3.5871,3.5871,0,0,1,45.388,202.7314Z" />
      <path class="cls-9" d="M64.2522,179.37a16.859,16.859,0,0,1,.5455,2.4924,23.2873,23.2873,0,0,1,.1468,5.7379,12.6156,12.6156,0,0,1-6.0564,8.7371c-.2742.1689-.5262-.2631-.252-.4292,3.3425-2.041,5.9318-5.6688,5.8681-9.6787a27.7445,27.7445,0,0,0-.5345-5.9816c-.0388-.1662-.0831-.3351-.1274-.5041a22.54,22.54,0,0,1-8.8368,4.6137,15.9044,15.9044,0,0,1-10.4762-.5816,11.1846,11.1846,0,0,1-3.78-2.7693,11.0712,11.0712,0,0,1-2.6973-4.3394.0366.0366,0,0,1-.0083-.0222,20.8305,20.8305,0,0,1-1.36-7.7374,35.6959,35.6959,0,0,1,1.6284-10.5537,62.0862,62.0862,0,0,1,4.4308-10.2076,45.02,45.02,0,0,0,4.273-10.0719,15.1069,15.1069,0,0,0-.72-10.21c-.191-.3822.3822-.72.5733-.3379a16.08,16.08,0,0,1,.6563,11.2433,50.0071,50.0071,0,0,1-4.3866,10.0525,57.4545,57.4545,0,0,0-4.3671,10.3156,34.2388,34.2388,0,0,0-1.4151,10.52,17.6735,17.6735,0,0,0,2.8939,9.7147.2994.2994,0,0,1,.0581.1606c.4874.6092.9028.9886,1.0718,1.2074,1.77,2.3234,4.3865,3.0656,7.0561,3.4422,4.4059.6231,8.4546-.6508,12.26-2.8136a17.8592,17.8592,0,0,0,3.0158-2.1129,17.3189,17.3189,0,0,1-.7477-3.6943c-.0111-.3212.4874-.3212.5012,0a14.7658,14.7658,0,0,0,.6508,3.3232,11.9621,11.9621,0,0,0,2.2653-2.9216A5.7886,5.7886,0,0,0,67.24,171.68c-.18-.8751-.1135-2.4674-2.5255-3.1764a2.124,2.124,0,0,0-2.62,1.753c-.0277.3157.5954.7034-.0111.6868-.4458-.0111-.479-.3961-.468-.8253a2.3009,2.3009,0,0,1,1.9-2.0382c1.4344-.2852,3.0489-.31,3.9794,2.8385a6.8213,6.8213,0,0,1-.9831,5.8322A17.347,17.347,0,0,1,64.2522,179.37Z" />
      <path class="cls-10" d="M41.6582,120.0306c.7124-.0069,7.9388-.1181,9.2145-.4382,2.8009-.703,3.9959-3.3918,4.3616-4.1236,3.0034-6.01,4.7127-10.3348,4.8525-16.3174.0532-2.2749-1.19-8.1159-4.8661-10.9931-3.151-2.4666-9.3561-4.0674-15.0172-2.3826a14.43,14.43,0,0,0-6.87,4.3456c-2.7123,3.0915-4.6179,7.0822-3.1842,13.4481a33.2967,33.2967,0,0,0,1.839,5.25,36.1706,36.1706,0,0,0,5.33,8.045C40.1544,120.1121,39.8405,119.8873,41.6582,120.0306Z" />
      <path class="cls-10" d="M55.2207,88.1583a10.6334,10.6334,0,0,0-.936-.6511,12.55,12.55,0,0,1,1.1267,1.4277,14.86,14.86,0,0,1,2.27,6.136,7.59,7.59,0,0,1,.11,1.5764,14.7934,14.7934,0,0,1-3.4057,9.6641A8.0174,8.0174,0,0,1,53.46,107.39a19.7272,19.7272,0,0,1-2.3045,2.2112,6.9362,6.9362,0,0,1-.9907.5349,22.0636,22.0636,0,0,1-8.4488,1.877,36.9114,36.9114,0,0,1-4.2075-.1,14.6365,14.6365,0,0,1-4.1444-1.2586q-.312-.1278-.6141-.2787a41.0318,41.0318,0,0,0,4.5681,6.4882c2.8364,3.2478,2.5225,3.023,4.34,3.1663.7124-.0069,7.9388-.1181,9.2145-.4382,2.8009-.703,3.9959-3.3918,4.3616-4.1236,3.0034-6.01,4.7127-10.3348,4.8525-16.3174C60.14,96.8765,58.8963,91.0355,55.2207,88.1583Z" />
      <path class="cls-11" d="M40.8709,87.753c-11.1541.7342-10.21,15.3563.9624,14.6209C52.9874,101.64,52.0435,87.0176,40.8709,87.753Z" />
      <path class="cls-12" d="M41.0769,123.4978c-.0528-.025-.1109-.05-.17-.0759.6827,3.541,1.88,3.5729,6.9754,3.3827,2.982-.1112,2.6915-.72,3.703-4.0242a9.8993,9.8993,0,0,1-4.197,1.3946C45.7157,124.3319,42.6287,124.2331,41.0769,123.4978Z" />
      <path class="cls-12" d="M40.9062,120.4375a3.0855,3.0855,0,0,1-.9375-.229l.0183.0434a13.2268,13.2268,0,0,1,.759,2.32c.17.0542.3591.2527.5177.3182,2.61,1.0776,7.6691.9447,10.1975-.4112.0834-.0448.169-.0858.2553-.1251.1825-.6381.2986-1.9838.4226-2.66a9.835,9.835,0,0,1-1.1637.2781A44.0051,44.0051,0,0,1,40.9062,120.4375Z" />
      <path class="cls-13" d="M47.433,124.88a7.0259,7.0259,0,0,1-1.4025.4531,12.3271,12.3271,0,0,1-2.5113.3851,12.6408,12.6408,0,0,1-1.8692-.1162c.8838,1.3606,2.5269,1.3413,6.2323,1.203,2.982-.1112,2.6915-.72,3.703-4.0242a7.6556,7.6556,0,0,1-2.0484.9443A14.2728,14.2728,0,0,1,47.433,124.88Z" />
      <path class="cls-13" d="M51.4489,122.0705a10.2774,10.2774,0,0,1-.7605.7571,6.6192,6.6192,0,0,0,.7728-.3487c.0834-.0448.169-.0858.2553-.1251a6.994,6.994,0,0,0,.1578-.79Q51.6723,121.823,51.4489,122.0705Z" />
      <path class="cls-14" d="M43.3677,120.48c-.1925-1.6906-3.39-10.5649-4.2912-13.0508a5.4075,5.4075,0,0,1-.4893-2.1692,1.3316,1.3316,0,0,1,.8512-1.2477c.5118-.2073.8507.0379,1.2075.4066a25.5489,25.5489,0,0,0,2.2477,2.1242,3.2608,3.2608,0,0,0,4.4544-.2308c.31-.2912.5807-.6248.8617-.9458a6.33,6.33,0,0,1,2.2509-1.7626c.5878-.25.9916-.1087.9767.6163a4.4187,4.4187,0,0,1-.1074.95c-.8528,3.4921-1.2522,7.0674-1.9458,10.5889-.2156,1.0948-.2322,3.0485-.3986,4.3935.5855-.4009.4463.0926.4794-.2092.3106-2.83.9249-7.2781,1.4244-10.0775.3305-1.8521.7191-3.6969.9634-5.5605.1409-1.0743-.5112-1.5-1.5272-1.1077a7.4485,7.4485,0,0,0-2.8281,2.3587,3.0838,3.0838,0,0,1-4.7671.299c-.6559-.6005-1.2852-1.2313-1.9076-1.867a1.3036,1.3036,0,0,0-1.64-.3643,1.769,1.769,0,0,0-1.0269,1.5176,8.4131,8.4131,0,0,0,.2967,2.2849c.5346,1.3942,3.9619,9.6082,4.2286,12.5741C42.91,120.5857,42.6866,119.88,43.3677,120.48Z" />
      <path class="cls-9" d="M39.9687,120.2085a3.0855,3.0855,0,0,0,.9375.229,44.0051,44.0051,0,0,0,10.0692-.4658,9.835,9.835,0,0,0,1.1637-.2781c.0058-.0318.0117-.064.0175-.0926.009-.0439.11-.0689.2448-.1468.0136.0426.0242.0885.0349.1344a4.2583,4.2583,0,0,0,2.186-1.782c1.7278-2.8568,5.787-10.619,6.0645-17.2706.3811-9.138-5.21-16.7456-16.7464-15.9754a17.94,17.94,0,0,0-6.5392,1.6319,13.8187,13.8187,0,0,0-7.4182,8.0151c-1.557,4.394-2.5018,10.9266,6.0577,22.3058,1.7031,1.9189,2.6271,3.02,3.2436,3.6492.1566.2786.2712.3638.285.3577C39.821,120.4074,39.8942,120.033,39.9687,120.2085Zm-2.6507-3.3442a36.1706,36.1706,0,0,1-5.33-8.045,33.2967,33.2967,0,0,1-1.839-5.25c-1.4337-6.3659.4719-10.3566,3.1842-13.4481a14.43,14.43,0,0,1,6.87-4.3456c5.6611-1.6848,11.8662-.084,15.0172,2.3826,3.6756,2.8772,4.9193,8.7182,4.8661,10.9931-.14,5.9826-1.8491,10.3073-4.8525,16.3174-.3657.7318-1.5607,3.4206-4.3616,4.1236-1.2757.32-8.5021.4313-9.2145.4382C39.8405,119.8873,40.1544,120.1121,37.318,116.8643Z" />
      <path class="cls-9" d="M52.4363,119.5886c-.0107-.0459-.0213-.0918-.0349-.1344-.1345.0779-.2358.1029-.2448.1468-.0058.0286-.0117.0608-.0175.0926-.124.6764-.24,2.0221-.4226,2.66q.1068-.0489.2149-.0948c.018-.0076.0576.0358.154.1a3.3381,3.3381,0,0,1-.5.4213c-1.0115,3.3045-.721,3.913-3.703,4.0242-5.0954.19-6.2927.1583-6.9754-3.3827-.3174-.1391-.6694-.31-.447-.7153a.2219.2219,0,0,1,.2861-.1347,13.2268,13.2268,0,0,0-.759-2.32l-.0183-.0434c-.0745-.1755-.1806-.3907-.4323-.2779a.4034.4034,0,0,0-.0383.02c-.2031.1185-.151.3483-.0651.5353.6429,1.3987.84,2.9366,1.3713,4.3694a3.9172,3.9172,0,0,0,1.179,1.9183,4.7584,4.7584,0,0,0,1.4471.53,6.1654,6.1654,0,0,0,.7714.1263,28.9746,28.9746,0,0,0,3.5894-.0252,8.06,8.06,0,0,0,1.8209-.2134,2.7808,2.7808,0,0,0,1.7811-1.7461,13.0618,13.0618,0,0,0,.72-2.58A9.4622,9.4622,0,0,0,52.4363,119.5886Z" />
      <path class="cls-9" d="M41.2637,122.89c-.1586-.0655-.3472-.264-.5177-.3182a.2219.2219,0,0,0-.2861.1347c-.2224.4051.13.5762.447.7153.0591.0259.1172.0509.17.0759,1.5518.7353,4.6388.8341,6.3114.6772a9.8993,9.8993,0,0,0,4.197-1.3946,3.3327,3.3327,0,0,0,.5-.4214c-.0964-.0642-.1361-.1076-.154-.1q-.108.046-.2149.0948c-.0863.0393-.1719.08-.2553.1251C48.9328,123.8348,43.8734,123.9677,41.2637,122.89Z" />
      <path class="cls-9" d="M59.11,116.28a5.805,5.805,0,0,0,2.6057,1.6955A5.646,5.646,0,0,0,59.11,116.28Z" />
      <path class="cls-9" d="M50.8572,78.3309a4.0786,4.0786,0,0,0-.43,2.9433C50.5035,80.3712,51.1626,79.5694,50.8572,78.3309Z" />
      <path class="cls-9" d="M39.09,80.2248l-.2629.13a2.91,2.91,0,0,0,1.3106,2.0961Z" />
      <path class="cls-9" d="M64.0913,82.1557q-2.0042,2.0756-4.0084,4.1512l.1253.1359c1.409-1.3,2.7507-2.6742,4.068-4.0753Z" />
      <path class="cls-9" d="M69.8954,91.9157c-1.99.9673-4.22,1.45-5.9572,2.93A36.7829,36.7829,0,0,0,69.8954,91.9157Z" />
      <path class="cls-9" d="M67.4805,106.5126c-1.48-.4922-3.0735-.5221-4.5537-1.0645C64.2366,106.66,65.8768,106.4944,67.4805,106.5126Z" />
      <path class="cls-9" d="M28.5143,109.6852c-1.4522.57-2.695,1.5673-4.1792,2.0985C26.1171,111.8757,27.2709,110.6983,28.5143,109.6852Z" />
      <path class="cls-9" d="M26.4836,100.31c-2.1985.2529-4.4621-.0305-6.5916.79A36.7819,36.7819,0,0,0,26.4836,100.31Z" />
      <path class="cls-9" d="M31.6528,88.13c-.9485-1.2386-2.25-2.158-3.17-3.4381C28.886,86.43,30.3361,87.2143,31.6528,88.13Z" />
      <g class="cls-15">
        <path class="cls-16" d="M68.5529,150.6389h.0581a6.0176,6.0176,0,0,0,1.1161-.0831A9.898,9.898,0,0,1,68.5529,150.6389Zm-3.7939-9.4627a2.8075,2.8075,0,0,0-.0167-.5178C64.7479,140.8328,64.7534,141.0073,64.759,141.1762Z" />
        <path class="cls-16" d="M72.5434,130.5422c0,3.09,0,5.6687-.0277,7.8869-.0249,2.2016-.1052,4.0238-.1855,5.5109-.08,1.4483-.2686,4.2619-1.0966,5.5912a2.0824,2.0824,0,0,1-1.2656.9664,1.99,1.99,0,0,1-.23.0554l-.011.0028a9.898,9.898,0,0,1-1.1742.0831c-1.4151.0387-3.5641,0-4.6192,0a10.6751,10.6751,0,0,1-1.9523-.1053,2.829,2.829,0,0,1-2.5561-1.2517c-.62-1.26-.3184-2.8025-.2049-4.1345.0942-1.1133.1191-2.0632,1.4345-2.293a11.3128,11.3128,0,0,1,1.8416-.108c.7754,0,.8169,0,1.2738-.0277a.9314.9314,0,0,0,.432-.144.9962.9962,0,0,0,.4708-.6508,5.6252,5.6252,0,0,0,.0859-.7477,2.8075,2.8075,0,0,0-.0167-.5178v-.0444q-.0249-1.0218-.0387-2.1849c-.0277-2.2182-.0554-4.7964-.0554-7.8869,0-3.0933.0277-5.6688.0554-7.87.0249-2.1989.08-4.0238.1855-5.5109.08-1.465.2686-4.24,1.0994-5.5884.5871-.9111,1.2822-1.11,2.6225-1.11,1.31,0,2.0327.1994,2.6226,1.11a6.5774,6.5774,0,0,1,.695,2.0409c.1607.8917.2936,2.0825.4016,3.5475.08,1.4871.1606,3.312.1855,5.5109C72.5434,124.8734,72.5434,127.4489,72.5434,130.5422Z" />
        <path class="cls-16" d="M100.3443,120.5755c-.0249-1.4456-.1053-2.6557-.1856-3.6278a10.6411,10.6411,0,0,0-.4015-2.3372c-.4819-1.5065-1.0717-2.0825-3.3176-2.0825a11.4407,11.4407,0,0,0-1.5536.1c-1.8194.3378-2.0326,2.1794-2.1683,3.3314a25.6825,25.6825,0,0,0-.1856,2.8136c-.0277,1.13-.0526.41-.0526,1.9773v4.0431c-.0277,1.13-.0277,2.06-.0554,2.8136-.0249.7726-.08,1.368-.1329,1.825a5.35,5.35,0,0,1-.2132,1.0495.8974.8974,0,0,1-.2853.4016.7984.7984,0,0,1-.252-.4016,5.35,5.35,0,0,1-.2132-1.0495,14.06,14.06,0,0,1-.1329-1.825c-.0277-.7532-.0554-1.6837-.0554-2.8136-.0249-1.13-.0249-2.4785-.0249-4.0431q0-2.3512-.08-4.0432a17.4014,17.4014,0,0,0-.4015-2.8164c-.51-2.0991-1.7391-3.0711-4.7355-3.3286-.9388-.061-2.06-.1-3.373-.1a32.2754,32.2754,0,0,0-3.3453.1384c-1.8194.1994-3.0766.673-3.9074,1.9441-.9887,1.5258-1.177,4.2591-1.23,5.9456-.08,1.4456-.108,3.1515-.108,5.1924,0,2.0216.0277,3.7275.0554,5.1731.0249,1.4483.1052,2.6557.2132,3.6277a10.0664,10.0664,0,0,0,.4819,2.34c.5345,1.6449,1.6588,2.08,3.9074,2.08a20.4185,20.4185,0,0,1,2.5146.1191,1.8909,1.8909,0,0,1,1.98,1.7059,14.2657,14.2657,0,0,1,.1329,2.1212V142.99a8.8544,8.8544,0,0,1-.1052,1.188c-.0194.0886-.0416.1662-.0637.2354a.56.56,0,0,1-.5206.3794h-.0056a.6335.6335,0,0,1-.3738-.1c-.2936-.2188-.2936-1.188-.2936-1.4677-.0277-.4542-.0277-1.0883-.0277-1.861a11.3388,11.3388,0,0,0-.108-1.8443,1.6527,1.6527,0,0,0-1.6865-1.4871,20.2938,20.2938,0,0,0-2.1406-.1c-2.9964,0-3.6388.576-3.8521,2.916-.08.8308-.108,1.98-.108,3.4284a19.4854,19.4854,0,0,0,.2409,3.4478c.3213,1.6865,1.4179,2.4785,3.6943,2.7166a34.307,34.307,0,0,0,4.6551.1773c2.2985-.0665,5.0928-.2326,7.3913-.2326.7006,0,1.0661-.0167,1.0717-.0194.1883-.0693.1467-.1413.1744-.529.05-.6923.05-2.3151.0333-6.0979-.0056-1.5674-.0554-2.7942-.0277-3.7053a15.7709,15.7709,0,0,1,.1606-2.06,1.3149,1.3149,0,0,1,.3738-.8723,1.1044,1.1044,0,0,1,.6979-.1994h3.0213a5.13,5.13,0,0,0,3.32-.8114c.9886-.8917,1.2018-2.617,1.3625-3.7081.108-.9692.1883-2.1794.216-3.6056.0249-1.4095.0526-3.0933.0526-5.0955C100.372,121.6611,100.372,122.0238,100.3443,120.5755ZM84.3406,127.69a11.9555,11.9555,0,0,1-.28,2.196,1.8356,1.8356,0,0,1-.5566.9527,2.3,2.3,0,0,1-1.9579,0,1.8173,1.8173,0,0,1-.5594-.9527,8.6278,8.6278,0,0,1-.21-2.2015v-.0333c-.0692-.9692-.0692-2.2736-.0692-3.9684s0-3.0185.0692-3.9877v-.0333a8.6574,8.6574,0,0,1,.21-2.2015,1.8173,1.8173,0,0,1,.5594-.9527,2.5356,2.5356,0,0,1,1.9579,0,1.8356,1.8356,0,0,1,.5566.9527,12.2028,12.2028,0,0,1,.28,2.196Z" />
        <path class="cls-16" d="M94.8068,110.8717a9.5984,9.5984,0,0,0,1.6175.0958,9.9069,9.9069,0,0,0,1.6175-.0958c.8088-.1429,1.1526-.5484,1.2738-1.5022a22.5343,22.5343,0,0,0,0-3.8155c-.1212-.9538-.465-1.3593-1.2738-1.5022a9.9479,9.9479,0,0,0-1.6175-.0954,9.6381,9.6381,0,0,0-1.6175.0954c-.8088.1429-1.1727.5484-1.294,1.5022a22.5343,22.5343,0,0,0,0,3.8155C93.6341,110.3233,93.998,110.7288,94.8068,110.8717Z" />
      </g>
      <path class="cls-10" d="M67.7221,149.8081H67.78a6.0172,6.0172,0,0,0,1.116-.0831A9.8963,9.8963,0,0,1,67.7221,149.8081Zm-3.7939-9.4627a2.8169,2.8169,0,0,0-.0166-.5178C63.9171,140.002,63.9226,140.1765,63.9282,140.3454Z" />
      <path class="cls-10" d="M71.7126,129.7114c0,3.09,0,5.6687-.0277,7.8869-.0249,2.2016-.1052,4.0238-.1855,5.5109-.08,1.4483-.2686,4.2619-1.0966,5.5912a2.0824,2.0824,0,0,1-1.2656.9664,1.9927,1.9927,0,0,1-.23.0554l-.0111.0028a9.8963,9.8963,0,0,1-1.1742.0831c-1.4151.0387-3.5641,0-4.6192,0a10.6751,10.6751,0,0,1-1.9523-.1053,2.8288,2.8288,0,0,1-2.5561-1.2517c-.62-1.26-.3184-2.8025-.2049-4.1345.0942-1.1133.1191-2.0631,1.4345-2.293a11.3136,11.3136,0,0,1,1.8416-.108c.7754,0,.8169,0,1.2738-.0277a.9321.9321,0,0,0,.4321-.144.9961.9961,0,0,0,.4707-.6508,5.6232,5.6232,0,0,0,.0859-.7477,2.8169,2.8169,0,0,0-.0166-.5178v-.0443q-.0251-1.022-.0388-2.185c-.0277-2.2182-.0554-4.7964-.0554-7.8869,0-3.0933.0277-5.6688.0554-7.87.0249-2.1988.08-4.0238.1855-5.5109.08-1.465.2687-4.24,1.0994-5.5884.5871-.9111,1.2822-1.1105,2.6226-1.1105,1.31,0,2.0326.1994,2.6225,1.1105a6.58,6.58,0,0,1,.6951,2.0409c.1606.8917.2935,2.0825.4015,3.5475.08,1.4871.1606,3.3121.1855,5.5109C71.7126,124.0426,71.7126,126.6181,71.7126,129.7114Z" />
      <path class="cls-10" d="M99.5135,119.7447c-.0249-1.4456-.1052-2.6557-.1855-3.6278a10.6343,10.6343,0,0,0-.4016-2.3372c-.4818-1.5065-1.0717-2.0825-3.3176-2.0825a11.4419,11.4419,0,0,0-1.5536.1c-1.8194.3378-2.0326,2.1794-2.1683,3.3314a25.7343,25.7343,0,0,0-.1856,2.8136c-.0277,1.13-.0526.41-.0526,1.9773v4.0431c-.0277,1.13-.0277,2.06-.0554,2.8136-.0249.7727-.08,1.368-.1329,1.825a5.3485,5.3485,0,0,1-.2132,1.0495.8974.8974,0,0,1-.2853.4016.798.798,0,0,1-.252-.4016,5.3485,5.3485,0,0,1-.2132-1.0495,14.0589,14.0589,0,0,1-.1329-1.825c-.0277-.7532-.0554-1.6837-.0554-2.8136-.0249-1.13-.0249-2.4785-.0249-4.0431q0-2.3511-.08-4.0432a17.399,17.399,0,0,0-.4016-2.8163c-.5095-2.0992-1.7391-3.0712-4.7355-3.3287-.9388-.0609-2.06-.1-3.373-.1a32.3034,32.3034,0,0,0-3.3453.1384c-1.8194.1994-3.0766.673-3.9074,1.9441-.9886,1.5259-1.177,4.2592-1.23,5.9456-.08,1.4456-.108,3.1515-.108,5.1924,0,2.0216.0277,3.7275.0554,5.1731.0249,1.4483.1052,2.6557.2132,3.6277a10.0769,10.0769,0,0,0,.4819,2.34c.5345,1.6449,1.6588,2.08,3.9075,2.08a20.4178,20.4178,0,0,1,2.5145.1191,1.8909,1.8909,0,0,1,1.98,1.7059,14.2657,14.2657,0,0,1,.1329,2.1212v2.1407a8.8544,8.8544,0,0,1-.1052,1.188c-.0194.0887-.0415.1662-.0637.2354a.56.56,0,0,1-.5206.3794h-.0056a.6335.6335,0,0,1-.3738-.1c-.2935-.2188-.2935-1.188-.2935-1.4677-.0277-.4542-.0277-1.0883-.0277-1.861a11.3369,11.3369,0,0,0-.1081-1.8443,1.6527,1.6527,0,0,0-1.6864-1.4871,20.2973,20.2973,0,0,0-2.1407-.1c-2.9964,0-3.6388.576-3.8521,2.916-.08.8308-.108,1.98-.108,3.4284a19.4854,19.4854,0,0,0,.2409,3.4478c.3213,1.6865,1.4179,2.4785,3.6943,2.7167a34.3262,34.3262,0,0,0,4.6551.1772c2.2986-.0665,5.0928-.2326,7.3913-.2326.7006,0,1.0661-.0166,1.0717-.0194.1883-.0693.1468-.1412.1744-.5289.05-.6924.05-2.3152.0333-6.098-.0056-1.5674-.0554-2.7942-.0277-3.7053a15.7709,15.7709,0,0,1,.1606-2.06,1.3143,1.3143,0,0,1,.3739-.8723,1.1039,1.1039,0,0,1,.6978-.1994H94.59a5.13,5.13,0,0,0,3.32-.8114c.9886-.8917,1.2019-2.617,1.3625-3.7081.108-.9692.1883-2.1794.216-3.6056.0249-1.4095.0526-3.0933.0526-5.0955C99.5412,120.83,99.5412,121.1931,99.5135,119.7447ZM83.51,126.859a11.9581,11.9581,0,0,1-.28,2.1961,1.8357,1.8357,0,0,1-.5566.9526,2.2994,2.2994,0,0,1-1.9579,0,1.8181,1.8181,0,0,1-.5594-.9526,8.6287,8.6287,0,0,1-.21-2.2016V126.82c-.0692-.9692-.0692-2.2735-.0692-3.9684s0-3.0185.0692-3.9877v-.0333a8.6574,8.6574,0,0,1,.21-2.2015,1.818,1.818,0,0,1,.5594-.9527,2.5356,2.5356,0,0,1,1.9579,0,1.8356,1.8356,0,0,1,.5566.9527,12.2041,12.2041,0,0,1,.28,2.196Z" />
      <path class="cls-10" d="M93.976,110.0409a9.5984,9.5984,0,0,0,1.6175.0958,9.9069,9.9069,0,0,0,1.6175-.0958c.8088-.1429,1.1526-.5483,1.2738-1.5022a22.5343,22.5343,0,0,0,0-3.8155c-.1212-.9538-.465-1.3593-1.2738-1.5022a9.9479,9.9479,0,0,0-1.6175-.0954,9.6381,9.6381,0,0,0-1.6175.0954c-.8088.1429-1.1727.5484-1.294,1.5022a22.5621,22.5621,0,0,0,0,3.8155C92.8033,109.4926,93.1672,109.898,93.976,110.0409Z" />
      <path class="cls-9" d="M90.3626,144.0148c-.12-.001-.2421-.0016-.37-.0016a16.991,16.991,0,0,0-1.9077.0749c-.9539.1122-1.3593.43-1.5023,1.1792a8.5468,8.5468,0,0,0-.0954,1.4975,8.279,8.279,0,0,0,.0954,1.4974c.143.7488.5594,1.0147,1.5023,1.198a18.3936,18.3936,0,0,0,2.0358.0748c.2254.003.204-.0795.2226-.93Z" />
      <path class="cls-9" d="M94.2819,149.5563H92.3938a.3348.3348,0,0,1-.3452-.323c-.0039-1.6266-.0342-3.2565-.0018-4.8827a.3375.3375,0,0,1,.316-.3185,11.1836,11.1836,0,0,1,1.9505.0054.3332.3332,0,0,1,.3162.32c.0071.9754-.0021,3.8972-.0017,4.8757A.3348.3348,0,0,1,94.2819,149.5563Z" />
      <path class="cls-9" d="M117.1123,131.4062c-.0277-1.4484-.108-2.6558-.216-3.6278a13.0948,13.0948,0,0,0-.4569-2.34,2.5933,2.5933,0,0,0-1.6948-1.8222l-.0222-.0083c-.0609-.025-.1218-.05-.1855-.0693-1.8167-.5926-6.9593.468-8.3494-1.2018a4.2486,4.2486,0,0,1-.7228-2.4176c-.1025-1.2573-.1025-2.5228-.1108-3.7856-.0083-1.1105-.0166-2.2238-.0969-3.3343a4.7441,4.7441,0,0,0-.5622-2.2182,2.7481,2.7481,0,0,0-2.3289-1.0329,6.39,6.39,0,0,0-2.4509.1855l-.0083.0028a2.7133,2.7133,0,0,0-.5261.252,4.3751,4.3751,0,0,0-1.5314,3.0767A30.114,30.114,0,0,0,97.5529,117c-.0942,2.1186-.0914,4.2426-.1108,6.3639-.0083,1.1188-.0139,2.2625-.0139,3.37v9.2134c0,1.7973-.0387,3.6305-.0554,5.4416a5.9707,5.9707,0,0,1-.0276,2.13c-.1911.3988-.133.41-.31.3988a.1085.1085,0,0,1-.0886.0609,1.2648,1.2648,0,0,0-.4846.08.2883.2883,0,0,0-.0721.1607v.0083c-.036.6951.0637,1.5729.0527,2.29-.0139.8141-.036,1.6311-.036,2.4452,0,.097-.0028.1884-.0056.2714.2548.5262,1.1714.3933,4.3035.4957.396.0139.8391.025,1.332.0388.709-.0111,1.4151-.0194,2.1213-.0166.8668,0,2.124.0415,3.4727.0415h.0609c.6286-.0083,1.296-.0193,1.9136-.0332.0332-.0028.0692-.0028.1052-.0028.8889-.0221,1.6588-.0526,2.03-.0886,1.8277-.1772,3.1681-.6923,4.0293-1.944,1.0745-1.5259,1.2074-4.2813,1.3154-5.9678q.0789-2.1726.08-5.1758C117.1649,134.56,117.1372,132.8545,117.1123,131.4062Zm-8.8756,9.1608c-.0581.972-.1135,1.7252-.1717,2.2209a1.9284,1.9284,0,0,1-.4541.9527.8943.8943,0,0,1-.3462.1634,1.6991,1.6991,0,0,1-.4486.0554,1.297,1.297,0,0,1-.7975-.2188,1.9519,1.9519,0,0,1-.4542-.9527,10.6979,10.6979,0,0,1-.1689-2.2209c-.0582-.9693-.0582-2.2792-.0582-3.985s0-3.0352.0582-4.0044a10.699,10.699,0,0,1,.1689-2.221,1.9514,1.9514,0,0,1,.4542-.9526,1.1158,1.1158,0,0,1,.6313-.1939c.0527-.0027.1081-.0055.1662-.0055a1.2915,1.2915,0,0,1,.7948.1994,1.928,1.928,0,0,1,.4541.9526c.0582.4736.1136,1.23.1717,2.221Z" />
      <path class="cls-9" d="M154.5447,131.3508c-.0277-1.4483-.108-2.6585-.1883-3.6278a10.64,10.64,0,0,0-.4015-2.34c-.4846-1.5093-1.0745-2.0825-3.3315-2.0825a11.0451,11.0451,0,0,0-1.5563.1c-1.8277.3351-2.041,2.1794-2.1767,3.3314a25.6317,25.6317,0,0,0-.1883,2.8136c-.0249,1.13-.0526,2.4813-.0526,4.0459v4.046c-.0277,1.13-.0277,2.0631-.0526,2.8163-.0277.7727-.0831,1.3681-.1357,1.825a5.1193,5.1193,0,0,1-.216,1.0495.8953.8953,0,0,1-.2825.4016.7684.7684,0,0,1-.252-.4016,5.3163,5.3163,0,0,1-.216-1.0495,14.0574,14.0574,0,0,1-.1329-1.825c-.0277-.7532-.0554-1.6865-.0554-2.8163-.0277-1.13-.0277-2.4785-.0277-4.046,0-1.5646-.0249-2.916-.08-4.0459a17.316,17.316,0,0,0-.4015-2.8136c-.51-2.1046-1.7447-3.0739-4.7521-3.3314-.9416-.061-2.0687-.1-3.3841-.1-6.4995,0-8.2442.5732-8.5128,5.9484-.08,1.0717-.108,2.3594-.108,3.8465s.0277,2.7776.0554,3.8272a12.34,12.34,0,0,0,.6979,4.4225c.6175,1.429,2.0935,1.5481,3.9185,1.5481h2.5256c.59.0194,1.0745.0387,1.3957.0581.3766.0582.7256.1.7256.4376a.3016.3016,0,0,1-.1607.2769,2.75,2.75,0,0,1-.7532.1578c-.4016.0388-.9942.061-1.7973.061-.7809.0194-1.8554.0194-3.1957.0194h-3.841c-.6453,0-.781-.5954-.8613-.9527a13.7338,13.7338,0,0,1-.2132-1.7446c-.08-.7533-.108-1.7641-.1357-3.0352-.08-3.8271-.08-7.6127-.08-11.44,0-2.6391,0-10.1549-.0277-12.0574-.0249-1.8832-.1052-4.6109-.1883-5.882a26.6764,26.6764,0,0,0-.4016-3.0518c-.4015-1.5674-.8058-2.6779-3.3286-2.6779-1.3432,0-2.041.1994-2.6336,1.1105-.8308,1.3487-1.0191,4.1235-1.0995,5.5912-.108,1.4871-.1606,9.8088-.1883,12.0076-.0276,2.2016-.0526,4.78-.0526,7.8731s.025,5.6715.0526,7.8731c.0277,2.1822.108,4.0265.241,5.5136a22.3149,22.3149,0,0,0,.5372,3.57c.5372,2.0216,1.2628,3.1515,4.4032,3.1515h25.97a5.1541,5.1541,0,0,0,3.3287-.8114c.9942-.8945,1.2074-2.62,1.3708-3.7081.1052-.972.1856-2.1822.2132-3.6111.0277-1.4068.0554-3.0933.0554-5.0955C154.5724,134.505,154.5724,132.7991,154.5447,131.3508Zm-16.6572,3.8659a5.243,5.243,0,0,1-.1883,1.1908.821.821,0,0,1-.3766.5151,1.4493,1.4493,0,0,1-.6619.1191,1.4338,1.4338,0,0,1-.6619-.1191c-.5206-.2188-.5206-1.4262-.5206-1.7059-.0471-.5151-.0471-1.23-.0471-2.1213s0-1.6061.0471-2.1406a3.6184,3.6184,0,0,1,.144-1.1908.9624.9624,0,0,1,.3766-.5151,1.8043,1.8043,0,0,1,.6619-.1,1.8255,1.8255,0,0,1,.6619.1.9624.9624,0,0,1,.3766.5151,5.243,5.243,0,0,1,.1883,1.1908Z" />
      <path class="cls-9" d="M131.1327,122.1728a9.6,9.6,0,0,0,1.6175.0957,9.9108,9.9108,0,0,0,1.6176-.0957c.8087-.1429,1.1525-.5484,1.2737-1.5023a22.5332,22.5332,0,0,0,0-3.8154c-.1212-.9539-.465-1.3594-1.2737-1.5023a9.9614,9.9614,0,0,0-1.6176-.0954,9.6488,9.6488,0,0,0-1.6175.0954c-.8088.1429-1.1727.5484-1.294,1.5023a22.5609,22.5609,0,0,0,0,3.8154C129.96,121.6244,130.3239,122.03,131.1327,122.1728Z" />
      <path class="cls-9" d="M138.733,122.1728a9.6009,9.6009,0,0,0,1.6176.0957,9.9094,9.9094,0,0,0,1.6175-.0957c.8087-.1429,1.1525-.5484,1.2737-1.5023a22.5054,22.5054,0,0,0,0-3.8154c-.1212-.9539-.465-1.3594-1.2737-1.5023a9.96,9.96,0,0,0-1.6175-.0954,9.6494,9.6494,0,0,0-1.6176.0954c-.8087.1429-1.1726.5484-1.294,1.5023a22.5609,22.5609,0,0,0,0,3.8154C137.56,121.6244,137.9243,122.03,138.733,122.1728Z" />
      <path class="cls-9" d="M149.0028,122.1728a9.6009,9.6009,0,0,0,1.6176.0957,9.9094,9.9094,0,0,0,1.6175-.0957c.8088-.1429,1.1525-.5484,1.2737-1.5023a22.5054,22.5054,0,0,0,0-3.8154c-.1212-.9539-.4649-1.3594-1.2737-1.5023a9.96,9.96,0,0,0-1.6175-.0954,9.6494,9.6494,0,0,0-1.6176.0954c-.8087.1429-1.1726.5484-1.294,1.5023a22.5609,22.5609,0,0,0,0,3.8154C147.83,121.6244,148.1941,122.03,149.0028,122.1728Z" />
    </g>
  </g>
</svg>