<svg xmlns="http://www.w3.org/2000/svg" viewBox="0 0 500.4255 463.6596"><defs><style>.cls-1{isolation:isolate;}.cls-2{fill:aqua;}.cls-3{font-size:23px;font-family:Como-ExtraBold, Como;font-weight:800;}.cls-10,.cls-14,.cls-3{fill:#00193e;}.cls-12,.cls-4,.cls-6{fill:none;stroke-miterlimit:10;}.cls-4{stroke:aqua;}.cls-5{fill:#12bbc2;}.cls-6{stroke:#12bbc2;}.cls-7{font-size:12px;font-family:Como-SemiBold, Como;font-weight:600;}.cls-13,.cls-7,.cls-8,.cls-9{fill:#fff;}.cls-9{font-size:14px;font-family:Como-Bold, Como;font-weight:700;}.cls-11{mix-blend-mode:color-dodge;}.cls-12{stroke:#fff;}.cls-13,.cls-14{fill-rule:evenodd;}</style></defs><g class="cls-1"><g id="Layer_12" data-name="Layer 12"><g id="_4_copy" data-name="4 copy"><circle class="cls-2" cx="95.0184" cy="212.3278" r="64.6985"/><text class="cls-3" transform="translate(41.5707 207.6571)">What sets<tspan x="10.0278" y="27.6001">us apart</tspan></text><circle class="cls-4" cx="94.442" cy="212.3278" r="76.44"/><g id="_6-2" data-name="6"><rect class="cls-5" x="57.5763" y="47.7444" width="400.7367" height="28.598" rx="14.299" transform="translate(515.8894 124.0867) rotate(-180)"/><rect class="cls-6" x="47.7641" y="11.919" width="190.135" height="26.4693" rx="13.2347" transform="translate(285.6633 50.3073) rotate(-180)"/><text class="cls-7" transform="translate(63.605 65.6006)">We train them in the best ways to communicate positively with others.</text><path class="cls-8" d="M61.2178,61.8828a2.7543,2.7543,0,1,0-2.1622,2.1623A2.757,2.757,0,0,0,61.2178,61.8828Z"/><path class="cls-2" d="M67.8214,28.3576a15.33,15.33,0,1,0-13.207,13.2072A15.3361,15.3361,0,0,0,67.8214,28.3576Z"/><text class="cls-9" transform="translate(72.6181 29.4053)">Positive Communication</text><path class="cls-4" d="M45.2422,145.4308a7.8459,7.8459,0,1,1-.1094,8.71A7.853,7.853,0,0,1,45.2422,145.4308Z"/><path class="cls-2" d="M48.815,147.88a3.5143,3.5143,0,1,1-.05,3.9013A3.5176,3.5176,0,0,1,48.815,147.88Z"/><path class="cls-4" d="M49.4117,45.1613A2.709,2.709,0,0,0,53.2408,48.99,2.709,2.709,0,0,0,49.4117,45.1613Z"/><line class="cls-4" x1="51.3262" y1="141.7855" x2="51.3262" y2="50.0316"/><path class="cls-10" d="M47.014,17.2417l-5.4765,5.4767,2.0758,2.0761a5.3092,5.3092,0,0,0,.99,2.8485,7.5136,7.5136,0,0,0,.9089,1.1024c.2231.226.4492.4482.6727.6732a1.4073,1.4073,0,0,0-.0638,1.9015,1.1532,1.1532,0,0,0,.9141.48c.007-.0005-.1413.1926-.1456.1981a1.2662,1.2662,0,0,0,.1355,1.8678,1.4315,1.4315,0,0,0,1.6556.39.0154.0154,0,0,1,.0166.0061c.9688,1.4515,1.7911,1.4326,3.0237.398a1.29,1.29,0,0,0,.53.585,1.899,1.899,0,0,0,2.2552-.2963c.2038-.1966.4046-.3961.6075-.5931.4886-.0394.9422-.3959,1.4338-1.1318a.0149.0149,0,0,1,.0162-.0061,1.4317,1.4317,0,0,0,1.6555-.3893,1.2535,1.2535,0,0,0,.2205-1.7513c.4308-.431.8642-.8592,1.2924-1.2931a7.5125,7.5125,0,0,0,.9089-1.1024,5.3091,5.3091,0,0,0,.99-2.8485l2.0758-2.0761L58.23,18.28l-1.7373,1.7376a3.0586,3.0586,0,0,0-3.5183.197l-.4632-.4654-.0332-.0293a3.2108,3.2108,0,0,0-3.291-.6193c-.0949.0067-.19.0159-.2847.0291ZM58.848,28.144q-2.085-2.0983-4.1819-4.1856l-.0354-.0371a.4087.4087,0,0,0-.11-.1892q-.3576-.3576-.7151-.7149l.2432-.2443.5612-.6572-.5044-.3523-2.0736,2.0833a.5438.5438,0,0,1-.7681.002l-.1342-.1334a.5465.5465,0,0,1-.0018-.7685l2.0268-2.0363a2.431,2.431,0,0,1,2.9564-.3427l.0459.1133.7007-.0584-.0061-.0151.0958-.0958L58.149,19.19l4.5266,4.5268L60.82,25.6929a3.9505,3.9505,0,0,1-.0149.49,3.9045,3.9045,0,0,1-.0971.5721,5.0482,5.0482,0,0,1-1.3091,2.2335A2.1446,2.1446,0,0,0,58.848,28.144Zm-6.2971,6.2435a1.8285,1.8285,0,0,0,.4422-.181,1.29,1.29,0,0,0,.53-.5851,4.4259,4.4259,0,0,0,.7339.514c-.0979.0969-.195.1946-.293.2913a1.2093,1.2093,0,0,1-.7213.4365.6914.6914,0,0,1-.5651-.2268A.5238.5238,0,0,1,52.5509,34.3875Zm-2.672-1.1525.0827-.0829c.2594.2522.5161.507.7764.758a1.9337,1.9337,0,0,0,.2825.224c-.07.0656-.1395.1325-.21.1979-.4545.4214-.81.3893-1.1211.024C49.3947,34.01,49.4512,33.6634,49.8789,33.235Zm-2.1432-1.0792c.1981-.1988.3976-.3965.5957-.5953.3508.3457.7047.6882,1.0572,1.0322q-.32.32-.6408.64a.742.742,0,0,1-1.2247-.01C47.2887,32.9022,47.3534,32.54,47.7357,32.1558Zm-.985-2.1715c.3377.3382.674.6776,1.0134,1.0141a1.18,1.18,0,0,1-.1067.0676.7251.7251,0,0,1-1.0112-.3807A.66.66,0,0,1,46.7507,29.9843Zm.2174-11.8366,1.3279,1.326.4566.4568a3.034,3.034,0,0,1,1.6206-.3718,3.0018,3.0018,0,0,1,1.6773.68l.4125.4144-.3035.3049h0l-1.5444,1.56a1.21,1.21,0,0,0,.041,1.6733l.1339.1334a1.2169,1.2169,0,0,0,1.7185-.0042l.6963-.7q2.5279,2.5637,5.086,5.0982c.26.2589.47.5187.3066.9279a.7249.7249,0,0,1-1.0112.3808,2.11,2.11,0,0,1-.4471-.3663q-1.5411-1.5333-3.0744-3.0734c-.1942-.1948-.4137-.4061-.6683-.1675-.2664.2493-.0958.4919.1216.7082q1.9991,1.9894,3.99,3.9887c.3823.3838.4475.7467.2126,1.0673a.7421.7421,0,0,1-1.2247.01Q54.53,30.2368,52.5706,28.272a.6457.6457,0,0,0-.6351-.267c-.1811.0273-.2454.183-.2244.3593a.7925.7925,0,0,0,.3189.4964q1.6671,1.6687,3.3346,3.3362c.4278.4284.4842.7748.1894,1.121-.3105.3654-.6665.3974-1.121-.024-1.0042-.9317-1.9717-1.9027-2.9524-2.86-.2108-.2058-.419-.4142-.6267-.6231-.1973-.1986-.6666-.79-.9947-.4835-.3573.3346.2795.8094.4974,1.0346q.3069.3173.6193.6292c.4264.4282.8568.8525,1.2789,1.2848a1.5918,1.5918,0,0,1,.4461.6277.8306.8306,0,0,1-.1347.6948.6919.6919,0,0,1-.5651.2268,1.2091,1.2091,0,0,1-.7212-.4366c-.9338-.9191-1.8563-1.8495-2.7831-2.7758-.8827-.8829-1.7837-1.7487-2.6436-2.6535a5.0473,5.0473,0,0,1-1.3174-2.2422,3.88,3.88,0,0,1-.0971-.5719,4.0349,4.0349,0,0,1-.0149-.49l-1.9823-1.9806Z"/></g><g id="_1-2" data-name="1"><rect class="cls-5" x="176.2444" y="115.8036" width="297.2512" height="34.5759" rx="17.2879" transform="translate(649.7399 266.1832) rotate(180)"/><text class="cls-7" transform="translate(185.6384 129.2878)">We offer creative training programs based on the<tspan x="0" y="14.4004">latest educational and training theories.</tspan></text><circle class="cls-8" cx="176.2444" cy="132.102" r="2.6913"/><g class="cls-11"><path class="cls-12" d="M192.5041,83.2079H327.5427a13.2842,13.2842,0,0,1,13.2842,13.2842h0a13.2841,13.2841,0,0,1-13.2842,13.2843H192.5041Z"/></g><circle class="cls-2" cx="187.2092" cy="96.6542" r="15.3255" transform="translate(-20.7593 130.3945) rotate(-36.5221)"/><text class="cls-9" transform="translate(205.894 100.6942)">Innovative Curricula</text><circle class="cls-4" cx="102.1411" cy="136.8095" r="7.84" transform="translate(-35.9129 237.2622) rotate(-89.2961)"/><path class="cls-2" d="M99.627,139.2612a3.5116,3.5116,0,1,1,4.9658.0625A3.5116,3.5116,0,0,1,99.627,139.2612Z"/><path class="cls-4" d="M164.9393,94.1774a2.6133,2.6133,0,1,0,2.6134,2.6133A2.6133,2.6133,0,0,0,164.9393,94.1774Z"/><polyline class="cls-4" points="104.804 129.208 119.229 96.791 162.183 96.791"/><path class="cls-10" d="M185.5345,88.6138h-8.9422a.3708.3708,0,0,0-.3479.381v14.3987a.37.37,0,0,0,.0945.26l.0061.0071.0121.0125a.3073.3073,0,0,0,.2352.1017h8.5941v2.1934a.3572.3572,0,0,0,.132.294.2593.2593,0,0,0,.3916.0351q.4015-.3293.803-.6588a6.741,6.741,0,0,0,.5232-.4291.6362.6362,0,0,1,.0943-.074c.0578.04.1256.0815.1716.1191q.2717.2211.5427.442l.7371.6008c.2192.1784.5239-.0645.5239-.3291v-2.1934h8.72a.371.371,0,0,0,.3481-.3811V88.9948a.3711.3711,0,0,0-.3481-.381H185.5345Zm3.5713.7622h8.3722v13.6364h-8.3722Zm-3.2233,0H188.41v15.8364l-1.0936-.8911a.3105.3105,0,0,0-.3513,0q-.5413.444-1.0823.888Zm-.6961,13.6364H176.94V89.376h8.246Z"/><path class="cls-10" d="M195.8959,92.9552h-4.9183c-.2985,0-.2991-.5081,0-.5081h4.9183C196.1944,92.4471,196.195,92.9552,195.8959,92.9552Z"/><path class="cls-10" d="M195.8959,95.0916h-4.9183c-.2985,0-.2991-.5081,0-.5081h4.9183C196.1944,94.5835,196.195,95.0916,195.8959,95.0916Z"/><path class="cls-10" d="M195.8959,97.228h-4.9183c-.2985,0-.2991-.5081,0-.5081h4.9183C196.1944,96.72,196.195,97.228,195.8959,97.228Z"/><path class="cls-10" d="M195.8959,99.3644h-4.9183c-.2985,0-.2991-.508,0-.508h4.9183C196.1944,98.8564,196.195,99.3644,195.8959,99.3644Z"/><path class="cls-10" d="M178.4959,92.4471h4.9185c.2985,0,.2989.5081,0,.5081h-4.9185C178.1974,92.9552,178.1968,92.4471,178.4959,92.4471Z"/><path class="cls-10" d="M178.4959,94.5835h4.9185c.2985,0,.2989.5081,0,.5081h-4.9185C178.1974,95.0916,178.1968,94.5835,178.4959,94.5835Z"/><path class="cls-10" d="M178.4959,96.72h4.9185c.2985,0,.2989.5081,0,.5081h-4.9185C178.1974,97.228,178.1968,96.72,178.4959,96.72Z"/><path class="cls-10" d="M178.4959,98.8564h4.9185c.2985,0,.2989.508,0,.508h-4.9185C178.1974,99.3644,178.1968,98.8564,178.4959,98.8564Z"/></g><g id="_2-2" data-name="2"><rect class="cls-5" x="214.801" y="190.0422" width="280.278" height="34.1001" rx="17.05" transform="translate(709.8801 414.1845) rotate(-180)"/><rect class="cls-5" x="214.801" y="265.5366" width="228.1929" height="34.1001" rx="17.05" transform="translate(657.795 565.1734) rotate(-180)"/><rect class="cls-5" x="170.422" y="342.0619" width="259.8059" height="34.1001" rx="17.05" transform="translate(600.65 718.224) rotate(180)"/><text class="cls-7" transform="translate(226.9881 203.8984)">We help young individuals discover themselves<tspan x="0" y="14.4004">and understand their personality patterns.</tspan></text><path class="cls-8" d="M217.5022,207.1806a2.7543,2.7543,0,1,0-2.1623,2.1623A2.7569,2.7569,0,0,0,217.5022,207.1806Z"/><g class="cls-11"><path class="cls-12" d="M226.8607,157.2167H356.8993a13.2843,13.2843,0,0,1,13.2842,13.2843h0a13.2842,13.2842,0,0,1-13.2842,13.2842H226.8607Z"/></g><path class="cls-2" d="M242.1058,173.6554a15.33,15.33,0,1,0-13.207,13.2072A15.3362,15.3362,0,0,0,242.1058,173.6554Z"/><text class="cls-9" transform="translate(245.3032 174.7031)">Self-Development</text><path class="cls-4" d="M163.124,177.6067a7.8458,7.8458,0,1,0-8.71.1095A7.853,7.853,0,0,0,163.124,177.6067Z"/><path class="cls-2" d="M160.6751,174.034a3.5144,3.5144,0,1,0-3.9013.05A3.5176,3.5176,0,0,0,160.6751,174.034Z"/><path class="cls-4" d="M206.3935,173.4373a2.709,2.709,0,0,1-3.8283-3.8291A2.709,2.709,0,0,1,206.3935,173.4373Z"/><line class="cls-4" x1="166.7694" y1="171.5228" x2="201.5233" y2="171.5228"/><g id="_1909_Internet_Marketing_Media_Network_Seo" data-name="1909, Internet, Marketing, Media, Network, Seo"><path class="cls-10" d="M222.0522,171.1361a4.8966,4.8966,0,0,0,4.8963,4.84.5472.5472,0,1,1,0,1.0944,5.9446,5.9446,0,0,1-5.9609-5.8926.5607.5607,0,0,1,.5537-.5473A.4674.4674,0,0,1,222.0522,171.1361Z"/><path class="cls-10" d="M226.3952,165.7905a.56.56,0,0,1,.5533-.547,5.9441,5.9441,0,0,1,5.9608,5.8926.5535.5535,0,0,1-1.1069,0,4.8327,4.8327,0,0,0-4.8539-4.84A.5253.5253,0,0,1,226.3952,165.7905Z"/><path class="cls-10" d="M224.777,174.3771h4.5136a.56.56,0,0,0,.5532-.5473V172.483a2.7693,2.7693,0,0,0-1.3626-2.357,2.0215,2.0215,0,0,0,.4259-1.2206,1.916,1.916,0,0,0-3.8317,0,1.7855,1.7855,0,0,0,.4254,1.2206,2.7176,2.7176,0,0,0-1.3622,2.357V173.83C224.1386,174.1245,224.3939,174.335,224.777,174.3771Zm2.1715-4.672a.8042.8042,0,0,1-.8089-.8.833.833,0,0,1,.8089-.8.8043.8043,0,0,1,.8093.8A.833.833,0,0,1,226.9485,169.7051Zm-1.6606,3.5776v-.8a1.7032,1.7032,0,0,1,3.4062,0v.8h-3.4062Z"/><path class="cls-10" d="M213.92,171.1361a1.6079,1.6079,0,0,0,1.6178,1.5993,1.5743,1.5743,0,0,0,1.5328-1.0522h1.1924a8.5243,8.5243,0,0,0,2.1711,5.135l-.8513.8418a1.632,1.632,0,0,0-1.8735.2948,1.5875,1.5875,0,0,0,0,2.2728,1.6326,1.6326,0,0,0,2.2994,0,1.6676,1.6676,0,0,0,.2979-1.8519l.8517-.8418a8.7279,8.7279,0,0,0,5.1943,2.1464v1.1786a1.6083,1.6083,0,1,0,2.1715,1.5153,1.5582,1.5582,0,0,0-1.0646-1.5153V179.68a8.7286,8.7286,0,0,0,5.1947-2.1464l.8517.8418a1.5857,1.5857,0,0,0,.298,1.8519,1.632,1.632,0,0,0,2.2989,0,1.5875,1.5875,0,0,0,0-2.2728,1.7158,1.7158,0,0,0-1.8731-.2948l-.8517-.8418a8.5277,8.5277,0,0,0,2.1715-5.135h1.192a1.63,1.63,0,0,0,1.5328,1.0522,1.5995,1.5995,0,1,0,0-3.1987,1.5741,1.5741,0,0,0-1.5328,1.0523h-1.192a8.528,8.528,0,0,0-2.1715-5.1351l.8517-.8418a1.6315,1.6315,0,0,0,1.8731-.2947h0a1.5875,1.5875,0,0,0,0-2.2728,1.6318,1.6318,0,0,0-2.2989,0,1.6666,1.6666,0,0,0-.298,1.8519l-.8517.8418a8.7279,8.7279,0,0,0-5.1947-2.1464v-1.1787a1.6082,1.6082,0,1,0-2.1715-1.5153,1.558,1.558,0,0,0,1.0646,1.5153v1.1787a8.7273,8.7273,0,0,0-5.1943,2.1464l-.8517-.8418a1.5861,1.5861,0,0,0-.2979-1.8519,1.6324,1.6324,0,0,0-2.2994,0,1.5875,1.5875,0,0,0,0,2.2728,1.7166,1.7166,0,0,0,1.8735.2947l.8513.8418a8.5246,8.5246,0,0,0-2.1711,5.1351h-1.1924a1.6306,1.6306,0,0,0-1.5328-1.0523A1.6079,1.6079,0,0,0,213.92,171.1361Zm5.535-7.955a.6242.6242,0,0,1-.17.3788.5444.5444,0,0,1-.7666,0,.5292.5292,0,0,1,0-.7576.4646.4646,0,0,1,.3831-.1685A.5607.5607,0,0,1,219.4549,163.1811Zm8.0472-3.2832a.5535.5535,0,1,1-.5536-.5471A.5338.5338,0,0,1,227.5021,159.8979Zm7.11,3.662h0a.5292.5292,0,0,1,0-.7576.5439.5439,0,0,1,.7662,0,.5292.5292,0,0,1,0,.7576A.5439.5439,0,0,1,234.6126,163.56Zm3.1934,7.5762a.5535.5535,0,1,1,.5537.5471A.56.56,0,0,1,237.806,171.1361Zm-3.1934,7.5762a.5438.5438,0,0,1,.7662,0,.529.529,0,0,1,0,.7575.5438.5438,0,0,1-.7662,0A.529.529,0,0,1,234.6126,178.7123Zm-8.2174,3.6619a.5535.5535,0,1,1,.5533.5471A.5335.5335,0,0,1,226.3952,182.3742Zm-7.494-3.83a.5472.5472,0,1,1-.5532.5471A.5606.5606,0,0,1,218.9012,178.544Zm.4686-7.4079a7.5794,7.5794,0,1,1,7.5787,7.4919A7.5525,7.5525,0,0,1,219.37,171.1361Zm-4.3858,0a.5537.5537,0,1,1,.5537.5471A.5919.5919,0,0,1,214.984,171.1361Z"/></g></g><g id="_3-2" data-name="3"><text class="cls-7" transform="translate(224.6374 279.8433)">We instill values such as responsibility,<tspan x="0" y="14.4004">commitment, and creative thinking.</tspan></text><path class="cls-8" d="M218.3972,282.1254a2.7543,2.7543,0,1,0-2.1622,2.1624A2.7569,2.7569,0,0,0,218.3972,282.1254Z"/><g class="cls-11"><path class="cls-12" d="M230.7557,231.1616H357.7943a13.2842,13.2842,0,0,1,13.2842,13.2843h0A13.2841,13.2841,0,0,1,357.7943,257.73H230.7557Z"/></g><path class="cls-2" d="M245.0008,247.6a15.33,15.33,0,1,0-13.207,13.2073A15.3361,15.3361,0,0,0,245.0008,247.6Z"/><text class="cls-9" transform="translate(248.2914 248.648)">Values and Ethics</text><path class="cls-4" d="M167.0191,251.5516a7.8458,7.8458,0,1,0-8.71.1095A7.853,7.853,0,0,0,167.0191,251.5516Z"/><path class="cls-2" d="M164.57,247.9788a3.5143,3.5143,0,1,0-3.9013.05A3.5176,3.5176,0,0,0,164.57,247.9788Z"/><path class="cls-4" d="M210.2886,247.3822a2.709,2.709,0,0,1-3.8284-3.8291A2.709,2.709,0,0,1,210.2886,247.3822Z"/><line class="cls-4" x1="170.6644" y1="245.4676" x2="205.4183" y2="245.4676"/><path class="cls-13" d="M230.0486,243.0258a4.5675,4.5675,0,1,1,4.5675-4.5674A4.576,4.576,0,0,1,230.0486,243.0258Z"/><path class="cls-14" d="M230.0486,242.7342a4.2844,4.2844,0,1,0-3.0208-1.2547,4.2629,4.2629,0,0,0,3.0208,1.2547Zm-4.8586-4.2758a4.868,4.868,0,1,1,1.4258,3.4328A4.8428,4.8428,0,0,1,225.19,238.4584Z"/><path class="cls-13" d="M230.049,256.6007s-7.9082-.2115-8.3312-2.7489.8882-8.543,2.58-9.0923,2.9687-.8918,2.9687-.8918l2.7828,1.282,2.9-1.2478s1.16.3076,2.8512.8576,3.0026,6.5549,2.58,9.0923S230.049,256.6007,230.049,256.6007Z"/><path class="cls-14" d="M230.049,256.31c.2708-.0084,7.6672-.2453,8.0443-2.5065a14.9317,14.9317,0,0,0-.6-5.57c-.4619-1.6274-1.1025-2.9771-1.7832-3.1984-1.3967-.4539-2.4286-.7418-2.7391-.8266l-2.8075,1.2084v-.0011a.2885.2885,0,0,1-.2366-.0025l-2.6863-1.238c-.3308.0907-1.4483.4033-2.8533.86-.6807.2213-1.3213,1.571-1.7832,3.1984a14.9393,14.9393,0,0,0-.6,5.57c.3771,2.2612,7.7739,2.4981,8.0447,2.5065Zm-8.0047-8.2332c.51-1.7967,1.2748-3.3055,2.1636-3.5945,1.7024-.5533,2.9793-.8954,2.983-.8961a.29.29,0,0,1,.2067.0218l2.655,1.223,2.7813-1.1964a.2873.2873,0,0,1,.198-.0117c.1034.0273,1.234.332,2.8581.8594.8885.289,1.6536,1.7978,2.1632,3.5948a15.5316,15.5316,0,0,1,.6134,5.8222c-.4623,2.7751-8.5863,2.99-8.61,2.9909h-.016c-.0233,0-8.1474-.2158-8.61-2.9909A15.5478,15.5478,0,0,1,222.0443,248.077Z"/><path class="cls-13" d="M237.0137,251.73q-3.3366-1.4479-6.6724-2.8963a1.8945,1.8945,0,0,0-.6639-1.6864c-1.4848-.7582-1.19-1.8833-1.6045-1.9372s-.6767.3662-.3666,1.0924a2.8616,2.8616,0,0,1,.2861.914c-.7538-.4532-1.1972-.7305-1.951-1.1834-.6166-.3345-.9457.3207-.728.5439-.2981-.2-.6563-.3579-.9049.0513s.1951.756.1951.756c-.225-.0823-.6323.5988.1649,1.0738,0,0-.7706.4462.42,1.1669,1.9255,1.226,2.1388,1.5077,3.8245,1.4651,0,0,5.6419,3.36,6.1981,3.8981C237.4436,256.47,239.8871,252.7936,237.0137,251.73Z"/><path class="cls-14" d="M237.1087,251.4552l.0051.0019a2.0105,2.0105,0,0,1,1.4945,1.7788,2.1353,2.1353,0,0,1-.2657,1.1124,2.5259,2.5259,0,0,1-.7793.8706,2.1565,2.1565,0,0,1-2.5123.0113.2893.2893,0,0,1-.0411-.0331c-.498-.4808-5.421-3.4256-6.0737-3.815-1.5142.03-1.8786-.2057-3.3141-1.1331-.205-.1325-.4314-.2785-.57-.367l-.0134-.0076c-1.0018-.6064-.92-1.1022-.7153-1.3912a.9787.9787,0,0,1-.3152-.6508.8262.8262,0,0,1,.0509-.3338.7523.7523,0,0,1,.1038-.19.7637.7637,0,0,1-.0026-.83.7139.7139,0,0,1,.7062-.3942.8758.8758,0,0,1,.1492.0266.769.769,0,0,1,.1027-.1737.7528.7528,0,0,1,.29-.2249.8543.8543,0,0,1,.772.0648l-.0007.0011.0109.0058c.4062.2446.6931.4193.9792.594l.3472.2115c-.0215-.0513-.0455-.1041-.0724-.1591h0l-.0061-.0134a1.6254,1.6254,0,0,1-.15-.8336.8393.8393,0,0,1,.134-.3683.6729.6729,0,0,1,.2948-.2435.741.741,0,0,1,.3924-.0495c.328.0429.4092.2722.5271.6053a2.1608,2.1608,0,0,0,1.172,1.3606v0l.0252.0141a2.0424,2.0424,0,0,1,.8055,1.7447l6.4686,2.8082Zm-7.0557-2.6535h-.0008a1.6032,1.6032,0,0,0-.5194-1.4018,2.6747,2.6747,0,0,1-1.444-1.6794c-.0473-.1336-.0272-.2195-.0534-.2228a.1779.1779,0,0,0-.09.0084.1015.1015,0,0,0-.0426.0367.27.27,0,0,0-.0386.1154,1.0481,1.0481,0,0,0,.1034.5169,3.1718,3.1718,0,0,1,.3134,1.0126.29.29,0,0,1-.2606.3174.2835.2835,0,0,1-.182-.0422c-.4033-.2421-.688-.416-.9719-.5893-.31-.1889-.62-.3778-.9642-.5849v.0007a.3039.3039,0,0,0-.2624-.0448.1727.1727,0,0,0-.0645.0517.1834.1834,0,0,0-.036.0728c-.0029.0116-.0273-.0036-.0182.0055a.29.29,0,0,1-.3778.4382.8016.8016,0,0,0-.3255-.1481c-.052-.0044-.1073.0244-.1619.1139-.1143.1882.1274.3775.1277.3778a.2908.2908,0,0,1-.1689.5184.17.17,0,0,0-.0123.0269.2477.2477,0,0,0-.0142.1012c.0065.1172.0906.2642.3286.4062a.29.29,0,0,1,.0008.4979l0,0c-.0012,0-.3524.201.42.6687l.0251.0164c.2846.1812.4338.2777.5722.3673,1.3424.8673,1.6645,1.0755,3.07,1.04a.2866.2866,0,0,1,.1558.0411c.0164.01,5.5349,3.2971,6.2269,3.9159a1.5955,1.5955,0,0,0,1.8443-.0157,1.9466,1.9466,0,0,0,.597-.6679,1.5582,1.5582,0,0,0,.1976-.81,1.4649,1.4649,0,0,0-1.1145-1.26.2514.2514,0,0,1-.0361-.016L230.2262,249.1A.2894.2894,0,0,1,230.053,248.8017Z"/><path class="cls-14" d="M230.5422,249.6582a.644.644,0,0,1-.4812-.56c-.0422-.2253-.071-.7.1681-.8288a.0863.0863,0,0,1,.1162.0306c.095.1791-.0113.4314-.0128.6272a1.1935,1.1935,0,0,0,.2257.71C230.5662,249.648,230.5531,249.6611,230.5422,249.6582Z"/><path class="cls-14" d="M226.3129,249.43a5.02,5.02,0,0,1-.9311-.518,2.5679,2.5679,0,0,1-.8892-.685.1239.1239,0,0,1,.139-.181,5.1749,5.1749,0,0,1,.9111.5908,2.4179,2.4179,0,0,1,.8237.7233A.0478.0478,0,0,1,226.3129,249.43Z"/><path class="cls-14" d="M226.3941,248.4406c-.4059.0189-.8194-.3512-1.148-.5507-.3207-.1951-.7979-.4186-.9293-.7924-.0346-.1.0811-.1565.1587-.122a3.0564,3.0564,0,0,1,.5008.3651c.2075.1474.4306.2737.6446.4106.2574.1649.6811.3666.7881.67A.0156.0156,0,0,1,226.3941,248.4406Z"/><path class="cls-14" d="M226.8888,247.7159a9.3669,9.3669,0,0,1-1.1135-.5824c-.27-.1456-.7011-.34-.7189-.6817a.1192.1192,0,0,1,.1183-.118c.312-.0175.5839.3465.799.542.3032.2755.6737.4736.96.7629C226.9645,247.67,226.9339,247.733,226.8888,247.7159Z"/><path class="cls-14" d="M228.5176,247.1917c-.0091.19-.2351.2865-.3723.3775-.0947.0626-.463.2151-.5362.0532-.0866-.1908.1867-.1908.3028-.22a1.3282,1.3282,0,0,0,.3491-.14.5184.5184,0,0,1,.23-.0976A.0268.0268,0,0,1,228.5176,247.1917Z"/><path class="cls-14" d="M234.2582,247.9248a4.38,4.38,0,0,1,.11,1.3283,3.874,3.874,0,0,0,.1248.7407c.0594.2275.2017.4138.1791.6508a.0706.0706,0,0,1-.1044.06c-.37-.19-.4095-.8178-.451-1.1884a3.5306,3.5306,0,0,1,.0924-1.5983C234.2193,247.8935,234.2506,247.9063,234.2582,247.9248Z"/><path class="cls-14" d="M234.7347,249.3979c.0113.2141.0375.4219.0346.637a3.194,3.194,0,0,1,.0254.6676.1149.1149,0,0,1-.1911.0506c-.2831-.3662-.052-.9468.003-1.3552A.0641.0641,0,0,1,234.7347,249.3979Z"/><path class="cls-14" d="M237.7446,251.4141a3.6849,3.6849,0,0,0-1.65-.4146c-.2562-.016-.5132-.016-.77-.0142a.9132.9132,0,0,1-.5394-.0717.0737.0737,0,0,1,0-.1263,1.2158,1.2158,0,0,1,.6672-.08,7.1658,7.1658,0,0,1,.8972.0414,2.4929,2.4929,0,0,1,1.4174.6378C237.7817,251.4,237.7624,251.4243,237.7446,251.4141Z"/><path class="cls-14" d="M233.8607,244.2528a10.6131,10.6131,0,0,1-1.2892,1.9165c-.17.26-.4332,1.0268-.8562.946a.1539.1539,0,0,1-.11-.11c-.0859-.3669-.4572-.6046-.7218-.8375a10.7752,10.7752,0,0,0-.97-.77.1132.1132,0,0,1,.1139-.1955,4.7435,4.7435,0,0,1,1.03.7906,6.1453,6.1453,0,0,1,.8346.8907l-.1773-.0721c.2173-.0309.3826-.4666.474-.637a5.6044,5.6044,0,0,1,.542-.7509c.22-.2872.4542-.5663.6661-.8594a.754.754,0,0,1,.43-.3454C233.8458,244.2154,233.8684,244.2325,233.8607,244.2528Z"/><path class="cls-14" d="M230.1607,245.3317a1.9651,1.9651,0,0,1-.5289.5708,2.9,2.9,0,0,1-.6362.4885c-.09.0385-.2-.0441-.1427-.1424a2.2533,2.2533,0,0,1,.5864-.5387,3.6414,3.6414,0,0,1,.637-.4626A.0622.0622,0,0,1,230.1607,245.3317Z"/><path class="cls-14" d="M226.6638,244.1422c.0553.119.16.2278.2253.3439.0841.1493.1868.2884.28.4325.1117.1718.3315.4066.226.62a.0652.0652,0,0,1-.0728.03c-.22-.0491-.3382-.4025-.4474-.5777a3.6126,3.6126,0,0,1-.2369-.4546,1.1967,1.1967,0,0,1-.0532-.3727C226.5794,244.1218,226.6463,244.1051,226.6638,244.1422Z"/><path class="cls-14" d="M224.1279,255.7878c.0848-1.0891.1477-1.77.297-2.8552.0808-.586.1379-1.1786.2013-1.7661a3.9258,3.9258,0,0,1,.234-1.2583c.048-.1067.1485-.1078.1653.02a4.6987,4.6987,0,0,1-.0889,1.2754c-.0779.5889-.1383,1.1764-.23,1.7632a18.4253,18.4253,0,0,1-.46,2.8672C224.2079,255.9618,224.1173,255.921,224.1279,255.7878Z"/><path class="cls-14" d="M230.1716,245.292c.178.1286.0885.4856.07.6607a4.11,4.11,0,0,1-.1627,1.3821.0944.0944,0,0,1-.1715-.0219,5.7761,5.7761,0,0,1,.011-1.1076,4.9043,4.9043,0,0,1,.08-.843A.1179.1179,0,0,1,230.1716,245.292Z"/><path class="cls-14" d="M234.9076,246.2876a2.9115,2.9115,0,0,1,.491-.8074c.1766-.2245.4092-.7.7131-.75a.0961.0961,0,0,1,.12.0917c-.0134.29-.3454.49-.53.6891-.2479.2671-.45.5689-.7058.828C234.96,246.3742,234.889,246.3385,234.9076,246.2876Z"/><path class="cls-14" d="M224.5133,245.616c-.0044-.26-.3075-.4357-.4859-.5671-.1259-.0936-.0568-.3127.1117-.2653.28.0789.7961.5758.585.89A.114.114,0,0,1,224.5133,245.616Z"/></g><g id="_4-3" data-name="4"><text class="cls-7" transform="translate(180.8368 356.112)">We establish an educational and nurturing<tspan x="0" y="14.4004">environment for our children.</tspan></text><path class="cls-8" d="M173.7117,359.3941a2.7543,2.7543,0,1,0-2.1623,2.1623A2.7569,2.7569,0,0,0,173.7117,359.3941Z"/><g class="cls-11"><path class="cls-12" d="M200.07,309.43H346.1088a13.2842,13.2842,0,0,1,13.2842,13.2842h0a13.2842,13.2842,0,0,1-13.2842,13.2843H200.07Z"/></g><path class="cls-2" d="M214.3153,325.8689a15.33,15.33,0,1,0-13.207,13.2072A15.3362,15.3362,0,0,0,214.3153,325.8689Z"/><text class="cls-9" transform="translate(218.3803 326.9167)">Parenting Education</text><circle class="cls-4" cx="115.4257" cy="285.708" r="7.84" transform="translate(-3.5012 1.4396) rotate(-0.7039)"/><path class="cls-2" d="M112.9116,283.2564a3.5116,3.5116,0,1,0,4.9658-.0625A3.5116,3.5116,0,0,0,112.9116,283.2564Z"/><path class="cls-4" d="M178.2239,328.34a2.6133,2.6133,0,1,1,2.6134-2.6133A2.6133,2.6133,0,0,1,178.2239,328.34Z"/><polyline class="cls-4" points="118.089 293.31 132.514 325.727 175.468 325.727"/><circle class="cls-10" cx="206.0967" cy="314.8733" r="1.4807"/><path class="cls-10" d="M199.1411,314.3521a10.865,10.865,0,0,0,4.84,4.09l.26,2.22-2.51,9.85h2.34l.45,2.48a.3627.3627,0,0,0,.72-.06v-2.42h.36v2.42a.3573.3573,0,0,0,.71.06l.45-2.48h1.93l-1.76-9.32.2-1.21a11.287,11.287,0,0,1,1.48,3.96.4883.4883,0,0,0,.59.38.5194.5194,0,0,0,.37-.51,11.6748,11.6748,0,0,0-1.33-5.58,2.4786,2.4786,0,0,0-1.5-1.17l-2.76-.75-.01-.01h-.03l-.23-.07v.01a10.3653,10.3653,0,0,1-3.83-2.51.5.5,0,0,0-.62-.06A.4782.4782,0,0,0,199.1411,314.3521Z"/><circle class="cls-10" cx="190.818" cy="314.8733" r="1.4807"/><path class="cls-10" d="M186.6311,323.8421a.4759.4759,0,0,0,.48.49.4838.4838,0,0,0,.48-.41,12.2325,12.2325,0,0,1,1.32-3.7l.42,4.31.86,8.25a.564.564,0,0,0,.56.51.5763.5763,0,0,0,.57-.57v-8.44l.36-.05v8.49a.5677.5677,0,0,0,.56.57h.06a.56.56,0,0,0,.56-.53l.62-8.76.26-5.53c.85-.28,2.83-1.23,4.93-4.12a.4782.4782,0,0,0-.12-.68.4867.4867,0,0,0-.62.06c-.75.72-2.54,2.3-4.09,2.57l-4.35.83a2.2192,2.2192,0,0,0-1.52,1.07A11.6848,11.6848,0,0,0,186.6311,323.8421Z"/><path class="cls-10" d="M198.5821,318.3626h.03a.8733.8733,0,0,1,1.6011.6866,2.4326,2.4326,0,0,1-1.6012,1.6758l0,.01-.0148-.0047-.0149.0047,0-.01a2.4328,2.4328,0,0,1-1.6012-1.6758A.8733.8733,0,0,1,198.5821,318.3626Z"/><circle class="cls-10" cx="198.4366" cy="323.5917" r="1.4204"/><path class="cls-10" d="M194.4711,323.7521a.516.516,0,0,0,.02.11,6.6581,6.6581,0,0,0,2.36,3.2l.17,2.37h-.01l.34,3.47a.424.424,0,0,0,.42.39.4332.4332,0,0,0,.43-.43v-3.43h.47v3.43a.4332.4332,0,0,0,.43.43.424.424,0,0,0,.42-.39l.34-3.47.16-2.36a6.6475,6.6475,0,0,0,2.36-3.21.516.516,0,0,0,.02-.11.3517.3517,0,0,0-.17-.3.3478.3478,0,0,0-.46.11,5.6214,5.6214,0,0,1-2.15,1.97h-2.37a5.6214,5.6214,0,0,1-2.15-1.97.3478.3478,0,0,0-.46-.11A.3517.3517,0,0,0,194.4711,323.7521Z"/></g><g id="_5-2" data-name="5"><rect class="cls-5" x="41.7614" y="416.5971" width="429.8226" height="34.1001" rx="17.05" transform="translate(513.3455 867.2943) rotate(180)"/><text class="cls-7" transform="translate(53.5402 431.1515)">We create future leaders who possess management skills and understand<tspan x="0" y="14.4004">its secrets.</tspan></text><text class="cls-9" transform="translate(72.0473 401.15)">Leadership Training</text><path class="cls-8" d="M45.0461,432.4336a2.7543,2.7543,0,1,0-2.1622,2.1624A2.7569,2.7569,0,0,0,45.0461,432.4336Z"/><g class="cls-11"><path class="cls-12" d="M54.4046,383.47H195.4432a13.2843,13.2843,0,0,1,13.2842,13.2843h0a13.2842,13.2842,0,0,1-13.2842,13.2842H54.4046Z"/></g><path class="cls-2" d="M68.65,399.9085a15.33,15.33,0,1,0-13.207,13.2072A15.3361,15.3361,0,0,0,68.65,399.9085Z"/><path class="cls-4" d="M45.2422,279.7392a7.8459,7.8459,0,1,0-.1094-8.71A7.853,7.853,0,0,0,45.2422,279.7392Z"/><path class="cls-2" d="M48.815,277.29a3.5143,3.5143,0,1,0-.05-3.9013A3.5176,3.5176,0,0,0,48.815,277.29Z"/><path class="cls-4" d="M49.4117,377.0087a2.709,2.709,0,0,1,3.8291-3.8283A2.709,2.709,0,0,1,49.4117,377.0087Z"/><line class="cls-4" x1="51.3262" y1="283.3845" x2="51.3262" y2="372.1384"/><g id="_1907_Class_Education_People_School_Students" data-name="1907, Class, Education, People, School, Students"><path class="cls-10" d="M44.3111,388.309h12.132a.4082.4082,0,1,1,0,.8163H44.6922v11.6164H56.4431a.4082.4082,0,1,1,0,.8163H44.3111a.418.418,0,0,1-.413-.4082V388.7172A.418.418,0,0,1,44.3111,388.309Z"/><path class="cls-10" d="M59.27,400.71V398.701a.4129.4129,0,0,1,.8257,0V400.71a.4129.4129,0,0,1-.8257,0Z"/><path class="cls-10" d="M56.4431,397.508H57.65v3.1708a.413.413,0,0,0,.8259,0v-4.8034a.413.413,0,0,0-.8259,0v.7849H56.856v-.7849c0-.0942.0317-.22.0317-.3454a.4046.4046,0,0,0-.4128-.4395H52.8225v-.7849h4.3194a.393.393,0,0,0,.3176-.157,2.8773,2.8773,0,0,1,2.2232-1.036,2.8167,2.8167,0,0,1,2.8265,2.7942v.7849h-.7939v-.7849a.413.413,0,0,0-.8259,0v4.8349a.413.413,0,0,0,.8259,0v-3.2024H62.89a.4179.4179,0,0,0,.4128-.4081v-1.2244a3.6074,3.6074,0,0,0-2.16-3.2966,2.4139,2.4139,0,1,0-2.9219,0,3.43,3.43,0,0,0-1.2386.8791H52.378a.4179.4179,0,0,0-.4129.4082v1.6011a.4179.4179,0,0,0,.4129.4082H56.03V397.1a.4181.4181,0,0,0,.4128.4082Zm3.24-5.18a1.6013,1.6013,0,1,1,1.62-1.6012A1.6174,1.6174,0,0,1,59.6827,392.3277Z"/><path class="cls-10" d="M55.6492,399.5173a.418.418,0,0,1-.413.4081H46.7247a.4082.4082,0,1,1,0-.8163h8.5115A.418.418,0,0,1,55.6492,399.5173Z"/><rect class="cls-10" x="54.0294" y="390.3183" width="0.794" height="0.7849"/><rect class="cls-10" x="51.2028" y="390.3183" width="0.7941" height="0.7849"/><rect class="cls-10" x="48.3762" y="390.3183" width="0.7939" height="0.7849"/><path class="cls-10" d="M58.444,406.7069v.408a.4181.4181,0,0,0,.4128.4083H62.89a.418.418,0,0,0,.4128-.4083v-.408a2.3494,2.3494,0,0,0-1.2385-2.1036,1.5061,1.5061,0,0,0,.4446-1.0989,1.62,1.62,0,0,0-3.2394,0,1.5057,1.5057,0,0,0,.4446,1.0989A2.5941,2.5941,0,0,0,58.444,406.7069Zm2.4772-2.4176a.7849.7849,0,1,1,.7941-.7849A.7817.7817,0,0,1,60.9212,404.2893ZM59.27,406.7069a1.62,1.62,0,0,1,3.2394,0Z"/><path class="cls-10" d="M51.2028,406.7069v.408a.418.418,0,0,0,.4128.4083h4.0336a.4181.4181,0,0,0,.4129-.4083v-.408a2.3778,2.3778,0,0,0-1.27-2.1036,1.5057,1.5057,0,0,0,.4445-1.0989,1.62,1.62,0,0,0-3.2393,0,1.5057,1.5057,0,0,0,.4445,1.0989A2.49,2.49,0,0,0,51.2028,406.7069Zm2.4138-2.4176a.7849.7849,0,1,1,.794-.7849A.7818.7818,0,0,1,53.6166,404.2893Zm-1.62,2.4176a1.62,1.62,0,0,1,3.2393,0Z"/><path class="cls-10" d="M43.8981,406.7069v.408a.4181.4181,0,0,0,.413.4083h4.0334a.4181.4181,0,0,0,.4129-.4083v-.408a2.35,2.35,0,0,0-1.2387-2.1036,1.5058,1.5058,0,0,0,.4447-1.0989,1.62,1.62,0,0,0-3.2395,0,1.5061,1.5061,0,0,0,.4446,1.0989A2.4535,2.4535,0,0,0,43.8981,406.7069Zm2.4456-2.4176a.7849.7849,0,1,1,.7939-.7849A.7629.7629,0,0,1,46.3437,404.2893Zm-1.62,2.4176a1.62,1.62,0,0,1,3.2395,0Z"/></g></g></g></g></g></svg>