<svg xmlns="http://www.w3.org/2000/svg" viewBox="0 0 549.5745 459.5745"><defs><style>.cls-1{isolation:isolate;}.cls-2,.cls-6{fill:#12bbc2;}.cls-2{opacity:0.24;}.cls-3{font-size:24px;font-family:Como-ExtraBold, Como;font-weight:800;}.cls-11,.cls-3,.cls-5,.cls-8,.cls-9{fill:#00193e;}.cls-4{fill:none;stroke:#12bbc2;stroke-miterlimit:10;}.cls-5{font-size:12px;font-family:Como;}.cls-7{mix-blend-mode:color-dodge;}.cls-8{font-size:14px;font-family:Como-Bold, Como;font-weight:700;}.cls-10{fill:#fff;}.cls-10,.cls-11{fill-rule:evenodd;}</style></defs><g class="cls-1"><g id="Layer_11" data-name="Layer 11"><g id="_4-2" data-name="4"><circle class="cls-2" cx="121.6628" cy="214.143" r="67.3428"/><text class="cls-3" transform="translate(65.8078 209.4722)">What sets<tspan x="10.4639" y="28.7998">us apart</tspan></text><circle class="cls-4" cx="121.0864" cy="214.143" r="76.44"/><g id="_6-2" data-name="6"><rect class="cls-2" x="84.2207" y="49.5595" width="400.7367" height="28.598" rx="14.299" transform="translate(569.1782 127.717) rotate(-180)"/><text class="cls-5" transform="translate(91.7557 67.4158)">We train them in the best ways to communicate positively with others.</text><path class="cls-6" d="M87.8622,63.6979A2.7543,2.7543,0,1,0,85.7,65.86,2.7569,2.7569,0,0,0,87.8622,63.6979Z"/><g class="cls-7"><path class="cls-4" d="M80.2207,13.7341H251.2593a13.2842,13.2842,0,0,1,13.2842,13.2842h0a13.2842,13.2842,0,0,1-13.2842,13.2843H80.2207Z"/></g><path class="cls-6" d="M94.4658,30.1727A15.33,15.33,0,1,0,81.2588,43.38,15.3362,15.3362,0,0,0,94.4658,30.1727Z"/><text class="cls-8" transform="translate(99.2625 31.2205)">Positive Communication</text><path class="cls-4" d="M71.8866,147.246a7.8458,7.8458,0,1,1-.1094,8.71A7.853,7.853,0,0,1,71.8866,147.246Z"/><path class="cls-6" d="M75.4594,149.6949a3.5143,3.5143,0,1,1-.05,3.9012A3.5176,3.5176,0,0,1,75.4594,149.6949Z"/><path class="cls-4" d="M76.0561,46.9764a2.709,2.709,0,0,0,3.829,3.8284A2.709,2.709,0,0,0,76.0561,46.9764Z"/><line class="cls-4" x1="77.9706" y1="143.6006" x2="77.9706" y2="51.8467"/><path class="cls-9" d="M73.6584,19.0568l-5.4765,5.4768,2.0758,2.076a5.31,5.31,0,0,0,.99,2.8486,7.5188,7.5188,0,0,0,.9089,1.1024c.2231.2259.4492.4481.6727.6731a1.4074,1.4074,0,0,0-.0638,1.9016,1.1531,1.1531,0,0,0,.9141.48c.007,0-.1413.1927-.1457.1981a1.2664,1.2664,0,0,0,.1356,1.8679,1.4315,1.4315,0,0,0,1.6556.3895.0157.0157,0,0,1,.0166.0061c.9688,1.4515,1.7911,1.4327,3.0237.398a1.29,1.29,0,0,0,.53.585,1.8988,1.8988,0,0,0,2.2552-.2963c.2038-.1966.4046-.396.6075-.5931.4886-.0394.9422-.3958,1.4338-1.1317a.0146.0146,0,0,1,.0162-.0061,1.432,1.432,0,0,0,1.6555-.3893,1.2535,1.2535,0,0,0,.2205-1.7513c.4308-.4311.8642-.8593,1.2924-1.2932a7.5072,7.5072,0,0,0,.9089-1.1024,5.3086,5.3086,0,0,0,.99-2.8485l2.0759-2.0761L84.8739,20.095l-1.7373,1.7375a3.0588,3.0588,0,0,0-3.5183.197l-.4632-.4653-.0333-.0294a3.2109,3.2109,0,0,0-3.2909-.6193c-.0949.0068-.19.016-.2847.0291Zm11.834,10.9024q-2.085-2.0985-4.1819-4.1856l-.0354-.0372a.4087.4087,0,0,0-.11-.1892q-.3576-.3576-.7151-.7149l.2432-.2443.5611-.6571-.5043-.3524-2.0736,2.0833a.5436.5436,0,0,1-.7681.002l-.1343-.1334a.5466.5466,0,0,1-.0017-.7685l2.0268-2.0363a2.431,2.431,0,0,1,2.9564-.3427l.0459.1133.7007-.0584-.0061-.0151.0957-.0957,1.2015-1.3218L89.32,25.5319,87.4641,27.508a3.95,3.95,0,0,1-.0148.49,3.9,3.9,0,0,1-.0971.5721,5.0485,5.0485,0,0,1-1.3091,2.2336A2.1439,2.1439,0,0,0,85.4924,29.9592Zm-6.2971,6.2435a1.8328,1.8328,0,0,0,.4422-.1811,1.29,1.29,0,0,0,.53-.585,4.4248,4.4248,0,0,0,.7339.5139c-.0979.0969-.195.1947-.293.2913a1.2093,1.2093,0,0,1-.7213.4365.691.691,0,0,1-.5651-.2267A.5243.5243,0,0,1,79.1953,36.2027ZM76.5233,35.05l.0827-.0829c.2593.2521.5161.5069.7763.758a1.9459,1.9459,0,0,0,.2826.2239c-.07.0656-.1395.1325-.21.1979-.4544.4214-.81.3893-1.121.0241C76.0391,35.825,76.0955,35.4786,76.5233,35.05ZM74.38,33.9709c.1981-.1988.3976-.3965.5957-.5953.3508.3458.7047.6883,1.0572,1.0323q-.32.32-.6408.64a.742.742,0,0,1-1.2247-.01C73.9331,34.7173,73.9978,34.3547,74.38,33.9709ZM73.3951,31.8c.3377.3381.674.6775,1.0134,1.0141a1.1786,1.1786,0,0,1-.1067.0675A.7251.7251,0,0,1,73.2906,32.5.6594.6594,0,0,1,73.3951,31.8Zm.2173-11.8367,1.328,1.326.4566.4569a3.0337,3.0337,0,0,1,1.6206-.3718,3.0023,3.0023,0,0,1,1.6773.68l.4125.4144-.3036.3049h0l-1.5444,1.56a1.21,1.21,0,0,0,.0411,1.6732l.1339.1334a1.2167,1.2167,0,0,0,1.7185-.0042l.6963-.7q2.528,2.5636,5.086,5.0982c.26.259.47.5188.3066.928a.725.725,0,0,1-1.0113.3807,2.106,2.106,0,0,1-.447-.3663q-1.5411-1.5333-3.0744-3.0733c-.1942-.1949-.4138-.4061-.6683-.1676-.2664.2494-.0958.4919.1216.7082q1.999,1.99,3.99,3.9888c.3823.3838.4475.7466.2126,1.0672a.7421.7421,0,0,1-1.2247.01q-1.9656-1.9579-3.9251-3.9229a.646.646,0,0,0-.6351-.267c-.1811.0273-.2454.183-.2244.3593a.7923.7923,0,0,0,.3189.4964q1.6671,1.6687,3.3346,3.3362c.4278.4284.4842.7749.1894,1.121-.3105.3655-.6665.3974-1.121-.024-1.0042-.9317-1.9717-1.9026-2.9524-2.86-.2108-.2058-.419-.4142-.6267-.6231-.1973-.1985-.6666-.79-.9947-.4835-.3573.3346.2795.8094.4973,1.0347q.3071.3171.6194.6291c.4264.4282.8568.8525,1.2789,1.2849a1.5908,1.5908,0,0,1,.4461.6276.83.83,0,0,1-.1347.6948.692.692,0,0,1-.5651.2268,1.209,1.209,0,0,1-.7212-.4365c-.9339-.9192-1.8563-1.8495-2.7831-2.7759-.8827-.8829-1.7837-1.7487-2.6436-2.6534A5.0477,5.0477,0,0,1,71.18,27.5321a3.88,3.88,0,0,1-.0971-.5719,4.0343,4.0343,0,0,1-.0149-.49l-1.9823-1.98Z"/></g><g id="_1" data-name="1"><rect class="cls-2" x="202.8888" y="117.6188" width="297.2512" height="34.5759" rx="17.2879" transform="translate(703.0287 269.8134) rotate(180)"/><text class="cls-5" transform="translate(212.2827 131.1029)">We offer creative training programs based on the<tspan x="0" y="14.4004">latest educational and training theories.</tspan></text><circle class="cls-6" cx="202.8888" cy="133.9172" r="2.6913"/><g class="cls-7"><path class="cls-4" d="M219.1485,85.023H354.1871a13.2843,13.2843,0,0,1,13.2842,13.2843h0a13.2842,13.2842,0,0,1-13.2842,13.2842H219.1485Z"/></g><circle class="cls-6" cx="213.8536" cy="98.4693" r="15.3255" transform="translate(-16.6073 146.6079) rotate(-36.5221)"/><text class="cls-8" transform="translate(232.5384 102.5093)">Innovative Curricula</text><circle class="cls-4" cx="128.7855" cy="138.6247" r="7.84" transform="translate(-11.4108 265.6974) rotate(-89.2961)"/><path class="cls-6" d="M126.2713,141.0763a3.5116,3.5116,0,1,1,4.9658.0625A3.5116,3.5116,0,0,1,126.2713,141.0763Z"/><path class="cls-4" d="M191.5836,95.9925a2.6133,2.6133,0,1,0,2.6134,2.6133A2.6133,2.6133,0,0,0,191.5836,95.9925Z"/><polyline class="cls-4" points="131.448 131.023 145.874 98.606 188.827 98.606"/><path class="cls-9" d="M212.1789,90.4289h-8.9422a.3708.3708,0,0,0-.3479.381v14.3988a.37.37,0,0,0,.0945.26l.0061.0072.0121.0125a.3073.3073,0,0,0,.2352.1017h8.5941v2.1934a.3571.3571,0,0,0,.132.2939.2593.2593,0,0,0,.3916.0352q.4015-.3293.803-.6589a6.7181,6.7181,0,0,0,.5232-.4291.6359.6359,0,0,1,.0943-.0739c.0577.04.1256.0815.1716.119q.2717.2212.5427.4421l.7371.6008c.2192.1783.5238-.0646.5238-.3291V105.59h8.72a.3711.3711,0,0,0,.3482-.3811V90.81a.3711.3711,0,0,0-.3482-.381H212.1789Zm3.5712.7622h8.3723v13.6364H215.75Zm-3.2232,0h2.5272v15.8365q-.5466-.4457-1.0936-.8912a.3105.3105,0,0,0-.3513,0q-.5413.444-1.0823.8881Zm-.6961,13.6364h-8.246V91.1911h8.246Z"/><path class="cls-9" d="M222.54,94.77H217.622c-.2985,0-.2991-.5082,0-.5082H222.54C222.8388,94.2622,222.8394,94.77,222.54,94.77Z"/><path class="cls-9" d="M222.54,96.9068H217.622c-.2985,0-.2991-.5081,0-.5081H222.54C222.8388,96.3987,222.8394,96.9068,222.54,96.9068Z"/><path class="cls-9" d="M222.54,99.0432H217.622c-.2985,0-.2991-.5081,0-.5081H222.54C222.8388,98.5351,222.8394,99.0432,222.54,99.0432Z"/><path class="cls-9" d="M222.54,101.18H217.622c-.2985,0-.2991-.5081,0-.5081H222.54C222.8388,100.6715,222.8394,101.18,222.54,101.18Z"/><path class="cls-9" d="M205.14,94.2622h4.9185c.2985,0,.2989.5082,0,.5082H205.14C204.8418,94.77,204.8412,94.2622,205.14,94.2622Z"/><path class="cls-9" d="M205.14,96.3987h4.9185c.2985,0,.2989.5081,0,.5081H205.14C204.8418,96.9068,204.8412,96.3987,205.14,96.3987Z"/><path class="cls-9" d="M205.14,98.5351h4.9185c.2985,0,.2989.5081,0,.5081H205.14C204.8418,99.0432,204.8412,98.5351,205.14,98.5351Z"/><path class="cls-9" d="M205.14,100.6715h4.9185c.2985,0,.2989.5081,0,.5081H205.14C204.8418,101.18,204.8412,100.6715,205.14,100.6715Z"/></g><g id="_2" data-name="2"><rect class="cls-2" x="241.4454" y="191.8573" width="280.278" height="34.1001" rx="17.05" transform="translate(763.1688 417.8148) rotate(-180)"/><rect class="cls-2" x="241.4454" y="267.3517" width="228.1929" height="34.1001" rx="17.05" transform="translate(711.0837 568.8036) rotate(180)"/><rect class="cls-2" x="197.0664" y="343.8771" width="259.8059" height="34.1001" rx="17.05" transform="translate(653.9388 721.8543) rotate(180)"/><text class="cls-5" transform="translate(253.6325 205.7136)">We help young individuals discover themselves<tspan x="0" y="14.4004">and understand their personality patterns.</tspan></text><path class="cls-6" d="M244.1466,208.9957a2.7543,2.7543,0,1,0-2.1623,2.1623A2.7569,2.7569,0,0,0,244.1466,208.9957Z"/><g class="cls-7"><path class="cls-4" d="M253.5051,159.0319H383.5437a13.2842,13.2842,0,0,1,13.2842,13.2842h0A13.2842,13.2842,0,0,1,383.5437,185.6H253.5051Z"/></g><path class="cls-6" d="M268.75,175.4705a15.33,15.33,0,1,0-13.207,13.2072A15.3362,15.3362,0,0,0,268.75,175.4705Z"/><text class="cls-8" transform="translate(271.9476 176.5183)">Self-Development</text><path class="cls-4" d="M189.7684,179.4219a7.8458,7.8458,0,1,0-8.71.1094A7.853,7.853,0,0,0,189.7684,179.4219Z"/><path class="cls-6" d="M187.32,175.8491a3.5143,3.5143,0,1,0-3.9013.05A3.5176,3.5176,0,0,0,187.32,175.8491Z"/><path class="cls-4" d="M233.0379,175.2524a2.709,2.709,0,0,1-3.8283-3.829A2.709,2.709,0,0,1,233.0379,175.2524Z"/><line class="cls-4" x1="193.4137" y1="173.3379" x2="228.1676" y2="173.3379"/><g id="_1909_Internet_Marketing_Media_Network_Seo" data-name="1909, Internet, Marketing, Media, Network, Seo"><path class="cls-9" d="M248.6966,172.9512a4.8966,4.8966,0,0,0,4.8963,4.84.5472.5472,0,1,1,0,1.0944,5.9446,5.9446,0,0,1-5.9609-5.8927.5607.5607,0,0,1,.5537-.5473A.4674.4674,0,0,1,248.6966,172.9512Z"/><path class="cls-9" d="M253.04,167.6057a.56.56,0,0,1,.5533-.5471,5.9441,5.9441,0,0,1,5.9608,5.8926.5535.5535,0,0,1-1.1069,0,4.8327,4.8327,0,0,0-4.8539-4.84A.5253.5253,0,0,1,253.04,167.6057Z"/><path class="cls-9" d="M251.4214,176.1922h4.5135a.56.56,0,0,0,.5533-.5473v-1.3467a2.77,2.77,0,0,0-1.3626-2.3571,2.0215,2.0215,0,0,0,.4259-1.2206,1.916,1.916,0,0,0-3.8317,0,1.7855,1.7855,0,0,0,.4254,1.2206,2.7177,2.7177,0,0,0-1.3622,2.3571v1.3467C250.783,175.94,251.0383,176.15,251.4214,176.1922Zm2.1715-4.672a.8042.8042,0,0,1-.8089-.8.833.833,0,0,1,.8089-.8.8043.8043,0,0,1,.8093.8A.833.833,0,0,1,253.5929,171.52Zm-1.6606,3.5776v-.8a1.7032,1.7032,0,0,1,3.4062,0v.8h-3.4062Z"/><path class="cls-9" d="M240.5643,172.9512a1.6079,1.6079,0,0,0,1.6178,1.5993,1.5741,1.5741,0,0,0,1.5327-1.0522h1.1925a8.5251,8.5251,0,0,0,2.171,5.1351l-.8512.8418a1.632,1.632,0,0,0-1.8735.2947,1.5873,1.5873,0,0,0,0,2.2728,1.6323,1.6323,0,0,0,2.2993,0,1.6675,1.6675,0,0,0,.298-1.8519l.8517-.8418a8.7273,8.7273,0,0,0,5.1942,2.1464v1.1787a1.6083,1.6083,0,1,0,2.1716,1.5153,1.558,1.558,0,0,0-1.0646-1.5153v-1.1787a8.7279,8.7279,0,0,0,5.1947-2.1464l.8516.8418a1.5861,1.5861,0,0,0,.298,1.8519,1.6319,1.6319,0,0,0,2.299,0,1.5875,1.5875,0,0,0,0-2.2728,1.716,1.716,0,0,0-1.8731-.2947l-.8517-.8418a8.528,8.528,0,0,0,2.1715-5.1351h1.192a1.63,1.63,0,0,0,1.5328,1.0522,1.5994,1.5994,0,1,0,0-3.1986,1.5741,1.5741,0,0,0-1.5328,1.0522h-1.192a8.528,8.528,0,0,0-2.1715-5.1351l.8517-.8418a1.6313,1.6313,0,0,0,1.8731-.2947h0a1.5875,1.5875,0,0,0,0-2.2728,1.6321,1.6321,0,0,0-2.299,0,1.667,1.667,0,0,0-.298,1.8519l-.8516.8418a8.7286,8.7286,0,0,0-5.1947-2.1464v-1.1786a1.6083,1.6083,0,1,0-2.1715-1.5153,1.5581,1.5581,0,0,0,1.0645,1.5153v1.1786a8.7279,8.7279,0,0,0-5.1942,2.1464l-.8517-.8418a1.5861,1.5861,0,0,0-.298-1.8519,1.6325,1.6325,0,0,0-2.2993,0,1.5873,1.5873,0,0,0,0,2.2728,1.7162,1.7162,0,0,0,1.8735.2947l.8512.8418a8.5251,8.5251,0,0,0-2.171,5.1351h-1.1925a1.63,1.63,0,0,0-1.5327-1.0522A1.6079,1.6079,0,0,0,240.5643,172.9512Zm5.5349-7.955a.624.624,0,0,1-.17.3788.5444.5444,0,0,1-.7666,0,.529.529,0,0,1,0-.7575.4647.4647,0,0,1,.3831-.1686A.5606.5606,0,0,1,246.0992,164.9962Zm8.0473-3.2831a.5535.5535,0,1,1-.5536-.5471A.5338.5338,0,0,1,254.1465,161.7131Zm7.1105,3.6619h0a.529.529,0,0,1,0-.7575.5438.5438,0,0,1,.7662,0,.529.529,0,0,1,0,.7575A.5439.5439,0,0,1,261.257,165.375Zm3.1934,7.5762a.5535.5535,0,1,1,.5537.5471A.56.56,0,0,1,264.45,172.9512Zm-3.1934,7.5762a.5439.5439,0,0,1,.7662,0,.5292.5292,0,0,1,0,.7576.5439.5439,0,0,1-.7662,0A.5292.5292,0,0,1,261.257,180.5274Zm-8.2174,3.662a.5535.5535,0,1,1,.5533.547A.5335.5335,0,0,1,253.04,184.1894Zm-7.494-3.83a.5472.5472,0,1,1-.5532.5471A.5605.5605,0,0,1,245.5456,180.3591Zm.4686-7.4079a7.5794,7.5794,0,1,1,7.5787,7.492A7.5525,7.5525,0,0,1,246.0142,172.9512Zm-4.3858,0a.5537.5537,0,1,1,.5537.5471A.5919.5919,0,0,1,241.6284,172.9512Z"/></g></g><g id="_3" data-name="3"><text class="cls-5" transform="translate(251.2818 281.6584)">We instill values such as responsibility,<tspan x="0" y="14.4004">commitment, and creative thinking.</tspan></text><path class="cls-6" d="M245.0416,283.9406a2.7543,2.7543,0,1,0-2.1622,2.1623A2.7569,2.7569,0,0,0,245.0416,283.9406Z"/><g class="cls-7"><path class="cls-4" d="M257.4,232.9767H384.4387a13.2843,13.2843,0,0,1,13.2842,13.2843h0a13.2842,13.2842,0,0,1-13.2842,13.2842H257.4Z"/></g><path class="cls-6" d="M271.6452,249.4154a15.33,15.33,0,1,0-13.207,13.2072A15.3361,15.3361,0,0,0,271.6452,249.4154Z"/><text class="cls-8" transform="translate(274.9358 250.4631)">Values and Ethics</text><path class="cls-4" d="M193.6634,253.3668a7.8458,7.8458,0,1,0-8.71.1094A7.853,7.853,0,0,0,193.6634,253.3668Z"/><path class="cls-6" d="M191.2145,249.794a3.5144,3.5144,0,1,0-3.9012.05A3.5176,3.5176,0,0,0,191.2145,249.794Z"/><path class="cls-4" d="M236.933,249.1973a2.709,2.709,0,0,1-3.8284-3.8291A2.709,2.709,0,0,1,236.933,249.1973Z"/><line class="cls-4" x1="197.3088" y1="247.2828" x2="232.0627" y2="247.2828"/><path class="cls-10" d="M256.693,244.8409a4.5674,4.5674,0,1,1,4.5674-4.5674A4.576,4.576,0,0,1,256.693,244.8409Z"/><path class="cls-11" d="M256.693,244.5494a4.2845,4.2845,0,1,0-3.0208-1.2547,4.2629,4.2629,0,0,0,3.0208,1.2547Zm-4.8586-4.2759a4.8678,4.8678,0,1,1,1.4258,3.4329A4.8426,4.8426,0,0,1,251.8344,240.2735Z"/><path class="cls-10" d="M256.6934,258.4158s-7.9082-.2115-8.3312-2.7489.8882-8.543,2.58-9.0923,2.9687-.8918,2.9687-.8918l2.7828,1.2821,2.9-1.2478s1.16.3075,2.8512.8575,3.0026,6.5549,2.58,9.0923S256.6934,258.4158,256.6934,258.4158Z"/><path class="cls-11" d="M256.6934,258.1254c.2708-.0084,7.6672-.2454,8.0443-2.5065a14.9313,14.9313,0,0,0-.6-5.57c-.4619-1.6275-1.1025-2.9772-1.7832-3.1985-1.3967-.4539-2.4286-.7418-2.7391-.8266l-2.8075,1.2084v-.001a.2885.2885,0,0,1-.2366-.0026l-2.6863-1.2379c-.3309.0906-1.4483.4033-2.8533.86-.6807.2213-1.3214,1.571-1.7832,3.1985a14.937,14.937,0,0,0-.6,5.57c.3771,2.2611,7.7739,2.4981,8.0447,2.5065Zm-8.0047-8.2333c.51-1.7967,1.2748-3.3055,2.1636-3.5944,1.7024-.5533,2.9793-.8955,2.983-.8962a.29.29,0,0,1,.2067.0218l2.655,1.2231,2.7813-1.1965a.2866.2866,0,0,1,.198-.0116c.1034.0272,1.234.3319,2.8581.8594.8885.2889,1.6536,1.7977,2.1632,3.5948a15.5311,15.5311,0,0,1,.6134,5.8221c-.4623,2.7751-8.5863,2.9906-8.61,2.9909h-.0161c-.0233,0-8.1473-.2158-8.61-2.9909A15.548,15.548,0,0,1,248.6887,249.8921Z"/><path class="cls-10" d="M263.6581,253.5452q-3.3366-1.4481-6.6724-2.8963a1.8943,1.8943,0,0,0-.664-1.6864c-1.4847-.7582-1.19-1.8834-1.6045-1.9372s-.6767.3662-.3665,1.0923a2.8616,2.8616,0,0,1,.2861.914c-.7538-.4531-1.1972-.7305-1.951-1.1833-.6166-.3346-.9457.3207-.728.5438-.2982-.2-.6563-.3578-.9049.0513s.1951.756.1951.756c-.225-.0822-.6323.5988.1649,1.0738,0,0-.7706.4463.42,1.167,1.9255,1.2259,2.1388,1.5076,3.8245,1.4651,0,0,5.6419,3.36,6.1981,3.898C264.088,258.2851,266.5315,254.6088,263.6581,253.5452Z"/><path class="cls-11" d="M263.7531,253.27l.0051.0018a2.0105,2.0105,0,0,1,1.4945,1.7788,2.1353,2.1353,0,0,1-.2657,1.1124,2.5271,2.5271,0,0,1-.7793.8707,2.1566,2.1566,0,0,1-2.5123.0113.2915.2915,0,0,1-.0411-.0332c-.498-.4808-5.421-3.4255-6.0737-3.815-1.5142.03-1.8786-.2057-3.3141-1.1331-.205-.1325-.4314-.2785-.57-.3669l-.0135-.0077c-1.0017-.6064-.92-1.1022-.7152-1.3911a.979.979,0,0,1-.3152-.6509.8262.8262,0,0,1,.0509-.3338.7517.7517,0,0,1,.1038-.19.7636.7636,0,0,1-.0026-.83.7138.7138,0,0,1,.7062-.3942.8758.8758,0,0,1,.1492.0266.7683.7683,0,0,1,.1027-.1736.753.753,0,0,1,.29-.225.8546.8546,0,0,1,.772.0648l-.0007.0011.0109.0059c.4062.2445.693.4193.9791.594l.3473.2115c-.0215-.0514-.0455-.1041-.0724-.1591h0l-.0061-.0135a1.6251,1.6251,0,0,1-.15-.8335.84.84,0,0,1,.134-.3684.6736.6736,0,0,1,.2948-.2435.741.741,0,0,1,.3924-.0495c.328.0429.4092.2723.5271.6053a2.1606,2.1606,0,0,0,1.172,1.3606v0l.0252.0142a2.0422,2.0422,0,0,1,.8055,1.7446l6.4686,2.8083Zm-7.0557-2.6536h-.0008a1.6031,1.6031,0,0,0-.5194-1.4017,2.6751,2.6751,0,0,1-1.444-1.68c-.0473-.1336-.0273-.2195-.0535-.2228a.1788.1788,0,0,0-.0895.0084.1011.1011,0,0,0-.0426.0368.2693.2693,0,0,0-.0386.1153,1.0481,1.0481,0,0,0,.1034.5169,3.1727,3.1727,0,0,1,.3134,1.0127.29.29,0,0,1-.2606.3174.2836.2836,0,0,1-.182-.0423c-.4033-.242-.688-.416-.9719-.5893-.31-.1889-.62-.3778-.9642-.5849v.0007a.3039.3039,0,0,0-.2625-.0447.1722.1722,0,0,0-.0644.0517.1828.1828,0,0,0-.036.0728c-.0029.0116-.0273-.0037-.0182.0054a.29.29,0,0,1-.3778.4383.8012.8012,0,0,0-.3255-.1482c-.052-.0044-.1074.0244-.162.1139-.1142.1882.1274.3775.1278.3779a.2907.2907,0,0,1-.1689.5183.17.17,0,0,0-.0123.0269.248.248,0,0,0-.0142.1012c.0065.1172.0906.2643.3286.4062a.2905.2905,0,0,1,.0008.498l0,0c-.0011,0-.3523.201.4205.6687l.0251.0164c.2846.1813.4338.2777.5722.3673,1.3424.8674,1.6645,1.0756,3.07,1.04a.2875.2875,0,0,1,.1558.0411c.0164.01,5.5349,3.2971,6.2269,3.9159a1.5955,1.5955,0,0,0,1.8443-.0156,1.9469,1.9469,0,0,0,.597-.668,1.5579,1.5579,0,0,0,.1976-.81,1.4648,1.4648,0,0,0-1.1145-1.26.2632.2632,0,0,1-.0361-.0161l-6.6513-2.8872A.2894.2894,0,0,1,256.6974,250.6168Z"/><path class="cls-11" d="M257.1866,251.4733a.6438.6438,0,0,1-.4812-.56c-.0422-.2253-.071-.7.1681-.8288a.0861.0861,0,0,1,.1161.03c.0951.1791-.0112.4314-.0127.6272a1.194,1.194,0,0,0,.2257.71C257.2106,251.4631,257.1975,251.4762,257.1866,251.4733Z"/><path class="cls-11" d="M252.9573,251.2451a5.02,5.02,0,0,1-.9311-.518,2.5667,2.5667,0,0,1-.8892-.685.1238.1238,0,0,1,.139-.1809,5.1673,5.1673,0,0,1,.9111.5908,2.4165,2.4165,0,0,1,.8237.7232A.0478.0478,0,0,1,252.9573,251.2451Z"/><path class="cls-11" d="M253.0385,250.2557c-.4059.019-.8194-.3512-1.1481-.5507-.3207-.1951-.7978-.4186-.9293-.7924-.0345-.1.0812-.1565.1588-.122a3.0607,3.0607,0,0,1,.5008.3651c.2075.1475.4306.2738.6446.4106.2574.1649.6811.3666.7881.67A.0155.0155,0,0,1,253.0385,250.2557Z"/><path class="cls-11" d="M253.5331,249.531a9.3874,9.3874,0,0,1-1.1134-.5823c-.27-.1457-.7011-.34-.7189-.6818a.1191.1191,0,0,1,.1183-.118c.3119-.0174.5838.3465.799.542.3032.2756.6737.4736.96.763C253.6088,249.4848,253.5783,249.5482,253.5331,249.531Z"/><path class="cls-11" d="M255.162,249.0069c-.0091.19-.2351.2865-.3723.3774-.0947.0627-.463.2152-.5362.0532-.0866-.1907.1867-.1907.3028-.22a1.3248,1.3248,0,0,0,.3491-.14.52.52,0,0,1,.23-.0976A.0268.0268,0,0,1,255.162,249.0069Z"/><path class="cls-11" d="M260.9026,249.74a4.3789,4.3789,0,0,1,.11,1.3282,3.874,3.874,0,0,0,.1248.7407c.0594.2275.2017.4139.1791.6509a.0706.0706,0,0,1-.1044.06c-.37-.19-.4095-.8179-.4511-1.1885a3.532,3.532,0,0,1,.0925-1.5983C260.8637,249.7087,260.895,249.7214,260.9026,249.74Z"/><path class="cls-11" d="M261.3791,251.2131c.0113.214.0375.4218.0346.6369a3.1943,3.1943,0,0,1,.0254.6676.1149.1149,0,0,1-.1911.0506c-.2831-.3662-.052-.9467.003-1.3551A.0641.0641,0,0,1,261.3791,251.2131Z"/><path class="cls-11" d="M264.389,253.2292a3.6875,3.6875,0,0,0-1.65-.4146c-.2562-.016-.5132-.016-.77-.0142a.914.914,0,0,1-.5394-.0716.0738.0738,0,0,1,0-.1264,1.2174,1.2174,0,0,1,.6671-.08,7.1666,7.1666,0,0,1,.8973.0415,2.4927,2.4927,0,0,1,1.4174.6377C264.4261,253.215,264.4068,253.2394,264.389,253.2292Z"/><path class="cls-11" d="M260.5051,246.068a10.6263,10.6263,0,0,1-1.2892,1.9164c-.17.26-.4332,1.0268-.8562.946a.1536.1536,0,0,1-.11-.1095c-.0859-.3669-.4572-.6046-.7218-.8376a10.7625,10.7625,0,0,0-.97-.77.1132.1132,0,0,1,.114-.1955,4.7467,4.7467,0,0,1,1.0305.7906,6.1464,6.1464,0,0,1,.8346.8908l-.1773-.0721c.2173-.031.3826-.4666.474-.637a5.6061,5.6061,0,0,1,.5419-.7509c.2206-.2872.4543-.5664.6662-.8594a.7532.7532,0,0,1,.43-.3454C260.49,246.0305,260.5128,246.0476,260.5051,246.068Z"/><path class="cls-11" d="M256.8051,247.1469a1.966,1.966,0,0,1-.5289.5707,2.8952,2.8952,0,0,1-.6363.4885c-.09.0386-.2-.0441-.1426-.1424a2.2551,2.2551,0,0,1,.5864-.5387,3.6414,3.6414,0,0,1,.637-.4626A.0623.0623,0,0,1,256.8051,247.1469Z"/><path class="cls-11" d="M253.3082,245.9573c.0553.119.16.2279.2253.344.0841.1492.1868.2883.28.4324.1118.1718.3316.4066.2261.62a.0651.0651,0,0,1-.0728.03c-.22-.0491-.3382-.4025-.4474-.5776a3.6132,3.6132,0,0,1-.2369-.4546,1.1944,1.1944,0,0,1-.0532-.3728C253.2237,245.9369,253.2907,245.92,253.3082,245.9573Z"/><path class="cls-11" d="M250.7722,257.6029c.0848-1.089.1478-1.77.2971-2.8551.0808-.5861.1379-1.1786.2013-1.7661a3.9264,3.9264,0,0,1,.234-1.2584c.048-.1066.1485-.1077.1653.02a4.7,4.7,0,0,1-.0889,1.2755c-.0779.5889-.1383,1.1764-.23,1.7631a18.4371,18.4371,0,0,1-.46,2.8672C250.8523,257.7769,250.7617,257.7362,250.7722,257.6029Z"/><path class="cls-11" d="M256.816,247.1072c.178.1285.0885.4856.07.6606a4.11,4.11,0,0,1-.1627,1.3821.0944.0944,0,0,1-.1715-.0218,5.7851,5.7851,0,0,1,.0109-1.1077,4.9144,4.9144,0,0,1,.0805-.843A.1178.1178,0,0,1,256.816,247.1072Z"/><path class="cls-11" d="M261.552,248.1027a2.91,2.91,0,0,1,.491-.8073c.1766-.2246.4091-.7.7131-.7506a.0961.0961,0,0,1,.12.0917c-.0135.29-.3454.49-.53.6891-.2479.2672-.45.5689-.7058.8281C261.6048,248.1893,261.5334,248.1537,261.552,248.1027Z"/><path class="cls-11" d="M251.1577,247.4311c-.0044-.2595-.3076-.4357-.4859-.5671-.126-.0935-.0568-.3127.1117-.2653.28.079.7961.5758.585.89A.114.114,0,0,1,251.1577,247.4311Z"/></g><g id="_4-3" data-name="4"><text class="cls-5" transform="translate(207.4812 357.9271)">We establish an educational and nurturing<tspan x="0" y="14.4004">environment for our children.</tspan></text><path class="cls-6" d="M200.3561,361.2092a2.7543,2.7543,0,1,0-2.1623,2.1624A2.7569,2.7569,0,0,0,200.3561,361.2092Z"/><g class="cls-7"><path class="cls-4" d="M226.7146,311.2454H372.7532A13.2843,13.2843,0,0,1,386.0374,324.53h0a13.2842,13.2842,0,0,1-13.2842,13.2842H226.7146Z"/></g><path class="cls-6" d="M240.96,327.6841a15.33,15.33,0,1,0-13.207,13.2072A15.3362,15.3362,0,0,0,240.96,327.6841Z"/><text class="cls-8" transform="translate(245.0247 328.7318)">Parenting Education</text><circle class="cls-4" cx="142.0701" cy="287.5232" r="7.84" transform="translate(-3.5215 1.767) rotate(-0.7039)"/><path class="cls-6" d="M139.556,285.0715a3.5116,3.5116,0,1,0,4.9658-.0625A3.5116,3.5116,0,0,0,139.556,285.0715Z"/><path class="cls-4" d="M204.8683,330.1553a2.6133,2.6133,0,1,1,2.6134-2.6133A2.6133,2.6133,0,0,1,204.8683,330.1553Z"/><polyline class="cls-4" points="144.733 295.125 159.158 327.542 202.112 327.542"/><circle class="cls-9" cx="232.7411" cy="316.6885" r="1.4807"/><path class="cls-9" d="M225.7855,316.1672a10.865,10.865,0,0,0,4.84,4.09l.26,2.22-2.51,9.85h2.34l.45,2.48a.3627.3627,0,0,0,.72-.06v-2.42h.36v2.42a.3573.3573,0,0,0,.71.06l.45-2.48h1.93l-1.76-9.32.2-1.21a11.287,11.287,0,0,1,1.48,3.96.4883.4883,0,0,0,.59.38.5194.5194,0,0,0,.37-.51,11.6748,11.6748,0,0,0-1.33-5.58,2.4786,2.4786,0,0,0-1.5-1.17l-2.76-.75-.01-.01h-.03l-.23-.07v.01a10.3653,10.3653,0,0,1-3.83-2.51.5.5,0,0,0-.62-.06A.4782.4782,0,0,0,225.7855,316.1672Z"/><circle class="cls-9" cx="217.4624" cy="316.6885" r="1.4807"/><path class="cls-9" d="M213.2755,325.6572a.4759.4759,0,0,0,.48.49.4838.4838,0,0,0,.48-.41,12.2325,12.2325,0,0,1,1.32-3.7l.42,4.31.86,8.25a.564.564,0,0,0,.56.51.5763.5763,0,0,0,.57-.57v-8.44l.36-.05v8.49a.5677.5677,0,0,0,.56.57h.06a.56.56,0,0,0,.56-.53l.62-8.76.26-5.53c.85-.28,2.83-1.23,4.93-4.12a.4782.4782,0,0,0-.12-.68.4867.4867,0,0,0-.62.06c-.75.72-2.54,2.3-4.09,2.57l-4.35.83a2.2192,2.2192,0,0,0-1.52,1.07A11.6848,11.6848,0,0,0,213.2755,325.6572Z"/><path class="cls-9" d="M225.2265,320.1777h.03a.8733.8733,0,0,1,1.6011.6866,2.4328,2.4328,0,0,1-1.6012,1.6758l0,.01-.0149-.0047-.0148.0047,0-.01a2.4328,2.4328,0,0,1-1.6012-1.6758A.8733.8733,0,0,1,225.2265,320.1777Z"/><circle class="cls-9" cx="225.081" cy="325.4068" r="1.4204"/><path class="cls-9" d="M221.1155,325.5672a.516.516,0,0,0,.02.11,6.6581,6.6581,0,0,0,2.36,3.2l.17,2.37h-.01l.34,3.47a.424.424,0,0,0,.42.39.4332.4332,0,0,0,.43-.43v-3.43h.47v3.43a.4332.4332,0,0,0,.43.43.424.424,0,0,0,.42-.39l.34-3.47.16-2.36a6.6475,6.6475,0,0,0,2.36-3.21.516.516,0,0,0,.02-.11.3517.3517,0,0,0-.17-.3.3478.3478,0,0,0-.46.11,5.6214,5.6214,0,0,1-2.15,1.97h-2.37a5.6214,5.6214,0,0,1-2.15-1.97.3478.3478,0,0,0-.46-.11A.3517.3517,0,0,0,221.1155,325.5672Z"/></g><g id="_5-2" data-name="5"><rect class="cls-2" x="68.4058" y="418.4122" width="429.8226" height="34.1001" rx="17.05" transform="translate(566.6343 870.9246) rotate(180)"/><text class="cls-5" transform="translate(80.1846 432.9666)">We create future leaders who possess management skills and understand<tspan x="0" y="14.4004">its secrets.</tspan></text><text class="cls-8" transform="translate(98.6917 402.9652)">Leadership Training</text><path class="cls-6" d="M71.6905,434.2488a2.7543,2.7543,0,1,0-2.1622,2.1623A2.757,2.757,0,0,0,71.6905,434.2488Z"/><g class="cls-7"><path class="cls-4" d="M81.049,385.285H222.0876a13.2842,13.2842,0,0,1,13.2842,13.2842h0a13.2841,13.2841,0,0,1-13.2842,13.2842H81.049Z"/></g><path class="cls-6" d="M95.2941,401.7236a15.33,15.33,0,1,0-13.207,13.2072A15.3362,15.3362,0,0,0,95.2941,401.7236Z"/><path class="cls-4" d="M71.8866,281.5543a7.8458,7.8458,0,1,0-.1094-8.71A7.853,7.853,0,0,0,71.8866,281.5543Z"/><path class="cls-6" d="M75.4594,279.1054a3.5143,3.5143,0,1,0-.05-3.9013A3.5176,3.5176,0,0,0,75.4594,279.1054Z"/><path class="cls-4" d="M76.0561,378.8238a2.709,2.709,0,0,1,3.829-3.8283A2.709,2.709,0,0,1,76.0561,378.8238Z"/><line class="cls-4" x1="77.9706" y1="285.1997" x2="77.9706" y2="373.9536"/><g id="_1907_Class_Education_People_School_Students" data-name="1907, Class, Education, People, School, Students"><path class="cls-9" d="M70.9555,390.1241h12.132a.4082.4082,0,1,1,0,.8163H71.3365v11.6164h11.751a.4082.4082,0,1,1,0,.8163H70.9555a.418.418,0,0,1-.413-.4082V390.5324A.4181.4181,0,0,1,70.9555,390.1241Z"/><path class="cls-9" d="M85.9142,402.5254v-2.0093a.4129.4129,0,0,1,.8257,0v2.0093a.4129.4129,0,0,1-.8257,0Z"/><path class="cls-9" d="M83.0875,399.3231h1.2068v3.1709a.413.413,0,0,0,.8259,0v-4.8035a.413.413,0,0,0-.8259,0v.7849H83.5v-.7849c0-.0941.0317-.22.0317-.3454a.4046.4046,0,0,0-.4128-.44H79.4669v-.7849h4.3194a.3927.3927,0,0,0,.3176-.157,2.8773,2.8773,0,0,1,2.2232-1.036,2.8168,2.8168,0,0,1,2.8265,2.7942v.7849H88.36v-.7849a.413.413,0,0,0-.8259,0v4.8349a.413.413,0,0,0,.8259,0v-3.2024h1.175a.4178.4178,0,0,0,.4128-.4081v-1.2244a3.6073,3.6073,0,0,0-2.16-3.2965,2.4139,2.4139,0,1,0-2.9219,0,3.4281,3.4281,0,0,0-1.2386.879H79.0224a.4179.4179,0,0,0-.4129.4082v1.6011a.4179.4179,0,0,0,.4129.4082h3.6523v1.193a.4181.4181,0,0,0,.4128.4082Zm3.24-5.18a1.6014,1.6014,0,1,1,1.62-1.6013A1.6174,1.6174,0,0,1,86.3271,394.1429Z"/><path class="cls-9" d="M82.2936,401.3324a.418.418,0,0,1-.413.4081H73.3691a.4082.4082,0,1,1,0-.8163h8.5115A.418.418,0,0,1,82.2936,401.3324Z"/><rect class="cls-9" x="80.6738" y="392.1334" width="0.794" height="0.7849"/><rect class="cls-9" x="77.8472" y="392.1334" width="0.7941" height="0.7849"/><rect class="cls-9" x="75.0206" y="392.1334" width="0.7939" height="0.7849"/><path class="cls-9" d="M85.0884,408.522v.4081a.4181.4181,0,0,0,.4128.4082h4.0335a.418.418,0,0,0,.4128-.4082v-.4081a2.35,2.35,0,0,0-1.2385-2.1036,1.5061,1.5061,0,0,0,.4446-1.0988,1.62,1.62,0,0,0-3.2394,0,1.5057,1.5057,0,0,0,.4446,1.0988A2.5941,2.5941,0,0,0,85.0884,408.522Zm2.4772-2.4175a.785.785,0,1,1,.7941-.7849A.7818.7818,0,0,1,87.5656,406.1045Zm-1.6514,2.4175a1.62,1.62,0,0,1,3.2394,0Z"/><path class="cls-9" d="M77.8472,408.522v.4081a.418.418,0,0,0,.4128.4082h4.0336a.4181.4181,0,0,0,.4129-.4082v-.4081a2.378,2.378,0,0,0-1.27-2.1036,1.506,1.506,0,0,0,.4445-1.0988,1.62,1.62,0,0,0-3.2394,0,1.5057,1.5057,0,0,0,.4446,1.0988A2.49,2.49,0,0,0,77.8472,408.522Zm2.4138-2.4175a.785.785,0,1,1,.7939-.7849A.7818.7818,0,0,1,80.261,406.1045Zm-1.62,2.4175a1.62,1.62,0,0,1,3.2394,0Z"/><path class="cls-9" d="M70.5425,408.522v.4081a.418.418,0,0,0,.413.4082h4.0334a.418.418,0,0,0,.4128-.4082v-.4081a2.35,2.35,0,0,0-1.2386-2.1036,1.5058,1.5058,0,0,0,.4447-1.0988,1.62,1.62,0,0,0-3.2395,0,1.5064,1.5064,0,0,0,.4445,1.0988A2.4537,2.4537,0,0,0,70.5425,408.522Zm2.4456-2.4175a.785.785,0,1,1,.7939-.7849A.763.763,0,0,1,72.9881,406.1045Zm-1.62,2.4175a1.62,1.62,0,0,1,3.2395,0Z"/></g></g></g></g></g></svg>