<svg xmlns="http://www.w3.org/2000/svg" viewBox="0 0 549.5745 374.7162"><defs><style>.cls-1{isolation:isolate;}.cls-2,.cls-3{fill:none;stroke-miterlimit:10;}.cls-2{stroke:#fff;}.cls-3{stroke:#12bbc2;}.cls-4{fill:#12bbc2;opacity:0.24;}.cls-5{font-size:14px;font-family:Como-SemiBold, Como;font-weight:600;}.cls-15,.cls-5,.cls-7{fill:#00193e;}.cls-6{fill:#fff;}.cls-8{fill:#ffb900;}.cls-9{fill:#fde039;}.cls-10{fill:#d5e0d6;}.cls-11{fill:#c1cfc2;}.cls-12{fill:#636363;}.cls-13{opacity:0.5;mix-blend-mode:multiply;}.cls-14{fill:#bababa;}.cls-15{font-size:24px;font-family:Como-ExtraBold, Como;font-weight:800;}</style></defs><g class="cls-1"><g id="Layer_11" data-name="Layer 11"><g id="_1" data-name="1"><circle class="cls-2" cx="276.9522" cy="82.5585" r="68.7565"/><circle class="cls-3" cx="276.9522" cy="82.5585" r="68.7565"/><path class="cls-4" d="M216.41,84.4293a60.5745,60.5745,0,1,1,58.5554,58.5548A60.5762,60.5762,0,0,1,216.41,84.4293Z"/><g id="من_نحن" data-name="من نحن"><rect class="cls-4" x="51.6038" y="162.6643" width="456.4371" height="198.7754" rx="99.3876"/><text class="cls-5" transform="translate(194.3493 187.8505)">We, as Neqat Noor, aspire to become<tspan x="-27.7119" y="19" xml:space="preserve">         a hub for education, transformation, and </tspan></text></g><path class="cls-6" d="M170.9089,170.586a4.6421,4.6421,0,0,1-4.658-5.0955,4.5255,4.5255,0,0,1,4.8269-4.1484c2.2819.0388,4.6635,2.2625,4.6053,4.47A4.93,4.93,0,0,1,170.9089,170.586Z"/><path class="cls-6" d="M189.7455,195.3517a1.6194,1.6194,0,0,1-.75,1.6034,2.022,2.022,0,0,1-2.08-.072,3.2706,3.2706,0,0,1-.9194-2.3622c-.6175-5.4472-1.6754-6.2143-3.0905-9.13-.1218-.2548-.31-.7339-.5871-.8308-.7339-.2548-.7948.51-.8142.75-.3157,4.0321-.82,7.8371-2.9825,11.3957a3.6633,3.6633,0,0,1-1.6172,1.6089,1.7714,1.7714,0,0,1-1.9441-.3711,1.3217,1.3217,0,0,1-.432-1.6837,17.3157,17.3157,0,0,1,.7643-1.7169,13.4582,13.4582,0,0,0,1.537-9.075c-.0582-.3406-.853-2.1656-.9222-2.5034.0526-.0582.1745-.1717.3379-.324-.1385-.648-.2714-1.2961-.3683-1.9524a51.29,51.29,0,0,0-2.894-9.9168,1.3626,1.3626,0,0,1-.047-.1385,5.7658,5.7658,0,0,0,3.0019-3.744.17.17,0,0,0,.1551-.0416,4.57,4.57,0,0,0,1.3707-2.7748c.385-2.041.1025-4.1262.3988-6.17.1025-.7117.2133-1.5009,1.1077-1.7529a1.3785,1.3785,0,0,1,1.7281.4957,4.4183,4.4183,0,0,1,.6286,1.5148,1.83,1.83,0,0,0-1.6588,2.1822c.0111.3323.0166.6674.0554.9969a6.3607,6.3607,0,0,1-1.008,4.1982,24.8491,24.8491,0,0,1-2.2182,3.32c-.1828.205.1883.2631.144.5483.69-.828,1.0855-1.5785,1.7252-2.44a7.976,7.976,0,0,0,1.7308-6.2392,1.6424,1.6424,0,0,1,1.4844-2.1545,1.6956,1.6956,0,0,1,1.9136,1.573c.3683,3.8548.2132,7.8038-2.473,10.9968-.2686.3212-.8723.8031-.3766,1.1465.3489.2409.4015-.5566.6507-.8391.097-.108.15-.2548.241-.3683a10.0884,10.0884,0,0,0,.5981-.817l.0056.0194a32.5211,32.5211,0,0,0,1.4788,3.7912c.0415-.108.0858-.21.1274-.324,1.49,3.6,3.0794,8.3826,4.4253,12.0436a21.2689,21.2689,0,0,1,1.1215,3.3259A32.8364,32.8364,0,0,1,189.7455,195.3517Z"/><path class="cls-7" d="M165.3137,161.6093c-1.6025,1.2706-1.4291,3.0125-1.245,4.75A7.9421,7.9421,0,0,1,165.3137,161.6093Z"/><path class="cls-7" d="M191.31,193.7149a2.7732,2.7732,0,0,0,.9441-3.0656,3.3788,3.3788,0,0,0-2.5708-1.8378,14.9492,14.9492,0,0,0-.4392-1.5557q-.4459-1.3-.92-2.59c-.7012-1.9127-1.441-3.811-2.194-5.7038q-.565-1.42-1.1369-2.8371c-.1308-.3251-.2621-.65-.3909-.9759a13.4754,13.4754,0,0,0,2.2246-1.4638,5.5926,5.5926,0,0,0,2.0219-6.6324,8.13,8.13,0,0,0-2.0749-3.2549,7.5879,7.5879,0,0,0-2.5991-2.1481c-.0082-.3982-.0283-.8022-.0731-1.221a3.0248,3.0248,0,0,0-1.6115-2.1784,6.3861,6.3861,0,0,0-.9079-.1192,2.2975,2.2975,0,0,0-2.0691-2.5,1.8336,1.8336,0,0,0-2.09,1.1989,17.7449,17.7449,0,0,0-.1654,2.8714c-.1059.0312-.21.0634-.3095.0953a6.3353,6.3353,0,0,0-2.74,2.1852,5.3222,5.3222,0,0,0-3.3094-1.3479c-2.5367-.022-5.3776,2.3167-5.3776,4.8682a5.6063,5.6063,0,0,0,5.4085,5.8054,2.9524,2.9524,0,0,0,1.3464-.2534c.46,1.0671,1.0918,2.4508,1.4155,3.4248a43.5827,43.5827,0,0,1,1.2329,4.6519,10.0115,10.0115,0,0,0-1.6895,1.6133c-1.4455,1.7488,1.1487,2.6873,2.53,2.7126a.2333.2333,0,0,0,.1225-.0319c.2526,1.1095.467,2.0544.4916,2.19a11.2246,11.2246,0,0,1-.6758,6.9151c-.4772,1.0814-1.0127,2.1369-1.5161,3.2072a2.1406,2.1406,0,0,0,1.0149,2.9838,2.8262,2.8262,0,0,0,3.2142-.7039,18.3145,18.3145,0,0,0,3.0171-8.2669c.18-1.4116.3292-5.6327.9788-4.4232a27.8548,27.8548,0,0,1,2.6,7.1641,24.3861,24.3861,0,0,0,.69,3.7992c-1.5195.7507-2.9186,1.6547-4.4179,2.4439-1.2317.6484-2.4594,1.075-3.114,2.4035a1.46,1.46,0,0,0,.3234,1.8761c-2.262.5787-4.5005,1.2663-6.7532,1.8565-7.9119,2.0729-22.3828,4.2862-36.1479,1.1855a18.4952,18.4952,0,0,1-4.4187-1.4508,3.9011,3.9011,0,0,1-1.8586-2.0494,4.6676,4.6676,0,0,1-.2531-1.2563,3.2,3.2,0,0,1,.0582-.8618q.6051-1.4369,1.3323-.6553c-.2093.2425.1423.5974.3531.3532.9977-1.1559-1.605-1.5178-2.071-.1188a4.4383,4.4383,0,0,0,2.8589,5.34,41.6383,41.6383,0,0,0,4.31,1.311c5.2554,1.4575,13.6842,1.5529,17.6121,1.45a102.6215,102.6215,0,0,0,11.3377-1.3884A86.5761,86.5761,0,0,0,176.4156,204.1c.866-.2416,1.7353-.4751,2.6082-.6926,1.6833.9975,4.8908,1.2586,5.9713,1.2867,1.4866.0388,3.7015.2062,4.971-.7408,1.1866-.8851-.3943-1.8324-1.2-2.0107a16.1382,16.1382,0,0,0-5.6023.1065c-1.336.192-2.6553.469-3.9656.789-2.0526-1.38,1.1157-3.0843,2.3374-3.6721.9242-.4447,1.764-1.0625,2.6453-1.5837a17.5507,17.5507,0,0,1,1.7107-.8589,2.573,2.573,0,0,0,2.5029,1.0712,2.11,2.11,0,0,0,1.7445-1.981q.02-.5861.03-1.1737a6.3437,6.3437,0,0,1,.7961-.5989C191.0812,193.9374,191.1971,193.8286,191.31,193.7149Zm-5.8171,8.6018a12.1542,12.1542,0,0,1,3.362.1564c.3913.0865,1.23.3835.9385.9505-.2027.3944-.9518.4958-1.3329.5755a16.6741,16.6741,0,0,1-5.7761.0178,10.3262,10.3262,0,0,1-2.8237-.8133A34.0227,34.0227,0,0,1,185.4925,202.3167Zm-1.5985-36.2036c.1095-1.3857.2668-2.6306.2826-3.93a4.8152,4.8152,0,0,1,1.5212,1.2736,21.5911,21.5911,0,0,1,1.665,1.7589,6.73,6.73,0,0,1,1.2688,5.3141c-.3965,1.7126-2.24,2.9684-3.6457,3.8073-.189.1128-.381.22-.5749.3246-.1872-.4677-.9615-2.2577-1.2143-2.8222-.2807-.627-.3176-1.2518-.6223-1.8675-.0406-.0913.2377-.6234.3012-.7558a10.7811,10.7811,0,0,0,.43-1.0308,13.098,13.098,0,0,0,.5372-2.2644C183.847,165.8911,183.8666,166.1017,183.894,166.1131Zm-6.0328-8.21c.1025-.7136.2146-1.5025,1.11-1.7532a1.3813,1.3813,0,0,1,1.7281.4956,4.411,4.411,0,0,1,.6284,1.5156,1.72,1.72,0,0,0-1.6276,1.5346,2.7825,2.7825,0,0,0-1.975-.1178A15.6325,15.6325,0,0,1,177.8612,157.9032Zm-.9921,2.4516c.1182-.0478.2465-.0959.38-.1419-.0173,1.2672-.0309,2.5479-.0988,3.2041a3.6943,3.6943,0,0,1-1.0563,2.4334c.0407-.2554.0033.0519.0061-.2109a4.7962,4.7962,0,0,0-1.5278-3.3191A6.3212,6.3212,0,0,1,176.8691,160.3548Zm-5.96,10.2318a4.6436,4.6436,0,0,1-4.658-5.0959,4.5254,4.5254,0,0,1,4.8278-4.1483c2.2817.0386,4.662,2.263,4.6057,4.47A4.9336,4.9336,0,0,1,170.9088,170.5866Zm2.0744.184a1.3874,1.3874,0,0,1-.0479-.1375,5.7584,5.7584,0,0,0,3.0014-3.7447.1767.1767,0,0,0,.157-.04,4.5962,4.5962,0,0,0,1.371-2.7766,24.1715,24.1715,0,0,0,.2464-3.9985,2.344,2.344,0,0,1,1.86.1265.2455.2455,0,0,0,.0958.04c0,.0342,0,.0672.001.1023.013.3327.0183.6666.0557.9965a6.36,6.36,0,0,1-1.0067,4.1984,25.1709,25.1709,0,0,1-2.2181,3.3205c-.1827.206.1884.2642.1425.5482.69-.8266,1.0868-1.5773,1.7254-2.4381a7.9775,7.9775,0,0,0,1.7313-6.24,1.6431,1.6431,0,0,1,1.4841-2.1555,1.6944,1.6944,0,0,1,1.9129,1.5742c.37,3.8536.2141,7.8022-2.472,10.9975-.2694.3205-.8727.802-.3766,1.1449.3481.2407.4-.5549.65-.8381.0965-.1093.15-.2558.2424-.37.2164-.268.4137-.54.5969-.8147l.0043.0176a33.7326,33.7326,0,0,0,1.5054,3.85c.0341.0811.2829.834.3124.7535l.0025.0061c-1.3048.653-2.6915,1.1582-4.038,1.7014a24.3421,24.3421,0,0,0-4.4276,2.13A56.7488,56.7488,0,0,0,172.9832,170.7706Zm2.7806,12.1873a4.5083,4.5083,0,0,1-1.8147-.42c-1.2688-.5782-.1355-1.7181.4305-2.2885.2153-.2169.4341-.4142.6562-.5983.1055.5011.4371,1.9584.745,3.3109C175.7746,182.9612,175.77,182.9581,175.7638,182.9579Zm7.1417,2.4324c-.1232-.2538-.31-.7336-.5871-.83-.7337-.2559-.7943.5078-.8133.7508-.3154,4.0321-.82,7.8363-2.9831,11.3962a3.6686,3.6686,0,0,1-1.6178,1.6077,1.7752,1.7752,0,0,1-1.9452-.3713,1.324,1.324,0,0,1-.4315-1.6824,17.4676,17.4676,0,0,1,.7649-1.7184,13.4518,13.4518,0,0,0,1.5366-9.0744,10.9631,10.9631,0,0,1-.3176-1.6c-.2283-1.0568-.4742-2.1091-.6358-3.18-.07-.4607-.1633-.9566-.2728-1.4717a15.5707,15.5707,0,0,1,3.244-1.6412c1.7284-.6965,3.595-1.3339,5.3108-2.1964,1.4143,3.4417,2.7314,6.9214,4.0145,10.4161a20.9888,20.9888,0,0,1,1.1215,3.3266,29.7764,29.7764,0,0,1,.4475,5.2625,26.68,26.68,0,0,1-3.4463,1.6226,6.2463,6.2463,0,0,1-.298-1.4851C185.3775,189.075,184.3216,188.3075,182.9055,185.39Zm6.8406,9.96a1.6244,1.6244,0,0,1-.7509,1.6045,2.0236,2.0236,0,0,1-2.0792-.0714,1.6277,1.6277,0,0,1-.4063-.44c.1988-.09.3976-.1792.5933-.2717.9079-.4293,1.8066-.7939,2.642-1.2739C189.7455,195.0491,189.7465,195.2022,189.7461,195.3505Zm.9648-1.7262a5.3191,5.3191,0,0,1-.5374.4607,24.6394,24.6394,0,0,0-.3837-4.7628,3.1537,3.1537,0,0,1,1.9007,1.3585C192.4965,191.7663,191.437,192.9068,190.7109,193.6243Z"/><path class="cls-7" d="M173.5164,198.7522h-1.4359a.25.25,0,0,0,0,.5h1.4359A.25.25,0,0,0,173.5164,198.7522Z"/><path class="cls-7" d="M192.5569,203.6841h-1.6855a.25.25,0,0,0,0,.4994h1.6855A.25.25,0,0,0,192.5569,203.6841Z"/><path class="cls-7" d="M181.3575,154.1a2.6518,2.6518,0,0,0-2.35-.718,2.492,2.492,0,0,0-1.9619,2.03c-.0559.3148.3417.26.3417-.0627,0-.74.5923-1.0917,1.2361-1.3554a2.2413,2.2413,0,0,1,2.381.46C181.241,154.67,181.5951,154.3181,181.3575,154.1Z"/><path class="cls-7" d="M128.058,202.9873a2.7933,2.7933,0,0,1-.1274-3.6512c.1887-.2618-.2448-.5107-.4313-.2521a3.3115,3.3115,0,0,0,.4553,4.2564C128.1857,203.5647,128.2894,203.2119,128.058,202.9873Z"/><path class="cls-7" d="M158.5336,200.6251h-1.8728a.25.25,0,0,0,0,.4994h1.8728A.25.25,0,0,0,158.5336,200.6251Z"/><path class="cls-6" d="M137.495,174.1423a21.8244,21.8244,0,0,0,6.799,2.7341,18.14,18.14,0,0,0,1.9047.4024,4.7045,4.7045,0,0,1,.105-.9855,31.1951,31.1951,0,0,1,1.1661-4.3982c-.903.374-2.0452.805-2.9241,1.1314a2.9406,2.9406,0,0,1-2.71-.226c-.6389-.3975-1.3089-.745-1.9636-1.1171a7.1425,7.1425,0,0,0-2.0537-.9239,1.613,1.613,0,0,0-1.7045,1.9047A2.5377,2.5377,0,0,0,137.495,174.1423Z"/><path class="cls-6" d="M151.4508,170.09a4.3911,4.3911,0,0,0,6.178-3.9193c-.0489-1.898-.5361-2.4877-2.4051-2.9642-.6482-.1653-1.3827-.1877-1.8282-.786-.5167-.6938-1.1324-.61-1.81-.3327a4.3846,4.3846,0,0,0-1.8351,1.4582C148.443,165.255,148.709,168.9714,151.4508,170.09Z"/><path class="cls-6" d="M146.57,178.2191c-.165,2.3753-.5622,4.7182-.8528,7.075-.3835,3.1107-.6974,6.2345-.9639,9.3548-.1,1.1651-.2291,2.9-.2975,4.067-.07,1.1962.5135,2.0954,2.1357,1.921a1.5167,1.5167,0,0,0,1.2157-.9767,17.5011,17.5011,0,0,0,.3106-1.7843c.27-2.3218,1.0077-9.4692,1.1575-10.4774a1.288,1.288,0,0,1,.0542-.2194c.148-.4392.32-.9023.85-.9508.566-.0518.759.4264.9114.8526.1389.3882,1.2059,11.2985,1.2877,12.3511a1.51,1.51,0,0,0,1.6762,1.4869,1.4922,1.4922,0,0,0,1.7889-1.4938,35.1723,35.1723,0,0,0,.0223-4.9766,145.626,145.626,0,0,1,.2043-16.2275,10.5164,10.5164,0,0,1,1.2349-3.9c.8207-1.49,1.5123-3.0415,2.2951-4.5481a4.5388,4.5388,0,0,0,.3683-3.6062,16.777,16.777,0,0,0-1.8818-4.3432,5.0722,5.0722,0,0,0-2.5438-1.9857,1.553,1.553,0,0,0-1.4789.2367,1.2262,1.2262,0,0,0-.556,1.24,1.3684,1.3684,0,0,0,1.0036,1.1148,8.4852,8.4852,0,0,0,1.5248.42A2.2213,2.2213,0,0,1,158,164.7727a4.9251,4.9251,0,0,1-5.8252,6.1459,5.5763,5.5763,0,0,1-1.7748-.7672,4.4058,4.4058,0,0,0-2.0988,1.5211,11.8517,11.8517,0,0,0-1.1061,2.9857A21.9682,21.9682,0,0,0,146.57,178.2191Z"/><path class="cls-7" d="M165.436,188.2814c-.99-4.0989-.68-12.0033,2.9821-17.8074.1718-.2724-.3155-.5141-.5-.25-3.1838,4.5764-4.0843,12.4883-3.4647,15.8634.59,3.2161,1.9239,6.3582,1.986,9.65a8.58,8.58,0,0,1-.8961,4.0341,8.31,8.31,0,0,1-3.7305,3.2944c-3.326,1.8392-7.2215,1.8246-10.9143,1.7834-3.4312-.0383-7.07.1979-10.4088-.7459-.8142-.23-4.41-1.5059-4.1715-2.7469.3681-1.915,3.3859-2.5636,4.877-3.0384.9115-.29,1.8254-.5761,2.7425-.8506-.0361.4651-.0682.9156-.0941,1.3273a2.0072,2.0072,0,0,0,1.5911,2.2349,2.4189,2.4189,0,0,0,.4867.0728c1.1294.1687,1.8621-.0438,2.2936-1.0906a9.97,9.97,0,0,0,.4816-2.6471c.0516-.4142.1026-.841.1534-1.273a3.4227,3.4227,0,0,0,.908-.6142,2.88,2.88,0,0,0-.3509-4.344c.1023-.9169.2046-1.8186.3078-2.674a2.5964,2.5964,0,0,1,.2886-1.086c.1624-.2623.3775-.2222.5141.0312a1.6157,1.6157,0,0,1,.1578.5409c.28,2.0541,1.034,9.6411,1.1345,11.5248a1.9755,1.9755,0,0,0,.6042,1.5046,2.695,2.695,0,0,0,3.57-.2621,4.2928,4.2928,0,0,0,.49-2.6907c-.0154-2.6009-.0781-5.2017-.13-7.8024-.0151-.7534-.0763-5.7243-.0065-9.0219a14.8966,14.8966,0,0,1,2.0038-7.6941,30.2387,30.2387,0,0,0,2.2-4.589,3.85,3.85,0,0,0,.191-2.2212,15.0581,15.0581,0,0,0-1.3577-3.82,6.4812,6.4812,0,0,0-3.26-3.4534,2.3484,2.3484,0,0,0-2.5285.3368c-.547.417-.5261,1.2246-1.0935,1.5038a16.9824,16.9824,0,0,0-1.8994.6848,4.9235,4.9235,0,0,0-2.1746,4.7519,5.0305,5.0305,0,0,0,1.5521,3.1211,4.5606,4.5606,0,0,0-1.9688,1.1089,22.0858,22.0858,0,0,1-3.0807,1.4317,3.39,3.39,0,0,1-3.0425-.1693c-.8365-.5123-1.7-.981-2.5459-1.4778a4.4992,4.4992,0,0,0-1.3548-.5608,2.2024,2.2024,0,0,0-2.3438,2.845,3.19,3.19,0,0,0,1.6668,1.7587,24.8189,24.8189,0,0,0,7.8212,2.8865c.8854.1637.877.2051.8022,1.0966-.1644,1.9579-1.301,12.0743-1.6547,15.1861-.1029.9046-.2061,1.9922-.2918,3.0379-.3819.1031-.7626.21-1.1406.3275-2.3028.7136-6.5488,1.3407-7.066,4.2745-.1605.9106,2.0983,2.6812,5.8715,3.3143a72.2945,72.2945,0,0,0,11.7149.49c5.39.0227,12.8376-1.9137,13.5054-8.2854C167.183,194.0337,166.1415,191.2037,165.436,188.2814Zm-17.3181,9.5945a17.4736,17.4736,0,0,1-.3106,1.7843,1.5167,1.5167,0,0,1-1.2157.9767c-1.6221.1744-2.2059-.7249-2.1357-1.921.0246-.42.0573-.9146.0935-1.4287.5155-.1505,1.0318-.2979,1.55-.4372.7345-.1974,1.491-.3037,2.193-.5355C148.2242,196.9388,148.1641,197.479,148.1179,197.8759Zm.8092-2.4424c.14-1.2164.2779-2.4747.4153-3.7149A2.345,2.345,0,0,1,148.9271,195.4335Zm.8236-31.8871a4.3846,4.3846,0,0,1,1.8351-1.4582c.6773-.2773,1.293-.3611,1.81.3327.4456.5983,1.18.6207,1.8282.786,1.869.4765,2.3562,1.0661,2.4051,2.9642a4.3911,4.3911,0,0,1-6.178,3.9193C148.709,168.9714,148.443,165.255,149.7507,163.5464Zm-5.4567,13.33a21.8244,21.8244,0,0,1-6.799-2.7341,2.5377,2.5377,0,0,1-1.3808-1.4781,1.613,1.613,0,0,1,1.7045-1.9047,7.1413,7.1413,0,0,1,2.0537.9239c.6547.3721,1.3247.72,1.9636,1.1171a2.94,2.94,0,0,0,2.71.2259c.8791-.3263,2.0211-.7573,2.9242-1.1313a31.1951,31.1951,0,0,0-1.1661,4.3982,4.7045,4.7045,0,0,0-.105.9855A18.14,18.14,0,0,1,144.294,176.8764Zm.4594,17.7725c.2665-3.12.58-6.2441.9639-9.3548.2906-2.3568.6878-4.7.8528-7.075a21.9682,21.9682,0,0,1,.6247-3.5609,11.8517,11.8517,0,0,1,1.1061-2.9857,4.4058,4.4058,0,0,1,2.0988-1.5211,5.5763,5.5763,0,0,0,1.7748.7672A4.9251,4.9251,0,0,0,158,164.7727a2.2213,2.2213,0,0,0-1.9636-1.9237,8.4852,8.4852,0,0,1-1.5248-.42,1.3684,1.3684,0,0,1-1.0036-1.1148,1.2262,1.2262,0,0,1,.556-1.24,1.553,1.553,0,0,1,1.4789-.2367,5.0722,5.0722,0,0,1,2.5438,1.9857,16.7755,16.7755,0,0,1,1.8818,4.3432,4.5385,4.5385,0,0,1-.3682,3.6061c-.7829,1.5067-1.4745,3.0584-2.2952,4.5482a10.5164,10.5164,0,0,0-1.2349,3.9,145.6257,145.6257,0,0,0-.2043,16.2275,35.1724,35.1724,0,0,1-.0223,4.9766,1.4922,1.4922,0,0,1-1.7889,1.4938,1.51,1.51,0,0,1-1.6762-1.4869c-.0818-1.0526-1.1488-11.9629-1.2877-12.3511-.1524-.4262-.3454-.9044-.9114-.8526-.53.0485-.7015.5116-.85.9507a1.2915,1.2915,0,0,0-.0542.22c-.117.7871-.592,5.3156-.9234,8.3689a3.1486,3.1486,0,0,1-.3722.1387c-1.1184.3375-2.26.6037-3.3956.8966C144.64,196.0374,144.7008,195.264,144.7534,194.6489Z"/><path class="cls-7" d="M157.3352,158.1523c-1.031-1.4457-2.6386-1.751-3.6008-.6512A3.5568,3.5568,0,0,1,157.3352,158.1523Z"/><path class="cls-7" d="M167.8192,194.0468c-.1043-.3026-.54-.691-.4345-.3856a7.1374,7.1374,0,0,1-.1937,4.8065c-.1423.2876-.0079.613.1349.3243A6.41,6.41,0,0,0,167.8192,194.0468Z"/><path class="cls-6" d="M107.6168,170.55c-.3542-.783-.9048-.7979-1.5392-.793-.44.0034-1.1858.2171-1.2982.7435a5.9406,5.9406,0,0,0,.0567,2.7562,1.8493,1.8493,0,0,0,2.0475,1.4424c.8283-.1875.9607-.9377.9728-1.6821.0031-.1854.0005-.3708.0005-.5563A4.38,4.38,0,0,0,107.6168,170.55Z"/><path class="cls-6" d="M121.8372,158.9551a4.5393,4.5393,0,0,0-4.3436-4.6531,4.9952,4.9952,0,0,0-5.22,4.7659,4.829,4.829,0,0,0,4.6784,4.8318A4.77,4.77,0,0,0,121.8372,158.9551Z"/><path class="cls-6" d="M126.9091,174.1454a1.7874,1.7874,0,0,0,2.0885-.537,4.6817,4.6817,0,0,0,.9611-2.64c-.0114-.1849-.0086-.3719-.0366-.5543-.1441-.9391-.8332-1.7742-1.5152-1.7449-.916.0392-1.2174.7466-1.4053,1.4912-.1958.7753-.3495,1.5619-.5,2.3477C126.3859,173.11,126.1786,173.762,126.9091,174.1454Z"/><path class="cls-6" d="M124.1328,190.7288c-.8077-6.4424-1.2457-12.913-1.6044-19.391a8.0307,8.0307,0,0,1-.1449-2.2955c.4112.0382.292.3493.3259.5625.12.7563.21,1.515.282,2.2751a.2121.2121,0,0,1,.1163.0462,7.9588,7.9588,0,0,0,2.8855,1.4351,2.6149,2.6149,0,0,1,.0416-.6495c.2-1.09.4715-2.1675.72-3.2489l-.01-.0014a3.2431,3.2431,0,0,1-1.6871-1.2813c-.5218-.6347-1.0148-1.2959-1.59-1.885a7.4627,7.4627,0,0,0-5.1514-2.0977,5.79,5.79,0,0,1-1.4341.1557c-.1128-.0016-.2253-.0082-.3377-.017a14.7562,14.7562,0,0,0-3.3584.667,5.56,5.56,0,0,0-2.2568,1.7214c-1.0112,1.1743-1.8763,2.5115-3.3619,3.1176a1.9191,1.9191,0,0,1,.6512,1.2528,6.8056,6.8056,0,0,1,.0208,2.121,3.2319,3.2319,0,0,1-.1579.723c.7583-.2262,1.5064-.4819,2.24-.78a5.16,5.16,0,0,0,.7526-.3266,3.2986,3.2986,0,0,0,.4393-.4492.8061.8061,0,0,1,.24-.18c-.0037-.4985-.0062-.997-.0039-1.4954.0013-.288-.077-.6111.2809-.8625.0142,1.5037.3589,2.9821.26,4.4952-.2548,3.8846-.4,7.7778-.7339,11.6551-.2429,2.8252-.2264,5.672-.7045,8.479a1.8519,1.8519,0,0,0,1.8634,2.2218,1.6418,1.6418,0,0,0,1.9633-1.3253c.3845-1.3734.91-6.61,1.4674-10.9529a3.5222,3.5222,0,0,1,.4643-1.5822.9032.9032,0,0,1,1.671.0222c.7429,1.2858,1.8,9.4593,2.3045,12.0951a1.7767,1.7767,0,0,0,2.4675,1.5161,1.4758,1.4758,0,0,0,1.1517-1.4816A18.0922,18.0922,0,0,0,124.1328,190.7288Z"/><path class="cls-6" d="M107.6168,170.55c-.3542-.783-.9048-.7979-1.5392-.793-.44.0034-1.1858.2171-1.2982.7435a5.9406,5.9406,0,0,0,.0567,2.7562,1.8493,1.8493,0,0,0,2.0475,1.4424c.8283-.1875.9607-.9377.9728-1.6821.0031-.1854.0005-.3708.0005-.5563A4.38,4.38,0,0,0,107.6168,170.55Z"/><path class="cls-6" d="M121.8372,158.9551a4.5393,4.5393,0,0,0-4.3436-4.6531,4.9952,4.9952,0,0,0-5.22,4.7659,4.829,4.829,0,0,0,4.6784,4.8318A4.77,4.77,0,0,0,121.8372,158.9551Z"/><path class="cls-6" d="M126.9091,174.1454a1.7874,1.7874,0,0,0,2.0885-.537,4.6817,4.6817,0,0,0,.9611-2.64c-.0114-.1849-.0086-.3719-.0366-.5543-.1441-.9391-.8332-1.7742-1.5152-1.7449-.916.0392-1.2174.7466-1.4053,1.4912-.1958.7753-.3495,1.5619-.5,2.3477C126.3859,173.11,126.1786,173.762,126.9091,174.1454Z"/><path class="cls-6" d="M124.1328,190.7288c-.8077-6.4424-1.2457-12.913-1.6044-19.391a8.0307,8.0307,0,0,1-.1449-2.2955c.4112.0382.292.3493.3259.5625.12.7563.21,1.515.282,2.2751a.2121.2121,0,0,1,.1163.0462,7.9588,7.9588,0,0,0,2.8855,1.4351,2.6149,2.6149,0,0,1,.0416-.6495c.2-1.09.4715-2.1675.72-3.2489l-.01-.0014a3.2431,3.2431,0,0,1-1.6871-1.2813c-.5218-.6347-1.0148-1.2959-1.59-1.885a7.4627,7.4627,0,0,0-5.1514-2.0977,5.79,5.79,0,0,1-1.4341.1557c-.1128-.0016-.2253-.0082-.3377-.017a14.7562,14.7562,0,0,0-3.3584.667,5.56,5.56,0,0,0-2.2568,1.7214c-1.0112,1.1743-1.8763,2.5115-3.3619,3.1176a1.9191,1.9191,0,0,1,.6512,1.2528,6.8056,6.8056,0,0,1,.0208,2.121,3.2319,3.2319,0,0,1-.1579.723c.7583-.2262,1.5064-.4819,2.24-.78a5.16,5.16,0,0,0,.7526-.3266,3.2986,3.2986,0,0,0,.4393-.4492.8061.8061,0,0,1,.24-.18c-.0037-.4985-.0062-.997-.0039-1.4954.0013-.288-.077-.6111.2809-.8625.0142,1.5037.3589,2.9821.26,4.4952-.2548,3.8846-.4,7.7778-.7339,11.6551-.2429,2.8252-.2264,5.672-.7045,8.479a1.8519,1.8519,0,0,0,1.8634,2.2218,1.6418,1.6418,0,0,0,1.9633-1.3253c.3845-1.3734.91-6.61,1.4674-10.9529a3.5222,3.5222,0,0,1,.4643-1.5822.9032.9032,0,0,1,1.671.0222c.7429,1.2858,1.8,9.4593,2.3045,12.0951a1.7767,1.7767,0,0,0,2.4675,1.5161,1.4758,1.4758,0,0,0,1.1517-1.4816A18.0922,18.0922,0,0,0,124.1328,190.7288Z"/><path class="cls-7" d="M145.41,186.4319a34.37,34.37,0,0,0-2.0589-2.8805,20.2094,20.2094,0,0,1-1.75-4.4565,77.4192,77.4192,0,0,0-2.917-8.6178,7.753,7.753,0,0,0-4.5851-4.5865c-2.1736-.701-4.2139.5633-5.5617,2.1785a.2493.2493,0,0,0-.0592.1813,1.4715,1.4715,0,0,0-.834.1694,4.1929,4.1929,0,0,0-.7533.4128c-.0117-.0052-.024.24-.0378.2364-.9312-.2273-1.5033-1.4231-2.0714-2.1259a11.4209,11.4209,0,0,0-1.8528-1.9277,7.1882,7.1882,0,0,0-3.6681-1.1395,5.253,5.253,0,0,0,3.04-5.0354c.17-2.8652-2.909-5.36-5.1878-5.2631-2.7558.117-5.55,2.8082-5.56,5.3691a5.13,5.13,0,0,0,3.5054,5.1415,6.3792,6.3792,0,0,0-3.8075,1.6951c-.261.2529-.5151.53-.769.8157a4.4293,4.4293,0,0,0-2.1438-.1212c-1.5659.3-3.0049,1.2289-2.9909,2.9588-.0651.0163-.1289.0329-.19.05a1.4144,1.4144,0,0,0-.9438,1.1275,6.1487,6.1487,0,0,0,.229,2.6677,2.2828,2.2828,0,0,0,.9625,1.4266,2.38,2.38,0,0,0,.3941.2152,2.5011,2.5011,0,0,0,.2757.0983.242.242,0,0,0-.0336.0666,22.3631,22.3631,0,0,1-1.7754,4.9391,37.8973,37.8973,0,0,1-2.9628,4.4158,23.6091,23.6091,0,0,0-4.561,9.035c-.7511,3.5311-.67,4.4443,1.382,7.4922q-.3468.0863-.6929.1788c-3.6447.9786-7.2884,2.4277-11.0523,2.8737-2.1422.2538-4.6394-.1252-6.2132-1.7206-1.0671-1.0818-.4023-2.7149.3977-3.7326.5273-.6708,1.3268-1.0489,1.8371-1.7512.19-.2611-.244-.51-.4313-.2521-.8058,1.1091-2.0385,1.5989-2.5437,2.9618a2.7953,2.7953,0,0,0,.2013,2.9016c1.6835,2.0441,5.5492,2.3985,8.0021,2.0321,3.6239-.5413,6.42-1.8286,9.9351-2.8311.2842-.0811.5735-.1584.865-.2338.1295.1727.264.3435.4065.5112,2.0016,2.3548,5.3132,2.6347,8.1941,2.7022,1.5531.0365,4.1469.1212,5.14-1.3812,1.1584-1.7531-3.31-2.9831-4.2323-3.0781a28.0149,28.0149,0,0,0-9.32.7007,10.4524,10.4524,0,0,1-1.2079-2.3434c-1.3616-3.6785.48-7.9672,2.4046-11.0812,1.8124-2.9318,4.174-5.4453,5.6113-8.6142a23.2308,23.2308,0,0,0,1.0979-3.5919.2556.2556,0,0,0,.0071-.1068,2.7194,2.7194,0,0,0,.3018.0173.9081.9081,0,0,0,.3456-.0725,1.24,1.24,0,0,0,.4048-.2788,1.9047,1.9047,0,0,0,.2933-.3849.1945.1945,0,0,0,.1092-.0014,23.67,23.67,0,0,0,2.5654-.6425,4.1074,4.1074,0,0,0,.8942-.4179,2.6425,2.6425,0,0,0,.3145-.3613c.01,1.2151-.2284,2.18-.2668,3.3939-.1308,4.1406-.6248,8.2587-.8106,12.3991a34.6761,34.6761,0,0,1-.4744,5.2486,2.6347,2.6347,0,0,0,1.6157,2.9493,2.791,2.791,0,0,0,2.281-.05,2.4084,2.4084,0,0,0,1.3852-1.93c.2936-3.101,1.4142-10.765,1.5184-11.4985.0522-.3674.05-.37.4218-.431.4017-.0662.525.0355.647.2978.1814.39.9777,5.8352,1.4589,8.13.2911,1.3881.1551,2.8167.6323,4.1614a2.2285,2.2285,0,0,0,2.326,1.3622,2.4377,2.4377,0,0,0,1.5842-.6226,1.79,1.79,0,0,0,.2926-.39c.1191-.2116.7016-1.0906.47-3.8155-.28-3.2806-1.1359-10.2725-1.45-16.6053q.3815.1.7663.1664c1.2168.2092,2.9048.1359,3.58-1.06a2.4162,2.4162,0,0,0,.5441-.0888,2.0629,2.0629,0,0,0,.4565-.195,2.3254,2.3254,0,0,0,.6685-.5918,4.9766,4.9766,0,0,0,.8875-3.5958,2.2375,2.2375,0,0,0-1.3626-1.828c1.7929-2.117,4.2386-2.8293,6.6727-1.2184,2.0424,1.3517,2.94,4.1009,3.7006,6.2888.857,2.4662,1.5253,4.9948,2.3577,7.469a16.8216,16.8216,0,0,0,1.4871,3.2679,29.3958,29.3958,0,0,1,1.8313,2.4988C145.1148,186.9758,145.5452,186.722,145.41,186.4319ZM109.0333,200.86a4.77,4.77,0,0,1,2.6223,1.5442c.555.7214-.6774,1.1769-1.1379,1.3422a10.776,10.776,0,0,1-3.9605.3536,13.1193,13.1193,0,0,1-5.585-1.1189,6.17,6.17,0,0,1-2.0434-1.7111A22.2927,22.2927,0,0,1,109.0333,200.86Zm3.24-41.7917a4.995,4.995,0,0,1,5.22-4.7658,4.5391,4.5391,0,0,1,4.3436,4.653,4.77,4.77,0,0,1-4.8856,4.9446A4.8288,4.8288,0,0,1,112.2733,159.0679Zm-1.3436,7.6566a5.558,5.558,0,0,1,2.2567-1.7214,14.7571,14.7571,0,0,1,3.3585-.667c.1123.0088.2249.0154.3376.017a5.7894,5.7894,0,0,0,1.4341-.1557,7.4627,7.4627,0,0,1,5.1514,2.0977c.5747.5891,1.0677,1.25,1.59,1.885a3.2435,3.2435,0,0,0,1.6871,1.2813l.01.0014c-.2484,1.0814-.52,2.1586-.72,3.2489a2.62,2.62,0,0,0-.0416.6495,7.96,7.96,0,0,1-2.8855-1.4351.2118.2118,0,0,0-.1163-.0462c-.0716-.76-.1618-1.5188-.282-2.2751-.0339-.2132.0853-.5243-.3259-.5625a8.0307,8.0307,0,0,0,.1449,2.2955q.0966,1.7432.2039,3.4854a15.8564,15.8564,0,0,1-2.1561-1.0264,28.3552,28.3552,0,0,1-3.7247-2.9694c-1.0556-.8763-2.1514-1.6965-3.2677-2.4933a12.68,12.68,0,0,0-2.6744-1.5856Zm-.8925.3777a7.9742,7.9742,0,0,1-2.8747,2.368c-.173.0681-.1124.0836-.3273.0133a3.39,3.39,0,0,0-.5268-.1415,1.7375,1.7375,0,0,0-.461-.0009C105.8921,167.159,108.139,166.7522,110.0372,167.1022Zm-2.18,5.3589c0,.1855.0026.3709-.0005.5563-.0121.7444-.1445,1.4946-.9728,1.6821a1.8493,1.8493,0,0,1-2.0475-1.4424,5.9433,5.9433,0,0,1-.0567-2.7562c.1124-.5264.8583-.74,1.2982-.7435.6344-.0049,1.185.01,1.5392.793A4.38,4.38,0,0,1,107.8569,172.4611Zm16.2759,18.2677a18.0922,18.0922,0,0,1,.0725,4.2587,1.476,1.476,0,0,1-1.1518,1.4816,1.7768,1.7768,0,0,1-2.4675-1.5161c-.5046-2.6358-1.5616-10.8093-2.3046-12.0951a.9031.9031,0,0,0-1.6709-.0222,3.5222,3.5222,0,0,0-.4643,1.5822c-.5572,4.3428-1.0829,9.5795-1.4674,10.9529a1.6417,1.6417,0,0,1-1.9633,1.3253,1.8519,1.8519,0,0,1-1.8633-2.2219c.478-2.8069.4615-5.6537.7045-8.4789.3334-3.8773.479-7.77.7338-11.6551.0992-1.5131-.2455-2.9915-.26-4.4952-.3579.2514-.28.5745-.2809.8625-.0023.4983,0,.9968.004,1.4954a.8052.8052,0,0,0-.24.18,3.3045,3.3045,0,0,1-.4393.4492,5.16,5.16,0,0,1-.7526.3266c-.7332.2985-1.4815.5543-2.24.78a3.2318,3.2318,0,0,0,.158-.723,6.8025,6.8025,0,0,0-.0209-2.121,1.9193,1.9193,0,0,0-.6512-1.2528,7.8994,7.8994,0,0,0,2.9559-2.6319,5.3046,5.3046,0,0,1,1.33.5281,46.937,46.937,0,0,1,6.7319,5.2221,12.4843,12.4843,0,0,0,4.1813,2.4249C123.0871,180.5105,123.4934,185.6285,124.1328,190.7288Zm-.7685-15.6837c-.037-.8234-.0646-1.6341-.0795-2.421a6.8519,6.8519,0,0,0,2.7341,1.1666.22.22,0,0,0,.0556.0062,1.211,1.211,0,0,0,.4834.6415,1.3088,1.3088,0,0,0,.3552.1629,1.7,1.7,0,0,0,.2424.0524C126.3816,175.6616,124.8217,175.51,123.3643,175.0451Zm6.5578-4.6306c.028.1824.0252.3694.0366.5543a4.68,4.68,0,0,1-.9611,2.64,1.6916,1.6916,0,0,1-1.2858.6722.2255.2255,0,0,0-.3093-.001,1.3151,1.3151,0,0,1-.4934-.1342c-.73-.3834-.5232-1.035-.4077-1.6369.1508-.7858.3044-1.5724.5-2.3477.1879-.7446.4893-1.452,1.4053-1.4912C129.0889,168.64,129.7781,169.4754,129.9221,170.4145Z"/><path class="cls-7" d="M103.5125,173.7906a8.4953,8.4953,0,0,1-.12-2.2144c.0318-.5528.0965-1.1037.1411-1.6559.0186-.2309-.029-.48-.2957-.4845-.2543-.0041-.198.2547-.2059.43-.021.4622-.0733.9262-.0516,1.3866C103.0214,172.1225,102.8139,173.0468,103.5125,173.7906Z"/><path class="cls-7" d="M131.7511,172.2512a4.3835,4.3835,0,0,0-.5833-3.8721A15.6246,15.6246,0,0,1,131.7511,172.2512Z"/><path class="cls-7" d="M103.3169,196.2165a10.0191,10.0191,0,0,0,3.91.0913A11.7362,11.7362,0,0,0,103.3169,196.2165Z"/><path class="cls-7" d="M127.5242,196.1824a9.8974,9.8974,0,0,0-2.511.0035c.8216.4738,1.6964.149,2.4647.4441.1614.062.3985.1189.4284-.1441C127.9322,196.2573,127.6934,196.207,127.5242,196.1824Z"/><path class="cls-7" d="M100.2365,183.4265a34.33,34.33,0,0,0-3.6435,5.9368c-.1218.2982.3615.177.4816-.117a31.227,31.227,0,0,1,3.515-5.4667A.25.25,0,0,0,100.2365,183.4265Z"/><path class="cls-6" d="M96.5318,169.92a28.9811,28.9811,0,0,1-7.4279,3.9369c-1.0225.3443-2.0734-.0039-3.1149.0759-.7629.0585-.111-.9045-.67-1.2049a3.6488,3.6488,0,0,0-.2578,1.8565c-.0326,2.6159,1.9018,21.18,1.7713,22.2722a10.8466,10.8466,0,0,1-.1923,1.3952c-.2657,1.0407-.53,1.7583-2.3143,1.5912-1.1723-.11-1.52-.8408-1.6155-1.8327-.1761-1.8362-.834-9.5492-1.3006-11.5311-.1485-.6311-.4157-1.19-1.0376-1.219s-.9888.565-1.1416,1.12c-.2591.9422-.4266,8.6921-.6771,11.58a2.29,2.29,0,0,1-2.0857,2.3212,2.0261,2.0261,0,0,1-2.2832-2.1591c.0213-2.4315.0758-3.0579.1615-4.9728.1252-2.7973.1843-5.5652.0955-8.3518a96.1644,96.1644,0,0,1,.3622-10.633c.0178-.226.1639-.5044-.3049-.7594a13.6936,13.6936,0,0,0-.47,3.3667c-.1886,2.6763-.2007,5.354-.1559,8.0324-.4449.11-1.5452-.0525-1.7391-.6479-.5875-1.805-.2769-3.5765-.0078-5.6432a52.3942,52.3942,0,0,1,1.0673-5.8675c.3716-1.4961,1.5462-3.9587,3.4709-4.8767.2277-.1749.4251-.1684.61-.39a.2864.2864,0,0,1,.0556-.05,3.9426,3.9426,0,0,0,1.5964.2305,7.1031,7.1031,0,0,0,2.0554-.4426,32.5345,32.5345,0,0,1,3.9471,1.3341c1.5853.5817,3.1653,1.2914,4.8908.4829,1.3017-.61,2.6013-1.224,3.9064-1.8262a8.1416,8.1416,0,0,1,1.1045-.4353,1.5192,1.5192,0,0,1,1.9709.6632A2.0481,2.0481,0,0,1,96.5318,169.92Z"/><path class="cls-6" d="M74.6152,162.6144a4.4987,4.4987,0,0,1,8.9971.0423c.1595,2.3894-2.313,4.2727-4.7835,4.339A4.37,4.37,0,0,1,74.6152,162.6144Z"/><path class="cls-6" d="M96.5318,169.92a28.9811,28.9811,0,0,1-7.4279,3.9369c-1.0225.3443-2.0734-.0039-3.1149.0759-.7629.0585-.111-.9045-.67-1.2049a3.6488,3.6488,0,0,0-.2578,1.8565c-.0326,2.6159,1.9018,21.18,1.7713,22.2722a10.8466,10.8466,0,0,1-.1923,1.3952c-.2657,1.0407-.53,1.7583-2.3143,1.5912-1.1723-.11-1.52-.8408-1.6155-1.8327-.1761-1.8362-.834-9.5492-1.3006-11.5311-.1485-.6311-.4157-1.19-1.0376-1.219s-.9888.565-1.1416,1.12c-.2591.9422-.4266,8.6921-.6771,11.58a2.29,2.29,0,0,1-2.0857,2.3212,2.0261,2.0261,0,0,1-2.2832-2.1591c.0213-2.4315.0758-3.0579.1615-4.9728.1252-2.7973.1843-5.5652.0955-8.3518a96.1644,96.1644,0,0,1,.3622-10.633c.0178-.226.1639-.5044-.3049-.7594a13.6936,13.6936,0,0,0-.47,3.3667c-.1886,2.6763-.2007,5.354-.1559,8.0324-.4449.11-1.5452-.0525-1.7391-.6479-.5875-1.805-.2769-3.5765-.0078-5.6432a52.3942,52.3942,0,0,1,1.0673-5.8675c.3716-1.4961,1.5462-3.9587,3.4709-4.8767.2277-.1749.4251-.1684.61-.39a.2864.2864,0,0,1,.0556-.05,3.9426,3.9426,0,0,0,1.5964.2305,7.1031,7.1031,0,0,0,2.0554-.4426,32.5345,32.5345,0,0,1,3.9471,1.3341c1.5853.5817,3.1653,1.2914,4.8908.4829,1.3017-.61,2.6013-1.224,3.9064-1.8262a8.1416,8.1416,0,0,1,1.1045-.4353,1.5192,1.5192,0,0,1,1.9709.6632A2.0481,2.0481,0,0,1,96.5318,169.92Z"/><path class="cls-6" d="M74.6152,162.6144a4.4987,4.4987,0,0,1,8.9971.0423c.1595,2.3894-2.313,4.2727-4.7835,4.339A4.37,4.37,0,0,1,74.6152,162.6144Z"/><path class="cls-7" d="M71.4125,183.6225a2.3658,2.3658,0,0,0,.8554,1.517,3.4542,3.4542,0,0,0,1.6159.2465c.02,1,.0457,2,.0725,3,.0816,3.0487-.3085,6.1607-.2687,9.2115.0145,1.1093-.199,1.9275.8152,2.5693a3.2181,3.2181,0,0,0,2.97.3259,2.2814,2.2814,0,0,0,1.5631-2.2115c.2776-3.179.5544-11.0623.6993-11.806.0584-.3.2772-.66.6427-.6409.3325.0171.37.3853.448.6635a100.501,100.501,0,0,1,1.2653,11.1011,2.8734,2.8734,0,0,0,1.0342,2.4731,2.9725,2.9725,0,0,0,3.3671-.2886,4.7345,4.7345,0,0,0,.8623-3.496c-.0752-2.0256-1.5413-15.7694-1.7448-20.6522-.0193-.464-.3215-1.3416.57-1.2005q.3728.0591.75.0856a8.38,8.38,0,0,0,4.5285-1.0412,44.4357,44.4357,0,0,0,5.5525-3.2438c1.2251-.82.5532-3.2721-.27-3.876a2.7574,2.7574,0,0,0-2.7784-.044c-.7222.3321-1.95.9648-2.6332,1.37a5.9925,5.9925,0,0,1-6.5716.1278,15.1032,15.1032,0,0,0-3.153-.9585l-.0225-.0035a4.4662,4.4662,0,0,0,2.5839-4.1664,5.0979,5.0979,0,0,0-4.735-5.0189c-3.5172-.2731-5.3546,2.1987-5.3534,5.0466a5.0881,5.0881,0,0,0,2.7742,4.4118,8.066,8.066,0,0,0-3.6969,3.9028,40.1713,40.1713,0,0,0-1.5927,7.6319A13.6113,13.6113,0,0,0,71.4125,183.6225Zm7.4163-16.6268a4.37,4.37,0,0,1-4.2136-4.3813,4.4987,4.4987,0,0,1,8.9971.0423C83.7717,165.0461,81.2993,166.9294,78.8288,166.9957Zm-6.7025,11.5179a52.3942,52.3942,0,0,1,1.0673-5.8675c.3716-1.4961,1.5462-3.9587,3.4709-4.8767.2277-.1749.4251-.1684.61-.39a.2864.2864,0,0,1,.0556-.05,3.9426,3.9426,0,0,0,1.5964.2305,7.1031,7.1031,0,0,0,2.0554-.4426,32.52,32.52,0,0,1,3.947,1.3341c1.5854.5817,3.1654,1.2914,4.8909.4829,1.3017-.61,2.6013-1.224,3.9064-1.8262a8.1416,8.1416,0,0,1,1.1045-.4353,1.5192,1.5192,0,0,1,1.9709.6632,2.0482,2.0482,0,0,1-.2695,2.5841,28.9811,28.9811,0,0,1-7.4279,3.9369c-1.0226.3443-2.0734-.0039-3.1149.0759-.7629.0585-.111-.9045-.67-1.2049a3.65,3.65,0,0,0-.2579,1.8565c-.0325,2.6159,1.9019,21.18,1.7714,22.2722a10.849,10.849,0,0,1-.1923,1.3952c-.2657,1.0407-.53,1.7583-2.3143,1.5912-1.1723-.11-1.52-.8408-1.6155-1.8327-.1761-1.8362-.834-9.5492-1.3006-11.5311-.1485-.6311-.4157-1.19-1.0376-1.219s-.9888.565-1.1416,1.12c-.2591.9422-.4266,8.6921-.6771,11.58a2.29,2.29,0,0,1-2.0857,2.3212,2.0261,2.0261,0,0,1-2.2832-2.1591c.0213-2.4315.0758-3.0579.1615-4.9728.1252-2.7973.1843-5.5652.0955-8.3518a96.1644,96.1644,0,0,1,.3622-10.633c.0178-.226.1639-.5044-.3049-.7594a13.6986,13.6986,0,0,0-.47,3.3667c-.1885,2.6763-.2006,5.354-.1558,8.0324-.4449.11-1.5452-.0525-1.7391-.6479C71.5466,182.3518,71.8572,180.58,72.1263,178.5136Z"/><path class="cls-7" d="M98.2611,167.9742c-.0955-1.4149-.6491-1.6293-1.136-2.608a3.371,3.371,0,0,1,1.645,2.3375.3084.3084,0,0,1-.1759.4409A.2276.2276,0,0,1,98.2611,167.9742Z"/><path class="cls-7" d="M89.7175,200.2833a4.0457,4.0457,0,0,1-2.5644.0108A3.5865,3.5865,0,0,1,89.7175,200.2833Z"/><path class="cls-7" d="M73.804,200.2833a4.0454,4.0454,0,0,1-2.5643.0108A3.5863,3.5863,0,0,1,73.804,200.2833Z"/><path class="cls-7" d="M92.6682,176.9221a16.8482,16.8482,0,0,1,.5456,2.4923,23.2931,23.2931,0,0,1,.1468,5.738,12.6157,12.6157,0,0,1-6.0565,8.7371c-.2741.1689-.5261-.2631-.252-.4292,3.3426-2.041,5.9318-5.6688,5.8681-9.6787a27.7517,27.7517,0,0,0-.5344-5.9817c-.0388-.1661-.0831-.335-.1274-.504a22.5417,22.5417,0,0,1-8.8368,4.6137,15.905,15.905,0,0,1-10.4762-.5816,11.184,11.184,0,0,1-3.78-2.7693,11.0712,11.0712,0,0,1-2.6973-4.3394.0374.0374,0,0,1-.0083-.0222A20.83,20.83,0,0,1,65.1,166.46a35.6991,35.6991,0,0,1,1.6283-10.5537,62.0866,62.0866,0,0,1,4.4309-10.2076,45.0222,45.0222,0,0,0,4.273-10.0719,15.108,15.108,0,0,0-.72-10.21c-.1911-.3822.3822-.72.5732-.3379a16.08,16.08,0,0,1,.6564,11.2433,50.0127,50.0127,0,0,1-4.3866,10.0525A57.4518,57.4518,0,0,0,67.188,156.69a34.2418,34.2418,0,0,0-1.4151,10.52,17.6738,17.6738,0,0,0,2.8939,9.7147.3.3,0,0,1,.0582.1606c.4874.6092.9028.9886,1.0717,1.2074,1.77,2.3234,4.3866,3.0656,7.0561,3.4422,4.406.6231,8.4547-.6508,12.26-2.8136a17.8629,17.8629,0,0,0,3.0157-2.113,17.323,17.323,0,0,1-.7477-3.6942c-.0111-.3212.4874-.3212.5013,0a14.76,14.76,0,0,0,.6507,3.3232,11.96,11.96,0,0,0,2.2653-2.9216,5.7887,5.7887,0,0,0,.8585-4.2841c-.18-.8751-.1135-2.4674-2.5256-3.1764a2.1239,2.1239,0,0,0-2.62,1.753c-.0277.3157.5954.7034-.0111.6868-.4459-.0111-.4791-.3961-.468-.8253a2.3008,2.3008,0,0,1,1.9-2.0382c1.4345-.2852,3.049-.31,3.98,2.8385a6.821,6.821,0,0,1-.9831,5.8321A17.3378,17.3378,0,0,1,92.6682,176.9221Z"/><path class="cls-8" d="M70.0742,117.5824c.7125-.0068,7.9388-.118,9.2146-.4381,2.8008-.703,3.9959-3.3918,4.3616-4.1236,3.0034-6.01,4.7126-10.3348,4.8525-16.3174.0531-2.2749-1.19-8.1159-4.8661-10.9931-3.151-2.4666-9.3561-4.0674-15.0172-2.3826a14.43,14.43,0,0,0-6.8705,4.3456c-2.7123,3.0915-4.6178,7.0822-3.1842,13.4481a33.31,33.31,0,0,0,1.839,5.25,36.171,36.171,0,0,0,5.33,8.045C68.57,117.664,68.2565,117.4392,70.0742,117.5824Z"/><path class="cls-8" d="M83.6368,85.71a10.6353,10.6353,0,0,0-.9361-.6511,12.55,12.55,0,0,1,1.1268,1.4277,14.86,14.86,0,0,1,2.27,6.136,7.5969,7.5969,0,0,1,.11,1.5764,14.7951,14.7951,0,0,1-3.4057,9.6641,8.0316,8.0316,0,0,1-.9263,1.0785,19.7267,19.7267,0,0,1-2.3044,2.2112,6.9516,6.9516,0,0,1-.9907.5349,22.064,22.064,0,0,1-8.4489,1.8769,36.8884,36.8884,0,0,1-4.2075-.1,14.6365,14.6365,0,0,1-4.1444-1.2586q-.312-.1278-.614-.2787a41.0188,41.0188,0,0,0,4.5681,6.4882c2.8363,3.2478,2.5224,3.023,4.34,3.1662.7125-.0068,7.9388-.118,9.2146-.4381,2.8008-.703,3.9959-3.3918,4.3616-4.1236,3.0034-6.01,4.7126-10.3348,4.8525-16.3174C88.556,94.4284,87.3124,88.5874,83.6368,85.71Z"/><path class="cls-9" d="M69.287,85.3049c-11.1541.7342-10.21,15.3563.9623,14.6209C81.4034,99.1916,80.46,84.57,69.287,85.3049Z"/><path class="cls-10" d="M69.493,121.05c-.0528-.025-.1109-.05-.17-.0759.6828,3.541,1.88,3.5728,6.9755,3.3827,2.9819-.1112,2.6915-.72,3.7029-4.0242a9.8989,9.8989,0,0,1-4.197,1.3946C74.1318,121.8838,71.0447,121.785,69.493,121.05Z"/><path class="cls-10" d="M69.3222,117.9894a3.0849,3.0849,0,0,1-.9374-.229l.0183.0434a13.2407,13.2407,0,0,1,.759,2.32c.17.0542.359.2527.5176.3182,2.61,1.0776,7.6692.9447,10.1975-.4112.0835-.0448.169-.0858.2553-.1252.1825-.638.2986-1.9837.4227-2.66a9.8367,9.8367,0,0,1-1.1638.2781A44.0048,44.0048,0,0,1,69.3222,117.9894Z"/><path class="cls-11" d="M75.849,122.4315a7.0183,7.0183,0,0,1-1.4024.453,12.32,12.32,0,0,1-2.5114.3852,12.64,12.64,0,0,1-1.8691-.1162c.8837,1.3606,2.5268,1.3413,6.2323,1.203,2.9819-.1112,2.6915-.72,3.7029-4.0242a7.6549,7.6549,0,0,1-2.0483.9443A14.2832,14.2832,0,0,1,75.849,122.4315Z"/><path class="cls-11" d="M79.865,119.6224a10.2968,10.2968,0,0,1-.76.7571,6.6585,6.6585,0,0,0,.7727-.3487c.0835-.0448.169-.0858.2553-.1252a6.9825,6.9825,0,0,0,.1579-.79Q80.0883,119.3749,79.865,119.6224Z"/><path class="cls-12" d="M71.7838,118.0315c-.1925-1.69-3.39-10.5648-4.2912-13.0508a5.4053,5.4053,0,0,1-.4893-2.1691,1.3314,1.3314,0,0,1,.8512-1.2477c.5117-.2073.8507.0379,1.2075.4066a25.505,25.505,0,0,0,2.2477,2.1241,3.2607,3.2607,0,0,0,4.4544-.2307c.31-.2912.5807-.6248.8616-.9458a6.33,6.33,0,0,1,2.251-1.7626c.5878-.25.9916-.1087.9766.6163a4.4124,4.4124,0,0,1-.1074.95c-.8527,3.4921-1.2522,7.0674-1.9457,10.5889-.2156,1.0948-.2322,3.0485-.3987,4.3934.5855-.4008.4463.0927.4794-.2091.3107-2.83.925-7.2781,1.4245-10.0775.3305-1.8521.719-3.6969.9634-5.5605.1408-1.0743-.5113-1.5-1.5272-1.1077a7.4477,7.4477,0,0,0-2.8281,2.3586,3.0838,3.0838,0,0,1-4.7671.2991c-.656-.6-1.2853-1.2313-1.9076-1.867a1.3036,1.3036,0,0,0-1.64-.3643,1.7692,1.7692,0,0,0-1.027,1.5176,8.4132,8.4132,0,0,0,.2968,2.2849c.5345,1.3942,3.9619,9.6082,4.2286,12.5741C71.3261,118.1376,71.1026,117.4323,71.7838,118.0315Z"/><path class="cls-7" d="M68.3848,117.76a3.0849,3.0849,0,0,0,.9374.229,44.0048,44.0048,0,0,0,10.0692-.4658,9.8367,9.8367,0,0,0,1.1638-.2781c.0058-.0318.0116-.064.0175-.0926.009-.0439.11-.0689.2448-.1468.0136.0426.0242.0885.0348.1344a4.2579,4.2579,0,0,0,2.186-1.782c1.7279-2.8568,5.7871-10.6191,6.0645-17.2706.3811-9.138-5.21-16.7456-16.7464-15.9754a17.94,17.94,0,0,0-6.5391,1.6319A13.8185,13.8185,0,0,0,58.399,91.76c-1.5569,4.394-2.5018,10.9266,6.0577,22.3058,1.7032,1.9189,2.6272,3.0205,3.2437,3.6491.1565.2787.2711.3639.2849.3577C68.2371,117.9593,68.31,117.5849,68.3848,117.76Zm-2.6507-3.3442a36.171,36.171,0,0,1-5.33-8.045,33.31,33.31,0,0,1-1.839-5.25c-1.4336-6.3659.4719-10.3566,3.1842-13.4481A14.43,14.43,0,0,1,68.62,83.3276c5.6611-1.6848,11.8662-.084,15.0172,2.3826,3.6756,2.8772,4.9192,8.7182,4.8661,10.9931-.14,5.9826-1.8491,10.3073-4.8525,16.3174-.3657.7318-1.5608,3.4206-4.3616,4.1236-1.2758.32-8.5021.4313-9.2146.4381C68.2565,117.4392,68.57,117.664,65.7341,114.4162Z"/><path class="cls-7" d="M80.8523,117.1405c-.0106-.0459-.0212-.0918-.0348-.1344-.1346.0779-.2359.1029-.2448.1468-.0059.0286-.0117.0608-.0175.0926-.1241.6764-.24,2.0221-.4227,2.66q.107-.0488.215-.0947c.0179-.0077.0576.0358.154.1a3.3345,3.3345,0,0,1-.5.4214c-1.0114,3.3045-.721,3.913-3.7029,4.0242-5.0955.19-6.2927.1583-6.9755-3.3827-.3174-.1391-.6693-.31-.4469-.7153a.2219.2219,0,0,1,.2861-.1347,13.2407,13.2407,0,0,0-.759-2.32l-.0183-.0434c-.0745-.1755-.1806-.3907-.4324-.2779a.39.39,0,0,0-.0382.02c-.2032.1185-.1511.3483-.0651.5353.6429,1.3987.8395,2.9366,1.3712,4.3694a3.918,3.918,0,0,0,1.1791,1.9183,4.756,4.756,0,0,0,1.447.53,6.1643,6.1643,0,0,0,.7715.1264,28.9747,28.9747,0,0,0,3.5894-.0252,8.0609,8.0609,0,0,0,1.8209-.2134,2.7808,2.7808,0,0,0,1.7811-1.7461,13.0618,13.0618,0,0,0,.72-2.58A9.4625,9.4625,0,0,0,80.8523,117.1405Z"/><path class="cls-7" d="M69.68,120.442c-.1586-.0655-.3472-.264-.5176-.3182a.2219.2219,0,0,0-.2861.1347c-.2224.4051.1295.5762.4469.7153.0592.0259.1173.0509.17.0759,1.5517.7353,4.6388.8341,6.3113.6772a9.8989,9.8989,0,0,0,4.197-1.3946,3.3345,3.3345,0,0,0,.5-.4214c-.0964-.0642-.1361-.1077-.154-.1q-.108.046-.215.0947c-.0863.0394-.1718.08-.2553.1252C77.3489,121.3867,72.2894,121.52,69.68,120.442Z"/><path class="cls-7" d="M87.5265,113.8318a5.8061,5.8061,0,0,0,2.6056,1.6955A5.6452,5.6452,0,0,0,87.5265,113.8318Z"/><path class="cls-7" d="M79.2733,75.8828a4.0787,4.0787,0,0,0-.43,2.9433C78.92,77.9231,79.5786,77.1213,79.2733,75.8828Z"/><path class="cls-7" d="M67.5061,77.7766l-.2629.13a2.91,2.91,0,0,0,1.3106,2.0961Z"/><path class="cls-7" d="M92.5074,79.7076l-4.0085,4.1511.1254.136c1.409-1.3,2.7507-2.6742,4.068-4.0753Z"/><path class="cls-7" d="M98.3115,89.4676c-1.99.9673-4.22,1.45-5.9572,2.93A36.7869,36.7869,0,0,0,98.3115,89.4676Z"/><path class="cls-7" d="M95.8965,104.0645c-1.48-.4922-3.0735-.5221-4.5537-1.0645C92.6527,104.2118,94.2928,104.0463,95.8965,104.0645Z"/><path class="cls-7" d="M56.93,107.2371c-1.4522.57-2.6949,1.5673-4.1792,2.0985C54.5332,109.4276,55.6869,108.25,56.93,107.2371Z"/><path class="cls-7" d="M61.055,113.5584l-3.0876,3.047.096.0992c1.0849-.9546,2.1183-1.9633,3.1331-2.9916Z"/><path class="cls-7" d="M54.9,97.8618c-2.1984.2529-4.4621-.0305-6.5916.79A36.7819,36.7819,0,0,0,54.9,97.8618Z"/><path class="cls-7" d="M60.0689,85.6819c-.9485-1.2386-2.25-2.158-3.17-3.4381C57.3021,83.9821,58.7521,84.7662,60.0689,85.6819Z"/><g class="cls-13"><path class="cls-14" d="M96.9689,148.1908h.0582a6.0164,6.0164,0,0,0,1.116-.0831A9.9163,9.9163,0,0,1,96.9689,148.1908Zm-3.7939-9.4627a2.81,2.81,0,0,0-.0166-.5179C93.1639,138.3847,93.17,138.5592,93.175,138.7281Z"/><path class="cls-14" d="M100.96,128.094c0,3.0906,0,5.6688-.0277,7.887-.0249,2.2016-.1053,4.0237-.1856,5.5109-.08,1.4483-.2686,4.2619-1.0966,5.5911a2.0819,2.0819,0,0,1-1.2656.9665,1.9927,1.9927,0,0,1-.23.0554l-.0111.0028a9.9163,9.9163,0,0,1-1.1742.0831c-1.4151.0387-3.564,0-4.6191,0a10.6764,10.6764,0,0,1-1.9524-.1053,2.8288,2.8288,0,0,1-2.556-1.2517c-.62-1.26-.3185-2.8025-.205-4.1345.0942-1.1133.1191-2.0632,1.4345-2.293a11.3143,11.3143,0,0,1,1.8416-.108c.7754,0,.817,0,1.2739-.0277a.9321.9321,0,0,0,.432-.144.9968.9968,0,0,0,.4708-.6508,5.6428,5.6428,0,0,0,.0858-.7477,2.81,2.81,0,0,0-.0166-.5179v-.0443q-.0249-1.0218-.0388-2.1849c-.0277-2.2182-.0554-4.7964-.0554-7.887,0-3.0932.0277-5.6687.0554-7.87.025-2.1988.08-4.0237.1856-5.5108.08-1.465.2686-4.24,1.0994-5.5885.5871-.9111,1.2822-1.11,2.6225-1.11,1.31,0,2.0326.1993,2.6225,1.11a6.5789,6.5789,0,0,1,.6951,2.041c.1606.8917.2935,2.0825.4015,3.5475.08,1.4871.1607,3.312.1856,5.5108C100.96,122.4253,100.96,125.0008,100.96,128.094Z"/><path class="cls-14" d="M128.76,118.1274c-.0249-1.4456-.1052-2.6558-.1855-3.6278a10.6365,10.6365,0,0,0-.4016-2.3373c-.4818-1.5064-1.0717-2.0824-3.3176-2.0824a11.4572,11.4572,0,0,0-1.5535.1c-1.8194.3379-2.0327,2.1795-2.1684,3.3315a25.71,25.71,0,0,0-.1855,2.8136c-.0277,1.13-.0526.41-.0526,1.9773v4.0431c-.0277,1.13-.0277,2.06-.0554,2.8136-.025.7726-.08,1.368-.1329,1.825a5.3564,5.3564,0,0,1-.2133,1.0495.8981.8981,0,0,1-.2852.4016.7984.7984,0,0,1-.252-.4016,5.3564,5.3564,0,0,1-.2133-1.0495,14.06,14.06,0,0,1-.1329-1.825c-.0277-.7532-.0554-1.6837-.0554-2.8136-.0249-1.13-.0249-2.4785-.0249-4.0431q0-2.3513-.08-4.0432a17.3893,17.3893,0,0,0-.4016-2.8164c-.51-2.0991-1.7391-3.0711-4.7354-3.3287-.9388-.0609-2.06-.1-3.373-.1a32.2729,32.2729,0,0,0-3.3453.1384c-1.8194.1994-3.0767.673-3.9075,1.9441-.9886,1.5258-1.1769,4.2591-1.23,5.9456-.08,1.4456-.108,3.1515-.108,5.1924,0,2.0216.0277,3.7275.0553,5.173.025,1.4484.1053,2.6558.2133,3.6278a10.0723,10.0723,0,0,0,.4818,2.34c.5345,1.6449,1.6588,2.08,3.9075,2.08a20.4178,20.4178,0,0,1,2.5145.1191,1.8908,1.8908,0,0,1,1.98,1.7059,14.2478,14.2478,0,0,1,.133,2.1212v2.1407a8.8506,8.8506,0,0,1-.1053,1.188c-.0193.0886-.0415.1662-.0636.2354a.56.56,0,0,1-.5207.3794H110.94a.6339.6339,0,0,1-.3739-.1c-.2935-.2188-.2935-1.188-.2935-1.4677-.0277-.4542-.0277-1.0884-.0277-1.861a11.35,11.35,0,0,0-.108-1.8443,1.6527,1.6527,0,0,0-1.6865-1.4871,20.2973,20.2973,0,0,0-2.1407-.1c-2.9963,0-3.6388.576-3.852,2.916-.08.8308-.108,1.98-.108,3.4284a19.4854,19.4854,0,0,0,.2409,3.4478c.3212,1.6865,1.4179,2.4785,3.6942,2.7166a34.3086,34.3086,0,0,0,4.6552.1773c2.2985-.0665,5.0927-.2327,7.3912-.2327.7006,0,1.0662-.0166,1.0717-.0193.1883-.0693.1468-.1413.1745-.529.05-.6923.05-2.3151.0332-6.0979-.0055-1.5675-.0554-2.7942-.0277-3.7053a15.7709,15.7709,0,0,1,.1606-2.06,1.3153,1.3153,0,0,1,.3739-.8723,1.1039,1.1039,0,0,1,.6978-.1994h3.0213a5.13,5.13,0,0,0,3.32-.8114c.9887-.8917,1.2019-2.617,1.3625-3.7081.108-.9692.1883-2.1794.216-3.6056.0249-1.41.0526-3.0933.0526-5.0955C128.788,119.2129,128.788,119.5757,128.76,118.1274Zm-16.0037,7.1143a11.9467,11.9467,0,0,1-.28,2.196,1.8354,1.8354,0,0,1-.5566.9527,2.3,2.3,0,0,1-1.9579,0,1.8191,1.8191,0,0,1-.5594-.9527,8.6337,8.6337,0,0,1-.21-2.2016v-.0332c-.0693-.9692-.0693-2.2736-.0693-3.9684s0-3.0185.0693-3.9877v-.0333a8.6643,8.6643,0,0,1,.21-2.2016,1.8187,1.8187,0,0,1,.5594-.9526,2.5356,2.5356,0,0,1,1.9579,0,1.835,1.835,0,0,1,.5566.9526,12.1962,12.1962,0,0,1,.28,2.1961Z"/><path class="cls-14" d="M123.2228,108.4236a9.599,9.599,0,0,0,1.6176.0958,9.9077,9.9077,0,0,0,1.6175-.0958c.8087-.1429,1.1525-.5484,1.2737-1.5022a22.5066,22.5066,0,0,0,0-3.8155c-.1212-.9539-.465-1.3593-1.2737-1.5022a9.9486,9.9486,0,0,0-1.6175-.0954,9.6387,9.6387,0,0,0-1.6176.0954c-.8087.1429-1.1726.5483-1.294,1.5022a22.5621,22.5621,0,0,0,0,3.8155C122.05,107.8752,122.4141,108.2807,123.2228,108.4236Z"/></g><path class="cls-8" d="M96.1381,147.36h.0582a6.0164,6.0164,0,0,0,1.116-.0831A9.8945,9.8945,0,0,1,96.1381,147.36Zm-3.7939-9.4627a2.8081,2.8081,0,0,0-.0166-.5178C92.3332,137.5539,92.3387,137.7284,92.3442,137.8973Z"/><path class="cls-8" d="M100.1287,127.2633c0,3.0905,0,5.6687-.0277,7.8869-.0249,2.2016-.1052,4.0238-.1855,5.5109-.08,1.4483-.2687,4.2619-1.0967,5.5912a2.0819,2.0819,0,0,1-1.2655.9664,1.9947,1.9947,0,0,1-.23.0554l-.0111.0028a9.8945,9.8945,0,0,1-1.1742.0831c-1.4151.0387-3.564,0-4.6191,0a10.6764,10.6764,0,0,1-1.9524-.1053,2.8288,2.8288,0,0,1-2.556-1.2517c-.62-1.26-.3185-2.8025-.2049-4.1345.0941-1.1133.119-2.0631,1.4344-2.293a11.3143,11.3143,0,0,1,1.8416-.108c.7754,0,.817,0,1.2739-.0277a.9321.9321,0,0,0,.432-.144.9965.9965,0,0,0,.4708-.6508,5.6076,5.6076,0,0,0,.0858-.7477,2.8081,2.8081,0,0,0-.0166-.5178v-.0443q-.0249-1.022-.0387-2.185c-.0277-2.2182-.0554-4.7964-.0554-7.8869,0-3.0933.0277-5.6688.0554-7.87.0249-2.1989.08-4.0238.1855-5.5109.08-1.465.2686-4.24,1.0994-5.5884.5871-.9111,1.2822-1.1105,2.6225-1.1105,1.31,0,2.0327.1994,2.6225,1.1105a6.5746,6.5746,0,0,1,.6951,2.0409c.1606.8917.2936,2.0825.4016,3.5475.08,1.4871.1606,3.312.1855,5.5109C100.1287,121.5945,100.1287,124.17,100.1287,127.2633Z"/><path class="cls-8" d="M127.93,117.2966c-.0249-1.4456-.1052-2.6557-.1855-3.6278a10.6411,10.6411,0,0,0-.4015-2.3372c-.4819-1.5065-1.0718-2.0825-3.3176-2.0825a11.44,11.44,0,0,0-1.5536.1c-1.8194.3378-2.0327,2.1794-2.1684,3.3314a25.71,25.71,0,0,0-.1855,2.8136c-.0277,1.13-.0526.41-.0526,1.9773v4.0431c-.0277,1.13-.0277,2.06-.0554,2.8136-.0249.7727-.08,1.368-.1329,1.825a5.3489,5.3489,0,0,1-.2133,1.0495.8973.8973,0,0,1-.2852.4016.7984.7984,0,0,1-.252-.4016,5.3564,5.3564,0,0,1-.2133-1.0495,14.0768,14.0768,0,0,1-.1329-1.825c-.0277-.7532-.0554-1.6837-.0554-2.8136-.0249-1.13-.0249-2.4785-.0249-4.0431q0-2.3513-.08-4.0432a17.4014,17.4014,0,0,0-.4015-2.8164c-.51-2.0991-1.7391-3.0711-4.7355-3.3286-.9388-.061-2.06-.1-3.373-.1a32.2729,32.2729,0,0,0-3.3453.1384c-1.8194.1994-3.0767.673-3.9075,1.9441-.9886,1.5258-1.1769,4.2591-1.2295,5.9456-.08,1.4456-.108,3.1515-.108,5.1924,0,2.0216.0277,3.7275.0554,5.1731.0249,1.4483.1052,2.6557.2132,3.6277a10.0664,10.0664,0,0,0,.4819,2.34c.5344,1.6449,1.6588,2.08,3.9074,2.08a20.4178,20.4178,0,0,1,2.5145.1191,1.891,1.891,0,0,1,1.98,1.7059,14.2657,14.2657,0,0,1,.1329,2.1212v2.1407a8.8544,8.8544,0,0,1-.1052,1.188c-.0194.0886-.0416.1662-.0637.2354a.56.56,0,0,1-.5207.3794h-.0055a.6335.6335,0,0,1-.3738-.1c-.2936-.2188-.2936-1.188-.2936-1.4677-.0277-.4542-.0277-1.0883-.0277-1.861a11.35,11.35,0,0,0-.108-1.8443,1.6527,1.6527,0,0,0-1.6865-1.4871,20.2973,20.2973,0,0,0-2.1407-.1c-2.9963,0-3.6388.576-3.852,2.916-.08.8308-.108,1.98-.108,3.4284a19.4854,19.4854,0,0,0,.2409,3.4478c.3212,1.6865,1.4179,2.4785,3.6942,2.7166a34.3094,34.3094,0,0,0,4.6552.1773c2.2985-.0665,5.0927-.2326,7.3912-.2326.7006,0,1.0662-.0167,1.0717-.0194.1883-.0693.1468-.1413.1745-.529.05-.6923.05-2.3151.0332-6.0979-.0055-1.5674-.0554-2.7942-.0277-3.7053a15.7709,15.7709,0,0,1,.1606-2.06,1.3153,1.3153,0,0,1,.3739-.8723,1.1042,1.1042,0,0,1,.6979-.1994h3.0213a5.13,5.13,0,0,0,3.32-.8114c.9887-.8917,1.2019-2.617,1.3625-3.7081.108-.9692.1883-2.1794.216-3.6056.0249-1.41.0526-3.0933.0526-5.0955C127.9572,118.3822,127.9572,118.7449,127.93,117.2966Zm-16.0037,7.1143a11.9467,11.9467,0,0,1-.28,2.196,1.8349,1.8349,0,0,1-.5566.9527,2.3,2.3,0,0,1-1.9579,0,1.8186,1.8186,0,0,1-.5594-.9527,8.6328,8.6328,0,0,1-.21-2.2015v-.0333c-.0693-.9692-.0693-2.2736-.0693-3.9684s0-3.0185.0693-3.9877v-.0333a8.6629,8.6629,0,0,1,.21-2.2015,1.8186,1.8186,0,0,1,.5594-.9527,2.5356,2.5356,0,0,1,1.9579,0,1.8349,1.8349,0,0,1,.5566.9527,12.1949,12.1949,0,0,1,.28,2.196Z"/><path class="cls-8" d="M122.392,107.5928a9.599,9.599,0,0,0,1.6176.0958,9.9077,9.9077,0,0,0,1.6175-.0958c.8088-.1429,1.1525-.5484,1.2738-1.5022a22.5343,22.5343,0,0,0,0-3.8155c-.1213-.9538-.465-1.3593-1.2738-1.5022a9.9486,9.9486,0,0,0-1.6175-.0954,9.6387,9.6387,0,0,0-1.6176.0954c-.8087.1429-1.1726.5484-1.294,1.5022a22.5621,22.5621,0,0,0,0,3.8155C121.2194,107.0444,121.5833,107.45,122.392,107.5928Z"/><path class="cls-7" d="M118.7786,141.5667c-.12-.001-.242-.0017-.37-.0017a16.9889,16.9889,0,0,0-1.9077.075c-.9539.1122-1.3593.43-1.5022,1.1792a8.5356,8.5356,0,0,0-.0955,1.4975,8.2681,8.2681,0,0,0,.0955,1.4974c.1429.7488.5594,1.0147,1.5022,1.198a18.3946,18.3946,0,0,0,2.0359.0748c.2254.003.2039-.08.2226-.93Z"/><path class="cls-7" d="M122.6979,147.1082H120.81a.3347.3347,0,0,1-.3451-.323c-.0039-1.6266-.0343-3.2565-.0018-4.8827a.3375.3375,0,0,1,.3159-.3185,11.175,11.175,0,0,1,1.9506.0054.333.333,0,0,1,.3161.32c.0071.9754-.0021,3.8972-.0017,4.8757A.3348.3348,0,0,1,122.6979,147.1082Z"/><path class="cls-7" d="M145.5284,128.9581c-.0277-1.4484-.108-2.6558-.216-3.6278a13.1028,13.1028,0,0,0-.457-2.34,2.5931,2.5931,0,0,0-1.6948-1.8222l-.0221-.0084c-.061-.0249-.1219-.05-.1856-.0692-1.8166-.5926-6.9592.468-8.3494-1.2018a4.2477,4.2477,0,0,1-.7227-2.4176c-.1025-1.2573-.1025-2.5229-.1108-3.7857-.0083-1.11-.0166-2.2237-.0969-3.3342a4.7441,4.7441,0,0,0-.5622-2.2182,2.7482,2.7482,0,0,0-2.329-1.0329,6.3893,6.3893,0,0,0-2.4508.1855l-.0083.0028a2.7056,2.7056,0,0,0-.5262.252,4.3755,4.3755,0,0,0-1.5314,3.0767,30.1314,30.1314,0,0,0-.2963,3.9351c-.0942,2.1185-.0914,4.2426-.1108,6.3639-.0083,1.1188-.0138,2.2625-.0138,3.37V133.5c0,1.7973-.0388,3.6305-.0554,5.4416a5.973,5.973,0,0,1-.0277,2.13c-.1911.3988-.1329.41-.31.3988a.1085.1085,0,0,1-.0886.0609,1.2651,1.2651,0,0,0-.4846.08.2883.2883,0,0,0-.072.1607v.0083c-.036.695.0637,1.5729.0526,2.29-.0138.8141-.036,1.6311-.036,2.4452,0,.097-.0028.1883-.0055.2714.2547.5262,1.1714.3933,4.3034.4957.3961.0139.8391.025,1.3321.0388.7089-.0111,1.4151-.0194,2.1212-.0166.8668,0,2.1241.0415,3.4727.0415h.0609c.6287-.0083,1.2961-.0194,1.9136-.0332.0332-.0028.0693-.0028.1053-.0028.8889-.0221,1.6588-.0526,2.03-.0886,1.8278-.1772,3.1681-.6923,4.0294-1.944,1.0744-1.5259,1.2074-4.2814,1.3154-5.9678q.0789-2.1726.08-5.1758C145.581,132.1123,145.5533,130.4064,145.5284,128.9581Zm-8.8756,9.1608c-.0582.972-.1135,1.7252-.1717,2.2209a1.9288,1.9288,0,0,1-.4542.9527.8959.8959,0,0,1-.3461.1634,1.7006,1.7006,0,0,1-.4487.0553,1.2971,1.2971,0,0,1-.7975-.2187,1.9541,1.9541,0,0,1-.4542-.9527,10.705,10.705,0,0,1-.1689-2.2209c-.0581-.9693-.0581-2.2792-.0581-3.985s0-3.0352.0581-4.0044a10.7061,10.7061,0,0,1,.1689-2.221,1.9532,1.9532,0,0,1,.4542-.9526,1.1164,1.1164,0,0,1,.6314-.1939c.0526-.0027.108-.0055.1661-.0055a1.2913,1.2913,0,0,1,.7948.1994,1.9279,1.9279,0,0,1,.4542.9526c.0582.4735.1135,1.23.1717,2.221Z"/><path class="cls-7" d="M182.9608,128.9027c-.0277-1.4484-.108-2.6585-.1883-3.6278a10.633,10.633,0,0,0-.4016-2.34c-.4846-1.5093-1.0745-2.0825-3.3314-2.0825a11.0466,11.0466,0,0,0-1.5564.1c-1.8277.335-2.0409,2.1794-2.1766,3.3314a25.6317,25.6317,0,0,0-.1883,2.8136c-.025,1.13-.0526,2.4813-.0526,4.0459v4.046c-.0277,1.13-.0277,2.0631-.0527,2.8163-.0276.7727-.083,1.368-.1357,1.825a5.1193,5.1193,0,0,1-.216,1.0495.896.896,0,0,1-.2824.4016.7689.7689,0,0,1-.252-.4016,5.3163,5.3163,0,0,1-.216-1.0495,14.056,14.056,0,0,1-.133-1.825c-.0277-.7532-.0553-1.6865-.0553-2.8163-.0277-1.13-.0277-2.4786-.0277-4.046,0-1.5646-.025-2.916-.08-4.0459a17.326,17.326,0,0,0-.4016-2.8136c-.51-2.1046-1.7446-3.0739-4.7521-3.3314-.9415-.061-2.0686-.1-3.3841-.1-6.4995,0-8.2441.5732-8.5127,5.9484-.08,1.0717-.108,2.3594-.108,3.8465s.0277,2.7776.0553,3.8272a12.3443,12.3443,0,0,0,.6979,4.4225c.6176,1.429,2.0936,1.5481,3.9185,1.5481h2.5256c.59.0193,1.0745.0387,1.3958.0581.3766.0582.7255.1.7255.4376a.3016.3016,0,0,1-.1606.2769,2.7535,2.7535,0,0,1-.7533.1578c-.4015.0388-.9941.061-1.7972.061-.781.0194-1.8554.0194-3.1958.0194h-3.841c-.6452,0-.7809-.5955-.8612-.9527a13.7487,13.7487,0,0,1-.2133-1.7446c-.08-.7533-.108-1.7641-.1357-3.0352-.08-3.8271-.08-7.6127-.08-11.44,0-2.6391,0-10.155-.0277-12.0575-.0249-1.8831-.1052-4.6108-.1883-5.8819a26.6571,26.6571,0,0,0-.4015-3.0518c-.4016-1.5674-.8059-2.6779-3.3287-2.6779-1.3431,0-2.041.1994-2.6336,1.1105-.8308,1.3486-1.0191,4.1235-1.0994,5.5912-.108,1.4871-.1606,9.8088-.1883,12.0076-.0277,2.2016-.0526,4.78-.0526,7.8731s.0249,5.6715.0526,7.8731c.0277,2.1822.108,4.0265.2409,5.5136a22.3019,22.3019,0,0,0,.5373,3.57c.5372,2.0216,1.2628,3.1515,4.4031,3.1515h25.97a5.1543,5.1543,0,0,0,3.3287-.8114c.9941-.8945,1.2074-2.62,1.3708-3.7081.1052-.972.1855-2.1822.2132-3.6111.0277-1.4068.0554-3.0933.0554-5.0955C182.9885,132.0569,182.9885,130.351,182.9608,128.9027Zm-16.6573,3.8659a5.2327,5.2327,0,0,1-.1883,1.1908.8206.8206,0,0,1-.3766.5151,1.449,1.449,0,0,1-.6619.1191,1.4331,1.4331,0,0,1-.6618-.1191c-.5207-.2188-.5207-1.4262-.5207-1.7059-.047-.5151-.047-1.23-.047-2.1213s0-1.6062.047-2.1406a3.6152,3.6152,0,0,1,.1441-1.1908.9616.9616,0,0,1,.3766-.5151,1.8033,1.8033,0,0,1,.6618-.1,1.8251,1.8251,0,0,1,.6619.1.9616.9616,0,0,1,.3766.5151,5.2317,5.2317,0,0,1,.1883,1.1908Z"/><path class="cls-7" d="M159.5488,119.7247a9.6,9.6,0,0,0,1.6175.0957,9.9094,9.9094,0,0,0,1.6175-.0957c.8088-.1429,1.1525-.5484,1.2738-1.5023a22.5332,22.5332,0,0,0,0-3.8154c-.1213-.9539-.465-1.3594-1.2738-1.5023a9.96,9.96,0,0,0-1.6175-.0954,9.6481,9.6481,0,0,0-1.6175.0954c-.8088.1429-1.1727.5484-1.2941,1.5023a22.5609,22.5609,0,0,0,0,3.8154C158.3761,119.1763,158.74,119.5818,159.5488,119.7247Z"/><path class="cls-7" d="M167.1491,119.7247a9.6,9.6,0,0,0,1.6175.0957,9.9086,9.9086,0,0,0,1.6175-.0957c.8088-.1429,1.1526-.5484,1.2738-1.5023a22.5332,22.5332,0,0,0,0-3.8154c-.1212-.9539-.465-1.3594-1.2738-1.5023a9.9593,9.9593,0,0,0-1.6175-.0954,9.6488,9.6488,0,0,0-1.6175.0954c-.8088.1429-1.1727.5484-1.294,1.5023a22.5332,22.5332,0,0,0,0,3.8154C165.9764,119.1763,166.34,119.5818,167.1491,119.7247Z"/><path class="cls-7" d="M177.4189,119.7247a9.6,9.6,0,0,0,1.6175.0957,9.9086,9.9086,0,0,0,1.6175-.0957c.8088-.1429,1.1526-.5484,1.2738-1.5023a22.5332,22.5332,0,0,0,0-3.8154c-.1212-.9539-.465-1.3594-1.2738-1.5023a9.9593,9.9593,0,0,0-1.6175-.0954,9.6488,9.6488,0,0,0-1.6175.0954c-.8088.1429-1.1727.5484-1.294,1.5023a22.5609,22.5609,0,0,0,0,3.8154C176.2462,119.1763,176.61,119.5818,177.4189,119.7247Z"/><text class="cls-15" transform="translate(224.6908 89.6098)">About Us</text><text class="cls-5" transform="translate(92.8733 226.8652)">personal development, all driven by dedicated and skilled<tspan x="-4.8237" y="19">volunteers. We firmly believe in the importance of teaching</tspan><tspan x="34.3345" y="38" xml:space="preserve">life skills and  citizenship to children and youth.</tspan><tspan x="-12.4458" y="57">These skills empower them to adapt to a changing world and</tspan><tspan x="-20.167" y="76">achieve success in education, employment, and personal goals.</tspan><tspan x="8.4839" y="95">Education should be built upon a forward-thinking and</tspan><tspan x="11.5908" y="114">comprehensive vision to empower future generations.</tspan></text></g></g></g></svg>