<svg xmlns="http://www.w3.org/2000/svg" viewBox="0 0 484.8511 738.775"><defs><style>.cls-1{isolation:isolate;}.cls-2{mix-blend-mode:color-dodge;}.cls-3{fill:none;stroke:#12bbc2;stroke-miterlimit:10;}.cls-4,.cls-6{fill:#12bbc2;}.cls-5{font-size:14px;font-family:Como-Bold, Como;font-weight:700;}.cls-5,.cls-7,.cls-8{fill:#00193e;}.cls-6{opacity:0.24;}.cls-7{font-size:12px;font-family:Como;}.cls-8{font-size:29px;font-family:Como-ExtraBold, Como;font-weight:800;}</style></defs><g class="cls-1"><g id="Layer_11" data-name="Layer 11"><g id="_6" data-name="6"><g id="_5" data-name="5"><g class="cls-2"><path class="cls-3" d="M30.6041,626.8554H439.6426A13.2842,13.2842,0,0,1,452.9269,640.14h0a13.2842,13.2842,0,0,1-13.2843,13.2843H30.6041Z"/></g><path class="cls-4" d="M44.8492,643.294a15.33,15.33,0,1,0-13.207,13.2072A15.3362,15.3362,0,0,0,44.8492,643.294Z"/><text class="cls-5" transform="translate(51.7991 644.6506)">Training children, adolescents, and youth on values and skills</text><rect class="cls-6" x="40.215" y="696.5658" width="333.1679" height="29.4575" rx="14.7287" transform="translate(413.598 1422.589) rotate(-180)"/><rect class="cls-6" x="40.215" y="659.7683" width="433.7637" height="29.4575" rx="14.7287" transform="translate(514.1938 1348.9942) rotate(-180)"/><text class="cls-7" transform="translate(49.2393 677.948)">Providing multi-method training to convey values and develop personal skills.</text><path class="cls-4" d="M43.1639,713.0257a2.7543,2.7543,0,1,0-2.1622,2.1623A2.7569,2.7569,0,0,0,43.1639,713.0257Z"/><path class="cls-4" d="M43.1639,675.0358a2.7543,2.7543,0,1,0-2.1622,2.1624A2.7569,2.7569,0,0,0,43.1639,675.0358Z"/><text class="cls-7" transform="translate(49.2393 714.9181)">Promoting critical thinking and problem-solving abilities.</text><text class="cls-5" transform="translate(25.1229 645.5658)">5</text></g><g id="_4" data-name="4"><path class="cls-6" d="M57.367,541.8426H435.4819a17.05,17.05,0,0,1,17.05,17.05v0a17.05,17.05,0,0,1-17.05,17.05H57.367a17.05,17.05,0,0,1-17.05-17.05v0a17.05,17.05,0,0,1,17.05-17.05Z" transform="translate(492.8488 1117.7853) rotate(180)"/><rect class="cls-6" x="40.215" y="582.5109" width="333.1679" height="29.4575" rx="14.7287" transform="translate(413.598 1194.4793) rotate(-180)"/><text class="cls-5" transform="translate(49.9993 525.5016)">Contributing to the upbringing and transformation of generations</text><text class="cls-7" transform="translate(49.2393 555.8932)">Enhancing awareness among children, adolescents, and youth through <tspan x="0" y="14.4004">wareness programs aimed at developing their personalities.</tspan></text><path class="cls-4" d="M43.1639,598.9708a2.7543,2.7543,0,1,0-2.1622,2.1623A2.7569,2.7569,0,0,0,43.1639,598.9708Z"/><path class="cls-4" d="M43.1639,560.981a2.7543,2.7543,0,1,0-2.1622,2.1623A2.7569,2.7569,0,0,0,43.1639,560.981Z"/><text class="cls-7" transform="translate(49.2393 600.8633)">Encouraging self-discovery and boosting self-confidence.</text><g class="cls-2"><path class="cls-3" d="M30.7749,508.9626H469.2884c8.1856,0,14.8212,5.9476,14.8212,13.2842h0c0,7.3368-6.6356,13.2842-14.8212,13.2842H30.7749Z"/><path class="cls-4" d="M45.02,524.2392A15.33,15.33,0,1,0,31.813,537.4464,15.3361,15.3361,0,0,0,45.02,524.2392Z"/></g><text class="cls-5" transform="translate(25.1229 525.5021)">4</text></g><g id="_3" data-name="3"><g id="_2" data-name="2"><path class="cls-4" d="M42.9931,477.7785a2.7543,2.7543,0,1,0-2.1622,2.1624A2.7568,2.7568,0,0,0,42.9931,477.7785Z"/></g><g id="_1" data-name="1"><path class="cls-4" d="M43.1639,433.5415a2.7543,2.7543,0,1,0-2.1622,2.1623A2.7569,2.7569,0,0,0,43.1639,433.5415Z"/></g><g class="cls-2"><path class="cls-3" d="M30.6041,382.6083H279.6426a13.2842,13.2842,0,0,1,13.2843,13.2842h0a13.2841,13.2841,0,0,1-13.2843,13.2842H30.6041Z"/></g><path class="cls-4" d="M44.8492,399.0469a15.33,15.33,0,1,0-13.207,13.2072A15.3362,15.3362,0,0,0,44.8492,399.0469Z"/><path class="cls-6" d="M57.367,415.9521h406.2a17.05,17.05,0,0,1,17.05,17.05v0a17.05,17.05,0,0,1-17.05,17.05H57.367a17.05,17.05,0,0,1-17.05-17.05v0a17.05,17.05,0,0,1,17.05-17.05Z" transform="translate(520.9339 866.0044) rotate(180)"/><rect class="cls-6" x="40.3169" y="459.1897" width="440.3001" height="34.1001" rx="17.05" transform="translate(520.9339 952.4796) rotate(180)"/><text class="cls-7" transform="translate(49.2393 430.0027)">Training children and adolescents on modern scientific and practical curricula<tspan x="0" y="14.4004">and skills.</tspan></text><text class="cls-7" transform="translate(49.2393 472.6623)">Empowering them to contribute to creating opportunities and opening fields<tspan x="0" y="14.4004">for them in the future.</tspan></text><text class="cls-5" transform="translate(49.261 400.0549)">Preparing generations for the future</text><text class="cls-5" transform="translate(25.1229 400.8913)">3</text></g><g id="_2-2" data-name="2"><g id="_2-3" data-name="2"><rect class="cls-6" x="40.215" y="339.6386" width="395.9915" height="29.4575" rx="14.7287" transform="translate(476.4216 708.7347) rotate(-180)"/><path class="cls-4" d="M43.1639,355.777a2.7543,2.7543,0,1,0-2.1622,2.1623A2.757,2.757,0,0,0,43.1639,355.777Z"/><text class="cls-7" transform="translate(49.2393 357.991)">Maintaining values of community development through training work.</text></g><g id="_1-2" data-name="1"><rect class="cls-6" x="39.5224" y="307.6488" width="278.4045" height="25.6813" rx="12.8407" transform="translate(357.4493 640.9789) rotate(180)"/><path class="cls-4" d="M43.1639,320.7871a2.7543,2.7543,0,1,0-2.1622,2.1624A2.7569,2.7569,0,0,0,43.1639,320.7871Z"/><text class="cls-7" transform="translate(49.2393 323.0005)">Encouraging participation in volunteer activities.</text></g><g class="cls-2"><path class="cls-3" d="M30.7749,273.6067H423.8134a13.2842,13.2842,0,0,1,13.2843,13.2842h0a13.2842,13.2842,0,0,1-13.2843,13.2843H30.7749Z"/></g><path class="cls-4" d="M45.02,290.0453A15.33,15.33,0,1,0,31.813,303.2526,15.3361,15.3361,0,0,0,45.02,290.0453Z"/><text class="cls-5" transform="translate(49.6263 291.0529)">Enhancing the value of volunteering and impact in society</text><text class="cls-5" transform="translate(25.1229 292.3167)">2</text></g><g id="_1-3" data-name="1"><g id="_2-4" data-name="2"><rect class="cls-6" x="39.8922" y="229.2214" width="386.4602" height="29.4575" rx="14.7287" transform="translate(466.2446 487.9003) rotate(-180)"/><path class="cls-4" d="M42.8411,245.36a2.7543,2.7543,0,1,0-2.1622,2.1623A2.7569,2.7569,0,0,0,42.8411,245.36Z"/></g><g id="_1-4" data-name="1"><rect class="cls-6" x="39.1996" y="197.2316" width="444.9099" height="25.6813" rx="12.8407" transform="translate(523.3091 420.1445) rotate(180)"/><path class="cls-4" d="M42.8411,210.37a2.7543,2.7543,0,1,0-2.1622,2.1623A2.7569,2.7569,0,0,0,42.8411,210.37Z"/></g><g class="cls-2"><path class="cls-3" d="M30.452,163.19H204.4906a13.2842,13.2842,0,0,1,13.2842,13.2843h0a13.2841,13.2841,0,0,1-13.2842,13.2842H30.452Z"/></g><path class="cls-4" d="M44.6971,179.6282A15.33,15.33,0,1,0,31.49,192.8354,15.3361,15.3361,0,0,0,44.6971,179.6282Z"/><text class="cls-5" transform="translate(48.789 180.6358)">Happiness and positivity</text><text class="cls-7" transform="translate(49.2393 213.079)">Creating a safe and positive environment that encourages happiness and joy.</text><text class="cls-7" transform="translate(50.2393 247.5738)">Promoting companionship and positive interaction among trainees.</text><text class="cls-5" transform="translate(24.1229 181.6358)">1</text></g></g><g id="_7" data-name="7"><circle class="cls-6" cx="251.7424" cy="76.44" r="67.3428"/><circle class="cls-3" cx="251.7424" cy="76.44" r="76.44"/><text class="cls-8" transform="translate(212.8685 84.9838)">Goals</text><circle class="cls-3" cx="182.6249" cy="40.7198" r="7.8401" transform="translate(14.0032 121.8164) rotate(-38.2543)"/><path class="cls-4" d="M185.1391,43.1715a3.5117,3.5117,0,1,0-4.9658.0625A3.5116,3.5116,0,0,0,185.1391,43.1715Z"/><polyline class="cls-3" points="182.625 40.781 153.537 11.701 -6.217 11.701"/><circle class="cls-3" cx="320.3715" cy="40.7198" r="7.84" transform="translate(90.0366 267.0864) rotate(-51.7457)"/><path class="cls-4" d="M317.8573,43.1715a3.5117,3.5117,0,1,1,4.9658.0625A3.5116,3.5116,0,0,1,317.8573,43.1715Z"/><polyline class="cls-3" points="320.372 40.781 349.46 11.701 509.214 11.701"/><circle class="cls-3" cx="182.6249" cy="109.9277" r="7.84" transform="translate(-16.7708 185.2756) rotate(-51.7457)"/><path class="cls-4" d="M185.1391,107.476a3.5117,3.5117,0,1,1-4.9658-.0625A3.5116,3.5116,0,0,1,185.1391,107.476Z"/><polyline class="cls-3" points="182.625 109.866 153.537 138.947 -6.217 138.947"/><circle class="cls-3" cx="320.3715" cy="109.9277" r="7.8401" transform="translate(0.7312 221.9636) rotate(-38.2543)"/><path class="cls-4" d="M317.8573,107.476a3.5117,3.5117,0,1,0,4.9658-.0625A3.5116,3.5116,0,0,0,317.8573,107.476Z"/><polyline class="cls-3" points="320.372 109.866 349.46 138.947 509.214 138.947"/></g><g id="Layer_10" data-name="Layer 10"><text class="cls-5" transform="translate(87.4694 -60.8718)">“We believe in the importance of the teacher’s role<tspan x="0.5044" y="19">in nurturing generations and shaping their future.”</tspan></text></g></g></g></svg>