<svg xmlns="http://www.w3.org/2000/svg" viewBox="0 0 500.6876 97.0213"><defs><style>.cls-1{fill:#ffb900;}.cls-2{fill:#00193e;}.cls-3{fill:none;stroke:#00193e;stroke-miterlimit:10;}</style></defs><g id="_4" data-name="4"><g id="_4-2" data-name="4"><rect class="cls-1" x="34.5283" y="23.1557" width="436.7908" height="60.5127" rx="30.2563"/><path class="cls-2" d="M446.3546,49.7924a2.6134,2.6134,0,1,1-2.6133,2.6134,2.6132,2.6132,0,0,1,2.6133-2.6134m0-1a3.6134,3.6134,0,1,0,3.6132,3.6134,3.6175,3.6175,0,0,0-3.6132-3.6134Z"/><line class="cls-3" x1="553.0646" y1="52.4058" x2="448.3107" y2="52.4058"/><path class="cls-2" d="M56.0875,49.7924a2.6134,2.6134,0,1,1-2.6133,2.6134,2.6133,2.6133,0,0,1,2.6133-2.6134m0-1a3.6134,3.6134,0,1,0,3.6133,3.6134,3.6175,3.6175,0,0,0-3.6133-3.6134Z"/><line class="cls-3" x1="-39.6225" y1="52.4058" x2="54.1314" y2="52.4058"/></g><path class="cls-2" d="M71.6347,48.777a3.85,3.85,0,0,1,.3818-1.7217,5.4222,5.4222,0,0,1,1.0167-1.42,11.1871,11.1871,0,0,1,1.3906-1.19q-.6057-.5742-1.2158-1.2334t-1.2579-1.39l-.0083-.0088a.8539.8539,0,0,1-.0913-.1084.8771.8771,0,0,1-.1494-.373.9322.9322,0,0,1,.0039-.4355.8563.8563,0,0,1,.2368-.4024.6.6,0,0,1,.0664-.0586,5.6275,5.6275,0,0,1,1.81-1.05,6.1482,6.1482,0,0,1,2.0835-.3613,4.86,4.86,0,0,1,1.7349.2988,2.89,2.89,0,0,1,1.2617.8877,2.2742,2.2742,0,0,1,.4731,1.47,2.67,2.67,0,0,1-.4731,1.5772,5.9211,5.9211,0,0,1-1.22,1.2539,6.022,6.022,0,0,0,1.27.4355,6.6957,6.6957,0,0,0,1.4775.1534h.0083a.9061.9061,0,0,1,.66.2744.94.94,0,0,1-.66,1.6015h-.0083a8.0829,8.0829,0,0,1-2.4526-.3447,7.8874,7.8874,0,0,1-2.0132-.9668,10.0555,10.0555,0,0,0-1.7807,1.47,2.3516,2.3516,0,0,0-.668,1.6426,1.5322,1.5322,0,0,0,.498,1.1914,2.983,2.983,0,0,0,1.27.6563,6.224,6.224,0,0,0,1.5937.2031,10.2611,10.2611,0,0,0,1.76-.166.87.87,0,0,1,.7514.1738.9353.9353,0,0,1,.3526.6309.9636.9636,0,0,1-.1865.6523.8772.8772,0,0,1-.5772.3858,9.6041,9.6041,0,0,1-1.0708.1533q-.531.0453-1.0293.0459a7.9423,7.9423,0,0,1-1.98-.2412,5.4813,5.4813,0,0,1-1.6767-.7256,3.61,3.61,0,0,1-1.1577-1.2246A3.43,3.43,0,0,1,71.6347,48.777Zm4.2666-7.86a4.2665,4.2665,0,0,0-1.8677.4228q.4981.5816.9839,1.0957a13.4707,13.4707,0,0,0,.9834.9473,7.46,7.46,0,0,0,1.1123-.876,1.088,1.088,0,0,0,.3819-.7266.69.69,0,0,0-.4732-.6513A2.7185,2.7185,0,0,0,75.9013,40.9167Z"/><path class="cls-2" d="M79.4873,46.0387a.8889.8889,0,0,1,.2822-.664.9187.9187,0,0,1,.664-.2744h1.2452a.9132.9132,0,0,1,.6679.2744.9256.9256,0,0,1,0,1.3232.909.909,0,0,1-.6679.2783H80.4335a.9146.9146,0,0,1-.664-.2783A.8954.8954,0,0,1,79.4873,46.0387Z"/><path class="cls-2" d="M79.977,50.4372a.77.77,0,0,1,.5146-.9453,6.4271,6.4271,0,0,1,1.0748-.2168,10.123,10.123,0,0,1,1.208-.0743,7.0461,7.0461,0,0,1,1.0664.0743,3.7968,3.7968,0,0,1,.8095.208.7673.7673,0,0,1,.3946.498.7237.7237,0,0,1-.104.6143.7841.7841,0,0,1-.3819.3027.8081.8081,0,0,1-.4648.0215,3.9215,3.9215,0,0,0-.6021-.1084,6.336,6.336,0,0,0-.7177-.042q-.5647,0-1.05.0459a3.93,3.93,0,0,0-.8013.1455.7314.7314,0,0,1-.5767-.0742A.7678.7678,0,0,1,79.977,50.4372Zm.7554-4.3985a.8889.8889,0,0,1,.2822-.664.9189.9189,0,0,1,.6641-.2744,4.0452,4.0452,0,0,0,1.6728-.2618,1.335,1.335,0,0,0,.7217-.8838,6.9317,6.9317,0,0,0,.2036-1.6855.8966.8966,0,0,1,.32-.68.9634.9634,0,0,1,.6929-.2168.909.909,0,0,1,.6475.32.8759.8759,0,0,1,.2241.6758,5.4119,5.4119,0,0,0,.1367,1.6025,1.3454,1.3454,0,0,0,.6685.8633,3.1181,3.1181,0,0,0,1.436.2657h.0083a.938.938,0,0,1,0,1.8759h-.0083a4.4358,4.4358,0,0,1-1.9961-.3945,2.5871,2.5871,0,0,1-1.2-1.34,2.9984,2.9984,0,0,1-1.3823,1.3564,5.264,5.264,0,0,1-2.1455.3779.9148.9148,0,0,1-.6641-.2783A.8954.8954,0,0,1,80.7324,46.0387Z"/><path class="cls-2" d="M87.4726,46.03a.8861.8861,0,0,1,.2778-.66.9171.9171,0,0,1,.66-.27h.49a.2518.2518,0,0,1,.0332-.0909,12.3254,12.3254,0,0,1,.689-1.3125.9023.9023,0,0,1,.0083-.124,9.3147,9.3147,0,0,0,.0747-.9629q.0168-.5391.0166-1.1865,0-.8892-.0371-1.8262-.0381-.939-.1-1.7685-.063-.8306-.1372-1.3946a.8134.8134,0,0,1,.1992-.6845.9691.9691,0,0,1,.5977-.3448.867.867,0,0,1,.7221.2032,1.04,1.04,0,0,1,.357.6435q.0826.564.1494,1.3321t.1079,1.59q.0417.8217.0415,1.5527v.6387a5.34,5.34,0,0,1,1.3779-.8008,4.1377,4.1377,0,0,1,1.5274-.2871,3.0471,3.0471,0,0,1,2.1914.8145,2.8816,2.8816,0,0,1,.855,2.1914,3.5173,3.5173,0,0,1-.1661,1.1035,1.5206,1.5206,0,0,0,.5811.5234,2.0448,2.0448,0,0,0,.9463.1905h.0083a.938.938,0,0,1,0,1.8759H98.936a3.5669,3.5669,0,0,1-2.731-1.07,5.9463,5.9463,0,0,1-2.3784.8379A20.1656,20.1656,0,0,1,90.81,46.96H88.4106a.9063.9063,0,0,1-.66-.2744A.8861.8861,0,0,1,87.4726,46.03Zm6.84-3.8681a2.4046,2.4046,0,0,0-1.3071.3906,4.7568,4.7568,0,0,0-1.1543,1.0537A8.9433,8.9433,0,0,0,90.8842,45.1h.05a22.0728,22.0728,0,0,0,3.0342-.17,1.9994,1.9994,0,0,0,1.5562-.8174.5282.5282,0,0,1,.0664-.125,1.4868,1.4868,0,0,0,.1-.5566,1.1962,1.1962,0,0,0-.3736-.93A1.4358,1.4358,0,0,0,94.3124,42.1618Z"/><path class="cls-2" d="M97.998,46.0387a.8889.8889,0,0,1,.2822-.664.9189.9189,0,0,1,.6641-.2744,4.0452,4.0452,0,0,0,1.6728-.2618,1.3347,1.3347,0,0,0,.7217-.8838,6.9267,6.9267,0,0,0,.2036-1.6855.8963.8963,0,0,1,.32-.68.963.963,0,0,1,.6928-.2168.909.909,0,0,1,.6475.32.8755.8755,0,0,1,.2241.6758,5.4119,5.4119,0,0,0,.1367,1.6025,1.3457,1.3457,0,0,0,.6685.8633,3.1181,3.1181,0,0,0,1.436.2657h.0083a.938.938,0,0,1,0,1.8759h-.0083a4.4358,4.4358,0,0,1-1.9961-.3945,2.5875,2.5875,0,0,1-1.2-1.34,2.998,2.998,0,0,1-1.3823,1.3564,5.2637,5.2637,0,0,1-2.1455.3779.9148.9148,0,0,1-.6641-.2783A.8954.8954,0,0,1,97.998,46.0387Zm.8633-7.23a.773.773,0,0,1,.5146-.9463,6.4292,6.4292,0,0,1,1.0752-.2158,9.9,9.9,0,0,1,1.2075-.0743,6.9282,6.9282,0,0,1,1.0669.0743,3.8087,3.8087,0,0,1,.8091.207.7686.7686,0,0,1,.3941.498.722.722,0,0,1-.1036.6153.7892.7892,0,0,1-.3818.3027.8.8,0,0,1-.4648.0205,4.1987,4.1987,0,0,0-.6016-.1084,6.3809,6.3809,0,0,0-.7183-.041q-.5646,0-1.05.0459a3.9383,3.9383,0,0,0-.8007.1455.7332.7332,0,0,1-.5772-.0752A.77.77,0,0,1,98.8613,38.8083Z"/><path class="cls-2" d="M104.7382,46.0387a.9362.9362,0,0,1,.938-.9384,1.9987,1.9987,0,0,0,1.4737-.54,2.7839,2.7839,0,0,0,.726-1.5019c.022-.16.05-.3711.083-.6309a.9514.9514,0,0,1,.3775-.623.894.894,0,0,1,.6933-.1739.9211.9211,0,0,1,.6182.3731.9372.9372,0,0,1,.187.706c-.0054.044-.0112.083-.0166.1162-.0112.083-.022.1661-.0332.2491-.0278.1884-.0454.3379-.0542.4482s-.0122.2188-.0122.3242a1.6673,1.6673,0,0,0,.2944,1.0293.9941.9941,0,0,0,.8428.39,1.1822,1.1822,0,0,0,1.0332-.5606,4.02,4.02,0,0,0,.5357-1.6553q.0168-.1992.05-.416v-.0332a.8424.8424,0,0,1,.4233-.6718c0-.0059.0029-.0079.0083-.0079h.0083a.8824.8824,0,0,1,.5894-.125.854.854,0,0,1,.498.2491.8973.8973,0,0,1,.2573.4814v.0254a.9263.9263,0,0,1,.0083.2148c-.0166.15-.0361.2969-.0581.4405-.0112.1328-.0166.2568-.0166.374a2.1,2.1,0,0,0,.3154,1.2031,1.1275,1.1275,0,0,0,1.0044.4649,1.11,1.11,0,0,0,.9463-.4063,1.8548,1.8548,0,0,0,.3072-1.1377,5.4782,5.4782,0,0,0-.0537-.751q-.0543-.3867-.1539-.8095a.8532.8532,0,0,1,.0083-.4561.8624.8624,0,0,1,.6973-.664.8476.8476,0,0,1,.7139.1035.8979.8979,0,0,1,.4233.5937c.0054.0332.0112.0635.0166.0908q.0417.1656.0747.3077a6.2667,6.2667,0,0,0,.8838,2.27,1.6349,1.6349,0,0,0,1.374.71h.0083a.938.938,0,0,1,0,1.8759H120.75a2.9626,2.9626,0,0,1-1.4277-.3447,4.0007,4.0007,0,0,1-1.1538-.95,2.7342,2.7342,0,0,1-1.021,1.0625,2.9318,2.9318,0,0,1-1.519.3818,3.1007,3.1007,0,0,1-1.4527-.332,2.9575,2.9575,0,0,1-1.0625-.93,3.66,3.66,0,0,1-1.083.9385,2.6772,2.6772,0,0,1-1.3242.34,2.5448,2.5448,0,0,1-1.3447-.3613,2.8641,2.8641,0,0,1-.9712-.9668,4.1456,4.1456,0,0,1-1.22.8467,3.5519,3.5519,0,0,1-1.4942.3154.95.95,0,0,1-.938-.9375Z"/><path class="cls-2" d="M119.0571,50.4372a.77.77,0,0,1,.5146-.9453,6.4278,6.4278,0,0,1,1.0747-.2168,10.1255,10.1255,0,0,1,1.208-.0743,7.0442,7.0442,0,0,1,1.0664.0743,3.7962,3.7962,0,0,1,.81.208.7669.7669,0,0,1,.3945.498.723.723,0,0,1-.104.6143.7835.7835,0,0,1-.3818.3027.8081.8081,0,0,1-.4648.0215,3.9215,3.9215,0,0,0-.6021-.1084,6.3378,6.3378,0,0,0-.7178-.042q-.5646,0-1.05.0459a3.9307,3.9307,0,0,0-.8012.1455.7314.7314,0,0,1-.5767-.0742A.7678.7678,0,0,1,119.0571,50.4372Zm.7636-4.3985a.8958.8958,0,0,1,.2779-.664.9059.9059,0,0,1,.66-.2744,2.8324,2.8324,0,0,0,1.5938-.3409,1.4777,1.4777,0,0,0,.4814-1.2861q0-.3325-.05-.8506t-.1494-1.042a.9131.9131,0,0,1,.1865-.6933.93.93,0,0,1,.6187-.3692.8816.8816,0,0,1,.6973.1787.9626.9626,0,0,1,.3735.6182q.1164.6138.1743,1.1787a9.8292,9.8292,0,0,1,.0581.9883,3.28,3.28,0,0,1-1.0166,2.5976,4.36,4.36,0,0,1-2.9678.8965.95.95,0,0,1-.938-.9375Z"/><path class="cls-2" d="M128.437,42.9753a5.4671,5.4671,0,0,1,.0913-.9834,8.6218,8.6218,0,0,1,.2573-1.0332.9121.9121,0,0,1,.4648-.5489.9442.9442,0,0,1,1.3365,1.1133,5.5559,5.5559,0,0,0-.191.7881,4.2848,4.2848,0,0,0-.0581.6641,2.2445,2.2445,0,0,0,.34,1.2324,2.221,2.221,0,0,0,1.1333.8388,6.1616,6.1616,0,0,0,2.1455.3028,8.2453,8.2453,0,0,0,4.32-.9219,4.0387,4.0387,0,0,0,1.8555-2.7637.9321.9321,0,0,1,.3486-.5644.8757.8757,0,0,1,.6641-.1826.9151.9151,0,0,1,.6225.3281.8919.8919,0,0,1,.2324.668c-.0112.1718-.021.333-.0288.4853s-.0127.3008-.0127.4443a2.7224,2.7224,0,0,0,.44,1.7022,1.9008,1.9008,0,0,0,1.5688.5557h.0083a.938.938,0,0,1,0,1.8759h-.0083a3.1815,3.1815,0,0,1-2.0879-.6347,3.2438,3.2438,0,0,1-1.0415-1.8633,6.0062,6.0062,0,0,1-2.893,2.1123,11.9178,11.9178,0,0,1-3.9883.6348,7.8034,7.8034,0,0,1-2.8262-.4815,4.4054,4.4054,0,0,1-1.9717-1.4277A3.7458,3.7458,0,0,1,128.437,42.9753Zm3.8432-3.503a2.0348,2.0348,0,0,1,1.2036-1.9629,2.6566,2.6566,0,0,1,1.1245-.2451,2.6842,2.6842,0,0,1,1.125.2412,2.0109,2.0109,0,0,1,1.2037,1.9414,2.8922,2.8922,0,0,1-.0542.5645,1.7911,1.7911,0,0,1-.1783.5068.9036.9036,0,0,1-.4106.4278.6.6,0,0,1-.6021-.0381.6364.6364,0,0,1-.311-.3985.8387.8387,0,0,1,.0454-.5224,1.1305,1.1305,0,0,0,.1328-.54.6975.6975,0,0,0-.2866-.6093,1.0922,1.0922,0,0,0-.6641-.1993,1.1313,1.1313,0,0,0-.664.211.7214.7214,0,0,0-.2861.623,1.047,1.047,0,0,0,.17.6055,4.2532,4.2532,0,0,0,.5273.5976.5308.5308,0,0,1,.1455.4776.7381.7381,0,0,1-.2451.4521.5633.5633,0,0,1-.5019.15.9265.9265,0,0,1-.4942-.25,4.9041,4.9041,0,0,1-.6807-.8086A2.1714,2.1714,0,0,1,132.28,39.4723Z"/><path class="cls-2" d="M142.2744,50.4372a.77.77,0,0,1,.5146-.9453,6.4278,6.4278,0,0,1,1.0747-.2168,10.1242,10.1242,0,0,1,1.208-.0743,7.0442,7.0442,0,0,1,1.0664.0743,3.7962,3.7962,0,0,1,.81.208.7672.7672,0,0,1,.3945.498.723.723,0,0,1-.104.6143.7839.7839,0,0,1-.3818.3027.8084.8084,0,0,1-.4649.0215,3.9177,3.9177,0,0,0-.602-.1084,6.3378,6.3378,0,0,0-.7178-.042q-.5646,0-1.05.0459a3.9307,3.9307,0,0,0-.8012.1455.7313.7313,0,0,1-.5767-.0742A.7675.7675,0,0,1,142.2744,50.4372Zm.7553-4.3985a.889.889,0,0,1,.2823-.664.9185.9185,0,0,1,.664-.2744,4.0454,4.0454,0,0,0,1.6729-.2618,1.335,1.335,0,0,0,.7217-.8838,6.9317,6.9317,0,0,0,.2036-1.6855.8962.8962,0,0,1,.32-.68.9632.9632,0,0,1,.6929-.2168.9089.9089,0,0,1,.6474.32.8755.8755,0,0,1,.2241.6758,5.4148,5.4148,0,0,0,.1368,1.6025,1.3453,1.3453,0,0,0,.6684.8633A3.1189,3.1189,0,0,0,150.7,45.1h.0083a.938.938,0,0,1,0,1.8759H150.7a4.4352,4.4352,0,0,1-1.9961-.3945,2.5867,2.5867,0,0,1-1.2-1.34,2.9986,2.9986,0,0,1-1.3824,1.3564,5.2634,5.2634,0,0,1-2.1455.3779.9144.9144,0,0,1-.664-.2783A.8955.8955,0,0,1,143.03,46.0387Z"/><path class="cls-2" d="M153.8623,39.4723a4.0736,4.0736,0,0,1,1.5771.3526q.8387.353,1.7432.8173.59.3076,1.3281.6436t1.66.7266a.9085.9085,0,0,1,.4068.3525.9317.9317,0,0,1,.1577.5107.8824.8824,0,0,1-.44.7969,23.6994,23.6994,0,0,1-4.6651,2.4151,13.7894,13.7894,0,0,1-4.9223.8886.938.938,0,1,1,0-1.8759,11.9447,11.9447,0,0,0,3.5361-.5352,16.1226,16.1226,0,0,0,3.478-1.5732q-.49-.233-.93-.44-.44-.2081-.8384-.4238-.6393-.34-1.1083-.5391a2.1309,2.1309,0,0,0-.8091-.1992.7779.7779,0,0,0-.6265.2939,4.6637,4.6637,0,0,0-.56.9834.8773.8773,0,0,1-.5352.4776.8618.8618,0,0,1-.8262-.0869.9377.9377,0,0,1-.3735-.5059.9079.9079,0,0,1,.0415-.6895,6.6084,6.6084,0,0,1,1.1123-1.73A2.0769,2.0769,0,0,1,153.8623,39.4723Z"/><path class="cls-2" d="M166.77,46.8356a1.5489,1.5489,0,0,1-1.1993-.4736,1.8854,1.8854,0,0,1-.436-1.3282,3.6052,3.6052,0,0,1,1.7515-3.1962.5909.5909,0,0,1,.4941-.0821.51.51,0,0,1,.3111.2569.56.56,0,0,1,.05.3818.5057.5057,0,0,1-.2823.34,3.1463,3.1463,0,0,0-.8178.7559,1.9113,1.9113,0,0,0-.3692.9219,1.18,1.18,0,0,1,.2739-.15.9241.9241,0,0,1,.3321-.0576,1.2359,1.2359,0,0,1,.9175.3564,1.2585,1.2585,0,0,1,.3525.9219,1.3246,1.3246,0,0,1-.3691.9922A1.3841,1.3841,0,0,1,166.77,46.8356Z"/><path class="cls-2" d="M169.8994,43.3161a6.7634,6.7634,0,0,1,.1-1.1338,3.8481,3.8481,0,0,1,.332-1.0576.8834.8834,0,0,1,.5479-.4737.93.93,0,0,1,.73.05q.73.3575.4151,1.27a3.2632,3.2632,0,0,0-.1578.623,4.31,4.31,0,0,0-.0664.7227,1.4279,1.4279,0,0,0,.5977,1.2031,3.8982,3.8982,0,0,0,1.66.6387,13.9607,13.9607,0,0,0,2.457.1914,14.46,14.46,0,0,0,1.9009-.12,7.99,7.99,0,0,0,1.6186-.3741A3.0321,3.0321,0,0,0,181.16,44.2a1.308,1.308,0,0,0,.4107-.9678,3.4467,3.4467,0,0,0-.1246-.8838,4.2265,4.2265,0,0,0-.2241-.6768,1.1142,1.1142,0,0,1-.0747-.7382.8571.8571,0,0,1,.4234-.5479.9328.9328,0,0,1,.7182-.0908.8876.8876,0,0,1,.5684.4394,4.3137,4.3137,0,0,1,.4521,1.1582,5.5785,5.5785,0,0,1,.1621,1.34,3.1949,3.1949,0,0,1-.5063,1.8555,3.6442,3.6442,0,0,1-1.32,1.166,6.8837,6.8837,0,0,1-1.7559.64,12.497,12.497,0,0,1-1.834.27q-.8928.0629-1.54.0625-.7053,0-1.5811-.0577a10.9146,10.9146,0,0,1-1.76-.2656,6.1029,6.1029,0,0,1-1.627-.6308,3.1657,3.1657,0,0,1-1.6479-2.9551Zm4.25-2.6485a.772.772,0,0,1,.5146-.9463,6.4536,6.4536,0,0,1,1.0747-.2158,9.9393,9.9393,0,0,1,1.208-.0742,6.93,6.93,0,0,1,1.0664.0742,3.8056,3.8056,0,0,1,.81.2071.7719.7719,0,0,1,.3945.498.7249.7249,0,0,1-.104.6152.79.79,0,0,1-.3818.3028.8009.8009,0,0,1-.4649.02,4.163,4.163,0,0,0-.602-.1084,6.3355,6.3355,0,0,0-.7178-.041q-.5646,0-1.05.0459a3.9238,3.9238,0,0,0-.8012.1455.7321.7321,0,0,1-.5767-.0752A.7684.7684,0,0,1,174.1494,40.6676Z"/><path class="cls-2" d="M185.2143,43.2321q0-1.5937.0332-3.1367t-.0249-3.3457a.945.945,0,0,1,.2573-.6807.8744.8744,0,0,1,.6475-.2988.9175.9175,0,0,1,.6807.249.879.879,0,0,1,.2988.6562q.0579,1.7754.0249,3.3409t-.0332,3.1914a2.2668,2.2668,0,0,0,.3652,1.4775,1.9077,1.9077,0,0,0,1.4444.4151h.0083a.938.938,0,0,1,0,1.8759h-.0083a3.9815,3.9815,0,0,1-2.7642-.8466A3.7841,3.7841,0,0,1,185.2143,43.2321Z"/><path class="cls-2" d="M187.2148,50.4372a.77.77,0,0,1,.5146-.9453,6.4278,6.4278,0,0,1,1.0747-.2168,10.1259,10.1259,0,0,1,1.2081-.0743,7.0461,7.0461,0,0,1,1.0664.0743,3.7968,3.7968,0,0,1,.81.208.7673.7673,0,0,1,.3946.498.7237.7237,0,0,1-.104.6143.7841.7841,0,0,1-.3819.3027.8081.8081,0,0,1-.4648.0215,3.9215,3.9215,0,0,0-.6021-.1084,6.3374,6.3374,0,0,0-.7177-.042q-.5648,0-1.05.0459a3.93,3.93,0,0,0-.8013.1455.7314.7314,0,0,1-.5767-.0742A.7678.7678,0,0,1,187.2148,50.4372Zm.7637-4.3985a.8957.8957,0,0,1,.2778-.664.9061.9061,0,0,1,.66-.2744,2.832,2.832,0,0,0,1.5937-.3409,1.4777,1.4777,0,0,0,.4814-1.2861q0-.3325-.05-.8506t-.1494-1.042a.9128.9128,0,0,1,.1866-.6933.93.93,0,0,1,.6186-.3692.8815.8815,0,0,1,.6973.1787.9622.9622,0,0,1,.3735.6182q.1164.6138.1743,1.1787a9.8292,9.8292,0,0,1,.0581.9883,3.28,3.28,0,0,1-1.0166,2.5976,4.3594,4.3594,0,0,1-2.9677.8965.95.95,0,0,1-.938-.9375Z"/><path class="cls-2" d="M194.1459,45.7809a.8762.8762,0,0,1,.44-.5517.9924.9924,0,0,1,.7222-.087q.39.1.7431.1534a4.95,4.95,0,0,0,.751.0537,2.8559,2.8559,0,0,0,1.6518-.3614,1.2133,1.2133,0,0,0,.49-1.041,1.3776,1.3776,0,0,0-.05-.3652c-.0386-.1055-.08-.2217-.1245-.35a10.6917,10.6917,0,0,0-.5562-1.34q-.3237-.6517-.7968-1.4736a.929.929,0,0,1-.1036-.7217.9092.9092,0,0,1,.4273-.582.9221.9221,0,0,1,.7138-.1074.8874.8874,0,0,1,.5811.4316q.4731.813.8423,1.5274a11.0625,11.0625,0,0,1,.6767,1.6523,10.8323,10.8323,0,0,0,.5684,1.3486,2.2822,2.2822,0,0,0,.6934.8379,1.8171,1.8171,0,0,0,1.0459.295h.0083a.938.938,0,0,1,0,1.8759h-.0083a3.5839,3.5839,0,0,1-1.544-.3066,3.8561,3.8561,0,0,1-1.1123-.7813,3.1621,3.1621,0,0,1-1.5356,1.0342,6.0941,6.0941,0,0,1-1.8677.3028,7.1877,7.1877,0,0,1-1-.0625,7.72,7.72,0,0,1-1.0088-.22.838.838,0,0,1-.56-.4394A.96.96,0,0,1,194.1459,45.7809Z"/><path class="cls-2" d="M206.0244,39.4723a4.0736,4.0736,0,0,1,1.5771.3526q.8387.353,1.7432.8173.5895.3076,1.3281.6436t1.66.7266a.9088.9088,0,0,1,.4067.3525.9317.9317,0,0,1,.1577.5107.8824.8824,0,0,1-.44.7969q-.3816.249-.7471.4815a1.2286,1.2286,0,0,0,.6851.7138,3.5346,3.5346,0,0,0,1.4316.2325h.0083a.938.938,0,0,1,0,1.8759h-.0083a5.41,5.41,0,0,1-2.2617-.4609,2.9947,2.9947,0,0,1-1.4986-1.4316,18.284,18.284,0,0,1-3.5073,1.3945,13.628,13.628,0,0,1-3.6894.498.938.938,0,1,1,0-1.8759,11.9447,11.9447,0,0,0,3.5361-.5352,16.1226,16.1226,0,0,0,3.478-1.5732q-.49-.233-.93-.44-.44-.2081-.8383-.4238-.6395-.34-1.1084-.5391a2.1309,2.1309,0,0,0-.8091-.1992.7779.7779,0,0,0-.6265.2939,4.6637,4.6637,0,0,0-.5605.9834.8773.8773,0,0,1-.5352.4776.8618.8618,0,0,1-.8262-.0869.9382.9382,0,0,1-.3735-.5059.9079.9079,0,0,1,.0415-.6895,6.6084,6.6084,0,0,1,1.1123-1.73A2.0769,2.0769,0,0,1,206.0244,39.4723Z"/><path class="cls-2" d="M212.8891,46.0387a.8889.8889,0,0,1,.2822-.664.9189.9189,0,0,1,.6641-.2744,4.0449,4.0449,0,0,0,1.6728-.2618,1.3345,1.3345,0,0,0,.7217-.8838,6.9267,6.9267,0,0,0,.2036-1.6855.8963.8963,0,0,1,.32-.68.9631.9631,0,0,1,.6928-.2168.909.909,0,0,1,.6475.32.8755.8755,0,0,1,.2241.6758,5.4153,5.4153,0,0,0,.1367,1.6025,1.3457,1.3457,0,0,0,.6685.8633,3.1181,3.1181,0,0,0,1.436.2657h.0083a.938.938,0,0,1,0,1.8759h-.0083a4.4358,4.4358,0,0,1-1.9961-.3945,2.5875,2.5875,0,0,1-1.2-1.34,2.998,2.998,0,0,1-1.3823,1.3564,5.2637,5.2637,0,0,1-2.1455.3779.9148.9148,0,0,1-.6641-.2783A.8954.8954,0,0,1,212.8891,46.0387Zm.8633-7.23a.773.773,0,0,1,.5146-.9463,6.4292,6.4292,0,0,1,1.0752-.2158,9.9008,9.9008,0,0,1,1.2076-.0743,6.9278,6.9278,0,0,1,1.0668.0743,3.8087,3.8087,0,0,1,.8091.207.7683.7683,0,0,1,.3941.498.7223.7223,0,0,1-.1035.6153.79.79,0,0,1-.3819.3027.8.8,0,0,1-.4648.0205,4.1987,4.1987,0,0,0-.6016-.1084,6.38,6.38,0,0,0-.7182-.041q-.5648,0-1.05.0459a3.9381,3.9381,0,0,0-.8008.1455.7332.7332,0,0,1-.5772-.0752A.77.77,0,0,1,213.7524,38.8083Z"/><path class="cls-2" d="M219.6293,46.0387a.8958.8958,0,0,1,.2779-.664.9059.9059,0,0,1,.66-.2744,1.2088,1.2088,0,0,0,1.1992-.7344,5.4736,5.4736,0,0,0,.3365-2.1875q0-.7808-.0415-1.5606t-.1367-1.7636q-.096-.9845-.2618-2.37a.95.95,0,0,1,.1953-.6972.89.89,0,0,1,.6182-.3653.9256.9256,0,0,1,.6973.1866.8975.8975,0,0,1,.3652.6269q.1494,1.17.2407,2.1006t.1328,1.7676q.0419.8379.0415,1.7431a7.6633,7.6633,0,0,1-.76,3.9014,2.8383,2.8383,0,0,1-2.627,1.2285.95.95,0,0,1-.938-.9375Z"/><path class="cls-2" d="M225.73,43.2321q0-1.5937.0332-3.1367t-.0249-3.3457a.945.945,0,0,1,.2573-.6807.8744.8744,0,0,1,.6475-.2988.9173.9173,0,0,1,.6807.249.879.879,0,0,1,.2988.6562q.0579,1.7754.0249,3.3409t-.0332,3.1914a2.2668,2.2668,0,0,0,.3652,1.4775,1.9077,1.9077,0,0,0,1.4444.4151h.0083a.938.938,0,0,1,0,1.8759h-.0083A3.9815,3.9815,0,0,1,226.66,46.13,3.7841,3.7841,0,0,1,225.73,43.2321Z"/><path class="cls-2" d="M228.4946,46.0387a.896.896,0,0,1,.2778-.664.9063.9063,0,0,1,.66-.2744,2.832,2.832,0,0,0,1.5937-.3409,1.4778,1.4778,0,0,0,.4815-1.2861q0-.3325-.05-.8506t-.1495-1.042a.9128.9128,0,0,1,.1866-.6933.93.93,0,0,1,.6186-.3692.8815.8815,0,0,1,.6973.1787.9622.9622,0,0,1,.3735.6182q.1165.6138.1743,1.1787a9.8292,9.8292,0,0,1,.0581.9883A3.28,3.28,0,0,1,232.4,46.08a4.3592,4.3592,0,0,1-2.9677.8965.95.95,0,0,1-.938-.9375Zm.5478,3.9258a.9784.9784,0,0,1,.2779-.6767.93.93,0,0,1,.7182-.3028.9936.9936,0,0,1,.5313.1328,1.0669,1.0669,0,0,1,.34.3233,1.028,1.028,0,0,1,.166.5312,1.3374,1.3374,0,0,1-.2119.669.8669.8669,0,0,1-.8174.36.9518.9518,0,0,1-.6269-.1777,1.0324,1.0324,0,0,1-.3028-.4111A1.3583,1.3583,0,0,1,229.0424,49.9645Z"/><path class="cls-2" d="M237.4428,43.3239a2.922,2.922,0,0,1,.7554-1.9883,6.2478,6.2478,0,0,1,1.9756-1.457,10.4024,10.4024,0,0,0,.9258-.5137,1.4847,1.4847,0,0,0,.5683-.5488v-.041a.9542.9542,0,0,1,.855-1.0215.8808.8808,0,0,1,.689.2119.9151.9151,0,0,1,.332.6435l.0166.1582a.621.621,0,0,1,.0083.1l.39,4.3408a3.8264,3.8264,0,0,0,.2657,1.2324.97.97,0,0,0,.5478.5312,2.7555,2.7555,0,0,0,.9214.129h.0083a.938.938,0,0,1,0,1.8759h-.0083a4.334,4.334,0,0,1-1.8594-.3447,2.5931,2.5931,0,0,1-1.1289-1.0166.9589.9589,0,0,1-.5561.291c-.1548.0215-.3208.0371-.4981.0449s-.3291.0127-.4565.0127a4.6067,4.6067,0,0,1-2.7974-.7177A2.2838,2.2838,0,0,1,237.4428,43.3239Zm1.0376-8.16a.7714.7714,0,0,1,.5147-.9453,6.43,6.43,0,0,1,1.0752-.2168,10.1225,10.1225,0,0,1,1.2075-.0742,7.0716,7.0716,0,0,1,1.0669.0742,3.8125,3.8125,0,0,1,.8091.208.7642.7642,0,0,1,.394.4981.72.72,0,0,1-.1035.6142.7845.7845,0,0,1-.3819.3028.809.809,0,0,1-.4648.0215,3.92,3.92,0,0,0-.6016-.1084,6.3583,6.3583,0,0,0-.7182-.042q-.5648,0-1.05.0459a3.9325,3.9325,0,0,0-.8008.1455.733.733,0,0,1-.5771-.0743A.7684.7684,0,0,1,238.48,35.1637Zm.8633,8.0528q0,.87,1.8511.8711c.0884,0,.1948-.0059.32-.0166s.2476-.0245.3691-.042a.976.976,0,0,1,.2823.0088c-.0332-.2051-.0611-.4258-.083-.6641l-.2076-2.2744q-.39.24-.8964.498a6.4664,6.4664,0,0,0-1.1622.751A1.1275,1.1275,0,0,0,239.3437,43.2165Z"/><path class="cls-2" d="M244.7558,46.0387a.8889.8889,0,0,1,.2822-.664.9189.9189,0,0,1,.6641-.2744,4.0449,4.0449,0,0,0,1.6728-.2618,1.3345,1.3345,0,0,0,.7217-.8838,6.9267,6.9267,0,0,0,.2036-1.6855.8963.8963,0,0,1,.32-.68.9631.9631,0,0,1,.6928-.2168.909.909,0,0,1,.6475.32.8755.8755,0,0,1,.2241.6758,5.4153,5.4153,0,0,0,.1367,1.6025,1.3457,1.3457,0,0,0,.6685.8633,3.1181,3.1181,0,0,0,1.436.2657h.0083a.938.938,0,0,1,0,1.8759h-.0083a4.4358,4.4358,0,0,1-1.9961-.3945,2.5875,2.5875,0,0,1-1.2-1.34,2.998,2.998,0,0,1-1.3823,1.3564,5.2637,5.2637,0,0,1-2.1455.3779.9148.9148,0,0,1-.6641-.2783A.8954.8954,0,0,1,244.7558,46.0387Zm.9214-5.8359a.4167.4167,0,0,1,.021-.3486.4642.4642,0,0,1,.2695-.2491l1.0293-.3574a1.4194,1.4194,0,0,1-.581-.5264,1.5388,1.5388,0,0,1-.2159-.8349,1.7887,1.7887,0,0,1,.5147-1.3154,1.91,1.91,0,0,1,1.4194-.5186,3.5012,3.5012,0,0,1,.5645.041.5043.5043,0,0,1,.311.1787.4214.4214,0,0,1,.104.3194.48.48,0,0,1-.17.32.3934.3934,0,0,1-.3442.1035,1.7506,1.7506,0,0,0-.3487-.0332,1.1771,1.1771,0,0,0-.8422.2734.9146.9146,0,0,0-.2867.69.6993.6993,0,0,0,.2491.581,1.0607,1.0607,0,0,0,.6806.1993,2.5281,2.5281,0,0,0,.5147-.0577,7.0811,7.0811,0,0,0,.7719-.2324.4223.4223,0,0,1,.3692.0371.4376.4376,0,0,1,.22.2949.48.48,0,0,1-.0454.3438.3839.3839,0,0,1-.2451.2031l-3.3618,1.18a.4343.4343,0,0,1-.357-.0215A.469.469,0,0,1,245.6772,40.2028Z"/><path class="cls-2" d="M250.7324,50.4372a.77.77,0,0,1,.5146-.9453,6.4278,6.4278,0,0,1,1.0747-.2168,10.1255,10.1255,0,0,1,1.208-.0743,7.0442,7.0442,0,0,1,1.0664.0743,3.7962,3.7962,0,0,1,.81.208.7672.7672,0,0,1,.3945.498.723.723,0,0,1-.104.6143.7835.7835,0,0,1-.3818.3027.8081.8081,0,0,1-.4648.0215,3.9215,3.9215,0,0,0-.6021-.1084,6.3378,6.3378,0,0,0-.7178-.042q-.5646,0-1.05.0459a3.9307,3.9307,0,0,0-.8012.1455.7314.7314,0,0,1-.5767-.0742A.7678.7678,0,0,1,250.7324,50.4372Zm.7553-4.3985a.889.889,0,0,1,.2823-.664.9187.9187,0,0,1,.664-.2744,4.0454,4.0454,0,0,0,1.6729-.2618,1.335,1.335,0,0,0,.7217-.8838,6.9317,6.9317,0,0,0,.2036-1.6855.8962.8962,0,0,1,.32-.68.9632.9632,0,0,1,.6929-.2168.9089.9089,0,0,1,.6474.32.876.876,0,0,1,.2242.6758,5.4119,5.4119,0,0,0,.1367,1.6025,1.3453,1.3453,0,0,0,.6684.8633,3.1189,3.1189,0,0,0,1.4361.2657h.0083a.938.938,0,0,1,0,1.8759h-.0083a4.4355,4.4355,0,0,1-1.9961-.3945,2.5867,2.5867,0,0,1-1.2-1.34,2.9986,2.9986,0,0,1-1.3824,1.3564,5.2634,5.2634,0,0,1-2.1455.3779.9146.9146,0,0,1-.664-.2783A.8955.8955,0,0,1,251.4877,46.0387Z"/><path class="cls-2" d="M258.228,46.0387a.8957.8957,0,0,1,.2778-.664.9063.9063,0,0,1,.66-.2744,2.2328,2.2328,0,0,0,1.4692-.3565,1.8826,1.8826,0,0,0,.39-1.3945q0-1.2715-.0459-2.3955t-.124-2.22q-.079-1.0956-.1953-2.2832a.9307.9307,0,0,1,.2158-.6933.8884.8884,0,0,1,.6309-.336.9319.9319,0,0,1,1.0293.8467q.1662,1.768.2656,3.4072t.1,3.5489a.9053.9053,0,0,1,.0083.125,1.7384,1.7384,0,0,0,.4439,1.373,2.1344,2.1344,0,0,0,1.3989.378h.0083a.938.938,0,0,1,0,1.8759h-.0083a4.4415,4.4415,0,0,1-1.5274-.2617,3.2662,3.2662,0,0,1-1.2368-.7842,3.7281,3.7281,0,0,1-2.8222,1.0459.95.95,0,0,1-.938-.9375Z"/><path class="cls-2" d="M263.8227,46.0387a.896.896,0,0,1,.2778-.664.9063.9063,0,0,1,.66-.2744,1.5273,1.5273,0,0,0,1.2744-.6768,11.2818,11.2818,0,0,0,1.0083-1.6973q.2659-.5389.5689-1.0332a7.08,7.08,0,0,1,.61-.8593l.0249-.0254a.8457.8457,0,0,1,.6348-.3106.9393.9393,0,0,1,.685.2285.8423.8423,0,0,1,.1744.1992.7082.7082,0,0,1,.1-.125.8979.8979,0,0,1,.66-.291.9267.9267,0,0,1,.6763.2578,5.2136,5.2136,0,0,1,1.8843,3.7686,2.456,2.456,0,0,1-.8506,1.9551,3.5149,3.5149,0,0,1-2.37.7344,3.8268,3.8268,0,0,1-1.6851-.336,2.38,2.38,0,0,1-1.0376-.9258,3.9741,3.9741,0,0,1-1.0293.7266,2.9724,2.9724,0,0,1-1.3281.2861.95.95,0,0,1-.938-.9375Zm4.665-1.7353a.9493.9493,0,0,0,.3365.7549,1.4325,1.4325,0,0,0,.9668.291,1.549,1.549,0,0,0,1.0459-.2949.9781.9781,0,0,0,.332-.7676,3.3507,3.3507,0,0,0-1.2949-2.1582.8086.8086,0,0,1-.1411-.166.7989.7989,0,0,1-.0581.083c-.1495.1718-.3086.3759-.4776.6142a7.197,7.197,0,0,0-.4355.69A2.16,2.16,0,0,0,268.4877,44.3034Z"/><path class="cls-2" d="M277.0375,44.403a4.9354,4.9354,0,0,1,.51-2.0879,7.8448,7.8448,0,0,1,1.374-2.02c-.0332-.0283-.0664-.0557-.1-.084a.8973.8973,0,0,1-.3193-.6426.911.911,0,0,1,.22-.6855.9465.9465,0,0,1,.6514-.3233.8816.8816,0,0,1,.685.2237,14.3328,14.3328,0,0,1,1.7388,1.76,8.8453,8.8453,0,0,1,1.2119,1.8809,4.3613,4.3613,0,0,1,.4443,1.8555,2.8645,2.8645,0,0,1-.4355,1.6181,2.7588,2.7588,0,0,1-1.1665.9922,3.874,3.874,0,0,1-1.6353.336,3.8277,3.8277,0,0,1-1.602-.3282,2.7213,2.7213,0,0,1-1.15-.9541A2.6721,2.6721,0,0,1,277.0375,44.403Zm.4815-8.1016a.7708.7708,0,0,1,.5146-.9463,6.4536,6.4536,0,0,1,1.0747-.2158,9.9439,9.9439,0,0,1,1.2081-.0752,6.9245,6.9245,0,0,1,1.0664.0752,3.75,3.75,0,0,1,.81.208.7677.7677,0,0,1,.3946.4981.7215.7215,0,0,1-.104.6133.7818.7818,0,0,1-.3819.3037.8006.8006,0,0,1-.4648.02,4.06,4.06,0,0,0-.6021-.1075,6.1349,6.1349,0,0,0-.7177-.0419q-.5647,0-1.05.0459a3.9309,3.9309,0,0,0-.8012.1445.7277.7277,0,0,1-.5767-.0742A.7688.7688,0,0,1,277.519,36.3014Zm1.4194,7.9854a1.0086,1.0086,0,0,0,.3155.76,1.3432,1.3432,0,0,0,.9628.3028,1.4642,1.4642,0,0,0,1.0254-.3067,1.0649,1.0649,0,0,0,.3277-.8144,2.6388,2.6388,0,0,0-.34-1.1445,7.9389,7.9389,0,0,0-.9795-1.4454,5.8014,5.8014,0,0,0-.9711,1.4278A3.0347,3.0347,0,0,0,278.9384,44.2868Z"/><path class="cls-2" d="M286.0522,42.61a.7728.7728,0,0,1,.1-.706.9807.9807,0,0,1,.6064-.4317.8355.8355,0,0,1,.2569-.0244.8916.8916,0,0,1,.5439.208.9674.9674,0,0,1,.3116.4473.2962.2962,0,0,1,.0244.0752,6.95,6.95,0,0,0,.8965,2.2119,1.7607,1.7607,0,0,0,1.5361.71h.0078a.938.938,0,0,1,0,1.8759h-.0078a3.2952,3.2952,0,0,1-1.1289-.1865,3.505,3.505,0,0,1-.9385-.5107,5.9058,5.9058,0,0,1-1.3691,3.25,6.2926,6.2926,0,0,1-2.7813,1.83.8721.8721,0,0,1-.7637-.0664.9466.9466,0,0,1-.44-.539.8736.8736,0,0,1,.0747-.76,1.0174,1.0174,0,0,1,.5147-.4277,4.35,4.35,0,0,0,2.163-1.5147,4.575,4.575,0,0,0,.7842-2.8017,10.1115,10.1115,0,0,0-.3408-2.4737Z"/><path class="cls-2" d="M289.3891,46.0387a.8908.8908,0,0,1,.2822-.664.9206.9206,0,0,1,.6641-.2744h.83a.9116.9116,0,0,1,.6679.2744.9253.9253,0,0,1,0,1.3232.9074.9074,0,0,1-.6679.2783h-.83a.9165.9165,0,0,1-.6641-.2783A.8973.8973,0,0,1,289.3891,46.0387Z"/><path class="cls-2" d="M289.4643,50.4372a.769.769,0,0,1,.5147-.9453,6.4067,6.4067,0,0,1,1.0742-.2168,10.123,10.123,0,0,1,1.208-.0743,7.0366,7.0366,0,0,1,1.0664.0743,3.79,3.79,0,0,1,.81.208.766.766,0,0,1,.3945.498.7252.7252,0,0,1-.1035.6143.7863.7863,0,0,1-.3819.3027.8083.8083,0,0,1-.4648.0215,3.9369,3.9369,0,0,0-.6025-.1084,6.3323,6.3323,0,0,0-.7178-.042c-.376,0-.7266.0156-1.05.0459a3.9209,3.9209,0,0,0-.8008.1455.7329.7329,0,0,1-.5772-.0742A.7655.7655,0,0,1,289.4643,50.4372Zm.7549-4.3985a.8908.8908,0,0,1,.2822-.664.9206.9206,0,0,1,.6641-.2744,4.042,4.042,0,0,0,1.6728-.2618,1.3336,1.3336,0,0,0,.7217-.8838,6.9281,6.9281,0,0,0,.2041-1.6855.8978.8978,0,0,1,.3193-.68.9646.9646,0,0,1,.6934-.2168.9108.9108,0,0,1,.6475.32.8752.8752,0,0,1,.2236.6758,5.4288,5.4288,0,0,0,.1367,1.6025,1.3477,1.3477,0,0,0,.669.8633,3.1172,3.1172,0,0,0,1.4355.2657h.0088a.938.938,0,0,1,0,1.8759h-.0088a4.4373,4.4373,0,0,1-1.9961-.3945,2.5846,2.5846,0,0,1-1.1992-1.34,2.9994,2.9994,0,0,1-1.3828,1.3564,5.2621,5.2621,0,0,1-2.1455.3779.9165.9165,0,0,1-.6641-.2783A.8973.8973,0,0,1,290.2192,46.0387Z"/><path class="cls-2" d="M296.9516,46.0387a.8875.8875,0,0,1,.2822-.664.9173.9173,0,0,1,.6641-.2744,4.0477,4.0477,0,0,0,1.6728-.2618,1.3358,1.3358,0,0,0,.7217-.8838,6.93,6.93,0,0,0,.2032-1.6855.895.895,0,0,1,.32-.68.9619.9619,0,0,1,.6923-.2168.9071.9071,0,0,1,.6475.32.8759.8759,0,0,1,.2246.6758,5.4018,5.4018,0,0,0,.1367,1.6025,1.3435,1.3435,0,0,0,.668.8633,3.1193,3.1193,0,0,0,1.4365.2657h.0078a.938.938,0,0,1,0,1.8759h-.0078a4.4343,4.4343,0,0,1-1.9961-.3945,2.59,2.59,0,0,1-1.2-1.34,2.9971,2.9971,0,0,1-1.3818,1.3564,5.265,5.265,0,0,1-2.1455.3779.9132.9132,0,0,1-.6641-.2783A.8939.8939,0,0,1,296.9516,46.0387Zm.6309-8.4511a2.0348,2.0348,0,0,1,1.2031-1.9629,2.66,2.66,0,0,1,1.125-.2442,2.7007,2.7007,0,0,1,1.125.24,2.0117,2.0117,0,0,1,1.2031,1.9423,2.9065,2.9065,0,0,1-.0537.5645,1.8142,1.8142,0,0,1-.1787.5068.9055.9055,0,0,1-.41.4268.6.6,0,0,1-.6025-.0371.6354.6354,0,0,1-.31-.3985.8414.8414,0,0,1,.0449-.5224,1.1288,1.1288,0,0,0,.1328-.54.6979.6979,0,0,0-.2861-.61,1.0925,1.0925,0,0,0-.6641-.1992,1.1233,1.1233,0,0,0-.6641.2119.72.72,0,0,0-.2861.6221,1.05,1.05,0,0,0,.17.6064,4.2024,4.2024,0,0,0,.5274.5977.5325.5325,0,0,1,.1455.4775.7438.7438,0,0,1-.2451.4521.5632.5632,0,0,1-.502.15.9228.9228,0,0,1-.4941-.2491,4.8814,4.8814,0,0,1-.6807-.8095A2.1714,2.1714,0,0,1,297.5825,37.5876Z"/><path class="cls-2" d="M303.6918,46.0387a.8972.8972,0,0,1,.2774-.664.9067.9067,0,0,1,.66-.2744,1.5274,1.5274,0,0,0,1.2745-.6768,11.2807,11.2807,0,0,0,1.0087-1.6973q.2652-.5389.5684-1.0332a7.0918,7.0918,0,0,1,.61-.8593l.0244-.0254a.8462.8462,0,0,1,.6347-.3106.9409.9409,0,0,1,.6856.2285.84.84,0,0,1,.1738.1992.757.757,0,0,1,.1-.125.9.9,0,0,1,.66-.291.9283.9283,0,0,1,.6767.2578,5.2143,5.2143,0,0,1,1.8838,3.7686,2.4545,2.4545,0,0,1-.8506,1.9551,3.5147,3.5147,0,0,1-2.37.7344,3.8225,3.8225,0,0,1-1.6845-.336,2.3791,2.3791,0,0,1-1.0381-.9258,3.9674,3.9674,0,0,1-1.0293.7266,2.9713,2.9713,0,0,1-1.3282.2861.9489.9489,0,0,1-.9375-.9375Zm4.6651-1.7353a.9488.9488,0,0,0,.3359.7549,1.4335,1.4335,0,0,0,.9668.291,1.5471,1.5471,0,0,0,1.0459-.2949.9765.9765,0,0,0,.332-.7676,3.3507,3.3507,0,0,0-1.2949-2.1582.8092.8092,0,0,1-.1406-.166.723.723,0,0,1-.0586.083c-.1494.1718-.3086.3759-.4775.6142a7.4021,7.4021,0,0,0-.4356.69A2.1591,2.1591,0,0,0,308.3569,44.3034Z"/><path class="cls-2" d="M317.2387,43.3239a2.9239,2.9239,0,0,1,.7549-1.9883,6.2535,6.2535,0,0,1,1.9756-1.457,10.3188,10.3188,0,0,0,.9258-.5137,1.481,1.481,0,0,0,.5683-.5488v-.041a.9135.9135,0,0,1,.22-.6846.9037.9037,0,0,1,.6357-.3369.88.88,0,0,1,.6885.2119.9132.9132,0,0,1,.332.6435l.0166.1582a.5693.5693,0,0,1,.0088.1l.39,4.3408A3.84,3.84,0,0,0,324.02,44.44a.9731.9731,0,0,0,.5478.5312,2.7587,2.7587,0,0,0,.9219.129h.0078a.938.938,0,0,1,0,1.8759H325.49a4.3324,4.3324,0,0,1-1.8594-.3447,2.59,2.59,0,0,1-1.1289-1.0166.9617.9617,0,0,1-.5566.291c-.1543.0215-.32.0371-.4981.0449s-.3291.0127-.456.0127a4.6094,4.6094,0,0,1-2.7979-.7177A2.2846,2.2846,0,0,1,317.2387,43.3239Zm1.0371-8.16a.7714.7714,0,0,1,.5147-.9453,6.44,6.44,0,0,1,1.0752-.2168,10.1308,10.1308,0,0,1,1.208-.0742,7.0685,7.0685,0,0,1,1.0664.0742,3.8178,3.8178,0,0,1,.81.208.7646.7646,0,0,1,.3935.4981.7181.7181,0,0,1-.1035.6142.7825.7825,0,0,1-.3818.3028.8092.8092,0,0,1-.4649.0215,3.9093,3.9093,0,0,0-.6015-.1084,6.36,6.36,0,0,0-.7178-.042c-.377,0-.7266.0156-1.0508.0459a3.94,3.94,0,0,0-.8008.1455.733.733,0,0,1-.5771-.0743A.772.772,0,0,1,318.2758,35.1637Zm.8633,8.0528q0,.87,1.8516.8711c.0879,0,.1943-.0059.3193-.0166s.2481-.0245.3691-.042a.975.975,0,0,1,.2823.0088c-.0332-.2051-.0606-.4258-.083-.6641l-.2071-2.2744q-.391.24-.8964.498a6.4486,6.4486,0,0,0-1.1622.751A1.1281,1.1281,0,0,0,319.1391,43.2165Z"/><path class="cls-2" d="M324.56,46.0387a.8972.8972,0,0,1,.2774-.664.9067.9067,0,0,1,.66-.2744,2.2342,2.2342,0,0,0,1.47-.3565,1.8849,1.8849,0,0,0,.39-1.3945q0-1.2715-.0459-2.3955t-.124-2.22q-.0792-1.0956-.1954-2.2832a.9333.9333,0,0,1,.2159-.6933.8891.8891,0,0,1,.6308-.336.9317.9317,0,0,1,1.0293.8467q.1671,1.768.2656,3.4072t.1,3.5489a.845.845,0,0,1,.0087.125,1.7384,1.7384,0,0,0,.4434,1.373,2.136,2.136,0,0,0,1.3994.378h.0078a.938.938,0,0,1,0,1.8759h-.0078a4.4384,4.4384,0,0,1-1.5273-.2617A3.27,3.27,0,0,1,328.32,45.93a3.7278,3.7278,0,0,1-2.8223,1.0459.9489.9489,0,0,1-.9375-.9375Z"/><path class="cls-2" d="M334.2465,39.4723a4.07,4.07,0,0,1,1.5772.3526q.8393.353,1.7431.8173.59.3076,1.3282.6436.74.3369,1.66.7266a.9128.9128,0,0,1,.4073.3525.936.936,0,0,1,.1572.5107.8829.8829,0,0,1-.44.7969,23.71,23.71,0,0,1-4.665,2.4151,13.7922,13.7922,0,0,1-4.9229.8886.9106.9106,0,0,1-.6679-.2783.9207.9207,0,0,1,0-1.3193.9106.9106,0,0,1,.6679-.2783,11.94,11.94,0,0,0,3.5362-.5352,16.1152,16.1152,0,0,0,3.4785-1.5732q-.4908-.233-.93-.44-.441-.2081-.8389-.4238-.6387-.34-1.1084-.5391a2.13,2.13,0,0,0-.8086-.1992.7781.7781,0,0,0-.6269.2939,4.7126,4.7126,0,0,0-.5606.9834.8755.8755,0,0,1-.5351.4776.8621.8621,0,0,1-.8262-.0869.937.937,0,0,1-.373-.5059.9073.9073,0,0,1,.041-.6895,6.6212,6.6212,0,0,1,1.1123-1.73A2.0782,2.0782,0,0,1,334.2465,39.4723Z"/><path class="cls-2" d="M344.39,41.5143a.854.854,0,0,1,.8056.0664.9631.9631,0,0,1,.4317.5811,12.1425,12.1425,0,0,1,.4316,3.0879,7.0446,7.0446,0,0,1-.5312,2.83,5.6381,5.6381,0,0,1-1.4815,2.043A6.4372,6.4372,0,0,1,341.85,51.359a.872.872,0,0,1-.7636-.0664.9475.9475,0,0,1-.44-.539.8739.8739,0,0,1,.0742-.76,1.0214,1.0214,0,0,1,.5147-.4277,4.3506,4.3506,0,0,0,2.1631-1.5147,4.5756,4.5756,0,0,0,.7842-2.8017,10.4284,10.4284,0,0,0-.3741-2.6231.8308.8308,0,0,1,.0957-.71A1.0535,1.0535,0,0,1,344.39,41.5143Z"/><path class="cls-2" d="M349.894,47.0426a9.8212,9.8212,0,0,1,.2363-2.1709,17.8092,17.8092,0,0,1,.6846-2.2617.9454.9454,0,0,1,1.7764.6475,15.905,15.905,0,0,0-.5889,2,8.1359,8.1359,0,0,0-.208,1.7353,2.51,2.51,0,0,0,.8008,2.0342,4.06,4.06,0,0,0,2.6113.6719,5.4487,5.4487,0,0,0,2.3408-.4063q.829-.4071.83-.9472,0-.4644-.6729-.8379a5.7023,5.7023,0,0,0-2.0332-.5313.901.901,0,0,1-.5644-.291.9659.9659,0,0,1-.2656-.58.8728.8728,0,0,1,.2529-.706.924.924,0,0,1,.6933-.2988h5.0547a.938.938,0,0,1,0,1.8759h-1.6845a2.0457,2.0457,0,0,1,1.0127,1.66,2.1214,2.1214,0,0,1-.6358,1.4863,4.3881,4.3881,0,0,1-1.7676,1.07,7.9389,7.9389,0,0,1-2.6357.3985,6.4452,6.4452,0,0,1-2.8467-.5723,4.1227,4.1227,0,0,1-1.7812-1.5986A4.5638,4.5638,0,0,1,349.894,47.0426Zm2.6807,7.7364a.773.773,0,0,1,.5146-.9463,6.44,6.44,0,0,1,1.0752-.2158,9.9273,9.9273,0,0,1,1.208-.0743,6.9386,6.9386,0,0,1,1.0664.0743,3.8139,3.8139,0,0,1,.81.207.7689.7689,0,0,1,.3935.498.72.72,0,0,1-.1035.6153.7874.7874,0,0,1-.3818.3027.8.8,0,0,1-.4649.02,4.1814,4.1814,0,0,0-.6015-.1084,6.3787,6.3787,0,0,0-.7178-.041q-.5653,0-1.0508.0459a3.9474,3.9474,0,0,0-.8008.1455.7329.7329,0,0,1-.5771-.0752A.7731.7731,0,0,1,352.5747,54.779Z"/><path class="cls-2" d="M359.9047,46.0387a.8972.8972,0,0,1,.2774-.664.9067.9067,0,0,1,.66-.2744q1.5777,0,2.5821-.0752a4.3557,4.3557,0,0,0,1.5351-.3321,2.1087,2.1087,0,0,0,.7432-.4394,1.3875,1.3875,0,0,0,.3613-.7051,7.4178,7.4178,0,0,1-1.5361.1738,3.5693,3.5693,0,0,1-2.2988-.6513,2.5191,2.5191,0,0,1-.8057-2.0791,5.058,5.058,0,0,1,.3818-2.0049,3.4833,3.4833,0,0,1,1.0547-1.4151,2.4406,2.4406,0,0,1,1.544-.5234,2.667,2.667,0,0,1,1.9043.7432,4.6872,4.6872,0,0,1,1.1953,2.042,9.8211,9.8211,0,0,1,.4111,2.9667,4.2344,4.2344,0,0,1-.3945,1.9717,2.95,2.95,0,0,1-1.29,1.2246,5.455,5.455,0,0,1-2.1709.76,20.5179,20.5179,0,0,1-3.2168.22.9489.9489,0,0,1-.9375-.9375Zm3.2207-5.2715a1.12,1.12,0,0,0,.3692.9424,1.6694,1.6694,0,0,0,1.042.2862,3.9715,3.9715,0,0,0,.705-.0664c.2442-.044.4678-.0938.6729-.15a.57.57,0,0,1,.166-.0244,5.1192,5.1192,0,0,0-.5361-2.0879,1.2461,1.2461,0,0,0-1.1-.7265,1.11,1.11,0,0,0-.9541.5351A2.2312,2.2312,0,0,0,363.1254,40.7672Zm.2735-7.3632a.9761.9761,0,0,1,.2783-.6758.9294.9294,0,0,1,.7178-.3028.99.99,0,0,1,.5312.1329,1.0537,1.0537,0,0,1,.3408.3232,1.0267,1.0267,0,0,1,.1661.5313,1.34,1.34,0,0,1-.212.6679.8668.8668,0,0,1-.8173.3614.9485.9485,0,0,1-.627-.1788,1.0205,1.0205,0,0,1-.3027-.41A1.3684,1.3684,0,0,1,363.3989,33.404Z"/><path class="cls-2" d="M372.0649,43.2321q0-1.5937.0332-3.1367t-.0244-3.3457a.9445.9445,0,0,1,.2568-.6807.8759.8759,0,0,1,.6475-.2988.9156.9156,0,0,1,.6806.249.8752.8752,0,0,1,.2989.6562q.0585,1.7754.0254,3.3409t-.0332,3.1914a2.2632,2.2632,0,0,0,.3652,1.4775,1.906,1.906,0,0,0,1.4443.4151h.0078a.938.938,0,0,1,0,1.8759h-.0078a3.9828,3.9828,0,0,1-2.7646-.8466A3.7857,3.7857,0,0,1,372.0649,43.2321Z"/><path class="cls-2" d="M374.8207,46.0387a.8909.8909,0,0,1,.2823-.664.92.92,0,0,1,.664-.2744,4.0422,4.0422,0,0,0,1.6729-.2618,1.3336,1.3336,0,0,0,.7217-.8838,6.9281,6.9281,0,0,0,.2041-1.6855.8975.8975,0,0,1,.3193-.68.9644.9644,0,0,1,.6934-.2168.9106.9106,0,0,1,.6474.32.8756.8756,0,0,1,.2237.6758,5.4288,5.4288,0,0,0,.1367,1.6025,1.3475,1.3475,0,0,0,.6689.8633,3.118,3.118,0,0,0,1.4356.2657H382.5a.938.938,0,0,1,0,1.8759h-.0088a4.437,4.437,0,0,1-1.9961-.3945,2.5838,2.5838,0,0,1-1.1992-1.34,3,3,0,0,1-1.3829,1.3564,5.2617,5.2617,0,0,1-2.1455.3779.9162.9162,0,0,1-.664-.2783A.8974.8974,0,0,1,374.8207,46.0387Zm1.918-7.3633a.98.98,0,0,1,.2774-.6767.93.93,0,0,1,.7187-.3027.9951.9951,0,0,1,.5313.1328,1.07,1.07,0,0,1,.34.3232,1.0237,1.0237,0,0,1,.166.5313,1.3374,1.3374,0,0,1-.2119.6689.8664.8664,0,0,1-.8174.36.9521.9521,0,0,1-.6269-.1778,1.0357,1.0357,0,0,1-.3028-.4111A1.3579,1.3579,0,0,1,376.7387,38.6754Z"/><path class="cls-2" d="M380.7973,50.4372a.7713.7713,0,0,1,.5147-.9453,6.4407,6.4407,0,0,1,1.0752-.2168,10.123,10.123,0,0,1,1.208-.0743,7.0556,7.0556,0,0,1,1.0664.0743,3.8031,3.8031,0,0,1,.8095.208.7688.7688,0,0,1,.3946.498.7222.7222,0,0,1-.1045.6143.7815.7815,0,0,1-.3819.3027.8079.8079,0,0,1-.4648.0215,3.9025,3.9025,0,0,0-.6016-.1084,6.3428,6.3428,0,0,0-.7177-.042q-.5655,0-1.05.0459a3.9427,3.9427,0,0,0-.8018.1455.73.73,0,0,1-.5762-.0742A.77.77,0,0,1,380.7973,50.4372Zm.7559-4.3985a.8871.8871,0,0,1,.2822-.664A.9173.9173,0,0,1,382.5,45.1a4.0484,4.0484,0,0,0,1.6728-.2618,1.3361,1.3361,0,0,0,.7217-.8838,6.9352,6.9352,0,0,0,.2031-1.6855.8953.8953,0,0,1,.32-.68.9621.9621,0,0,1,.6924-.2168.9071.9071,0,0,1,.6475.32.8763.8763,0,0,1,.2246.6758,5.3951,5.3951,0,0,0,.1367,1.6025,1.3432,1.3432,0,0,0,.668.8633,3.119,3.119,0,0,0,1.4365.2657h.0078a.938.938,0,0,1,0,1.8759h-.0078a4.4343,4.4343,0,0,1-1.9961-.3945,2.59,2.59,0,0,1-1.2-1.34,2.9975,2.9975,0,0,1-1.3818,1.3564,5.2657,5.2657,0,0,1-2.1455.3779.9132.9132,0,0,1-.6641-.2783A.8935.8935,0,0,1,381.5532,46.0387Z"/><path class="cls-2" d="M388.2934,46.0387a.8975.8975,0,0,1,.2773-.664.9071.9071,0,0,1,.66-.2744,1.2084,1.2084,0,0,0,1.1992-.7344,5.4743,5.4743,0,0,0,.3369-2.1875q0-.7808-.042-1.5606t-.1367-1.7636q-.0951-.9845-.2617-2.37a.9519.9519,0,0,1,.1953-.6972.8911.8911,0,0,1,.6182-.3653.9245.9245,0,0,1,.6973.1866.8958.8958,0,0,1,.3652.6269q.1494,1.17.2412,2.1006t.1328,1.7676q.0411.8379.041,1.7431a7.6633,7.6633,0,0,1-.76,3.9014,2.8383,2.8383,0,0,1-2.627,1.2285.9487.9487,0,0,1-.9375-.9375Z"/><path class="cls-2" d="M393.0581,52.861a.4122.4122,0,0,1,.02-.3477.4707.4707,0,0,1,.2695-.25l1.0293-.3564a1.4358,1.4358,0,0,1-.5811-.5273,1.5434,1.5434,0,0,1-.2158-.834,1.7909,1.7909,0,0,1,.5147-1.3155,1.912,1.912,0,0,1,1.42-.52,3.4977,3.4977,0,0,1,.5644.042.5044.5044,0,0,1,.3106.1787.4209.4209,0,0,1,.1045.3193.4786.4786,0,0,1-.1709.3194.39.39,0,0,1-.3438.1035,1.834,1.834,0,0,0-.3486-.0332,1.1738,1.1738,0,0,0-.8428.2744.9107.9107,0,0,0-.2861.6885.7015.7015,0,0,0,.249.582,1.06,1.06,0,0,0,.6807.1992,2.4661,2.4661,0,0,0,.5146-.0586,6.86,6.86,0,0,0,.7715-.2324.4253.4253,0,0,1,.3692.0371.4424.4424,0,0,1,.2207.2949.4853.4853,0,0,1-.0459.3448.3856.3856,0,0,1-.2452.2031l-3.3613,1.1787a.4388.4388,0,0,1-.3574-.02A.4714.4714,0,0,1,393.0581,52.861ZM394.27,36.8571a.9172.9172,0,0,1,.19-.6973.93.93,0,0,1,1.3154-.1777.8973.8973,0,0,1,.3614.6269q.1494,1.0693.2324,1.8965t.1162,1.6182q.0336.7925.0332,1.78,0,1.1542-.041,2.35t-.1328,2.2246a.92.92,0,0,1-.3321.6387.8985.8985,0,0,1-.6894.2246.9217.9217,0,0,1-.6387-.3321.889.889,0,0,1-.2246-.6806q.0923-1.03.1328-2.2119.0425-1.1836.042-2.3038,0-.9213-.0332-1.64t-.1123-1.4854Q394.4107,37.9206,394.27,36.8571Z"/><path class="cls-2" d="M406.1811,40.7838a2.8752,2.8752,0,0,1,1.7266.502,3.1586,3.1586,0,0,1,1.0586,1.3281,4.6421,4.6421,0,0,1,.3779,1.7979,1.7249,1.7249,0,0,0,.6514.539,3.2112,3.2112,0,0,0,1.166.1495h.0088a.8886.8886,0,0,1,.6718.2783.9517.9517,0,0,1,0,1.3193.8886.8886,0,0,1-.6718.2783h-.0088a5.425,5.425,0,0,1-1.39-.1582,3.4293,3.4293,0,0,1-1.0508-.4648,2.4956,2.4956,0,0,1-1.1621.7021,5.543,5.543,0,0,1-1.5771.2119,10.0234,10.0234,0,0,1-1.3819-.0957q-.684-.0951-1.2822-.2031a1.2306,1.2306,0,0,0-.6562.0156c-.1377.0616-.2022.2139-.1905.4571l.2989,5.1963a.9753.9753,0,0,1-.2578.7177.8792.8792,0,0,1-.6807.3028.9047.9047,0,0,1-.6426-.253.8821.8821,0,0,1-.2871-.6259l-.3154-5.62a1.9724,1.9724,0,0,1,.5195-1.6181,2.2066,2.2066,0,0,1,1.5225-.5733,1.0027,1.0027,0,0,1,.0088-.3408,7.3833,7.3833,0,0,1,.4062-1.3691,5.2007,5.2007,0,0,1,.7061-1.2412,3.36,3.36,0,0,1,1.0371-.8965A2.8338,2.8338,0,0,1,406.1811,40.7838Zm-1.793,4.167a.9221.9221,0,0,1-.083.2491q.4484.0907.8965.1455a7.2732,7.2732,0,0,0,.8721.0537,2.39,2.39,0,0,0,.9961-.1865.7973.7973,0,0,0,.4062-.81,2.4385,2.4385,0,0,0-.3027-1.208,1.0475,1.0475,0,0,0-.9922-.543,1.3116,1.3116,0,0,0-1.19.68A5.0805,5.0805,0,0,0,404.3881,44.9508Z"/><path class="cls-2" d="M410.2319,46.0387a.8946.8946,0,0,1,.2783-.664.9053.9053,0,0,1,.66-.2744,2.56,2.56,0,0,0,1.7558-.5889,3.06,3.06,0,0,0,.7754-2.1338,1.0432,1.0432,0,0,1,.083-.3076.881.881,0,0,1,.7227-.5391.9066.9066,0,0,1,.6552.1494.8957.8957,0,0,1,.4239.73,3.1509,3.1509,0,0,0,.5888,1.7764,10.0413,10.0413,0,0,1,2.2539-2.8926,4.2169,4.2169,0,0,1,2.793-1.0664,3.3226,3.3226,0,0,1,1.6153.3857,2.8949,2.8949,0,0,1,1.12,1.07,3.0441,3.0441,0,0,1,.4111,1.5987,3.1284,3.1284,0,0,1-.1582.9961,1.2865,1.2865,0,0,0,.5977.6308,2.9348,2.9348,0,0,0,1.2207.1905h.0078a.938.938,0,0,1,0,1.8759h-.0078a4.59,4.59,0,0,1-1.6729-.291,3.6275,3.6275,0,0,1-1.2744-.8125,5.1458,5.1458,0,0,1-1.6973.875,7.0577,7.0577,0,0,1-2.1289.3115,6.8819,6.8819,0,0,1-2.5234-.44q-.1172.249-.2324.5156a.7533.7533,0,0,1-.4942.46.7638.7638,0,0,1-.61-.0615.702.702,0,0,1-.3233-.4278.965.965,0,0,1,.041-.6191q.1333-.331.2657-.6387a4.2379,4.2379,0,0,1-.6553-.6474,3.8493,3.8493,0,0,1-1.4815,1.3154,4.5147,4.5147,0,0,1-2.0712.4609.95.95,0,0,1-.9385-.9375Zm10.7744-3.9179a2.6712,2.6712,0,0,0-1.834.7841,8.9023,8.9023,0,0,0-1.6191,2.0957,6.7375,6.7375,0,0,0,1.7021.1827,5.4985,5.4985,0,0,0,2.32-.4239,1.4082,1.4082,0,0,0,.9082-1.3525,1.1259,1.1259,0,0,0-.4394-.95A1.66,1.66,0,0,0,421.0063,42.1208Zm-.7969-4.8145a.9753.9753,0,0,1,.2783-.6767.93.93,0,0,1,.7178-.3038.9994.9994,0,0,1,.5313.1329,1.0649,1.0649,0,0,1,.3408.3242,1.0272,1.0272,0,0,1,.166.5312,1.3313,1.3313,0,0,1-.2119.668.8659.8659,0,0,1-.8174.3613.9508.9508,0,0,1-.6269-.1787,1.027,1.027,0,0,1-.3028-.4111A1.3572,1.3572,0,0,1,420.2094,37.3063Z"/><path class="cls-2" d="M425.0991,46.0387a.8971.8971,0,0,1,.2773-.664.9071.9071,0,0,1,.66-.2744,2.83,2.83,0,0,0,1.5937-.3409,1.4764,1.4764,0,0,0,.4815-1.2861q0-.3325-.05-.8506t-.1495-1.042a.9128.9128,0,0,1,.1866-.6933.93.93,0,0,1,.6191-.3692.8825.8825,0,0,1,.6973.1787.9615.9615,0,0,1,.373.6182q.1172.6138.1748,1.1787t.0576.9883a3.28,3.28,0,0,1-1.0166,2.5976,4.3574,4.3574,0,0,1-2.9677.8965.9487.9487,0,0,1-.9375-.9375Zm1.61-8.11a.98.98,0,0,1,.2774-.6768.93.93,0,0,1,.7187-.3027.9951.9951,0,0,1,.5313.1328,1.063,1.063,0,0,1,.34.3242,1.0159,1.0159,0,0,1,.166.5313,1.3368,1.3368,0,0,1-.2119.6679.8667.8667,0,0,1-.8174.3614.9527.9527,0,0,1-.6269-.1787,1.0367,1.0367,0,0,1-.3028-.4112A1.3569,1.3569,0,0,1,426.7094,37.9284Z"/><path class="cls-2" d="M431.6235,36.8571a.9176.9176,0,0,1,.19-.6973.93.93,0,0,1,1.3154-.1777.897.897,0,0,1,.3614.6269q.1494,1.0693.2324,1.8965t.1162,1.6182q.0338.7925.0332,1.78,0,1.1542-.041,2.35t-.1328,2.2246a.92.92,0,0,1-.3321.6387.8985.8985,0,0,1-.6894.2246.9217.9217,0,0,1-.6387-.3321.889.889,0,0,1-.2246-.6806q.0923-1.03.1328-2.2119.0424-1.1836.042-2.3038,0-.9213-.0332-1.64t-.1123-1.4854Q431.7642,37.9206,431.6235,36.8571Z"/><path class="cls-2" d="M136.8915,55.1764a.9117.9117,0,0,1,.6929.1865.9308.9308,0,0,1,.37.627q.15,1.1207.2325,2.1045t.1162,1.9873q.033,1.0049.0332,2.2168v.5059c0,.1777-.0029.3544-.0083.5312a.8927.8927,0,0,1-.2822.6523.9619.9619,0,0,1-1.3365-.0166.8783.8783,0,0,1-.2739-.6689c.0054-.166.01-.334.0127-.5059s.0039-.3378.0039-.498q0-1.1953-.0332-2.166-.033-.9727-.1123-1.9014t-.228-1.9922a.9018.9018,0,0,1,.1909-.6933A.944.944,0,0,1,136.8915,55.1764Zm1.7515,11.53a1.3049,1.3049,0,0,1-.1367.543,1.3988,1.3988,0,0,1-.4111.5107,1.068,1.068,0,0,1-.6807.2158,1.5937,1.5937,0,0,1-.5562-.12,1.3705,1.3705,0,0,1-.5522-.3945,1.1074,1.1074,0,0,1-.2363-.7471,1.3169,1.3169,0,0,1,1.3115-1.3115,1.1047,1.1047,0,0,1,.93.4316A1.4248,1.4248,0,0,1,138.643,66.7067Z"/><path class="cls-2" d="M146.0136,61.7838a2.876,2.876,0,0,1,1.7266.502,3.1568,3.1568,0,0,1,1.0581,1.3281,4.6331,4.6331,0,0,1,.3779,1.7979,1.7286,1.7286,0,0,0,.6514.539,3.2166,3.2166,0,0,0,1.1665.15h.0083a.89.89,0,0,1,.6724.2783.952.952,0,0,1,0,1.3193.89.89,0,0,1-.6724.2783h-.0083a5.4283,5.4283,0,0,1-1.39-.1582,3.4264,3.4264,0,0,1-1.05-.4648,2.499,2.499,0,0,1-1.1622.7021,5.5475,5.5475,0,0,1-1.5771.2119,10.0292,10.0292,0,0,1-1.3823-.0957q-.6841-.0951-1.2822-.2031a1.2287,1.2287,0,0,0-.6558.0156q-.2073.0924-.1909.4571l.2988,5.1963a.9728.9728,0,0,1-.2573.7177.88.88,0,0,1-.6807.3028.9059.9059,0,0,1-.6431-.253.8824.8824,0,0,1-.2866-.6259l-.3154-5.62a1.9709,1.9709,0,0,1,.519-1.6181,2.2088,2.2088,0,0,1,1.523-.5733,1.0152,1.0152,0,0,1,.0083-.3408,7.4315,7.4315,0,0,1,.4067-1.3691,5.2162,5.2162,0,0,1,.7056-1.2412,3.3632,3.3632,0,0,1,1.0376-.8965A2.8311,2.8311,0,0,1,146.0136,61.7838Zm-1.7929,4.167a.9435.9435,0,0,1-.0831.2491q.4484.0907.8965.1455a7.2662,7.2662,0,0,0,.8716.0537,2.3866,2.3866,0,0,0,.9961-.1865.7968.7968,0,0,0,.4067-.81,2.4378,2.4378,0,0,0-.3032-1.208,1.0467,1.0467,0,0,0-.9917-.543,1.3119,1.3119,0,0,0-1.1909.68A5.066,5.066,0,0,0,144.2207,65.9508Z"/><path class="cls-2" d="M150.0644,67.0387a.896.896,0,0,1,.2778-.664.9063.9063,0,0,1,.66-.2744c.249,0,.49-.0088.7222-.0245a11.5343,11.5343,0,0,1,.228-1.9472,7.3808,7.3808,0,0,1,.6518-1.9,4.0354,4.0354,0,0,1,1.1871-1.4365,2.95,2.95,0,0,1,1.8178-.5518,2.06,2.06,0,0,1,1.2866.3984,2.58,2.58,0,0,1,.7969,1.0039,2.9773,2.9773,0,0,1,.2739,1.2374,3.8473,3.8473,0,0,1-.4272,1.7353,5.1492,5.1492,0,0,1-1.2163,1.5518A.9573.9573,0,0,1,156.68,66.1h2.54a.938.938,0,0,1,0,1.8759h-1.2867a5.1151,5.1151,0,0,1,.1827,1.3614,4.2175,4.2175,0,0,1-.2242,1.3154,2.6413,2.6413,0,0,1-.7387,1.1543,1.9679,1.9679,0,0,1-1.378.4687,2.7681,2.7681,0,0,1-1.4277-.374,3.8956,3.8956,0,0,1-1.1245-1,6.2517,6.2517,0,0,1-.8135-1.3984,8.8239,8.8239,0,0,1-.5024-1.5684q-.4483.0411-.9048.041a.95.95,0,0,1-.938-.9375Zm5.3623-4.84a1.4217,1.4217,0,0,0-1.25.9463,6.35,6.35,0,0,0-.5435,2.5654,4.2223,4.2223,0,0,0,1.93-1.18,2.2628,2.2628,0,0,0,.6348-1.4355,1.1117,1.1117,0,0,0-.1743-.6436A.6731.6731,0,0,0,155.4267,62.1989Zm.3071,4.84a.8774.8774,0,0,1,.1661-.5234,6.9826,6.9826,0,0,1-1.0044.6055,7.45,7.45,0,0,1-1.1705.4648,4.6519,4.6519,0,0,0,.78,2.0469,1.5392,1.5392,0,0,0,1.1787.751.5738.5738,0,0,0,.5352-.253,1.2056,1.2056,0,0,0,.1538-.6347,2.9233,2.9233,0,0,0-.1206-.793,7.3393,7.3393,0,0,0-.2778-.81q-.0917-.24-.1661-.4687A1.2863,1.2863,0,0,1,155.7338,67.0387Z"/><path class="cls-2" d="M158.2822,67.0387a.8957.8957,0,0,1,.2778-.664.9063.9063,0,0,1,.66-.2744,2.832,2.832,0,0,0,1.5937-.3409,1.4778,1.4778,0,0,0,.4815-1.2861q0-.3325-.05-.8506t-.1495-1.042a.9128.9128,0,0,1,.1866-.6933.93.93,0,0,1,.6186-.3692.8815.8815,0,0,1,.6973.1787.9622.9622,0,0,1,.3735.6182q.1165.6138.1743,1.1787a9.8292,9.8292,0,0,1,.0581.9883,3.28,3.28,0,0,1-1.0166,2.5976,4.3592,4.3592,0,0,1-2.9677.8965.95.95,0,0,1-.938-.9375Zm.3071-7.7119a.7719.7719,0,0,1,.5147-.9463,6.4359,6.4359,0,0,1,1.0751-.2158,9.9233,9.9233,0,0,1,1.2076-.0752,6.936,6.936,0,0,1,1.0669.0752,3.7449,3.7449,0,0,1,.809.208.764.764,0,0,1,.3941.4981.7177.7177,0,0,1-.1035.6132.7815.7815,0,0,1-.3819.3038.8006.8006,0,0,1-.4648.0205,4.0735,4.0735,0,0,0-.6016-.1075,6.155,6.155,0,0,0-.7182-.042q-.5647,0-1.05.0459a3.9445,3.9445,0,0,0-.8008.1446.73.73,0,0,1-.5772-.0742A.77.77,0,0,1,158.5893,59.3268Z"/><path class="cls-2" d="M164.9311,64.2321q0-1.5937.0332-3.1367t-.0249-3.3457a.945.945,0,0,1,.2573-.6807.8744.8744,0,0,1,.6475-.2988.9175.9175,0,0,1,.6807.249.879.879,0,0,1,.2988.6562q.0579,1.7754.0249,3.3409t-.0332,3.1914a2.2668,2.2668,0,0,0,.3652,1.4775,1.9075,1.9075,0,0,0,1.4443.4151h.0083a.938.938,0,0,1,0,1.8759h-.0083a3.9814,3.9814,0,0,1-2.7641-.8466A3.7841,3.7841,0,0,1,164.9311,64.2321Z"/><path class="cls-2" d="M166.9316,71.4372a.77.77,0,0,1,.5146-.9453,6.4278,6.4278,0,0,1,1.0747-.2168,10.1259,10.1259,0,0,1,1.2081-.0743,7.0461,7.0461,0,0,1,1.0664.0743,3.7968,3.7968,0,0,1,.8095.208.7673.7673,0,0,1,.3946.498.7237.7237,0,0,1-.104.6143.7841.7841,0,0,1-.3819.3027.8081.8081,0,0,1-.4648.0215,3.9215,3.9215,0,0,0-.6021-.1084,6.3374,6.3374,0,0,0-.7177-.042q-.5648,0-1.05.0459a3.9307,3.9307,0,0,0-.8012.1455.7314.7314,0,0,1-.5767-.0742A.7678.7678,0,0,1,166.9316,71.4372Zm.7554-4.3985a.8889.8889,0,0,1,.2822-.664.9189.9189,0,0,1,.664-.2744,4.0454,4.0454,0,0,0,1.6729-.2618,1.335,1.335,0,0,0,.7217-.8838,6.9317,6.9317,0,0,0,.2036-1.6855.8962.8962,0,0,1,.32-.68.9634.9634,0,0,1,.6929-.2168.9087.9087,0,0,1,.6474.32.876.876,0,0,1,.2242.6758,5.4119,5.4119,0,0,0,.1367,1.6025,1.3456,1.3456,0,0,0,.6684.8633,3.1189,3.1189,0,0,0,1.4361.2657h.0083a.938.938,0,0,1,0,1.8759h-.0083a4.4355,4.4355,0,0,1-1.9961-.3945,2.5871,2.5871,0,0,1-1.2-1.34,2.9984,2.9984,0,0,1-1.3823,1.3564,5.2642,5.2642,0,0,1-2.1456.3779.9148.9148,0,0,1-.664-.2783A.8954.8954,0,0,1,167.687,67.0387Z"/><path class="cls-2" d="M174.4272,67.0387a.896.896,0,0,1,.2778-.664.9063.9063,0,0,1,.66-.2744,2.5587,2.5587,0,0,0,1.7558-.5889,3.0623,3.0623,0,0,0,.7759-2.1338,1.0164,1.0164,0,0,1,.083-.3076.88.88,0,0,1,.7222-.5391.9083.9083,0,0,1,.6558.1494.8953.8953,0,0,1,.4233.73,3.151,3.151,0,0,0,.5894,1.7764,10.0369,10.0369,0,0,1,2.2534-2.8926,4.2167,4.2167,0,0,1,2.7934-1.0664,3.3218,3.3218,0,0,1,1.6148.3857,2.8942,2.8942,0,0,1,1.12,1.07,3.0441,3.0441,0,0,1,.4111,1.5987,3.1422,3.1422,0,0,1-.1577.9961,1.2822,1.2822,0,0,0,.5977.6308,2.9324,2.9324,0,0,0,1.22.1905h.0083a.938.938,0,0,1,0,1.8759h-.0083a4.59,4.59,0,0,1-1.6729-.291,3.63,3.63,0,0,1-1.2739-.8125,5.1484,5.1484,0,0,1-1.6978.875,7.0554,7.0554,0,0,1-2.1289.3115,6.8842,6.8842,0,0,1-2.5234-.44q-.1164.249-.2324.5156a.752.752,0,0,1-.4942.46.7626.7626,0,0,1-.61-.0615.7027.7027,0,0,1-.3238-.4278.9681.9681,0,0,1,.0416-.6191q.1325-.3311.2656-.6387a4.2412,4.2412,0,0,1-.6558-.6474,3.85,3.85,0,0,1-1.4814,1.3154,4.5139,4.5139,0,0,1-2.0713.4609.95.95,0,0,1-.938-.9375Zm10.7744-3.9179a2.6726,2.6726,0,0,0-1.8345.7841,8.904,8.904,0,0,0-1.6186,2.0957,6.7343,6.7343,0,0,0,1.7016.1827,5.4974,5.4974,0,0,0,2.32-.4239,1.4087,1.4087,0,0,0,.9086-1.3525,1.125,1.125,0,0,0-.44-.95A1.6572,1.6572,0,0,0,185.2016,63.1208Z"/><path class="cls-2" d="M193.3862,60.4723a4.0733,4.0733,0,0,1,1.5771.3526q.8387.353,1.7432.8173.59.3076,1.3281.6436t1.66.7266a.9088.9088,0,0,1,.4067.3525.9317.9317,0,0,1,.1577.5107.8824.8824,0,0,1-.44.7969q-.3816.249-.7471.4815a1.2289,1.2289,0,0,0,.6851.7138,3.5349,3.5349,0,0,0,1.4316.2325h.0083a.938.938,0,0,1,0,1.8759h-.0083a5.41,5.41,0,0,1-2.2617-.4609,2.9945,2.9945,0,0,1-1.4985-1.4316,18.2874,18.2874,0,0,1-3.5074,1.3945,13.628,13.628,0,0,1-3.6894.498.938.938,0,1,1,0-1.8759,11.9442,11.9442,0,0,0,3.5361-.5352,16.12,16.12,0,0,0,3.478-1.5732q-.49-.233-.93-.44-.44-.2081-.8384-.4238-.6395-.34-1.1084-.5391a2.1309,2.1309,0,0,0-.8091-.1992.7779.7779,0,0,0-.6265.2939,4.6682,4.6682,0,0,0-.56.9834.8773.8773,0,0,1-.5352.4776.8616.8616,0,0,1-.8261-.0869.9383.9383,0,0,1-.3736-.5059.9079.9079,0,0,1,.0415-.6895,6.6136,6.6136,0,0,1,1.1123-1.73A2.0769,2.0769,0,0,1,193.3862,60.4723Zm-1.1372-3.0957a.9765.9765,0,0,1,.2778-.6767.9306.9306,0,0,1,.7183-.3037,1.0015,1.0015,0,0,1,.5312.1328,1.0672,1.0672,0,0,1,.34.3242,1.0221,1.0221,0,0,1,.1661.5312,1.3305,1.3305,0,0,1-.212.668.8652.8652,0,0,1-.8173.3613.9513.9513,0,0,1-.627-.1787,1.0307,1.0307,0,0,1-.3027-.4111A1.3568,1.3568,0,0,1,192.249,57.3766Z"/><path class="cls-2" d="M200.2592,67.0387a.9362.9362,0,0,1,.938-.9384,1.9983,1.9983,0,0,0,1.4736-.54,2.7833,2.7833,0,0,0,.7261-1.5019c.022-.16.05-.3711.083-.6309a.9514.9514,0,0,1,.3775-.623.894.894,0,0,1,.6933-.1739.9211.9211,0,0,1,.6182.3731.9372.9372,0,0,1,.187.706c-.0054.044-.0112.083-.0166.1162-.0112.083-.022.1661-.0332.2491-.0278.1884-.0454.3379-.0542.4482s-.0122.2188-.0122.3242a1.6673,1.6673,0,0,0,.2944,1.0293.9941.9941,0,0,0,.8428.39,1.1822,1.1822,0,0,0,1.0332-.5606,4.0188,4.0188,0,0,0,.5356-1.6553q.017-.1992.05-.416v-.0332a.8424.8424,0,0,1,.4233-.6718c0-.0059.0029-.0079.0083-.0079h.0083a.8824.8824,0,0,1,.5894-.125.854.854,0,0,1,.498.2491.8973.8973,0,0,1,.2573.4814v.0254a.9263.9263,0,0,1,.0083.2148c-.0166.15-.0361.2969-.0581.4405-.0112.1328-.0166.2568-.0166.374a2.1,2.1,0,0,0,.3154,1.2031,1.1275,1.1275,0,0,0,1.0044.4649,1.11,1.11,0,0,0,.9463-.4063,1.8548,1.8548,0,0,0,.3072-1.1377,5.4629,5.4629,0,0,0-.0538-.751q-.0542-.3867-.1538-.8095a.9181.9181,0,0,1,.1245-.71.8889.8889,0,0,1,.5811-.41.9141.9141,0,0,1,.7139.1113.8762.8762,0,0,1,.4233.5937q.1494.6387.1992,1.0215a6.49,6.49,0,0,1,.05.8379,3.8862,3.8862,0,0,1-.8051,2.5693,2.7283,2.7283,0,0,1-2.2163.9668,3.1007,3.1007,0,0,1-1.4527-.332,2.9575,2.9575,0,0,1-1.0625-.93,3.66,3.66,0,0,1-1.083.9385,2.6772,2.6772,0,0,1-1.3242.34,2.5448,2.5448,0,0,1-1.3447-.3613,2.8641,2.8641,0,0,1-.9712-.9668,4.1456,4.1456,0,0,1-1.22.8467,3.5519,3.5519,0,0,1-1.4942.3154.95.95,0,0,1-.938-.9375Zm5.2959-8.2851a2.0364,2.0364,0,0,1,1.2036-1.9629,2.6563,2.6563,0,0,1,1.125-.2442,2.6967,2.6967,0,0,1,1.1245.24,2.0114,2.0114,0,0,1,1.2037,1.9424,2.9458,2.9458,0,0,1-.0537.5644,1.8175,1.8175,0,0,1-.1788.5068.9046.9046,0,0,1-.4111.4268.5985.5985,0,0,1-.6016-.0371.64.64,0,0,1-.3115-.3984.8459.8459,0,0,1,.0459-.5225,1.1333,1.1333,0,0,0,.1328-.54.7.7,0,0,0-.2861-.61,1.0958,1.0958,0,0,0-.6641-.1992,1.121,1.121,0,0,0-.664.2119.7176.7176,0,0,0-.2866.6221,1.0464,1.0464,0,0,0,.17.6064,4.2119,4.2119,0,0,0,.5268.5977.529.529,0,0,1,.145.4775.7377.7377,0,0,1-.2446.4522.5629.5629,0,0,1-.5024.1494.9271.9271,0,0,1-.4937-.249,4.91,4.91,0,0,1-.6806-.81A2.1705,2.1705,0,0,1,205.5551,58.7536Z"/><path class="cls-2" d="M217.94,67.652a5.9644,5.9644,0,0,1,.2656-1.8047,10.3289,10.3289,0,0,1,.6226-1.5488.8565.8565,0,0,1,.5478-.4648.9783.9783,0,0,1,.7305.0507.87.87,0,0,1,.4609.543.9358.9358,0,0,1-.0459.7188,8.3528,8.3528,0,0,0-.4731,1.2031,4.3559,4.3559,0,0,0-.2075,1.3027,2.2727,2.2727,0,0,0,.6933,1.7393,2.768,2.768,0,0,0,1.9712.6513,3.2282,3.2282,0,0,0,1.8306-.4472,2.4059,2.4059,0,0,0,.9336-1.3076,7.0028,7.0028,0,0,0,.2739-2.1045q0-2.1255-.1118-4.23t-.2866-4.5284a.8878.8878,0,0,1,.2241-.6845.9042.9042,0,0,1,.6474-.3194.9213.9213,0,0,1,.6846.2286.8887.8887,0,0,1,.32.6425q.1326,1.86.2369,3.545t.1533,3.3369a3.7664,3.7664,0,0,0,.2241,1.1455,1.0763,1.0763,0,0,0,.5855.6015,3.0967,3.0967,0,0,0,1.1909.1788h.0083a.938.938,0,0,1,0,1.8759h-.0083a3.9727,3.9727,0,0,1-2.0586-.5234,6.7436,6.7436,0,0,1-.7183,2.2168,4.2417,4.2417,0,0,1-1.5561,1.6435,4.8421,4.8421,0,0,1-2.5733.6221,4.903,4.903,0,0,1-2.3032-.539,4.2484,4.2484,0,0,1-1.648-1.502A4.08,4.08,0,0,1,217.94,67.652Z"/><path class="cls-2" d="M228.4819,67.0387a.896.896,0,0,1,.2778-.664.9063.9063,0,0,1,.66-.2744,2.5587,2.5587,0,0,0,1.7558-.5889,3.0628,3.0628,0,0,0,.7759-2.1338,1.0135,1.0135,0,0,1,.083-.3076.88.88,0,0,1,.7222-.5391.908.908,0,0,1,.6557.1494.8952.8952,0,0,1,.4234.73,3.151,3.151,0,0,0,.5893,1.7764,10.0388,10.0388,0,0,1,2.2535-2.8926,4.2167,4.2167,0,0,1,2.7934-1.0664,3.322,3.322,0,0,1,1.6148.3857,2.8949,2.8949,0,0,1,1.12,1.07,3.0441,3.0441,0,0,1,.4111,1.5987,3.1422,3.1422,0,0,1-.1577.9961,1.2822,1.2822,0,0,0,.5977.6308,2.9321,2.9321,0,0,0,1.22.1905h.0083a.938.938,0,0,1,0,1.8759h-.0083a4.59,4.59,0,0,1-1.6729-.291,3.63,3.63,0,0,1-1.2739-.8125,5.1484,5.1484,0,0,1-1.6978.875,7.0554,7.0554,0,0,1-2.1289.3115,6.8838,6.8838,0,0,1-2.5234-.44q-.1164.249-.2324.5156a.7523.7523,0,0,1-.4942.46.7626.7626,0,0,1-.61-.0615.7027.7027,0,0,1-.3238-.4278.9687.9687,0,0,1,.0415-.6191q.1326-.3311.2657-.6387a4.2412,4.2412,0,0,1-.6558-.6474,3.85,3.85,0,0,1-1.4814,1.3154,4.5139,4.5139,0,0,1-2.0713.4609.95.95,0,0,1-.938-.9375Zm10.7744-3.9179a2.6724,2.6724,0,0,0-1.8345.7841,8.9014,8.9014,0,0,0-1.6186,2.0957,6.7333,6.7333,0,0,0,1.7016.1827,5.4969,5.4969,0,0,0,2.32-.4239,1.4086,1.4086,0,0,0,.9087-1.3525,1.125,1.125,0,0,0-.44-.95A1.6572,1.6572,0,0,0,239.2563,63.1208Zm-.7969-4.8145a.9766.9766,0,0,1,.2779-.6767.9305.9305,0,0,1,.7182-.3038,1.0018,1.0018,0,0,1,.5313.1329,1.0682,1.0682,0,0,1,.34.3242,1.0226,1.0226,0,0,1,.166.5312,1.3313,1.3313,0,0,1-.2119.668.8653.8653,0,0,1-.8174.3613.9517.9517,0,0,1-.6269-.1787,1.0317,1.0317,0,0,1-.3028-.4111A1.3568,1.3568,0,0,1,238.4594,58.3063Z"/><path class="cls-2" d="M243.3486,67.0387a.896.896,0,0,1,.2778-.664.9063.9063,0,0,1,.66-.2744q1.5768,0,2.5815-.0752a4.36,4.36,0,0,0,1.5357-.3321,2.1127,2.1127,0,0,0,.7431-.4394,1.3871,1.3871,0,0,0,.3609-.7051,7.41,7.41,0,0,1-1.5357.1738,3.5718,3.5718,0,0,1-2.2993-.6513,2.5207,2.5207,0,0,1-.8052-2.0791,5.0492,5.0492,0,0,1,.3819-2.0049,3.477,3.477,0,0,1,1.0542-1.4151,2.44,2.44,0,0,1,1.5439-.5234,2.6681,2.6681,0,0,1,1.9048.7432,4.6862,4.6862,0,0,1,1.1953,2.042,9.8211,9.8211,0,0,1,.4111,2.9667,4.2394,4.2394,0,0,1-.3945,1.9717,2.9512,2.9512,0,0,1-1.2905,1.2246,5.45,5.45,0,0,1-2.17.76,20.5278,20.5278,0,0,1-3.2168.22.95.95,0,0,1-.938-.9375Zm3.2207-5.2715a1.1191,1.1191,0,0,0,.37.9424,1.668,1.668,0,0,0,1.0415.2862,3.978,3.978,0,0,0,.7056-.0664q.3654-.066.6723-.15a.575.575,0,0,1,.1661-.0244,5.1214,5.1214,0,0,0-.5357-2.0879,1.2467,1.2467,0,0,0-1.1-.7265,1.1109,1.1109,0,0,0-.9546.5351A2.2356,2.2356,0,0,0,246.5693,61.7672Zm.2739-7.3632a.9766.9766,0,0,1,.2783-.6758.9281.9281,0,0,1,.7178-.3028.9928.9928,0,0,1,.5313.1329,1.057,1.057,0,0,1,.34.3232,1.0229,1.0229,0,0,1,.166.5313,1.34,1.34,0,0,1-.2114.6679.8673.8673,0,0,1-.8179.3614.9482.9482,0,0,1-.6265-.1788,1.0275,1.0275,0,0,1-.3032-.41A1.368,1.368,0,0,1,246.8432,54.404Z"/><path class="cls-2" d="M252.2387,54.9352a.4179.4179,0,0,1,.02-.3476.4727.4727,0,0,1,.27-.25l1.0293-.3565a1.4285,1.4285,0,0,1-.581-.5273,1.5379,1.5379,0,0,1-.2158-.834,1.789,1.789,0,0,1,.5146-1.3154,1.911,1.911,0,0,1,1.4194-.52,3.4936,3.4936,0,0,1,.5645.042.5066.5066,0,0,1,.3115.1787.4215.4215,0,0,1,.1035.3194.4769.4769,0,0,1-.17.3193.3919.3919,0,0,1-.3447.1035,1.8269,1.8269,0,0,0-.3486-.0332,1.1761,1.1761,0,0,0-.8428.2744.9144.9144,0,0,0-.2861.6885.7015.7015,0,0,0,.249.582,1.0607,1.0607,0,0,0,.6806.1993,2.4694,2.4694,0,0,0,.5147-.0586,6.894,6.894,0,0,0,.772-.2325.4266.4266,0,0,1,.37.0371.4406.4406,0,0,1,.22.295.4774.4774,0,0,1-.0459.3447.3834.3834,0,0,1-.2446.2031l-3.3618,1.1787a.438.438,0,0,1-.357-.02A.4743.4743,0,0,1,252.2387,54.9352Zm.78,9.2969q0-1.5937.0332-3.1367t-.0249-3.3457a.945.945,0,0,1,.2573-.6807.8744.8744,0,0,1,.6475-.2988.9171.9171,0,0,1,.6806.249.8787.8787,0,0,1,.2989.6562q.0577,1.7754.0249,3.3409t-.0332,3.1914a2.2668,2.2668,0,0,0,.3652,1.4775,1.9075,1.9075,0,0,0,1.4443.4151h.0083a.938.938,0,0,1,0,1.8759h-.0083a3.9814,3.9814,0,0,1-2.7641-.8466A3.7837,3.7837,0,0,1,253.019,64.2321Z"/><path class="cls-2" d="M255.7832,67.0387a.8957.8957,0,0,1,.2778-.664.9059.9059,0,0,1,.66-.2744,2.8324,2.8324,0,0,0,1.5938-.3409,1.4777,1.4777,0,0,0,.4814-1.2861q0-.3325-.05-.8506t-.1494-1.042a.9131.9131,0,0,1,.1865-.6933.93.93,0,0,1,.6187-.3692.8816.8816,0,0,1,.6973.1787.9626.9626,0,0,1,.3735.6182q.1164.6138.1743,1.1787a9.8292,9.8292,0,0,1,.0581.9883,3.28,3.28,0,0,1-1.0166,2.5976,4.36,4.36,0,0,1-2.9678.8965.95.95,0,0,1-.9379-.9375Zm.5478,3.9258a.9787.9787,0,0,1,.2778-.6767.93.93,0,0,1,.7183-.3028.9933.9933,0,0,1,.5312.1328,1.0662,1.0662,0,0,1,.34.3233,1.028,1.028,0,0,1,.166.5312,1.3374,1.3374,0,0,1-.2119.669.8669.8669,0,0,1-.8174.36.9519.9519,0,0,1-.627-.1777,1.0321,1.0321,0,0,1-.3027-.4111A1.3583,1.3583,0,0,1,256.331,70.9645Z"/><path class="cls-2" d="M264.7978,57.8571a.9159.9159,0,0,1,.1909-.6973.93.93,0,0,1,1.3154-.1777.897.897,0,0,1,.3614.6269q.1494,1.0693.2324,1.8965t.1162,1.6182q.033.7925.0332,1.78,0,1.1542-.0415,2.35t-.1328,2.2246a.9181.9181,0,0,1-.332.6387.8982.8982,0,0,1-.689.2246.9228.9228,0,0,1-.6392-.3321.889.889,0,0,1-.2241-.6806q.0917-1.03.1328-2.2119.0419-1.1837.0415-2.3038,0-.9213-.0332-1.64t-.1118-1.4854Q264.939,58.9206,264.7978,57.8571Z"/><path class="cls-2" d="M271.978,67.9762a3.6128,3.6128,0,0,1-2.3823-.7138,2.6514,2.6514,0,0,1-.855-2.1582,4.2281,4.2281,0,0,1,.4067-1.8467,3.6467,3.6467,0,0,1,1.104-1.374,2.5488,2.5488,0,0,1,1.5689-.5225,2.5755,2.5755,0,0,1,1.7558.6514,4.2974,4.2974,0,0,1,1.1533,1.6972,6.0856,6.0856,0,0,1,.4112,2.2491V66.1h.7387a.938.938,0,0,1,0,1.8759H274.8a6.0892,6.0892,0,0,1-1.1743,2.0381,7.1223,7.1223,0,0,1-1.8305,1.502,7.56,7.56,0,0,1-2.233.8506.9458.9458,0,0,1-1.104-.7461.85.85,0,0,1,.1539-.6973,1.1136,1.1136,0,0,1,.5932-.416,6.9127,6.9127,0,0,0,2.2163-1,4.6481,4.6481,0,0,0,1.4112-1.5313ZM271.9614,66.1h1.3613v-.0752a4.8844,4.8844,0,0,0-.1782-1.2735,3.2331,3.2331,0,0,0-.5191-1.1123,1.0237,1.0237,0,0,0-.8466-.4521,1.0738,1.0738,0,0,0-.9175.5351,2.1249,2.1249,0,0,0-.3609,1.2158,1,1,0,0,0,.39.9092A1.9513,1.9513,0,0,0,271.9614,66.1Z"/><path class="cls-2" d="M274.9414,67.0387a.8957.8957,0,0,1,.2778-.664.9059.9059,0,0,1,.66-.2744,2.2329,2.2329,0,0,0,1.4693-.3565,1.883,1.883,0,0,0,.39-1.3945q0-1.2715-.0459-2.3955t-.124-2.22q-.0791-1.0956-.1953-2.2832a.9307.9307,0,0,1,.2158-.6933.8884.8884,0,0,1,.6309-.336.9319.9319,0,0,1,1.0293.8467q.1662,1.768.2656,3.4072t.1,3.5489a.9053.9053,0,0,1,.0083.125,1.7384,1.7384,0,0,0,.4438,1.373,2.1345,2.1345,0,0,0,1.399.378h.0083a.938.938,0,0,1,0,1.8759h-.0083a4.4411,4.4411,0,0,1-1.5274-.2617,3.2662,3.2662,0,0,1-1.2368-.7842,3.7282,3.7282,0,0,1-2.8223,1.0459.95.95,0,0,1-.9379-.9375Z"/><path class="cls-2" d="M284.6284,60.4723a4.07,4.07,0,0,1,1.5771.3526q.8394.353,1.7432.8173.59.3076,1.3281.6436.74.3369,1.66.7266a.9126.9126,0,0,1,.4072.3525.9352.9352,0,0,1,.1572.5107.883.883,0,0,1-.4394.7969q-.3824.249-.7471.4815a1.2277,1.2277,0,0,0,.6846.7138,3.5346,3.5346,0,0,0,1.4316.2325h.0088a.938.938,0,0,1,0,1.8759h-.0088a5.41,5.41,0,0,1-2.2617-.4609,2.9933,2.9933,0,0,1-1.4981-1.4316,18.3011,18.3011,0,0,1-3.5078,1.3945,13.628,13.628,0,0,1-3.6894.498.938.938,0,1,1,0-1.8759,11.9442,11.9442,0,0,0,3.5361-.5352,16.1152,16.1152,0,0,0,3.4785-1.5732q-.4906-.233-.93-.44-.4409-.2081-.8388-.4238-.6387-.34-1.1084-.5391a2.1309,2.1309,0,0,0-.8086-.1992.7782.7782,0,0,0-.627.2939,4.6637,4.6637,0,0,0-.56.9834.8773.8773,0,0,1-.5352.4776.8618.8618,0,0,1-.8262-.0869.9382.9382,0,0,1-.3735-.5059.9079.9079,0,0,1,.0415-.6895,6.6084,6.6084,0,0,1,1.1123-1.73A2.0769,2.0769,0,0,1,284.6284,60.4723Z"/><path class="cls-2" d="M291.4936,67.0387a.8875.8875,0,0,1,.2822-.664A.9173.9173,0,0,1,292.44,66.1a4.048,4.048,0,0,0,1.6728-.2618,1.3361,1.3361,0,0,0,.7217-.8838,6.93,6.93,0,0,0,.2031-1.6855.8951.8951,0,0,1,.32-.68.9617.9617,0,0,1,.6923-.2168.9071.9071,0,0,1,.6475.32.8759.8759,0,0,1,.2246.6758,5.3984,5.3984,0,0,0,.1367,1.6025,1.3435,1.3435,0,0,0,.668.8633,3.119,3.119,0,0,0,1.4365.2657h.0078a.938.938,0,0,1,0,1.8759h-.0078a4.4343,4.4343,0,0,1-1.9961-.3945,2.59,2.59,0,0,1-1.2-1.34,2.9971,2.9971,0,0,1-1.3818,1.3564,5.265,5.265,0,0,1-2.1455.3779.9132.9132,0,0,1-.6641-.2783A.8939.8939,0,0,1,291.4936,67.0387Zm.8633-7.23a.773.773,0,0,1,.5146-.9463,6.4189,6.4189,0,0,1,1.0752-.2158,9.8927,9.8927,0,0,1,1.2071-.0743,6.93,6.93,0,0,1,1.0673.0743,3.8035,3.8035,0,0,1,.8086.207.7678.7678,0,0,1,.3946.498.7237.7237,0,0,1-.1036.6153.7914.7914,0,0,1-.3818.3027.8.8,0,0,1-.4648.0205,4.2119,4.2119,0,0,0-.6016-.1084,6.3826,6.3826,0,0,0-.7187-.041q-.564,0-1.05.0459a3.9315,3.9315,0,0,0-.8008.1455.7332.7332,0,0,1-.5772-.0752A.7662.7662,0,0,1,292.3569,59.8083Z"/><path class="cls-2" d="M297.47,71.4372a.7691.7691,0,0,1,.5146-.9453,6.4109,6.4109,0,0,1,1.0742-.2168,10.1255,10.1255,0,0,1,1.208-.0743,7.0347,7.0347,0,0,1,1.0664.0743,3.7883,3.7883,0,0,1,.81.208.7654.7654,0,0,1,.3945.498.7245.7245,0,0,1-.1035.6143.7857.7857,0,0,1-.3818.3027.8083.8083,0,0,1-.4648.0215,3.9407,3.9407,0,0,0-.6026-.1084,6.331,6.331,0,0,0-.7178-.042c-.3759,0-.7265.0156-1.05.0459a3.9185,3.9185,0,0,0-.8007.1455.7328.7328,0,0,1-.5772-.0742A.7652.7652,0,0,1,297.47,71.4372Zm.7636-4.3985a.8972.8972,0,0,1,.2774-.664.9067.9067,0,0,1,.66-.2744,2.83,2.83,0,0,0,1.5938-.3409,1.4764,1.4764,0,0,0,.4814-1.2861q0-.3325-.05-.8506t-.1494-1.042a.9131.9131,0,0,1,.1865-.6933.93.93,0,0,1,.6192-.3692.8823.8823,0,0,1,.6972.1787.962.962,0,0,1,.3731.6182q.1171.6138.1748,1.1787t.0576.9883a3.28,3.28,0,0,1-1.0166,2.5976,4.3577,4.3577,0,0,1-2.9678.8965.9489.9489,0,0,1-.9375-.9375Z"/><path class="cls-2" d="M312.2622,71.8776a6.2037,6.2037,0,0,1-2.7891-.5889,4.4762,4.4762,0,0,1-1.8428-1.6269,4.38,4.38,0,0,1-.6562-2.3906,8.9521,8.9521,0,0,1,.1748-1.7266,13.7006,13.7006,0,0,1,.456-1.7266.9409.9409,0,0,1,.4981-.5312.8678.8678,0,0,1,.7138-.0254.9248.9248,0,0,1,.5274.49.8787.8787,0,0,1,.0293.7217,10.9269,10.9269,0,0,0-.3653,1.3447,6.3927,6.3927,0,0,0-.1416,1.2871,2.6957,2.6957,0,0,0,.8672,2.1289,3.6914,3.6914,0,0,0,2.52.7676,3.8688,3.8688,0,0,0,2.5654-.7637,2.622,2.622,0,0,0,.9043-2.1171,5.9411,5.9411,0,0,0-.1865-1.4356,12.8942,12.8942,0,0,0-.502-1.5527.8777.8777,0,0,1-.0049-.7217.93.93,0,0,1,.503-.5068.9573.9573,0,0,1,1.2451.5068,13.8766,13.8766,0,0,1,.6142,1.9346,8.4151,8.4151,0,0,1,.2325,1.9414,4.2766,4.2766,0,0,1-.6729,2.3867,4.5536,4.5536,0,0,1-1.88,1.6191A6.3811,6.3811,0,0,1,312.2622,71.8776ZM311.25,64.4235a.98.98,0,0,1,.2773-.6768.9305.9305,0,0,1,.7188-.3027.9948.9948,0,0,1,.5312.1328,1.0692,1.0692,0,0,1,.34.3233,1.0226,1.0226,0,0,1,.1661.5312,1.337,1.337,0,0,1-.212.669.8662.8662,0,0,1-.8173.36.9528.9528,0,0,1-.627-.1777,1.0364,1.0364,0,0,1-.3027-.4112A1.3569,1.3569,0,0,1,311.25,64.4235Z"/><path class="cls-2" d="M318.4047,55.234a.4124.4124,0,0,1,.0205-.3476.4705.4705,0,0,1,.27-.25l1.0293-.3565a1.4337,1.4337,0,0,1-.5811-.5273,1.5432,1.5432,0,0,1-.2158-.834,1.7911,1.7911,0,0,1,.5146-1.3154,1.9123,1.9123,0,0,1,1.42-.52,3.4984,3.4984,0,0,1,.5644.0419.5046.5046,0,0,1,.3106.1788.4208.4208,0,0,1,.1045.3193.4788.4788,0,0,1-.1709.3193.39.39,0,0,1-.3438.1035,1.8422,1.8422,0,0,0-.3486-.0332,1.1733,1.1733,0,0,0-.8428.2745.9107.9107,0,0,0-.2861.6884.7018.7018,0,0,0,.249.5821,1.06,1.06,0,0,0,.6807.1992,2.4729,2.4729,0,0,0,.5146-.0586,6.8811,6.8811,0,0,0,.7715-.2324.4244.4244,0,0,1,.3691.0371.4413.4413,0,0,1,.2207.2949.484.484,0,0,1-.0459.3447.3855.3855,0,0,1-.2451.2031l-3.3613,1.1788a.4392.4392,0,0,1-.3574-.02A.4721.4721,0,0,1,318.4047,55.234Zm.7969,2.6231a.9176.9176,0,0,1,.19-.6973.93.93,0,0,1,1.3155-.1777.8972.8972,0,0,1,.3613.6269q.1494,1.0693.2324,1.8965t.1162,1.6182q.0338.7925.0332,1.78,0,1.1542-.041,2.35t-.1328,2.2246a.92.92,0,0,1-.332.6387.8986.8986,0,0,1-.69.2246.9217.9217,0,0,1-.6387-.3321.89.89,0,0,1-.2246-.6806q.0924-1.03.1329-2.2119.0425-1.1837.0419-2.3038,0-.9213-.0332-1.64t-.1123-1.4854Q319.3423,58.9206,319.2016,57.8571Z"/><path class="cls-2" d="M325.5014,64.2575a5.3666,5.3666,0,0,1,.4151-2.1582.8787.8787,0,0,1,.5439-.4815.9212.9212,0,0,1,.7266.05q.7045.3488.4228,1.2618a4.84,4.84,0,0,0-.2158,1.4023,1.8,1.8,0,0,0,.3906,1.2373,2.189,2.189,0,0,0,1.249.61,11.999,11.999,0,0,0,2.2452.17,11.0439,11.0439,0,0,0,2.5986-.2451,2.34,2.34,0,0,0,1.4023-.8506,2.8636,2.8636,0,0,0,.4317-1.6856q0-1.3945-.0908-3.0166-.0924-1.623-.2745-3.1172a.9012.9012,0,0,1,.1914-.6972.94.94,0,0,1,1.3155-.17.8972.8972,0,0,1,.3613.6259q.1992,1.6026.29,3.2588.0924,1.6553.0918,3.1162a4.1228,4.1228,0,0,1-1.498,3.5489,8.1741,8.1741,0,0,1-4.8027,1.1084,8.3669,8.3669,0,0,1-4.378-.8965A3.3479,3.3479,0,0,1,325.5014,64.2575Zm7.4707-5.8438a.4668.4668,0,0,1-.17.336.4507.4507,0,0,1-.3613.1035.8762.8762,0,0,0-.17-.0156h-.1787a1.9675,1.9675,0,0,0-1.0869.2734.7884.7884,0,0,0-.4238.6641.4187.4187,0,0,0,.2656.3945,4.0508,4.0508,0,0,0,.6475.2363,6.6312,6.6312,0,0,1,.7226.2363,1.5718,1.5718,0,0,1,.6309.4444,1.2486,1.2486,0,0,1,.2568.8388,1.39,1.39,0,0,1-.7177,1.22,3.2525,3.2525,0,0,1-1.78.456c-.1612,0-.3115-.0039-.4522-.0117s-.2754-.0185-.4033-.0293a.4571.4571,0,0,1-.3359-.1787.477.477,0,0,1-.1035-.3691.5328.5328,0,0,1,.19-.3448.4673.4673,0,0,1,.3652-.1035c.1221.0108.2461.0225.374.0332s.2569.0166.39.0166a2.9973,2.9973,0,0,0,1.0127-.1621c.3047-.1074.457-.2754.457-.5019a.3746.3746,0,0,0-.2412-.3448,3.7985,3.7985,0,0,0-.6055-.2285,6.6388,6.6388,0,0,1-.7343-.2607,1.7863,1.7863,0,0,1-.66-.4737,1.2559,1.2559,0,0,1-.2744-.8593,1.5526,1.5526,0,0,1,.3369-.9746,2.3481,2.3481,0,0,1,.9043-.6973,2.9855,2.9855,0,0,1,1.2656-.2617,4.3834,4.3834,0,0,1,.44.0254.4547.4547,0,0,1,.332.17A.5.5,0,0,1,332.9721,58.4137Z"/><path class="cls-2" d="M339.1479,67.7692a.6687.6687,0,0,1-.07-.5195.6922.6922,0,0,1,.3027-.4278q.6065-.3646,1.2207-.6718a2.2764,2.2764,0,0,1-1.3281-2.2247,2.9511,2.9511,0,0,1,1.5186-2.6435,3.0187,3.0187,0,0,1,1.5029-.3857,3.4043,3.4043,0,0,1,1.6513.4394.77.77,0,0,1,.378.3906.6062.6062,0,0,1,.0039.5059.7112.7112,0,0,1-.39.3906.5443.5443,0,0,1-.5068-.0176,2.4094,2.4094,0,0,0-.6016-.2607,2.22,2.22,0,0,0-.5771-.0791,1.6322,1.6322,0,0,0-1.1455.4355,1.51,1.51,0,0,0-.4727,1.1661,1.1867,1.1867,0,0,0,.3946.9384,1.8843,1.8843,0,0,0,1.2656.3487,6.558,6.558,0,0,0,.8379-.0625q.4819-.0617.9883-.1534c.0546-.0107.1074-.0224.1572-.0332a.15.15,0,0,0,.05-.0087.6083.6083,0,0,1,.5644.1914.6891.6891,0,0,1,.1914.3574v.0156a.0549.0549,0,0,1,.0079.0332.6693.6693,0,0,1-.0743.3984.6489.6489,0,0,1-.4736.3575,13.3593,13.3593,0,0,0-4.4492,1.7519.6513.6513,0,0,1-.5147.07A.6948.6948,0,0,1,339.1479,67.7692Z"/><path class="cls-2" d="M346.8012,64.2321q0-1.5937.0332-3.1367T346.81,57.75a.9445.9445,0,0,1,.2568-.6807.8761.8761,0,0,1,.6475-.2988.916.916,0,0,1,.6807.249.8754.8754,0,0,1,.2988.6562q.0586,1.7754.0254,3.3409t-.0332,3.1914a2.2638,2.2638,0,0,0,.3652,1.4775,1.9061,1.9061,0,0,0,1.4444.4151h.0078a.938.938,0,0,1,0,1.8759h-.0078a3.9829,3.9829,0,0,1-2.7647-.8466A3.7861,3.7861,0,0,1,346.8012,64.2321Z"/><path class="cls-2" d="M349.5571,67.0387a.8908.8908,0,0,1,.2822-.664.9206.9206,0,0,1,.6641-.2744,4.042,4.042,0,0,0,1.6728-.2618,1.3336,1.3336,0,0,0,.7217-.8838,6.9281,6.9281,0,0,0,.2041-1.6855.8975.8975,0,0,1,.3193-.68.9646.9646,0,0,1,.6934-.2168.9108.9108,0,0,1,.6475.32.8755.8755,0,0,1,.2236.6758,5.4288,5.4288,0,0,0,.1367,1.6025,1.3477,1.3477,0,0,0,.669.8633,3.1172,3.1172,0,0,0,1.4355.2657h.0088a.938.938,0,0,1,0,1.8759h-.0088a4.4373,4.4373,0,0,1-1.9961-.3945,2.5846,2.5846,0,0,1-1.1992-1.34,2.9994,2.9994,0,0,1-1.3828,1.3564,5.2621,5.2621,0,0,1-2.1455.3779.9165.9165,0,0,1-.6641-.2783A.8973.8973,0,0,1,349.5571,67.0387Zm1.9179-7.3633a.98.98,0,0,1,.2774-.6767.93.93,0,0,1,.7187-.3027.9949.9949,0,0,1,.5313.1328,1.07,1.07,0,0,1,.34.3232,1.0228,1.0228,0,0,1,.166.5313,1.3374,1.3374,0,0,1-.2119.6689.8663.8663,0,0,1-.8173.36.9522.9522,0,0,1-.627-.1778,1.0355,1.0355,0,0,1-.3027-.4111A1.358,1.358,0,0,1,351.475,59.6754Z"/><path class="cls-2" d="M356.2973,67.0387a.8946.8946,0,0,1,.2783-.664.9055.9055,0,0,1,.66-.2744,2.8342,2.8342,0,0,0,1.5937-.3409,1.4788,1.4788,0,0,0,.4815-1.2861q0-.3325-.05-.8506t-.1494-1.042a.9131.9131,0,0,1,.1865-.6933.93.93,0,0,1,.6182-.3692.88.88,0,0,1,.6972.1787.9628.9628,0,0,1,.374.6182q.1158.6138.1739,1.1787a9.7266,9.7266,0,0,1,.0586.9883,3.28,3.28,0,0,1-1.0166,2.5976,4.3612,4.3612,0,0,1-2.9678.8965.95.95,0,0,1-.9385-.9375Zm.5479,3.9258a.9766.9766,0,0,1,.2783-.6767.9294.9294,0,0,1,.7178-.3028.9909.9909,0,0,1,.5312.1328,1.0635,1.0635,0,0,1,.3408.3233,1.0317,1.0317,0,0,1,.166.5312,1.3374,1.3374,0,0,1-.2119.669.8673.8673,0,0,1-.8174.36.9508.9508,0,0,1-.6269-.1777,1.0274,1.0274,0,0,1-.3027-.4111A1.3587,1.3587,0,0,1,356.8452,70.9645Z"/><path class="cls-2" d="M362.0249,55.234a.4159.4159,0,0,1,.0214-.3476.4676.4676,0,0,1,.27-.25l1.0293-.3565a1.4218,1.4218,0,0,1-.5811-.5273,1.5345,1.5345,0,0,1-.2158-.834,1.7872,1.7872,0,0,1,.5146-1.3154,1.91,1.91,0,0,1,1.419-.52,3.49,3.49,0,0,1,.5644.0419.5043.5043,0,0,1,.3116.1788.42.42,0,0,1,.1035.3193.4734.4734,0,0,1-.17.3193.3917.3917,0,0,1-.3448.1035,1.8264,1.8264,0,0,0-.3486-.0332,1.1723,1.1723,0,0,0-.8418.2745.9115.9115,0,0,0-.2871.6884.7018.7018,0,0,0,.249.5821,1.0619,1.0619,0,0,0,.6807.1992,2.4655,2.4655,0,0,0,.5146-.0586,6.8847,6.8847,0,0,0,.7725-.2324.425.425,0,0,1,.3691.0371.4373.4373,0,0,1,.22.2949.48.48,0,0,1-.045.3447.3879.3879,0,0,1-.2451.2031l-3.3623,1.1788a.4371.4371,0,0,1-.3564-.02A.4767.4767,0,0,1,362.0249,55.234Zm.7968,2.6231a.9417.9417,0,0,1,1.5069-.875.8972.8972,0,0,1,.3613.6269q.1494,1.0693.2324,1.8965t.1162,1.6182q.0322.7925.0332,1.78,0,1.1542-.042,2.35t-.1328,2.2246a.9162.9162,0,0,1-.332.6387.8976.8976,0,0,1-.6885.2246.9235.9235,0,0,1-.64-.3321.8887.8887,0,0,1-.2237-.6806q.0909-1.03.1328-2.2119.0411-1.1837.0411-2.3038,0-.9213-.0332-1.64c-.0215-.4785-.06-.9736-.1114-1.4854S362.9165,58.5661,362.8217,57.8571Z"/></g></svg>