<svg xmlns="http://www.w3.org/2000/svg" viewBox="0 0 500.6876 116.4255" ><defs><style>.cls-1{fill:#ffb900;}</style></defs><g id="_3" data-name="3"><path class="cls-1" d="M119.3857,33.2364a1.7155,1.7155,0,0,1-.0264-1.147,2.4143,2.4143,0,0,1,1.7139-1.5688,1.9916,1.9916,0,0,1,.646-.0528,2.108,2.108,0,0,1,1.3379.5406,2.2427,2.2427,0,0,1,.7187,1.1469l.0264.0791a8.3619,8.3619,0,0,0,1.4043,3.1441,2.2493,2.2493,0,0,0,1.707.8769h.0132a2.15,2.15,0,0,1,1.5884.6592,2.2671,2.2671,0,0,1,0,3.1836,2.1376,2.1376,0,0,1-1.5884.666h-.0132a4.513,4.513,0,0,1-1.3906-.2177,6.1482,6.1482,0,0,1-1.312-.6,9.6785,9.6785,0,0,1-2.4722,4.9375,10.9439,10.9439,0,0,1-4.4624,2.8017,2.0976,2.0976,0,0,1-1.8193-.165,2.2474,2.2474,0,0,1-1.0547-1.2989,2.1267,2.1267,0,0,1,.1846-1.8125,2.3439,2.3439,0,0,1,1.2392-1.0087,6.2218,6.2218,0,0,0,3.0586-2.1163,6.5152,6.5152,0,0,0,1.1074-4.0273,15.8015,15.8015,0,0,0-.5669-3.9155A.5089.5089,0,0,0,119.3857,33.2364Z"/><path class="cls-1" d="M124.6591,38.51a2.1526,2.1526,0,0,1,.6724-1.5957,2.2015,2.2015,0,0,1,1.5952-.6592h1.3184a2.1942,2.1942,0,0,1,1.6015.6592,2.2578,2.2578,0,0,1-1.6015,3.85h-1.3184a2.1883,2.1883,0,0,1-1.5952-.666A2.1554,2.1554,0,0,1,124.6591,38.51Z"/><path class="cls-1" d="M125.081,45.6158a1.6993,1.6993,0,0,1,.1582-1.3379,1.8442,1.8442,0,0,1,1.0811-.8769,10.512,10.512,0,0,1,1.727-.3428,16.0388,16.0388,0,0,1,1.938-.1182,10.7614,10.7614,0,0,1,1.8525.1445,6.6072,6.6072,0,0,1,1.3907.3829,1.8165,1.8165,0,0,1,.916,1.1992,1.8358,1.8358,0,0,1-1.16,2.1426,2.1183,2.1183,0,0,1-1.0874.0459q-.3824-.0792-.9165-.1387a9.1393,9.1393,0,0,0-.9951-.0586q-.8834,0-1.5688.0527a6.9206,6.9206,0,0,0-1.1075.1582,1.87,1.87,0,0,1-2.228-1.2529Zm.91-7.1055a2.2614,2.2614,0,0,1,2.2544-2.2549,3.82,3.82,0,0,0,2.0566-.3955,1.7678,1.7678,0,0,0,.5669-1.542q0-.449-.0464-1.0288t-.1382-1.3051a2.2406,2.2406,0,0,1,.4615-1.668,2.233,2.233,0,0,1,3.1445-.415,2.2648,2.2648,0,0,1,.8765,1.49,19.69,19.69,0,0,1,.2768,2.9536,6.0986,6.0986,0,0,1-1.8525,4.6992,7.5734,7.5734,0,0,1-5.3457,1.7207,2.2733,2.2733,0,0,1-2.2544-2.2539Z"/><path class="cls-1" d="M142.4169,40.7642A6.1926,6.1926,0,0,1,138.1,39.4a5.1253,5.1253,0,0,1-1.4966-3.9883,7.4291,7.4291,0,0,1,.771-3.4146,6.2984,6.2984,0,0,1,2.05-2.393,4.8639,4.8639,0,0,1,2.8081-.8765,4.98,4.98,0,0,1,3.0322.9819,6.8284,6.8284,0,0,1,2.1226,2.69,10.2957,10.2957,0,0,1,.8964,3.8564h.4219a2.15,2.15,0,0,1,1.5884.6592,2.2671,2.2671,0,0,1,0,3.1836,2.1376,2.1376,0,0,1-1.5884.666H147.519a10.8424,10.8424,0,0,1-2.0566,3.2627,12.1347,12.1347,0,0,1-2.9927,2.3936,11.282,11.282,0,0,1-3.4937,1.292,2.1487,2.1487,0,0,1-1.6811-.3692,2.1982,2.1982,0,0,1-.9556-1.45,2.0268,2.0268,0,0,1,.3755-1.6484,2.6257,2.6257,0,0,1,1.4307-.9883,10.5132,10.5132,0,0,0,2.5117-1.0488,7.6935,7.6935,0,0,0,1.7993-1.4434Zm-.04-4.5088h1.5293a7.3067,7.3067,0,0,0-.31-1.51,3.6707,3.6707,0,0,0-.6-1.18,1.09,1.09,0,0,0-.87-.4614,1.1642,1.1642,0,0,0-.9229.4878,2.17,2.17,0,0,0-.3955,1.3974,1.13,1.13,0,0,0,.3887.9951A2.0776,2.0776,0,0,0,142.3774,36.2554Z"/><path class="cls-1" d="M146.4643,38.4967a2.239,2.239,0,0,1,2.2412-2.2413h.29a3.1011,3.1011,0,0,1,.1186-.3027q.3691-.7778.7778-1.4766c.0088-.0966.0176-.1894.0264-.2773q.0791-.6591.1055-1.417t.0263-1.668q0-1.45-.0659-2.96t-.1582-2.7813q-.0922-1.2721-.1977-2.0107a1.9431,1.9431,0,0,1,.4878-1.6216A2.3157,2.3157,0,0,1,151.54,20.91a2.0786,2.0786,0,0,1,1.7466.4878,2.469,2.469,0,0,1,.8506,1.5293q.1186.7383.2241,1.8457t.1714,2.32q.0659,1.2129.0659,2.2544v.2373a7.8447,7.8447,0,0,1,3.876-1.0546,5.9443,5.9443,0,0,1,2.9.6855,4.87,4.87,0,0,1,1.9512,1.938,5.9942,5.9942,0,0,1,.6988,2.9663,7.1917,7.1917,0,0,1-.1319,1.4111,1.6653,1.6653,0,0,0,.5469.5137,1.9084,1.9084,0,0,0,.9824.2109h.0132a2.15,2.15,0,0,1,1.5884.6592,2.2671,2.2671,0,0,1,0,3.1836,2.1376,2.1376,0,0,1-1.5884.666h-.0132a6.081,6.081,0,0,1-4.311-1.582,10.9733,10.9733,0,0,1-3.7442,1.2,31.6522,31.6522,0,0,1-4.7065.3291h-3.9551a2.1573,2.1573,0,0,1-1.582-.6592A2.1273,2.1273,0,0,1,146.4643,38.4967Zm11.4565-5.4317a3.423,3.423,0,0,0-2.0766.8174,8.79,8.79,0,0,0-2.0235,2.373q2.2017-.0262,3.441-.1709a3.8639,3.8639,0,0,0,1.7465-.5146,1.2259,1.2259,0,0,0,.5079-1.0547,1.3969,1.3969,0,0,0-.4087-1.0615A1.659,1.659,0,0,0,157.9208,33.065Z"/><path class="cls-1" d="M163.1679,38.51a2.1526,2.1526,0,0,1,.6724-1.5957,2.2015,2.2015,0,0,1,1.5952-.6592,5.7333,5.7333,0,0,0,2.3135-.3427,1.6959,1.6959,0,0,0,.9365-1.1407,10.9833,10.9833,0,0,0,.2964-2.1552,2.1722,2.1722,0,0,1,.771-1.6216,2.2644,2.2644,0,0,1,1.6548-.5142,2.1177,2.1177,0,0,1,1.5493.7715,2.1832,2.1832,0,0,1,.5469,1.6279,3.7679,3.7679,0,0,0,.4218,2.5977,2.6087,2.6087,0,0,0,2.1885.7773h.0132a2.15,2.15,0,0,1,1.5884.6592,2.2671,2.2671,0,0,1,0,3.1836,2.1376,2.1376,0,0,1-1.5884.666h-.0132a7.0141,7.0141,0,0,1-2.8081-.5468,4.8765,4.8765,0,0,1-2.1226-1.8262,5.6048,5.6048,0,0,1-2.5444,1.8857,9.8484,9.8484,0,0,1-3.2036.4873,2.1883,2.1883,0,0,1-1.5952-.666A2.1554,2.1554,0,0,1,163.1679,38.51Zm1.6743-11.3647A1.701,1.701,0,0,1,165,25.8072a1.8472,1.8472,0,0,1,1.0811-.8765,10.5272,10.5272,0,0,1,1.727-.3427,16.04,16.04,0,0,1,1.938-.1187,10.7487,10.7487,0,0,1,1.8521.145,6.6047,6.6047,0,0,1,1.3911.3824,1.8193,1.8193,0,0,1,.9165,1.2,1.836,1.836,0,0,1-1.16,2.1421,2.1093,2.1093,0,0,1-1.0878.0463q-.3824-.079-.9161-.1381a8.9286,8.9286,0,0,0-.9956-.06q-.8832,0-1.5688.0527a6.9192,6.9192,0,0,0-1.1074.1582,1.8708,1.8708,0,0,1-2.2281-1.2524Z"/><path class="cls-1" d="M173.873,38.51a2.2614,2.2614,0,0,1,2.2544-2.2549,1.4067,1.4067,0,0,0,1.292-1.0478,9.43,9.43,0,0,0,.435-3.3555q0-.7383-.0727-1.78t-.2305-2.643q-.1583-1.6026-.435-3.9883a2.275,2.275,0,0,1,.4545-1.6743,2.119,2.119,0,0,1,1.4834-.87,2.2146,2.2146,0,0,1,1.6744.4482,2.1409,2.1409,0,0,1,.87,1.49q.356,2.7555.5141,4.6866t.1582,3.5a21.0633,21.0633,0,0,1-.62,5.6753,5.5314,5.5314,0,0,1-1.9712,3.1054,5.9943,5.9943,0,0,1-3.5527.9619A2.2733,2.2733,0,0,1,173.873,38.51Z"/><path class="cls-1" d="M184.1162,24.0343a2.2146,2.2146,0,0,1,.4482-1.6744,2.1409,2.1409,0,0,1,1.49-.87,2.2142,2.2142,0,0,1,1.6744.4483,2.1409,2.1409,0,0,1,.87,1.49q.2373,1.78.3691,3.1245t.1846,2.584q.0526,1.2393.0527,2.7158,0,1.9512-.0727,3.876t-.2041,3.5469A2.1953,2.1953,0,0,1,188.13,40.81a2.2581,2.2581,0,0,1-3.7109-1.9043q.1318-1.6347.2041-3.5273t.0727-3.7637q0-1.2919-.0463-2.3467t-.1709-2.2675Q184.353,25.7877,184.1162,24.0343Z"/><path class="cls-1" d="M203.352,28.7276a4.9609,4.9609,0,0,1,3.1445,1.0679,7.1285,7.1285,0,0,1,2.1421,2.9,10.468,10.468,0,0,1,.7779,4.1269,10.0975,10.0975,0,0,1-.7647,3.9287,11.3036,11.3036,0,0,1-2.0762,3.2754,12.0307,12.0307,0,0,1-2.9863,2.3936,11.2824,11.2824,0,0,1-3.4936,1.292,2.1488,2.1488,0,0,1-1.6812-.3692,2.1982,2.1982,0,0,1-.9556-1.45,2.0276,2.0276,0,0,1,.3755-1.6484,2.626,2.626,0,0,1,1.4307-.9883,10.3211,10.3211,0,0,0,2.5972-1.1015,7.674,7.674,0,0,0,1.8325-1.5225h-.1582a6.3957,6.3957,0,0,1-4.3174-1.2988,4.912,4.912,0,0,1-1.4966-3.9219,7.4291,7.4291,0,0,1,.771-3.4146,6.2992,6.2992,0,0,1,2.05-2.393A4.8641,4.8641,0,0,1,203.352,28.7276Zm-1.4238,6.5a1.13,1.13,0,0,0,.3886.9951,2.0778,2.0778,0,0,0,1.18.27,5.4016,5.4016,0,0,0,.8237-.0595q.389-.0587.7188-.125a7.5929,7.5929,0,0,0-.31-1.5362,3.6755,3.6755,0,0,0-.6064-1.1992,1.1042,1.1042,0,0,0-.877-.4682,1.1157,1.1157,0,0,0-.9228.6064A2.7215,2.7215,0,0,0,201.9282,35.2271Z"/><path class="cls-1" d="M217.5913,33.6451a9.2791,9.2791,0,0,1,.1582-1.6875,14.7847,14.7847,0,0,1,.435-1.74,2.2517,2.2517,0,0,1,4.2979,1.3447,7.8009,7.8009,0,0,0-.2769,1.16,6.3286,6.3286,0,0,0-.0791.9229,3.0154,3.0154,0,0,0,.3892,1.5166,2.6613,2.6613,0,0,0,1.47,1.0869,9.4215,9.4215,0,0,0,3.1377.4024,16.5507,16.5507,0,0,0,4.7988-.58,6.2116,6.2116,0,0,0,2.8936-1.7334A6.0071,6.0071,0,0,0,236.18,31.47a2.2334,2.2334,0,0,1,.8374-1.3579,2.0883,2.0883,0,0,1,1.6016-.4351,2.2208,2.2208,0,0,1,1.49.791,2.1134,2.1134,0,0,1,.5406,1.5953q-.0264.4482-.0459.8569t-.02.791a3.1541,3.1541,0,0,0,.4878,1.8521,2.05,2.05,0,0,0,1.793.6923h.0132a2.15,2.15,0,0,1,1.5884.6592,2.2671,2.2671,0,0,1,0,3.1836,2.1376,2.1376,0,0,1-1.5884.666h-.0132a5.0658,5.0658,0,0,1-2.999-.87A5.4175,5.4175,0,0,1,238,37.5611a10.803,10.803,0,0,1-3.1578,2.1416,15.5473,15.5473,0,0,1-3.7241,1.1211,23.6911,23.6911,0,0,1-3.9946.3359,13.1362,13.1362,0,0,1-4.7656-.8369,7.8761,7.8761,0,0,1-3.4678-2.5049A6.5861,6.5861,0,0,1,217.5913,33.6451Zm7.62,11.1533a2.1113,2.1113,0,0,1,.6128-1.4834,2.0217,2.0217,0,0,1,1.5361-.6523,2.1513,2.1513,0,0,1,1.8984,1.0019,2.0846,2.0846,0,0,1,.3428,1.1338,2.7972,2.7972,0,0,1-.1846.9365,1.9245,1.9245,0,0,1-.666.8828,2.1761,2.1761,0,0,1-1.351.3692,2.1369,2.1369,0,0,1-1.3648-.376,2.0239,2.0239,0,0,1-.6523-.8633A2.7042,2.7042,0,0,1,225.2114,44.7984Z"/><path class="cls-1" d="M239.7128,45.6158a1.6993,1.6993,0,0,1,.1582-1.3379,1.8442,1.8442,0,0,1,1.0811-.8769,10.5162,10.5162,0,0,1,1.727-.3428,16.0388,16.0388,0,0,1,1.938-.1182,10.7618,10.7618,0,0,1,1.8526.1445,6.6061,6.6061,0,0,1,1.3906.3829,1.8162,1.8162,0,0,1,.916,1.1992,1.8358,1.8358,0,0,1-1.16,2.1426,2.1184,2.1184,0,0,1-1.0874.0459q-.3823-.0792-.9165-.1387a9.14,9.14,0,0,0-.9952-.0586q-.8832,0-1.5688.0527a6.9192,6.9192,0,0,0-1.1074.1582,1.8706,1.8706,0,0,1-2.2281-1.2529Zm.91-7.1055a2.2614,2.2614,0,0,1,2.2544-2.2549,3.82,3.82,0,0,0,2.0566-.3955,1.7675,1.7675,0,0,0,.5669-1.542q0-.449-.0464-1.0288t-.1381-1.3051a2.2409,2.2409,0,0,1,.4614-1.668,2.233,2.233,0,0,1,3.1445-.415,2.2648,2.2648,0,0,1,.8765,1.49,19.6764,19.6764,0,0,1,.2768,2.9536,6.0983,6.0983,0,0,1-1.8525,4.6992,7.5734,7.5734,0,0,1-5.3457,1.7207,2.2733,2.2733,0,0,1-2.2544-2.2539Z"/><path class="cls-1" d="M256.5082,30.6129a2.163,2.163,0,0,1,1.3511-.086,2.3031,2.3031,0,0,1,1.0547.6265,2.1608,2.1608,0,0,1,.5606,1.0019,19.9945,19.9945,0,0,1,.6987,5.1021,11.9216,11.9216,0,0,1-.9229,4.8652,9.6193,9.6193,0,0,1-2.5512,3.4737,11.0638,11.0638,0,0,1-3.7242,2.09,2.0976,2.0976,0,0,1-1.8193-.165,2.2474,2.2474,0,0,1-1.0547-1.2989,2.127,2.127,0,0,1,.1846-1.8125,2.3441,2.3441,0,0,1,1.2393-1.0087,6.2215,6.2215,0,0,0,3.0585-2.1163,6.5152,6.5152,0,0,0,1.1075-4.0273,15.8511,15.8511,0,0,0-.58-3.9683,1.9851,1.9851,0,0,1,.2309-1.7138A2.4875,2.4875,0,0,1,256.5082,30.6129Z"/><path class="cls-1" d="M261.5043,37.983a2.0546,2.0546,0,0,1,1.0415-1.3184,2.5041,2.5041,0,0,1,1.74-.2246q.54.0923,1.0019.1514a7.9115,7.9115,0,0,0,1.0152.06,5.5239,5.5239,0,0,0,1.7334-.1973,1.1422,1.1422,0,0,0,.6992-.5274,1.7532,1.7532,0,0,0,.1514-.7382,1.581,1.581,0,0,0-.04-.3565q-.0923-.2505-.1846-.5273a12.97,12.97,0,0,0-.85-1.9707q-.561-1.0744-1.3647-2.3535a2.1547,2.1547,0,0,1-.2637-1.7071A2.2019,2.2019,0,0,1,267.2,26.8687a2.1539,2.1539,0,0,1,1.707-.2636A2.2018,2.2018,0,0,1,270.311,27.62q.8042,1.2787,1.457,2.4849a17.67,17.67,0,0,1,1.1665,2.7226,16.3561,16.3561,0,0,0,.857,2.044,2.7158,2.7158,0,0,0,.8964,1.0673,2.2769,2.2769,0,0,0,1.2393.3164h.0132a2.15,2.15,0,0,1,1.5884.6592,2.2671,2.2671,0,0,1,0,3.1836,2.1376,2.1376,0,0,1-1.5884.666h-.0132a6.5671,6.5671,0,0,1-2.3926-.4023,6.663,6.663,0,0,1-1.813-1.0342,6.2551,6.2551,0,0,1-2.584,1.417,10.5768,10.5768,0,0,1-2.8344.415,13.6522,13.6522,0,0,1-1.5952-.0791,14.94,14.94,0,0,1-1.648-.3164,2.067,2.067,0,0,1-1.3447-1.0615A2.1963,2.1963,0,0,1,261.5043,37.983Z"/><path class="cls-1" d="M273.6728,38.51a2.1526,2.1526,0,0,1,.6724-1.5957,2.2014,2.2014,0,0,1,1.5952-.6592,5.7333,5.7333,0,0,0,2.3135-.3427,1.6959,1.6959,0,0,0,.9365-1.1407,10.9833,10.9833,0,0,0,.2964-2.1552,2.1718,2.1718,0,0,1,.771-1.6216,2.2641,2.2641,0,0,1,1.6547-.5142,2.1167,2.1167,0,0,1,1.5489.7715,2.1787,2.1787,0,0,1,.5468,1.6279,3.78,3.78,0,0,0,.4219,2.5977,2.6109,2.6109,0,0,0,2.19.7773h.0117a2.1532,2.1532,0,0,1,1.59.6592,2.2681,2.2681,0,0,1,0,3.1836,2.1405,2.1405,0,0,1-1.59.666H286.62a7.0127,7.0127,0,0,1-2.8086-.5468,4.8827,4.8827,0,0,1-2.1231-1.8262,5.601,5.601,0,0,1-2.5439,1.8857,9.8484,9.8484,0,0,1-3.2036.4873,2.1882,2.1882,0,0,1-1.5952-.666A2.1554,2.1554,0,0,1,273.6728,38.51Zm1.6743-11.3647a1.701,1.701,0,0,1,.1582-1.3384,1.8472,1.8472,0,0,1,1.0811-.8765,10.5251,10.5251,0,0,1,1.727-.3427,16.04,16.04,0,0,1,1.938-.1187,10.76,10.76,0,0,1,1.8526.145,6.6252,6.6252,0,0,1,1.3906.3824,1.8189,1.8189,0,0,1,.916,1.2,1.8335,1.8335,0,0,1-1.16,2.1421,2.1092,2.1092,0,0,1-1.0879.0463c-.2539-.0527-.5605-.0991-.9155-.1381a8.9286,8.9286,0,0,0-.9956-.06q-.8833,0-1.5688.0527a6.9206,6.9206,0,0,0-1.1075.1582,1.8707,1.8707,0,0,1-2.228-1.2524Z"/><path class="cls-1" d="M284.3784,38.51a2.2606,2.2606,0,0,1,2.2539-2.2549,6.03,6.03,0,0,0,1.45-.125.8079.8079,0,0,0,.6-.5605,4.7,4.7,0,0,0,.1386-1.3311q0-2.0046-.0722-3.7773T288.55,26.961q-.1245-1.7271-.31-3.6123a2.14,2.14,0,0,1,.5146-1.6548,2.2207,2.2207,0,0,1,1.5293-.81,2.156,2.156,0,0,1,1.6475.5078,2.2015,2.2015,0,0,1,.8174,1.5356q.2636,2.8081.415,5.4185t.165,5.6557a2.1614,2.1614,0,0,1,.0137.2378,2.207,2.207,0,0,0,.4346,1.628,2.7109,2.7109,0,0,0,1.7275.3886h.0127a2.153,2.153,0,0,1,1.5889.6592,2.2684,2.2684,0,0,1,0,3.1836,2.14,2.14,0,0,1-1.5889.666h-.0127a7.73,7.73,0,0,1-2.3535-.3623,6.33,6.33,0,0,1-2.0371-1.0742,6.9393,6.9393,0,0,1-4.4824,1.4365,2.2724,2.2724,0,0,1-2.2539-2.2539Z"/><path class="cls-1" d="M293.2641,38.51a2.2606,2.2606,0,0,1,2.2539-2.2549,1.4066,1.4066,0,0,0,1.292-1.0478,9.4317,9.4317,0,0,0,.4346-3.3555q0-.7383-.0723-1.78t-.2305-2.643q-.1581-1.6026-.4355-3.9883a2.2776,2.2776,0,0,1,.4551-1.6743,2.12,2.12,0,0,1,1.4834-.87,2.2167,2.2167,0,0,1,1.6748.4482,2.1393,2.1393,0,0,1,.8691,1.49q.3574,2.7555.5147,4.6866t.1582,3.5a21.0647,21.0647,0,0,1-.62,5.6753,5.5284,5.5284,0,0,1-1.9708,3.1054,5.993,5.993,0,0,1-3.5527.9619,2.2724,2.2724,0,0,1-2.2539-2.2539Z"/><path class="cls-1" d="M310.5747,34.1724q0-1.78.0273-3.3418.0249-1.563.0254-3.23t-.0918-3.7242a2.2368,2.2368,0,0,1,.6064-1.6284,2.2621,2.2621,0,0,1,3.9151,1.4439q.0923,2.0171.0928,3.6977t-.0333,3.29q-.0321,1.6083-.0322,3.4282a2.3591,2.3591,0,0,0,.4678,1.667,2.1559,2.1559,0,0,0,1.5889.4814h.0127a2.1526,2.1526,0,0,1,1.5888.6592,2.2681,2.2681,0,0,1,0,3.1836,2.14,2.14,0,0,1-1.5888.666h-.0127a8.4151,8.4151,0,0,1-3.4551-.6591,4.8437,4.8437,0,0,1-2.293-2.1094A7.75,7.75,0,0,1,310.5747,34.1724Z"/><path class="cls-1" d="M313.99,45.6158a1.6993,1.6993,0,0,1,.1582-1.3379,1.8442,1.8442,0,0,1,1.0811-.8769,10.5186,10.5186,0,0,1,1.7275-.3428,16.0183,16.0183,0,0,1,1.9375-.1182,10.7614,10.7614,0,0,1,1.8525.1445,6.6072,6.6072,0,0,1,1.3907.3829,1.815,1.815,0,0,1,.916,1.1992,1.837,1.837,0,0,1-1.16,2.1426,2.1167,2.1167,0,0,1-1.0869.0459c-.2559-.0528-.56-.0987-.917-.1387a9.1393,9.1393,0,0,0-.9951-.0586q-.8834,0-1.5684.0527a6.9209,6.9209,0,0,0-1.1074.1582,1.8706,1.8706,0,0,1-2.2285-1.2529Zm.8965-7.1055a2.1559,2.1559,0,0,1,.6719-1.5957,2.2041,2.2041,0,0,1,1.5957-.6592,5.7314,5.7314,0,0,0,2.3134-.3427,1.695,1.695,0,0,0,.9366-1.1407,10.9712,10.9712,0,0,0,.2968-2.1552,2.17,2.17,0,0,1,.77-1.6216,2.2663,2.2663,0,0,1,1.6553-.5142,2.1181,2.1181,0,0,1,1.5488.7715,2.1828,2.1828,0,0,1,.5469,1.6279,3.7684,3.7684,0,0,0,.4219,2.5977,2.6087,2.6087,0,0,0,2.1885.7773h.0127a2.151,2.151,0,0,1,1.5888.6592,2.2656,2.2656,0,0,1,0,3.1836,2.1383,2.1383,0,0,1-1.5888.666h-.0127a7.0109,7.0109,0,0,1-2.8076-.5468,4.8771,4.8771,0,0,1-2.1231-1.8262,5.6066,5.6066,0,0,1-2.5449,1.8857,9.8453,9.8453,0,0,1-3.2031.4873,2.1909,2.1909,0,0,1-1.5957-.666A2.1587,2.1587,0,0,1,314.8862,38.51Z"/><path class="cls-1" d="M325.5913,38.51a2.2606,2.2606,0,0,1,2.2539-2.2549,3.82,3.82,0,0,0,2.0566-.3955,1.7677,1.7677,0,0,0,.5664-1.542c0-.2993-.0146-.642-.0459-1.0288s-.0771-.8217-.1377-1.3051a2.2359,2.2359,0,0,1,.461-1.668,2.2332,2.2332,0,0,1,3.1445-.415,2.2688,2.2688,0,0,1,.8769,1.49,19.8019,19.8019,0,0,1,.2764,2.9536,6.0969,6.0969,0,0,1-1.8525,4.6992,7.5726,7.5726,0,0,1-5.3457,1.7207,2.2724,2.2724,0,0,1-2.2539-2.2539Zm1.041,6.2881a2.1075,2.1075,0,0,1,.6133-1.4834,2.0182,2.0182,0,0,1,1.5351-.6523,2.1513,2.1513,0,0,1,1.8984,1.0019,2.0858,2.0858,0,0,1,.3438,1.1338,2.8027,2.8027,0,0,1-.1855.9365,1.9265,1.9265,0,0,1-.6651.8828,2.1788,2.1788,0,0,1-1.3516.3692,2.1343,2.1343,0,0,1-1.3642-.376,2.021,2.021,0,0,1-.6524-.8633A2.7069,2.7069,0,0,1,326.6323,44.7984Z"/><path class="cls-1" d="M342.017,40.7642A6.1926,6.1926,0,0,1,337.7,39.4a5.125,5.125,0,0,1-1.4961-3.9883,7.4289,7.4289,0,0,1,.7705-3.4146,6.2972,6.2972,0,0,1,2.05-2.393,4.8654,4.8654,0,0,1,2.8086-.8765,4.98,4.98,0,0,1,3.0322.9819,6.8274,6.8274,0,0,1,2.1221,2.69,10.2957,10.2957,0,0,1,.8964,3.8564h.4219a2.1514,2.1514,0,0,1,1.5889.6592,2.2659,2.2659,0,0,1,0,3.1836,2.1387,2.1387,0,0,1-1.5889.666H347.12a10.88,10.88,0,0,1-2.0567,3.2627,12.1514,12.1514,0,0,1-2.9931,2.3936,11.2793,11.2793,0,0,1-3.4932,1.292,2.1494,2.1494,0,0,1-1.6816-.3692,2.1958,2.1958,0,0,1-.9551-1.45,2.0251,2.0251,0,0,1,.375-1.6484,2.6275,2.6275,0,0,1,1.4307-.9883,10.5132,10.5132,0,0,0,2.5117-1.0488,7.7174,7.7174,0,0,0,1.8-1.4434Zm-.04-4.5088h1.5293a7.2737,7.2737,0,0,0-.31-1.51,3.6607,3.6607,0,0,0-.6-1.18,1.09,1.09,0,0,0-.87-.4614,1.1642,1.1642,0,0,0-.9229.4878,2.17,2.17,0,0,0-.3955,1.3974,1.1313,1.1313,0,0,0,.3887.9951A2.0771,2.0771,0,0,0,341.977,36.2554Z"/><path class="cls-1" d="M346.0375,38.51a2.1563,2.1563,0,0,1,.6719-1.5957,2.2043,2.2043,0,0,1,1.5957-.6592,5.7317,5.7317,0,0,0,2.3135-.3427,1.6946,1.6946,0,0,0,.9365-1.1407,10.9625,10.9625,0,0,0,.2969-2.1552,2.17,2.17,0,0,1,.7705-1.6216,2.2663,2.2663,0,0,1,1.6553-.5142,2.1184,2.1184,0,0,1,1.5488.7715,2.1832,2.1832,0,0,1,.5469,1.6279,3.7678,3.7678,0,0,0,.4219,2.5977,2.6086,2.6086,0,0,0,2.1884.7773h.0127a2.1512,2.1512,0,0,1,1.5889.6592,2.2659,2.2659,0,0,1,0,3.1836,2.1385,2.1385,0,0,1-1.5889.666h-.0127a7.0116,7.0116,0,0,1-2.8076-.5468,4.8775,4.8775,0,0,1-2.123-1.8262,5.6063,5.6063,0,0,1-2.545,1.8857,9.8453,9.8453,0,0,1-3.2031.4873,2.1911,2.1911,0,0,1-1.5957-.666A2.1591,2.1591,0,0,1,346.0375,38.51Zm3.2168-11.6416a2.1075,2.1075,0,0,1,.6133-1.4834,2.0186,2.0186,0,0,1,1.5352-.6523,2.1857,2.1857,0,0,1,1.16.29,2.2089,2.2089,0,0,1,.7383.7119,2.0866,2.0866,0,0,1,.3438,1.1338,2.7989,2.7989,0,0,1-.1856.9361,1.9279,1.9279,0,0,1-.665.8833,2.1788,2.1788,0,0,1-1.3516.3691,2.1343,2.1343,0,0,1-1.3642-.376,2.013,2.013,0,0,1-.6524-.8633A2.6845,2.6845,0,0,1,349.2543,26.8687Z"/><path class="cls-1" d="M355.8334,45.6158a1.6993,1.6993,0,0,1,.1582-1.3379,1.8445,1.8445,0,0,1,1.0811-.8769,10.5229,10.5229,0,0,1,1.7275-.3428,16.02,16.02,0,0,1,1.9375-.1182,10.7618,10.7618,0,0,1,1.8526.1445,6.6061,6.6061,0,0,1,1.3906.3829,1.8147,1.8147,0,0,1,.916,1.1992,1.8371,1.8371,0,0,1-1.16,2.1426,2.1167,2.1167,0,0,1-1.0869.0459c-.2559-.0528-.5606-.0987-.917-.1387a9.14,9.14,0,0,0-.9952-.0586q-.8832,0-1.5683.0527a6.9192,6.9192,0,0,0-1.1074.1582,1.8708,1.8708,0,0,1-2.2286-1.2529Zm.91-7.1055a2.2606,2.2606,0,0,1,2.2539-2.2549,3.82,3.82,0,0,0,2.0566-.3955,1.7674,1.7674,0,0,0,.5665-1.542c0-.2993-.0147-.642-.0459-1.0288s-.0772-.8217-.1377-1.3051a2.2363,2.2363,0,0,1,.4609-1.668,2.2332,2.2332,0,0,1,3.1445-.415,2.2693,2.2693,0,0,1,.877,1.49,19.8,19.8,0,0,1,.2763,2.9536,6.0965,6.0965,0,0,1-1.8525,4.6992,7.5726,7.5726,0,0,1-5.3457,1.7207,2.2724,2.2724,0,0,1-2.2539-2.2539Z"/><path class="cls-1" d="M371.2045,33.2364a1.7092,1.7092,0,0,1-.0254-1.147,2.3161,2.3161,0,0,1,.6456-.9951,2.3465,2.3465,0,0,1,1.0673-.5737,1.9949,1.9949,0,0,1,.6465-.0528,2.1064,2.1064,0,0,1,1.3379.5406,2.24,2.24,0,0,1,.7188,1.1469l.0263.0791a8.3635,8.3635,0,0,0,1.4043,3.1441,2.2494,2.2494,0,0,0,1.7071.8769h.0127a2.151,2.151,0,0,1,1.5888.6592,2.2659,2.2659,0,0,1,0,3.1836,2.1383,2.1383,0,0,1-1.5888.666h-.0127a4.5137,4.5137,0,0,1-1.3907-.2177,6.1445,6.1445,0,0,1-1.3115-.6,9.6836,9.6836,0,0,1-2.4726,4.9375,10.9436,10.9436,0,0,1-4.4629,2.8017,2.0953,2.0953,0,0,1-1.8184-.165,2.2436,2.2436,0,0,1-1.0547-1.2989,2.1306,2.1306,0,0,1,.1836-1.8125,2.3426,2.3426,0,0,1,1.24-1.0087,6.2259,6.2259,0,0,0,3.0586-2.1163,6.5152,6.5152,0,0,0,1.1075-4.0273,15.8089,15.8089,0,0,0-.5674-3.9155A.5175.5175,0,0,0,371.2045,33.2364Z"/><path class="cls-1" d="M376.4916,38.51a2.2607,2.2607,0,0,1,2.254-2.2549,3.82,3.82,0,0,0,2.0566-.3955,1.7677,1.7677,0,0,0,.5664-1.542c0-.2993-.0146-.642-.0459-1.0288s-.0771-.8217-.1377-1.3051a2.2363,2.2363,0,0,1,.4609-1.668,2.2333,2.2333,0,0,1,3.1446-.415,2.2688,2.2688,0,0,1,.8769,1.49,19.8019,19.8019,0,0,1,.2764,2.9536,6.0969,6.0969,0,0,1-1.8525,4.6992,7.5726,7.5726,0,0,1-5.3457,1.7207,2.2726,2.2726,0,0,1-2.254-2.2539Zm.7911-12.1294a1.6924,1.6924,0,0,1,.1582-1.3383,1.845,1.845,0,0,1,1.08-.8765,10.5539,10.5539,0,0,1,1.7276-.3428,16.0356,16.0356,0,0,1,1.9385-.1186,10.7282,10.7282,0,0,1,1.8515.145,6.5912,6.5912,0,0,1,1.3906.3823,1.82,1.82,0,0,1,.917,1.2,1.836,1.836,0,0,1-1.16,2.1421,2.1087,2.1087,0,0,1-1.0879.0464q-.3823-.0791-.916-.1382a8.9594,8.9594,0,0,0-.9951-.06q-.8849,0-1.5694.0528a6.91,6.91,0,0,0-1.1074.1582,1.8693,1.8693,0,0,1-2.2275-1.2525Z"/><path class="cls-1" d="M127.5717,78.982a2.7757,2.7757,0,0,1-.3095,1.167,3.2084,3.2084,0,0,1-.91,1.1338,2.3117,2.3117,0,0,1-1.4961.4814,3.4549,3.4549,0,0,1-1.1733-.2568,2.9558,2.9558,0,0,1-1.2066-.8633,2.4489,2.4489,0,0,1-.52-1.6484,2.8574,2.8574,0,0,1,2.8477-2.8477,2.4729,2.4729,0,0,1,1.49.4483,3.0188,3.0188,0,0,1,.9492,1.1074A2.8523,2.8523,0,0,1,127.5717,78.982ZM123.92,59.92a2.1343,2.1343,0,0,1,1.6675.4414,2.2186,2.2186,0,0,1,.8769,1.4961q.2505,1.8062.3823,3.25t.1846,2.9268q.0528,1.4823.0527,3.4072v.8047c0,.2812-.0044.5664-.0132.8574a2.095,2.095,0,0,1-.6723,1.5488,2.2339,2.2339,0,0,1-1.5952.626,2.1809,2.1809,0,0,1-1.6016-.666,2.12,2.12,0,0,1-.6528-1.5889q.0132-.3954.0132-.7969V71.441q0-1.8838-.0459-3.2754t-.1719-2.7158q-.1252-1.3257-.3623-2.9863a2.14,2.14,0,0,1,.4414-1.668A2.222,2.222,0,0,1,123.92,59.92Z"/><path class="cls-1" d="M134.6372,74.2359a1.7127,1.7127,0,0,1-.0264-1.1465,2.4123,2.4123,0,0,1,1.7139-1.5683,1.9914,1.9914,0,0,1,.646-.0528,2.1016,2.1016,0,0,1,1.3378.54,2.2441,2.2441,0,0,1,.7188,1.1474l.0264.0782a8.3558,8.3558,0,0,0,1.4043,3.1445,2.2492,2.2492,0,0,0,1.707.8769h.0132a2.15,2.15,0,0,1,1.5883.6592,2.2669,2.2669,0,0,1,0,3.1836,2.1372,2.1372,0,0,1-1.5883.666h-.0132a4.513,4.513,0,0,1-1.3906-.2177,6.1438,6.1438,0,0,1-1.312-.6,9.6793,9.6793,0,0,1-2.4722,4.9375,10.942,10.942,0,0,1-4.4624,2.8007,2.0974,2.0974,0,0,1-1.8194-.164,2.2472,2.2472,0,0,1-1.0546-1.2989,2.1267,2.1267,0,0,1,.1845-1.8125,2.3441,2.3441,0,0,1,1.2393-1.0087,6.2218,6.2218,0,0,0,3.0586-2.1163,6.5152,6.5152,0,0,0,1.1074-4.0273,15.813,15.813,0,0,0-.5669-3.916A.5662.5662,0,0,0,134.6372,74.2359Zm-.3033-7.3027a2.1058,2.1058,0,0,1,.6133-1.4834,2.0159,2.0159,0,0,1,1.5357-.6524,2.1848,2.1848,0,0,1,1.16.29,2.207,2.207,0,0,1,.7383.7119,2.0851,2.0851,0,0,1,.3428,1.1338,2.7949,2.7949,0,0,1-.1846.9355,1.93,1.93,0,0,1-.6655.8838,2.1788,2.1788,0,0,1-1.3516.3692,2.14,2.14,0,0,1-1.3642-.376,2.0282,2.0282,0,0,1-.6529-.8633A2.7064,2.7064,0,0,1,134.3339,66.9332Z"/><path class="cls-1" d="M139.9106,79.5094a2.1521,2.1521,0,0,1,.6724-1.5948,2.2014,2.2014,0,0,1,1.5952-.6592h1.3183a2.1945,2.1945,0,0,1,1.6016.6592,2.2578,2.2578,0,0,1-1.6016,3.85h-1.3183a2.1882,2.1882,0,0,1-1.5952-.666A2.1575,2.1575,0,0,1,139.9106,79.5094Z"/><path class="cls-1" d="M140.3325,86.6158a1.6988,1.6988,0,0,1,.1582-1.3379,1.844,1.844,0,0,1,1.081-.8769,10.5154,10.5154,0,0,1,1.7271-.3428,16.0412,16.0412,0,0,1,1.938-.1192,10.7555,10.7555,0,0,1,1.8525.1455,6.61,6.61,0,0,1,1.3906.3819,1.818,1.818,0,0,1,.916,1.2,1.8358,1.8358,0,0,1-1.16,2.1426,2.1184,2.1184,0,0,1-1.0874.0459q-.3824-.0792-.9165-.1387a9.1393,9.1393,0,0,0-.9951-.0586c-.5889,0-1.1119.0166-1.5689.0527a6.6978,6.6978,0,0,0-1.1074.1582,1.8727,1.8727,0,0,1-2.228-1.2529Zm.8965-7.1064a2.1524,2.1524,0,0,1,.6723-1.5948,2.2017,2.2017,0,0,1,1.5952-.6592,5.7333,5.7333,0,0,0,2.3135-.3427,1.6959,1.6959,0,0,0,.9365-1.1407,10.968,10.968,0,0,0,.2964-2.1552,2.1714,2.1714,0,0,1,.771-1.6211,2.2647,2.2647,0,0,1,1.6548-.5147,2.116,2.116,0,0,1,1.5493.7715,2.1826,2.1826,0,0,1,.5469,1.6279,3.7678,3.7678,0,0,0,.4219,2.5977,2.6086,2.6086,0,0,0,2.1884.7773h.0132a2.15,2.15,0,0,1,1.5884.6592,2.2671,2.2671,0,0,1,0,3.1836,2.1376,2.1376,0,0,1-1.5884.666h-.0132a7.0141,7.0141,0,0,1-2.8081-.5468,4.8763,4.8763,0,0,1-2.1225-1.8262A5.6115,5.6115,0,0,1,146.7,81.2769a9.8749,9.8749,0,0,1-3.2036.4873,2.1885,2.1885,0,0,1-1.5952-.666A2.1578,2.1578,0,0,1,141.229,79.5094Z"/><path class="cls-1" d="M151.934,79.5094a2.2616,2.2616,0,0,1,2.2544-2.254,1.8027,1.8027,0,0,0,1.5293-.8369,19.824,19.824,0,0,0,1.4238-2.5117q.4615-.9228.91-1.7334a9.9415,9.9415,0,0,1,.9361-1.418.247.247,0,0,1,.0659-.0654,1.88,1.88,0,0,1,1.0483-.6728,2.3928,2.3928,0,0,1,1.2456.0136,2.2835,2.2835,0,0,1,.8306.4356l.0263.0254a2.255,2.255,0,0,1,1.5821-.5274,2.1409,2.1409,0,0,1,1.5029.6729c.07.0791.1406.1543.2109.2236q.3561.3706.6724.7383a9.4688,9.4688,0,0,1,1.1011,1.5234,13.2342,13.2342,0,0,1,.7446,1.6407,6.2663,6.2663,0,0,0,1.0347,1.9648,1.903,1.903,0,0,0,1.457.5273h.0132a2.15,2.15,0,0,1,1.5884.6592,2.2671,2.2671,0,0,1,0,3.1836,2.1376,2.1376,0,0,1-1.5884.666H170.51a7.1218,7.1218,0,0,1-2.0762-.2763,5.79,5.79,0,0,1-1.5756-.7383,6.34,6.34,0,0,1-4.3506,1.41,7.64,7.64,0,0,1-2.7554-.4482,4.83,4.83,0,0,1-1.8853-1.2529,6.14,6.14,0,0,1-1.6284.9433,5.5386,5.5386,0,0,1-2.05.3623,2.2734,2.2734,0,0,1-2.2544-2.2548Zm8.9385-2.9786q0,1.1207,1.5161,1.12,1.437,0,1.437-1.0811a2.2816,2.2816,0,0,0-.3823-1.18,7.4841,7.4841,0,0,0-1.2261-1.4307q-.3954.501-.6591.9092-.1978.3165-.356.5938A2.3658,2.3658,0,0,0,160.8725,76.5308Z"/><path class="cls-1" d="M168.2553,79.5094a2.1521,2.1521,0,0,1,.6724-1.5948,2.2015,2.2015,0,0,1,1.5952-.6592,5.7333,5.7333,0,0,0,2.3135-.3427,1.6959,1.6959,0,0,0,.9365-1.1407,10.9833,10.9833,0,0,0,.2964-2.1552,2.1711,2.1711,0,0,1,.771-1.6211,2.2647,2.2647,0,0,1,1.6548-.5147,2.116,2.116,0,0,1,1.5493.7715,2.1826,2.1826,0,0,1,.5469,1.6279,3.7679,3.7679,0,0,0,.4218,2.5977,2.6087,2.6087,0,0,0,2.1885.7773h.0132a2.15,2.15,0,0,1,1.5884.6592,2.2671,2.2671,0,0,1,0,3.1836,2.1376,2.1376,0,0,1-1.5884.666h-.0132a7.0141,7.0141,0,0,1-2.8081-.5468,4.8765,4.8765,0,0,1-2.1226-1.8262,5.6113,5.6113,0,0,1-2.5444,1.8857,9.8753,9.8753,0,0,1-3.2036.4873,2.1883,2.1883,0,0,1-1.5952-.666A2.1575,2.1575,0,0,1,168.2553,79.5094ZM169.93,68.1461a1.7021,1.7021,0,0,1,.1582-1.3389,1.8465,1.8465,0,0,1,1.0811-.876,10.5272,10.5272,0,0,1,1.727-.3427,16.0412,16.0412,0,0,1,1.938-.1192,10.7357,10.7357,0,0,1,1.8521.1455,6.6066,6.6066,0,0,1,1.3911.3819,1.82,1.82,0,0,1,.9165,1.2,1.8351,1.8351,0,0,1-1.16,2.1416,2.1093,2.1093,0,0,1-1.0878.0468c-.2549-.0527-.5606-.1-.9161-.1386a8.9286,8.9286,0,0,0-.9956-.06q-.8832,0-1.5688.0527a6.9192,6.9192,0,0,0-1.1074.1582,1.8711,1.8711,0,0,1-2.2281-1.2519Z"/><path class="cls-1" d="M178.96,79.5094a2.2614,2.2614,0,0,1,2.2544-2.254,1.4067,1.4067,0,0,0,1.292-1.0478,9.43,9.43,0,0,0,.435-3.3555q0-.7383-.0727-1.78-.0726-1.04-.2305-2.6426t-.435-3.9883a2.2733,2.2733,0,0,1,.4546-1.6738,2.1187,2.1187,0,0,1,1.4833-.87,2.2146,2.2146,0,0,1,1.6744.4483,2.14,2.14,0,0,1,.87,1.4892q.356,2.7555.5141,4.6866t.1582,3.5a21.0623,21.0623,0,0,1-.62,5.6758,5.5349,5.5349,0,0,1-1.9712,3.1054,6.0014,6.0014,0,0,1-3.5527.9619,2.2733,2.2733,0,0,1-2.2544-2.2548Z"/><path class="cls-1" d="M189.2036,65.0347a2.2156,2.2156,0,0,1,.4482-1.6748,2.1409,2.1409,0,0,1,1.49-.87,2.2142,2.2142,0,0,1,1.6744.4483,2.1419,2.1419,0,0,1,.87,1.49q.2373,1.78.3691,3.124t.1846,2.584q.0528,1.2393.0527,2.7158,0,1.9512-.0727,3.876t-.2041,3.5469a2.1972,2.1972,0,0,1-.7979,1.5351,2.2581,2.2581,0,0,1-3.7109-1.9043q.1318-1.6347.2041-3.5273t.0727-3.7637q0-1.2919-.0463-2.3467t-.1709-2.2675Q189.44,66.7877,189.2036,65.0347Z"/><path class="cls-1" d="M207.539,69.7281a4.9605,4.9605,0,0,1,3.1445,1.0674,7.1285,7.1285,0,0,1,2.1421,2.9,10.4635,10.4635,0,0,1,.7779,4.126,10.1024,10.1024,0,0,1-.7647,3.93,11.317,11.317,0,0,1-2.0762,3.2754,12.0267,12.0267,0,0,1-2.9863,2.3926,11.3092,11.3092,0,0,1-3.4936,1.293,2.1566,2.1566,0,0,1-1.6812-.3692,2.2006,2.2006,0,0,1-.9556-1.4511,2.0263,2.0263,0,0,1,.3755-1.6475,2.6277,2.6277,0,0,1,1.4307-.9893,10.3188,10.3188,0,0,0,2.5972-1.1,7.674,7.674,0,0,0,1.8325-1.5225h-.1582a6.3957,6.3957,0,0,1-4.3174-1.2988,4.9123,4.9123,0,0,1-1.4966-3.9219,7.427,7.427,0,0,1,.771-3.4141,6.3017,6.3017,0,0,1,2.05-2.3935A4.8636,4.8636,0,0,1,207.539,69.7281Zm-1.4238,6.499a1.13,1.13,0,0,0,.3887.9951,2.0772,2.0772,0,0,0,1.18.27,5.4039,5.4039,0,0,0,.8238-.0595q.3888-.0587.7187-.125a7.586,7.586,0,0,0-.31-1.5362,3.6714,3.6714,0,0,0-.6064-1.1992,1.1022,1.1022,0,0,0-.877-.4677,1.1166,1.1166,0,0,0-.9228.6054A2.7244,2.7244,0,0,0,206.1152,76.2271Z"/><path class="cls-1" d="M221.142,81.5269a8.2053,8.2053,0,0,1,.9361-3.8427,9.9924,9.9924,0,0,1,2.5576-3.1319,5.5575,5.5575,0,0,1-1.3711-1.8056,5.13,5.13,0,0,1-.4878-2.2276,7.3988,7.3988,0,0,1,.89-3.6328,6.8272,6.8272,0,0,1,2.4121-2.5576,6.35,6.35,0,0,1,3.4083-.9424,7.496,7.496,0,0,1,3.955,1.1475,2.2342,2.2342,0,0,1,.7251,3.0976,2.0305,2.0305,0,0,1-1.3247.93,2.7857,2.7857,0,0,1-1.8-.2041,3.6448,3.6448,0,0,0-1.5161-.3691,2.1824,2.1824,0,0,0-1.6216.6259,2.2339,2.2339,0,0,0-.62,1.6416,1.4405,1.4405,0,0,0,.5737,1.2784,3.3106,3.3106,0,0,0,1.8389.3955q.4087,0,.9888-.0528a14.8317,14.8317,0,0,1,2.1753-.1845h.0131a2.4625,2.4625,0,0,1,.6724.0654v.0137a.1184.1184,0,0,1,.0527.0136h.0264a56.4372,56.4372,0,0,1,.0791.0254.012.012,0,0,1,.0132.0137,2.2509,2.2509,0,0,1,1.0942.8047,2.2253,2.2253,0,0,1-.1513,2.8271,2.2068,2.2068,0,0,1-1.4307.7315.8627.8627,0,0,1-.1582.0137c-.1318.0087-.2832.0136-.4551.0136a6.9517,6.9517,0,0,0-.7842.0655.614.614,0,0,1-.1186.0127,8.3758,8.3758,0,0,0-3.0322,1.0293,6.8953,6.8953,0,0,0-2.1885,1.9238,4.0571,4.0571,0,0,0-.8174,2.4131,2.7726,2.7726,0,0,0,1.2788,2.4257,6.3235,6.3235,0,0,0,3.5859.87,9.6742,9.6742,0,0,0,4.4165-.9356,2.1987,2.1987,0,0,1,1.7339-.1328,2.1325,2.1325,0,0,1,1.3116,1.1074,2.1557,2.1557,0,0,1,.1318,1.7149,2.1845,2.1845,0,0,1-1.1074,1.3183,13.4752,13.4752,0,0,1-6.2491,1.4366,11.8156,11.8156,0,0,1-5.0229-1.0088,8.1325,8.1325,0,0,1-3.395-2.8008A7.1653,7.1653,0,0,1,221.142,81.5269Z"/><path class="cls-1" d="M236.329,65.0347a2.2157,2.2157,0,0,1,.4483-1.6748,2.1409,2.1409,0,0,1,1.49-.87,2.2142,2.2142,0,0,1,1.6744.4483,2.1419,2.1419,0,0,1,.87,1.49q.2373,1.78.3691,3.124t.1846,2.584q.0526,1.2393.0527,2.7158,0,1.9512-.0727,3.876t-.2041,3.5469a2.1972,2.1972,0,0,1-.7979,1.5351,2.2581,2.2581,0,0,1-3.7109-1.9043q.1319-1.6347.2041-3.5273t.0727-3.7637q0-1.2919-.0464-2.3467t-.1709-2.2675Q236.566,66.7877,236.329,65.0347Z"/><path class="cls-1" d="M242.8281,78.982a2.0592,2.0592,0,0,1,1.0415-1.3184,2.509,2.509,0,0,1,1.74-.2236q.5406.0922,1.002.1514a7.91,7.91,0,0,0,1.0151.06,5.4873,5.4873,0,0,0,1.7334-.1983,1.1351,1.1351,0,0,0,.6992-.5273,1.7475,1.7475,0,0,0,.1514-.7383,1.5786,1.5786,0,0,0-.04-.3555q-.0923-.2505-.1845-.5273a12.9687,12.9687,0,0,0-.85-1.9707q-.5611-1.0752-1.3648-2.3535a2.1543,2.1543,0,0,1-.2637-1.7071,2.2035,2.2035,0,0,1,1.0152-1.4043,2.154,2.154,0,0,1,1.707-.2636,2.2022,2.2022,0,0,1,1.4043,1.0156q.8041,1.2788,1.457,2.4844a17.66,17.66,0,0,1,1.1665,2.7226,16.2827,16.2827,0,0,0,.857,2.043,2.7125,2.7125,0,0,0,.8965,1.0683,2.2766,2.2766,0,0,0,1.2392.3164h.0132a2.15,2.15,0,0,1,1.5884.6592,2.2671,2.2671,0,0,1,0,3.1836,2.1376,2.1376,0,0,1-1.5884.666h-.0132a6.5675,6.5675,0,0,1-2.3926-.4023,6.6609,6.6609,0,0,1-1.8129-1.0342,6.2671,6.2671,0,0,1-2.584,1.417,10.578,10.578,0,0,1-2.8345.415,13.6534,13.6534,0,0,1-1.5952-.0791,14.94,14.94,0,0,1-1.648-.3164,2.0673,2.0673,0,0,1-1.3447-1.0615A2.1978,2.1978,0,0,1,242.8281,78.982Z"/><path class="cls-1" d="M255.01,79.5094a2.2614,2.2614,0,0,1,2.2544-2.254,3.82,3.82,0,0,0,2.0566-.3955,1.7687,1.7687,0,0,0,.5669-1.542q0-.4482-.0463-1.0293-.0462-.5786-.1382-1.3046a2.2409,2.2409,0,0,1,.4614-1.668,2.233,2.233,0,0,1,3.1445-.415,2.266,2.266,0,0,1,.8765,1.4892,19.69,19.69,0,0,1,.2769,2.9531,6.0991,6.0991,0,0,1-1.8526,4.7,7.5734,7.5734,0,0,1-5.3457,1.7207,2.2733,2.2733,0,0,1-2.2544-2.2548Zm1.0415,6.289a2.1075,2.1075,0,0,1,.6133-1.4834,2.0193,2.0193,0,0,1,1.5356-.6523,2.1858,2.1858,0,0,1,1.16.29,2.2089,2.2089,0,0,1,.7383.7119,2.0854,2.0854,0,0,1,.3428,1.1338,2.7908,2.7908,0,0,1-.1846.9356,1.9252,1.9252,0,0,1-.6655.8837,2.1788,2.1788,0,0,1-1.3516.3692,2.1353,2.1353,0,0,1-1.3643-.376,2.026,2.026,0,0,1-.6528-.8633A2.7042,2.7042,0,0,1,256.0512,85.7984Z"/><path class="cls-1" d="M265.6616,79.0875a2.1944,2.1944,0,0,1,.81-1.5489,2.0961,2.0961,0,0,1,1.6416-.5078q.9492.1069,1.6612.1582c.4746.0362.9536.0528,1.437.0528a11.7223,11.7223,0,0,0,3.3881-.3887,3.464,3.464,0,0,0,1.7666-1.0742,2.4649,2.4649,0,0,0,.5274-1.543q0-1.5147-.0659-3.289-.066-1.7726-.1909-3.4805t-.2969-3.0117a2.26,2.26,0,0,1,4.4824-.58q.1977,1.4766.33,3.2754t.2046,3.6386q.0717,1.84.0722,3.4473a6.5956,6.5956,0,0,1-1.1469,3.7969,7.6061,7.6061,0,0,1-3.5532,2.67,16.46,16.46,0,0,1-6.1631.9824q-.7251,0-1.3711-.0332t-1.4766-.125a2.2955,2.2955,0,0,1-1.5293-.8105A2.1269,2.1269,0,0,1,265.6616,79.0875Zm.1054,10.7578a1.0742,1.0742,0,0,1,.6592-1.3438l1.002-.3437a3.1309,3.1309,0,0,1-.7647-2.1875,3.0946,3.0946,0,0,1,.8633-2.2481,3.3044,3.3044,0,0,1,2.4854-.8906,5.3116,5.3116,0,0,1,.87.0664,1.0794,1.0794,0,0,1,.7051.4024.977.977,0,0,1,.2309.7314,1.106,1.106,0,0,1-.3892.7051.8917.8917,0,0,1-.7578.2314,2.3919,2.3919,0,0,0-.3559-.0273,1.83,1.83,0,0,0-1.2193.33,1.0705,1.0705,0,0,0-.3759.8437q0,.9756,1.2392.9756a2.8427,2.8427,0,0,0,.6524-.0791q.3369-.079,1.167-.3691a1,1,0,0,1,.8437.0859.9679.9679,0,0,1,.501.666,1.04,1.04,0,0,1-.1055.7578.9182.9182,0,0,1-.5537.4678l-5.3525,1.8857a1.0415,1.0415,0,0,1-.7979-.0595A1.024,1.024,0,0,1,265.767,89.8453Zm1.5557-24.6133a2.2911,2.2911,0,0,1,1.3711-2.8867,2.121,2.121,0,0,1,1.7139.0918,2.2157,2.2157,0,0,1,1.16,1.2793q.501,1.3974.8174,2.4844t.5205,2.0771q.2043.9888.35,2.083t.2769,2.5176a2.2631,2.2631,0,0,1-4.5088.3955q-.1186-1.2657-.2373-2.2275T268.49,69.22q-.1787-.8628-.4551-1.8125T267.3227,65.232Z"/><path class="cls-1" d="M283.4321,65.0347a2.2163,2.2163,0,0,1,.4492-1.6748,2.1378,2.1378,0,0,1,1.4893-.87,2.2164,2.2164,0,0,1,1.6748.4483,2.14,2.14,0,0,1,.8691,1.49q.2373,1.78.3691,3.124t.1856,2.584q.0513,1.2393.0527,2.7158,0,1.9512-.0732,3.876t-.2041,3.5469a2.1953,2.1953,0,0,1-.7979,1.5351,2.2581,2.2581,0,0,1-3.7109-1.9043q.1318-1.6347.2041-3.5273t.0723-3.7637q0-1.2919-.0459-2.3467t-.1709-2.2675Q283.6694,66.7877,283.4321,65.0347Z"/><path class="cls-1" d="M295.9536,75.1324a12.8411,12.8411,0,0,1,.1523-1.9443,5.7182,5.7182,0,0,1,.6-1.8389,2.1938,2.1938,0,0,1,1.3184-1.127,2.1651,2.1651,0,0,1,1.7265.125q1.6743.8438,1.002,3.045l-.0654.3164q-.066.3163-.1319.7256a4.5088,4.5088,0,0,0-.0664.6982,2.4072,2.4072,0,0,0,.376,1.3584,2.4987,2.4987,0,0,0,1.51.8633,14.43,14.43,0,0,0,3.4013.2969,34.1406,34.1406,0,0,0,3.7832-.1846,7.0559,7.0559,0,0,1-1.1465-1.8,4.81,4.81,0,0,1-.4082-1.9307,6.5183,6.5183,0,0,1,.7774-3.1777,6.0942,6.0942,0,0,1,2.1289-2.2744,5.5926,5.5926,0,0,1,3.0391-.85,5.5224,5.5224,0,0,1,3.0253.85,6.1719,6.1719,0,0,1,2.1231,2.2812,6.5135,6.5135,0,0,1,.7842,3.1836,5.6145,5.6145,0,0,1-1.292,3.4678q.7383.0381,1.582.039h.0137a2.1507,2.1507,0,0,1,1.5879.6592,2.2684,2.2684,0,0,1,0,3.1836,2.1381,2.1381,0,0,1-1.5879.666h-.0137a15.7225,15.7225,0,0,1-3.1973-.3232,16.0154,16.0154,0,0,1-2.9462-.9024,18.7063,18.7063,0,0,1-3.8164,1.1924,22.0226,22.0226,0,0,1-4.4366.4287q-1.0414,0-2.3467-.0986a14.4652,14.4652,0,0,1-2.6171-.4482A7.7441,7.7441,0,0,1,298.4,80.5054a5.5122,5.5122,0,0,1-1.7735-2.0634A7.1972,7.1972,0,0,1,295.9536,75.1324Zm15.86-12.1807a2.1058,2.1058,0,0,1,.6133-1.4834,2.0157,2.0157,0,0,1,1.5361-.6523,2.1883,2.1883,0,0,1,1.16.29,2.2183,2.2183,0,0,1,.7383.7119,2.0926,2.0926,0,0,1,.3418,1.1338,2.8172,2.8172,0,0,1-.1836.9356,1.9386,1.9386,0,0,1-.666.8838,2.1788,2.1788,0,0,1-1.3516.3691,2.1406,2.1406,0,0,1-1.3643-.376,2.029,2.029,0,0,1-.6533-.8632A2.7069,2.7069,0,0,1,311.8139,62.9517Zm.6983,10.7842a2.6913,2.6913,0,0,0,1.4765,2.4512,2.7886,2.7886,0,0,0,1.3848-2.4385,2.0982,2.0982,0,0,0-.3692-1.2783,1.232,1.232,0,0,0-1.0546-.502,1.2465,1.2465,0,0,0-1.0684.502A2.0766,2.0766,0,0,0,312.5122,73.7359Z"/><path class="cls-1" d="M317.9321,79.5094a2.2606,2.2606,0,0,1,2.2539-2.254q2.2543,0,2.7422-2.57.0527-.3954.1318-1.0019a2.2387,2.2387,0,0,1,.8965-1.49,2.1275,2.1275,0,0,1,1.6748-.4218,2.1745,2.1745,0,0,1,1.4893.8965,2.1441,2.1441,0,0,1,.4218,1.6738q-.1186.7793-.1513,1.1074c-.0225.2207-.0332.3828-.0332.4883q0,1.582,1.1464,1.582a1.2328,1.2328,0,0,0,1.0489-.5664,5.3465,5.3465,0,0,0,.6259-2.1494c.0176-.2725.0528-.584.1055-.9365a2.031,2.031,0,0,1,.8037-1.3711.0418.0418,0,0,1,.0274-.0127l.0127-.0127a2.1134,2.1134,0,0,1,1.3711-.4356.112.112,0,0,1,.04.0137,1.2978,1.2978,0,0,1,.1836.0127,2.1146,2.1146,0,0,1,1.3984.8369,2.0055,2.0055,0,0,1,.4082,1.5762q-.0262.3032-.0791.6191-.0263.29-.0263.5537a2.8607,2.8607,0,0,0,.27,1.3252,1.0818,1.0818,0,0,0,1.0615.52,1.1887,1.1887,0,0,0,.9355-.4023,1.7277,1.7277,0,0,0,.3555-1.18,8.22,8.22,0,0,0-.0849-1.18c-.0577-.3916-.1348-.8017-.2315-1.2334a2.007,2.007,0,0,1,.2383-1.6074,2.2,2.2,0,0,1,1.4629-1.0947,2.2223,2.2223,0,0,1,2.7031,1.6875l.0254.1055c.08.36.1455.664.1982.9091a11.3624,11.3624,0,0,0,.7715,2.4,2.4678,2.4678,0,0,0,.8828,1.08,2.1871,2.1871,0,0,0,1.1143.2773h.0137a2.1507,2.1507,0,0,1,1.5879.6592,2.2684,2.2684,0,0,1,0,3.1836,2.1381,2.1381,0,0,1-1.5879.666h-.0137a5.4206,5.4206,0,0,1-2.169-.4287,6.1615,6.1615,0,0,1-1.8252-1.2187,5.156,5.156,0,0,1-1.78,1.3906,5.288,5.288,0,0,1-2.294.4941,5.6734,5.6734,0,0,1-2.2871-.455,5.4353,5.4353,0,0,1-1.8262-1.2852,6.3337,6.3337,0,0,1-1.8066,1.3047,4.6394,4.6394,0,0,1-2.0039.4619,4.5566,4.5566,0,0,1-2.1094-.4941,5.2491,5.2491,0,0,1-1.66-1.3389,7.536,7.536,0,0,1-1.958,1.1475,5.9633,5.9633,0,0,1-2.2217.4218,2.2724,2.2724,0,0,1-2.2539-2.2548Zm8.5556-13.1436a4.0139,4.0139,0,0,1,.6133-2.2939,3.8319,3.8319,0,0,1,1.5889-1.3643,4.8922,4.8922,0,0,1,2.0625-.4619,4.769,4.769,0,0,1,2.0635.4482,3.9065,3.9065,0,0,1,1.5888,1.3447,3.8567,3.8567,0,0,1,.6133,2.2354,5.6758,5.6758,0,0,1-.08.9355,3.5592,3.5592,0,0,1-.2636.8838,2.1194,2.1194,0,0,1-.9424,1.0215,1.3762,1.3762,0,0,1-1.4307-.0859,1.494,1.494,0,0,1-.7314-.9092,2.0284,2.0284,0,0,1,.0859-1.2266,1.7558,1.7558,0,0,0,.1055-.3027,1.3042,1.3042,0,0,0,.04-.3164.6822.6822,0,0,0-.3164-.6133,1.2483,1.2483,0,0,0-.7324-.1914,1.3092,1.3092,0,0,0-.7315.2373.7563.7563,0,0,0-.3164.6592,1.3635,1.3635,0,0,0,.1846.6992,5.5551,5.5551,0,0,0,.7383.8965,1.194,1.194,0,0,1,.3359,1.12,1.8325,1.8325,0,0,1-.5859,1.0547,1.3045,1.3045,0,0,1-1.1807.33,2.176,2.176,0,0,1-1.14-.6074,6.4789,6.4789,0,0,1-1.1074-1.3575,4.0571,4.0571,0,0,1-.462-2.122Z"/><path class="cls-1" d="M341.8725,79.5094a2.1554,2.1554,0,0,1,.6719-1.5948,2.2043,2.2043,0,0,1,1.5957-.6592,5.732,5.732,0,0,0,2.3135-.3427,1.6946,1.6946,0,0,0,.9365-1.1407,10.9777,10.9777,0,0,0,.2969-2.1552,2.1686,2.1686,0,0,1,.77-1.6211,2.2664,2.2664,0,0,1,1.6552-.5147,2.1167,2.1167,0,0,1,1.5489.7715,2.1821,2.1821,0,0,1,.5468,1.6279,3.7684,3.7684,0,0,0,.4219,2.5977,2.6087,2.6087,0,0,0,2.1885.7773h.0127a2.1514,2.1514,0,0,1,1.5889.6592,2.2659,2.2659,0,0,1,0,3.1836,2.1387,2.1387,0,0,1-1.5889.666h-.0127a7.0113,7.0113,0,0,1-2.8076-.5468,4.8771,4.8771,0,0,1-2.1231-1.8262,5.6125,5.6125,0,0,1-2.5449,1.8857,9.8722,9.8722,0,0,1-3.2031.4873,2.1911,2.1911,0,0,1-1.5957-.666A2.1608,2.1608,0,0,1,341.8725,79.5094Zm1.6738-11.3633a1.7105,1.7105,0,0,1,.1582-1.3389,1.8485,1.8485,0,0,1,1.0821-.876,10.4972,10.4972,0,0,1,1.7265-.3427,16.033,16.033,0,0,1,1.9375-.1192,10.7384,10.7384,0,0,1,1.8526.1455,6.62,6.62,0,0,1,1.3916.3819,1.8225,1.8225,0,0,1,.916,1.2,1.8351,1.8351,0,0,1-1.16,2.1416,2.11,2.11,0,0,1-1.0879.0468c-.2548-.0527-.56-.1-.916-.1386a8.9372,8.9372,0,0,0-.9961-.06q-.8832,0-1.5683.0527a6.9174,6.9174,0,0,0-1.1074.1582,1.7625,1.7625,0,0,1-1.3575-.1845A1.7809,1.7809,0,0,1,343.5463,68.1461Z"/><path class="cls-1" d="M352.5649,79.5094a2.1554,2.1554,0,0,1,.6719-1.5948,2.2041,2.2041,0,0,1,1.5957-.6592,13.1874,13.1874,0,0,0,4.0742-.4355q1.1865-.4337,1.1855-1.08a4.1455,4.1455,0,0,0-1.12-2.3535q-1.1207-1.4048-3.0058-3.3418a9.7384,9.7384,0,0,1-1.0284-1.1934,2.2609,2.2609,0,0,1-.3427-1.3115,2.2341,2.2341,0,0,1,.4414-1.3447,2.356,2.356,0,0,1,1.2334-.8574l8.9511-2.9531a2.8017,2.8017,0,0,1,1.9776.0068,1.9419,1.9419,0,0,1,1.1474,1.3515,2.3444,2.3444,0,0,1-.1259,1.7725,2.0608,2.0608,0,0,1-1.2979,1.0088L360.5805,68.41q1.5557,1.8061,2.4326,2.9991a9.6023,9.6023,0,0,1,1.2451,2.1484,5.6809,5.6809,0,0,1,.3692,2.0635,5.1527,5.1527,0,0,1-2.3731,4.5547q-2.373,1.5892-7.4218,1.5888a2.1909,2.1909,0,0,1-1.5957-.666A2.1608,2.1608,0,0,1,352.5649,79.5094Z"/><path class="cls-1" d="M370.2036,65.0347a2.2159,2.2159,0,0,1,.4492-1.6748,2.1378,2.1378,0,0,1,1.4892-.87,2.2162,2.2162,0,0,1,1.6748.4483,2.14,2.14,0,0,1,.8692,1.49q.2373,1.78.3691,3.124t.1856,2.584q.0513,1.2393.0527,2.7158,0,1.9512-.0732,3.876t-.2041,3.5469a2.1953,2.1953,0,0,1-.7979,1.5351,2.2581,2.2581,0,0,1-3.7109-1.9043q.1318-1.6347.2041-3.5273t.0722-3.7637q0-1.2919-.0459-2.3467t-.1709-2.2675Q370.4409,66.7877,370.2036,65.0347Z"/></g></svg>