<svg xmlns="http://www.w3.org/2000/svg" viewBox="0 0 500.6876 91.9149"><defs><style>.cls-1{fill:#ffb900;}.cls-2{fill:none;stroke:#00193e;stroke-miterlimit:10;}.cls-3{fill:#00193e;}</style></defs><g id="_5" data-name="5"><g id="_4-2" data-name="4"><rect class="cls-1" x="56.2304" y="19.6356" width="393.3866" height="60.101" rx="30.0505"/><circle class="cls-2" cx="432.9496" cy="48.6799" r="2.6133"/><line class="cls-2" x1="539.6596" y1="48.6799" x2="434.9057" y2="48.6799"/><circle class="cls-2" cx="72.6825" cy="48.6799" r="2.6133"/><line class="cls-2" x1="-23.0275" y1="48.6799" x2="70.7264" y2="48.6799"/></g><path class="cls-3" d="M87.9291,40.9558a.9117.9117,0,0,1,.6929.1865.9306.9306,0,0,1,.37.627q.15,1.1206.2325,2.1045t.1162,1.9883q.033,1.0033.0332,2.2158v.5068c0,.1768-.0029.3535-.0083.5313a.8921.8921,0,0,1-.2822.6513.9622.9622,0,0,1-1.3365-.0166.8776.8776,0,0,1-.2739-.6679q.0081-.2492.0127-.5069t.0039-.498q0-1.1954-.0332-2.166t-.1123-1.9014q-.0783-.9287-.228-1.9922a.9033.9033,0,0,1,.1909-.6934A.9443.9443,0,0,1,87.9291,40.9558Zm1.7515,11.53a1.3041,1.3041,0,0,1-.1367.5429,1.3918,1.3918,0,0,1-.4111.5108,1.0628,1.0628,0,0,1-.6807.2158,1.5937,1.5937,0,0,1-.5562-.12,1.3705,1.3705,0,0,1-.5522-.3945,1.1076,1.1076,0,0,1-.2363-.7471,1.3169,1.3169,0,0,1,1.3115-1.3115,1.1074,1.1074,0,0,1,.93.4316A1.4246,1.4246,0,0,1,89.6806,52.4861Z"/><path class="cls-3" d="M94.163,45.7205a3.7258,3.7258,0,0,1,1.2618.2617q.714.2607,1.519.6474t1.6519.7676a12.9083,12.9083,0,0,0,1.6684.6231.9631.9631,0,0,1,.83.9628.83.83,0,0,1-.29.626,1.5768,1.5768,0,0,1-.78.37,16.2878,16.2878,0,0,0-3.6148,1.0079,6.9234,6.9234,0,0,0-2.3662,1.54,2.79,2.79,0,0,0-.834,1.9424,2.0435,2.0435,0,0,0,.4483,1.332,2.7933,2.7933,0,0,0,1.2285.8428,5.079,5.079,0,0,0,1.7847.291,8.6626,8.6626,0,0,0,1.5561-.1494,9.3642,9.3642,0,0,0,1.5982-.44,1.005,1.005,0,0,1,.7348-.004.81.81,0,0,1,.4771.4776.9117.9117,0,0,1,.0044.7178.9631.9631,0,0,1-.5025.5273,8.3646,8.3646,0,0,1-1.7885.543,10.2105,10.2105,0,0,1-1.93.1875,7.1545,7.1545,0,0,1-2.8179-.5235,4.4613,4.4613,0,0,1-1.9346-1.498,3.8715,3.8715,0,0,1-.7011-2.32,4.205,4.205,0,0,1,1.581-3.2744,12.8836,12.8836,0,0,1,4.6114-2.32q-.5311-.249-1.1622-.5273t-1.166-.4727a2.6386,2.6386,0,0,0-.8012-.1953.6458.6458,0,0,0-.5479.2862,2.6053,2.6053,0,0,0-.3486.7187.9581.9581,0,0,1-.4483.5762.8988.8988,0,0,1-.7055.1123.9557.9557,0,0,1-.5772-.4443.8864.8864,0,0,1-.1118-.7178,4.2637,4.2637,0,0,1,.938-1.7764A2.0112,2.0112,0,0,1,94.163,45.7205Z"/><path class="cls-3" d="M102.7543,50.0124q0-1.5937.0332-3.1376t-.0249-3.3458a.9464.9464,0,0,1,.2574-.6806.8741.8741,0,0,1,.6474-.2988.9173.9173,0,0,1,.6807.249.88.88,0,0,1,.2988.6562q.0579,1.7754.0249,3.3408t-.0332,3.1915a2.2644,2.2644,0,0,0,.3653,1.4775,1.9037,1.9037,0,0,0,1.4443.415h.0083a.938.938,0,0,1,0,1.876h-.0083a3.9812,3.9812,0,0,1-2.7642-.8467A3.7828,3.7828,0,0,1,102.7543,50.0124Z"/><path class="cls-3" d="M109.6108,46.2517a4.0927,4.0927,0,0,1,1.5771.3525q.8387.3531,1.7432.8184.59.3061,1.3281.6426t1.66.7265a.91.91,0,0,1,.4067.3526.9339.9339,0,0,1,.1577.5107.8822.8822,0,0,1-.44.7969q-.3816.249-.7471.4814a1.2265,1.2265,0,0,0,.6851.7139,3.5351,3.5351,0,0,0,1.4316.2324h.0083a.938.938,0,0,1,0,1.876h-.0083a5.41,5.41,0,0,1-2.2617-.4609,2.9947,2.9947,0,0,1-1.4985-1.4317,18.2879,18.2879,0,0,1-3.5074,1.3946,13.628,13.628,0,0,1-3.6894.498.91.91,0,0,1-.668-.2783.9209.9209,0,0,1,0-1.3193.9094.9094,0,0,1,.668-.2784,11.9441,11.9441,0,0,0,3.5361-.5351,16.0756,16.0756,0,0,0,3.4781-1.5733c-.3267-.1543-.6363-.3017-.93-.4394s-.5728-.2793-.8384-.4238q-.6394-.34-1.1084-.5391a2.1305,2.1305,0,0,0-.8091-.1992.7779.7779,0,0,0-.6265.2939,4.6786,4.6786,0,0,0-.5605.9844.8787.8787,0,0,1-.5352.4766.8591.8591,0,0,1-.8261-.087.938.938,0,0,1-.3736-.5058.9083.9083,0,0,1,.0415-.69,6.6136,6.6136,0,0,1,1.1123-1.73A2.0767,2.0767,0,0,1,109.6108,46.2517Zm.7305,9.6211a.977.977,0,0,1,.2783-.6768.9282.9282,0,0,1,.7178-.3027.9933.9933,0,0,1,.5312.1328,1.0562,1.0562,0,0,1,.34.3233,1.0243,1.0243,0,0,1,.166.5312,1.34,1.34,0,0,1-.2114.668.8671.8671,0,0,1-.8178.3613.9485.9485,0,0,1-.6265-.1787,1.0207,1.0207,0,0,1-.3032-.41A1.366,1.366,0,0,1,110.3413,55.8728Z"/><path class="cls-3" d="M116.4755,52.8181a.891.891,0,0,1,.2823-.6641.9226.9226,0,0,1,.664-.2744,4.0457,4.0457,0,0,0,1.6729-.2617,1.335,1.335,0,0,0,.7217-.8838A6.9293,6.9293,0,0,0,120.02,49.05a.8966.8966,0,0,1,.32-.6807.9581.9581,0,0,1,.6929-.2158.9041.9041,0,0,1,.6474.3193.8765.8765,0,0,1,.2241.6768,5.411,5.411,0,0,0,.1368,1.6015,1.3453,1.3453,0,0,0,.6684.8633,3.1073,3.1073,0,0,0,1.4361.2656h.0083a.938.938,0,0,1,0,1.876h-.0083a4.4221,4.4221,0,0,1-1.9961-.3945,2.5865,2.5865,0,0,1-1.2-1.34,2.9936,2.9936,0,0,1-1.3824,1.3565,5.2651,5.2651,0,0,1-2.1455.3779.9148.9148,0,0,1-.664-.2783A.8941.8941,0,0,1,116.4755,52.8181Zm1.9175-7.3633a.9787.9787,0,0,1,.2778-.6767.9335.9335,0,0,1,.7183-.3028,1.0028,1.0028,0,0,1,.5313.1328,1.0589,1.0589,0,0,1,.34.3243,1.0226,1.0226,0,0,1,.166.5312,1.3371,1.3371,0,0,1-.2119.668.8673.8673,0,0,1-.8174.3613.9517.9517,0,0,1-.6269-.1787,1.0317,1.0317,0,0,1-.3028-.4111A1.3583,1.3583,0,0,1,118.393,45.4548Z"/><path class="cls-3" d="M123.2158,52.8181a.8976.8976,0,0,1,.2778-.6641.91.91,0,0,1,.66-.2744,1.2089,1.2089,0,0,0,1.1992-.7343,5.4756,5.4756,0,0,0,.3364-2.1875q0-.7794-.0415-1.5606-.0417-.7793-.1367-1.7637t-.2617-2.37a.9515.9515,0,0,1,.1953-.6972.89.89,0,0,1,.6181-.3653.9258.9258,0,0,1,.6973.1865.8972.8972,0,0,1,.3652.627q.1494,1.17.2408,2.1006.0915.9286.1328,1.7676t.0415,1.7431a7.6608,7.6608,0,0,1-.76,3.9014,2.8382,2.8382,0,0,1-2.6269,1.2285.95.95,0,0,1-.938-.9375Z"/><path class="cls-3" d="M129.1923,43.6374a.9135.9135,0,0,1,.1909-.6972.9375.9375,0,0,1,1.6768.4482q.1494,1.0709.2324,1.8965t.1162,1.6182c.022.5293.0332,1.122.0332,1.7812q0,1.1529-.0415,2.3487t-.1328,2.2246a.9218.9218,0,0,1-.332.64.9.9,0,0,1-.689.2236.9186.9186,0,0,1-.6391-.332.8893.8893,0,0,1-.2242-.6807q.0917-1.0282.1329-2.2119t.0415-2.3037q0-.9213-.0332-1.64t-.1119-1.4854Q129.3335,44.7,129.1923,43.6374Z"/><path class="cls-3" d="M136.2148,47.14a2.5763,2.5763,0,0,1,1.7559.6513,4.2988,4.2988,0,0,1,1.1533,1.6973,6.0889,6.0889,0,0,1,.4111,2.25,5.9763,5.9763,0,0,1-.44,2.3027,6.3275,6.3275,0,0,1-1.2163,1.9053,7.1416,7.1416,0,0,1-1.78,1.3985,7.6046,7.6046,0,0,1-2.1416.8017.9054.9054,0,0,1-.71-.1494.8916.8916,0,0,1-.394-.5977.85.85,0,0,1,.1538-.6972,1.1073,1.1073,0,0,1,.5932-.4151,6.91,6.91,0,0,0,2.2623-1.0293,4.5131,4.5131,0,0,0,1.4067-1.5859,6.1786,6.1786,0,0,1-.93.0752,3.5637,3.5637,0,0,1-2.3618-.71,2.66,2.66,0,0,1-.8423-2.1543,4.2277,4.2277,0,0,1,.4067-1.8466,3.6478,3.6478,0,0,1,1.104-1.3741A2.5493,2.5493,0,0,1,136.2148,47.14Zm-1.32,3.6689a1.0646,1.0646,0,0,0,.3735.9248,1.7718,1.7718,0,0,0,1.0542.2705,4.31,4.31,0,0,0,.6558-.05q.3237-.05.6142-.125a.5367.5367,0,0,1,.1245-.0166v-.0078a4.8815,4.8815,0,0,0-.1782-1.2744,3.233,3.233,0,0,0-.519-1.1123,1.0239,1.0239,0,0,0-.8467-.4522.9312.9312,0,0,0-.6558.2735,1.8961,1.8961,0,0,0-.4565.6933A2.352,2.352,0,0,0,134.895,50.8093Z"/><path class="cls-3" d="M146.3168,49.3894a.77.77,0,0,1,.1-.7051.9735.9735,0,0,1,.6059-.4316.838.838,0,0,1,.2573-.0254.8959.8959,0,0,1,.5435.208.9622.9622,0,0,1,.3115.4482.2786.2786,0,0,1,.0249.0743,6.9313,6.9313,0,0,0,.8965,2.2119,1.76,1.76,0,0,0,1.5356.71H150.6a.938.938,0,0,1,0,1.876h-.0083a3.3,3.3,0,0,1-1.1289-.1865,3.5081,3.5081,0,0,1-.9379-.5108,5.906,5.906,0,0,1-1.37,3.25,6.2839,6.2839,0,0,1-2.7807,1.83.8691.8691,0,0,1-.7637-.0664.944.944,0,0,1-.44-.539.8739.8739,0,0,1,.0748-.76,1.0168,1.0168,0,0,1,.5146-.4277,4.3505,4.3505,0,0,0,2.1626-1.5147,4.5751,4.5751,0,0,0,.7842-2.8018,10.1353,10.1353,0,0,0-.34-2.4736C146.35,49.5007,146.3334,49.4451,146.3168,49.3894Z"/><path class="cls-3" d="M149.6538,52.8181a.8909.8909,0,0,1,.2822-.6641.9229.9229,0,0,1,.664-.2744h.83a.9173.9173,0,0,1,.668.2744.9257.9257,0,0,1,0,1.3233.91.91,0,0,1-.668.2783h-.83a.9151.9151,0,0,1-.664-.2783A.894.894,0,0,1,149.6538,52.8181Z"/><path class="cls-3" d="M149.7285,57.2175a.7708.7708,0,0,1,.5146-.9463,6.3536,6.3536,0,0,1,1.0747-.2158,9.9423,9.9423,0,0,1,1.208-.0752,6.9227,6.9227,0,0,1,1.0664.0752,3.812,3.812,0,0,1,.81.207.7723.7723,0,0,1,.3945.4981.7224.7224,0,0,1-.104.6143.7784.7784,0,0,1-.3818.3027.8081.8081,0,0,1-.4648.0215,4.0342,4.0342,0,0,0-.6021-.1084,6.3355,6.3355,0,0,0-.7178-.041q-.5646,0-1.05.0449a3.9935,3.9935,0,0,0-.8012.1455.7318.7318,0,0,1-.5767-.0742A.7684.7684,0,0,1,149.7285,57.2175Zm.7636-4.3994a.8977.8977,0,0,1,.2779-.6641.91.91,0,0,1,.66-.2744,2.8421,2.8421,0,0,0,1.5938-.34,1.4812,1.4812,0,0,0,.4814-1.2871c0-.2207-.0166-.5049-.05-.8506s-.083-.6934-.1494-1.042a.9146.9146,0,0,1,.1865-.6934.93.93,0,0,1,.6187-.3691.8847.8847,0,0,1,.6972.1787.9649.9649,0,0,1,.3736.6182q.1164.6152.1743,1.1787a9.8587,9.8587,0,0,1,.0581.9883,3.28,3.28,0,0,1-1.0166,2.5976,4.36,4.36,0,0,1-2.9678.8965.95.95,0,0,1-.938-.9375Z"/><path class="cls-3" d="M160.0712,53.7556a3.607,3.607,0,0,1-2.3823-.7139,2.6515,2.6515,0,0,1-.855-2.1582,4.2278,4.2278,0,0,1,.4068-1.8466,3.6469,3.6469,0,0,1,1.104-1.3741,2.549,2.549,0,0,1,1.5688-.5224,2.5762,2.5762,0,0,1,1.7559.6513,4.2977,4.2977,0,0,1,1.1533,1.6973,6.0889,6.0889,0,0,1,.4111,2.25V51.88h.7388a.938.938,0,0,1,0,1.876h-1.0791a6.0828,6.0828,0,0,1-1.1743,2.0381,7.1,7.1,0,0,1-1.8306,1.5019,7.5557,7.5557,0,0,1-2.2329.8516.9054.9054,0,0,1-.71-.1494.8916.8916,0,0,1-.394-.5977.85.85,0,0,1,.1538-.6972,1.1075,1.1075,0,0,1,.5933-.4151,6.9168,6.9168,0,0,0,2.2163-1.0009,4.6381,4.6381,0,0,0,1.4111-1.5313Zm-.0166-1.876h1.3614v-.0742a4.8818,4.8818,0,0,0-.1783-1.2744,3.233,3.233,0,0,0-.519-1.1123,1.0239,1.0239,0,0,0-.8467-.4522,1.0739,1.0739,0,0,0-.9175.5352,2.1276,2.1276,0,0,0-.3608,1.2158,1,1,0,0,0,.39.9092A1.9524,1.9524,0,0,0,160.0546,51.88Z"/><path class="cls-3" d="M163.0346,52.8093a.8875.8875,0,0,1,.2778-.66.9172.9172,0,0,1,.66-.27h.49a.25.25,0,0,1,.0332-.0908,12.1948,12.1948,0,0,1,.6889-1.3115.9064.9064,0,0,1,.0083-.125,9.2923,9.2923,0,0,0,.0747-.9629q.0169-.5391.0166-1.1865,0-.8892-.0371-1.8262-.0381-.939-.1-1.7686-.063-.8291-.1372-1.3945a.8136.8136,0,0,1,.1992-.6846.9694.9694,0,0,1,.5977-.3447.87.87,0,0,1,.7221.2031,1.043,1.043,0,0,1,.357.6436q.0828.5655.1494,1.332.0666.7691.1079,1.59t.0415,1.5527v.6387a5.337,5.337,0,0,1,1.3779-.8008,4.1372,4.1372,0,0,1,1.5274-.2861,3.0468,3.0468,0,0,1,2.1914.8134,2.8818,2.8818,0,0,1,.855,2.1915,3.5157,3.5157,0,0,1-.166,1.1035,1.5211,1.5211,0,0,0,.581.5234,2.0452,2.0452,0,0,0,.9463.19h.0083a.938.938,0,0,1,0,1.876h-.0083a3.5633,3.5633,0,0,1-2.731-1.07,5.9342,5.9342,0,0,1-2.3784.8379,20.047,20.047,0,0,1-3.0171.2158h-2.3989a.9092.9092,0,0,1-.66-.2734A.89.89,0,0,1,163.0346,52.8093Zm6.84-3.8681a2.4039,2.4039,0,0,0-1.3072.3906,4.7566,4.7566,0,0,0-1.1543,1.0537,9.0293,9.0293,0,0,0-.9668,1.4941h.05a22.074,22.074,0,0,0,3.0342-.17,2,2,0,0,0,1.5562-.8174.5282.5282,0,0,1,.0664-.125,1.4852,1.4852,0,0,0,.1-.5556,1.1934,1.1934,0,0,0-.3735-.93A1.4315,1.4315,0,0,0,169.8745,48.9412Z"/><path class="cls-3" d="M173.56,52.8181a.8909.8909,0,0,1,.2822-.6641.923.923,0,0,1,.6641-.2744,4.0451,4.0451,0,0,0,1.6728-.2617,1.3345,1.3345,0,0,0,.7217-.8838,6.9243,6.9243,0,0,0,.2036-1.6845.8967.8967,0,0,1,.32-.6807.958.958,0,0,1,.6928-.2158.9042.9042,0,0,1,.6475.3193.8765.8765,0,0,1,.2241.6768,5.4115,5.4115,0,0,0,.1367,1.6015,1.3457,1.3457,0,0,0,.6685.8633,3.1066,3.1066,0,0,0,1.436.2656h.0083a.938.938,0,0,1,0,1.876H181.23a4.4224,4.4224,0,0,1-1.9961-.3945,2.5873,2.5873,0,0,1-1.2-1.34,2.9929,2.9929,0,0,1-1.3823,1.3565,5.2654,5.2654,0,0,1-2.1455.3779.9152.9152,0,0,1-.6641-.2783A.894.894,0,0,1,173.56,52.8181Zm.8633-7.23a.7729.7729,0,0,1,.5146-.9462,6.4287,6.4287,0,0,1,1.0752-.2159,9.9205,9.9205,0,0,1,1.2076-.0742,6.9411,6.9411,0,0,1,1.0668.0742,3.7518,3.7518,0,0,1,.8091.208.764.764,0,0,1,.3941.4981.72.72,0,0,1-.1035.6142.7843.7843,0,0,1-.3819.3028.8006.8006,0,0,1-.4648.02,4.0642,4.0642,0,0,0-.6016-.1074,6.1345,6.1345,0,0,0-.7182-.042q-.5647,0-1.05.0459a3.9312,3.9312,0,0,0-.8008.1455.7332.7332,0,0,1-.5772-.0752A.7638.7638,0,0,1,174.4233,45.5876Z"/><path class="cls-3" d="M180.3,52.8181a.8977.8977,0,0,1,.2779-.6641.91.91,0,0,1,.66-.2744,1.2087,1.2087,0,0,0,1.1992-.7343,5.4736,5.4736,0,0,0,.3365-2.1875q0-.7794-.0415-1.5606-.0419-.7793-.1367-1.7637t-.2618-2.37a.952.952,0,0,1,.1953-.6972.89.89,0,0,1,.6182-.3653.9259.9259,0,0,1,.6973.1865.8975.8975,0,0,1,.3652.627q.1494,1.17.2407,2.1006.0916.9286.1328,1.7676t.0415,1.7431a7.661,7.661,0,0,1-.76,3.9014,2.8385,2.8385,0,0,1-2.627,1.2285.95.95,0,0,1-.938-.9375Z"/><path class="cls-3" d="M186.2768,43.6374a.9135.9135,0,0,1,.1909-.6972.9375.9375,0,0,1,1.6768.4482q.1494,1.0709.2324,1.8965t.1162,1.6182c.022.5293.0332,1.122.0332,1.7812q0,1.1529-.0415,2.3487t-.1328,2.2246a.9222.9222,0,0,1-.332.64.9005.9005,0,0,1-.689.2236.9188.9188,0,0,1-.6392-.332.8892.8892,0,0,1-.2241-.6807q.0916-1.0282.1328-2.2119t.0415-2.3037q0-.9213-.0332-1.64t-.1118-1.4854Q186.418,44.7,186.2768,43.6374Z"/><path class="cls-3" d="M192.8261,50.1033a2.9236,2.9236,0,0,1,.7554-1.9883,6.2474,6.2474,0,0,1,1.9756-1.4561,10.3814,10.3814,0,0,0,.9258-.5146,1.4835,1.4835,0,0,0,.5683-.5479v-.042a.9108.9108,0,0,1,.22-.6845.9.9,0,0,1,.6353-.336.8805.8805,0,0,1,.689.211.9151.9151,0,0,1,.332.6435l.0166.1582a.62.62,0,0,1,.0083.1l.39,4.3409a3.82,3.82,0,0,0,.2657,1.2324.9673.9673,0,0,0,.5478.5312,2.7558,2.7558,0,0,0,.9214.1289h.0083a.938.938,0,0,1,0,1.876h-.0083a4.319,4.319,0,0,1-1.8594-.3447,2.5931,2.5931,0,0,1-1.1289-1.0166.9538.9538,0,0,1-.5561.291c-.1548.0215-.3208.0371-.4981.0449s-.3291.0127-.4565.0127a4.606,4.606,0,0,1-2.7974-.7178A2.2835,2.2835,0,0,1,192.8261,50.1033Zm1.0376-8.1592a.7717.7717,0,0,1,.5147-.9463,6.3358,6.3358,0,0,1,1.0752-.2158,9.92,9.92,0,0,1,1.2075-.0752,6.936,6.936,0,0,1,1.0669.0752,3.81,3.81,0,0,1,.8091.207.7686.7686,0,0,1,.394.4981.7194.7194,0,0,1-.1035.6142.778.778,0,0,1-.3819.3027.8073.8073,0,0,1-.4648.0215,4.0717,4.0717,0,0,0-.6016-.1084,6.3791,6.3791,0,0,0-.7182-.041q-.5647,0-1.05.0449a4.01,4.01,0,0,0-.8008.1455.7326.7326,0,0,1-.5771-.0742A.77.77,0,0,1,193.8637,41.9441Zm.8633,8.0517q0,.8717,1.8511.8711c.0884,0,.1948-.0048.32-.0166s.2476-.0244.3691-.041a.945.945,0,0,1,.2823.0078q-.05-.3062-.083-.664l-.2076-2.2744q-.39.2416-.8964.498a6.4664,6.4664,0,0,0-1.1622.751A1.13,1.13,0,0,0,194.727,49.9958Z"/><path class="cls-3" d="M200.1474,52.8181a.898.898,0,0,1,.2778-.6641.91.91,0,0,1,.66-.2744,2.2327,2.2327,0,0,0,1.4692-.3564,1.8825,1.8825,0,0,0,.39-1.3945q0-1.27-.0459-2.3956-.0455-1.1235-.124-2.22T202.58,43.23a.9308.9308,0,0,1,.2159-.6933.8918.8918,0,0,1,.6308-.336.9333.9333,0,0,1,1.0293.8467q.1663,1.7681.2656,3.4072.1,1.6407.1,3.5489a.9042.9042,0,0,1,.0083.125,1.7371,1.7371,0,0,0,.4439,1.373,2.1344,2.1344,0,0,0,1.3989.3779h.0083a.938.938,0,0,1,0,1.876h-.0083a4.4405,4.4405,0,0,1-1.5273-.2617,3.2659,3.2659,0,0,1-1.2368-.7842,3.7285,3.7285,0,0,1-2.8223,1.0459.95.95,0,0,1-.938-.9375Z"/><path class="cls-3" d="M209.8344,46.2517a4.0935,4.0935,0,0,1,1.5772.3525q.8387.3531,1.7431.8184.59.3061,1.3282.6426t1.66.7265a.91.91,0,0,1,.4068.3526.9347.9347,0,0,1,.1577.5107.8823.8823,0,0,1-.44.7969,23.7552,23.7552,0,0,1-4.665,2.416,13.8085,13.8085,0,0,1-4.9224.8877.9094.9094,0,0,1-.6679-.2783.9207.9207,0,0,1,0-1.3193.9091.9091,0,0,1,.6679-.2784,11.9452,11.9452,0,0,0,3.5362-.5351,16.0749,16.0749,0,0,0,3.478-1.5733c-.3267-.1543-.6362-.3017-.93-.4394s-.5728-.2793-.8384-.4238q-.6395-.34-1.1084-.5391a2.1305,2.1305,0,0,0-.8091-.1992.7777.7777,0,0,0-.6264.2939,4.678,4.678,0,0,0-.5606.9844.8785.8785,0,0,1-.5351.4766.8592.8592,0,0,1-.8262-.087.9374.9374,0,0,1-.3735-.5058.9074.9074,0,0,1,.0415-.69,6.6084,6.6084,0,0,1,1.1123-1.73A2.0764,2.0764,0,0,1,209.8344,46.2517Z"/><path class="cls-3" d="M219.978,48.2937a.8558.8558,0,0,1,.8052.0664.9611.9611,0,0,1,.4316.5811,12.132,12.132,0,0,1,.4316,3.0878,7.0412,7.0412,0,0,1-.5312,2.8311,5.6236,5.6236,0,0,1-1.4815,2.042,6.42,6.42,0,0,1-2.1958,1.2363.8689.8689,0,0,1-.7636-.0664.9437.9437,0,0,1-.44-.539.8736.8736,0,0,1,.0747-.76,1.0174,1.0174,0,0,1,.5147-.4277,4.3514,4.3514,0,0,0,2.1626-1.5147,4.5757,4.5757,0,0,0,.7842-2.8018,10.43,10.43,0,0,0-.3736-2.623.8315.8315,0,0,1,.0952-.71A1.0525,1.0525,0,0,1,219.978,48.2937Z"/><path class="cls-3" d="M230.8437,57.657a6.2067,6.2067,0,0,1-2.7891-.5889,4.4822,4.4822,0,0,1-1.8427-1.6269,4.3837,4.3837,0,0,1-.6558-2.3907,8.95,8.95,0,0,1,.1743-1.7265,13.6176,13.6176,0,0,1,.4566-1.7266.9372.9372,0,0,1,.498-.5312.8679.8679,0,0,1,.7139-.0254.9272.9272,0,0,1,.5273.49.8763.8763,0,0,1,.0288.7217,10.998,10.998,0,0,0-.3652,1.3447,6.4343,6.4343,0,0,0-.1411,1.2871,2.6956,2.6956,0,0,0,.8672,2.1289,3.69,3.69,0,0,0,2.5195.7676,3.8644,3.8644,0,0,0,2.5649-.7637,2.6182,2.6182,0,0,0,.9043-2.1162,5.989,5.989,0,0,0-.1855-1.4365,13.0045,13.0045,0,0,0-.502-1.5518.88.88,0,0,1-.0058-.7226.9369.9369,0,0,1,.5039-.5059.9548.9548,0,0,1,1.2441.5059c.1543.3935.291.7754.4063,1.1455a2.7063,2.7063,0,0,0,.6972,1.1875,1.6167,1.6167,0,0,0,1.0879.3564h.0078a.938.938,0,0,1,0,1.876h-.0078a3.248,3.248,0,0,1-1.3613-.2988,4.19,4.19,0,0,1-.793,2.1914,4.6168,4.6168,0,0,1-1.8593,1.4775A6.4326,6.4326,0,0,1,230.8437,57.657ZM229.79,50.2029a.9775.9775,0,0,1,.2783-.6768.9314.9314,0,0,1,.7178-.3027,1.0015,1.0015,0,0,1,.5312.1328,1.059,1.059,0,0,1,.34.3242,1.0275,1.0275,0,0,1,.166.5313,1.3469,1.3469,0,0,1-.2119.6679.8677.8677,0,0,1-.8174.3614.9487.9487,0,0,1-.6265-.1787,1.0237,1.0237,0,0,1-.3032-.4112A1.3578,1.3578,0,0,1,229.79,50.2029Z"/><path class="cls-3" d="M236.621,52.8181a.8954.8954,0,0,1,.2774-.6641.9092.9092,0,0,1,.66-.2744,1.5275,1.5275,0,0,0,1.2745-.6767,11.23,11.23,0,0,0,1.0087-1.6973q.2652-.5391.5684-1.0332a7.2957,7.2957,0,0,1,.6094-.8594l.0254-.0244a.8424.8424,0,0,1,.6347-.3115.9423.9423,0,0,1,.6856.2285.84.84,0,0,1,.1738.1992.6735.6735,0,0,1,.1-.125.897.897,0,0,1,.66-.29.92.92,0,0,1,.6758.2568,5.2138,5.2138,0,0,1,1.8847,3.7686,2.4545,2.4545,0,0,1-.8506,1.9551,3.5147,3.5147,0,0,1-2.37.7343,3.83,3.83,0,0,1-1.6855-.3359,2.3758,2.3758,0,0,1-1.0371-.9258,3.9437,3.9437,0,0,1-1.0293.7266,2.9741,2.9741,0,0,1-1.3282.2861.9489.9489,0,0,1-.9375-.9375Zm4.6641-1.7353a.9513.9513,0,0,0,.3369.7558,1.4363,1.4363,0,0,0,.9668.29,1.5448,1.5448,0,0,0,1.0459-.295.9762.9762,0,0,0,.332-.7675,3.3527,3.3527,0,0,0-1.2949-2.1582.7586.7586,0,0,1-.1406-.1661.7427.7427,0,0,1-.0586.083q-.2241.2579-.4775.6143a7.1989,7.1989,0,0,0-.4356.69A2.1616,2.1616,0,0,0,241.2851,51.0828Z"/><path class="cls-3" d="M250.2343,43.6374a.9158.9158,0,0,1,.1914-.6972.9375.9375,0,0,1,1.6768.4482q.1494,1.0709.2324,1.8965t.1162,1.6182c.0225.5293.0332,1.122.0332,1.7812q0,1.1529-.041,2.3487t-.1328,2.2246a.9241.9241,0,0,1-.332.64.9023.9023,0,0,1-.69.2236.9158.9158,0,0,1-.6387-.332.8862.8862,0,0,1-.2246-.6807q.0909-1.0282.1328-2.2119t.0411-2.3037q0-.9213-.0332-1.64t-.1114-1.4854Q250.376,44.7,250.2343,43.6374Z"/><path class="cls-3" d="M255.1074,42.4831a.426.426,0,0,1,.0244-.3564.4993.4993,0,0,1,.2656-.2412L258.76,40.69a.41.41,0,0,1,.3526.0293.5028.5028,0,0,1,.2451.27.41.41,0,0,1-.0244.3486.5.5,0,0,1-.2657.2413l-3.3711,1.1953a.4048.4048,0,0,1-.3476-.0254A.4851.4851,0,0,1,255.1074,42.4831Zm0,2.1417a.4262.4262,0,0,1,.0244-.3565.4993.4993,0,0,1,.2656-.2412l3.3623-1.1953a.41.41,0,0,1,.3526.0293.5028.5028,0,0,1,.2451.27.41.41,0,0,1-.0244.3486.5.5,0,0,1-.2657.2413l-3.3711,1.1953a.4048.4048,0,0,1-.3476-.0254A.4853.4853,0,0,1,255.1074,44.6248Z"/><path class="cls-3" d="M254.16,53.5486a.6693.6693,0,0,1-.07-.52.6929.6929,0,0,1,.3027-.4267q.6064-.3663,1.2207-.6729a2.2762,2.2762,0,0,1-1.3281-2.2246,2.95,2.95,0,0,1,1.5195-2.6435,3.0157,3.0157,0,0,1,1.502-.3858,3.411,3.411,0,0,1,1.6523.44.7717.7717,0,0,1,.377.3906.6062.6062,0,0,1,.0039.5059.7112.7112,0,0,1-.39.3906.5475.5475,0,0,1-.5068-.0166,2.3779,2.3779,0,0,0-.6016-.2617,2.2134,2.2134,0,0,0-.5761-.0791,1.6348,1.6348,0,0,0-1.1465.4355,1.5136,1.5136,0,0,0-.4727,1.167,1.1893,1.1893,0,0,0,.3946.9375,1.8849,1.8849,0,0,0,1.2656.3486,6.5453,6.5453,0,0,0,.8379-.0625q.4819-.0615.9883-.1533c.0556-.0107.1074-.0215.1582-.0332a.1691.1691,0,0,0,.0488-.0078.6054.6054,0,0,1,.5644.19.6824.6824,0,0,1,.1915.3575v.0166c.0058.0048.0078.0166.0078.0332a.6646.6646,0,0,1-.0743.3984.6452.6452,0,0,1-.4726.3564,13.3451,13.3451,0,0,0-4.4492,1.752.6543.6543,0,0,1-.5157.07A.6951.6951,0,0,1,254.16,53.5486Z"/><path class="cls-3" d="M264.33,49.3894a.7648.7648,0,0,1,.1-.7051.969.969,0,0,1,.6055-.4316.84.84,0,0,1,.2578-.0254.8969.8969,0,0,1,.543.208.9658.9658,0,0,1,.3115.4482.2748.2748,0,0,1,.0244.0743,6.9545,6.9545,0,0,0,.8965,2.2119,1.7608,1.7608,0,0,0,1.5361.71h.0088a.938.938,0,0,1,0,1.876h-.0088a3.3,3.3,0,0,1-1.1289-.1865,3.5341,3.5341,0,0,1-.9384-.5108,5.9056,5.9056,0,0,1-1.3692,3.25,6.2832,6.2832,0,0,1-2.7812,1.83.87.87,0,0,1-.7637-.0664.9447.9447,0,0,1-.44-.539.8739.8739,0,0,1,.0743-.76,1.0188,1.0188,0,0,1,.5156-.4277,4.3513,4.3513,0,0,0,2.1621-1.5147,4.5751,4.5751,0,0,0,.7842-2.8018,10.1177,10.1177,0,0,0-.3408-2.4736C264.3632,49.5007,264.3457,49.4451,264.33,49.3894Zm-.2832-4.5234a.9773.9773,0,0,1,.2783-.6768.93.93,0,0,1,.7178-.3027.99.99,0,0,1,.5313.1328,1.0537,1.0537,0,0,1,.3408.3232,1.03,1.03,0,0,1,.166.5313,1.3309,1.3309,0,0,1-.2119.6679.8647.8647,0,0,1-.8174.3614.9525.9525,0,0,1-.6269-.1787,1.0243,1.0243,0,0,1-.3028-.41A1.3665,1.3665,0,0,1,264.0468,44.866Z"/><path class="cls-3" d="M271.7665,46.2517a4.0935,4.0935,0,0,1,1.5772.3525q.8379.3531,1.7432.8184.5888.3061,1.3281.6426t1.66.7265a.9056.9056,0,0,1,.4063.3526.93.93,0,0,1,.1582.5107.8829.8829,0,0,1-.4395.7969,23.7762,23.7762,0,0,1-4.666,2.416,13.8017,13.8017,0,0,1-4.9218.8877.9111.9111,0,0,1-.668-.2783.9209.9209,0,0,1,0-1.3193.9108.9108,0,0,1,.668-.2784,11.94,11.94,0,0,0,3.5361-.5351,16.0822,16.0822,0,0,0,3.4775-1.5733c-.3261-.1543-.6357-.3017-.93-.4394s-.5722-.2793-.8379-.4238q-.6386-.34-1.1084-.5391a2.1306,2.1306,0,0,0-.81-.1992.7776.7776,0,0,0-.626.2939,4.6741,4.6741,0,0,0-.56.9844.8776.8776,0,0,1-.5352.4766.86.86,0,0,1-.8262-.087.9386.9386,0,0,1-.374-.5058.908.908,0,0,1,.042-.69,6.6212,6.6212,0,0,1,1.1123-1.73A2.075,2.075,0,0,1,271.7665,46.2517Zm-.2988,9.6211a.9775.9775,0,0,1,.2783-.6768.93.93,0,0,1,.7178-.3027.9936.9936,0,0,1,.5313.1328,1.0494,1.0494,0,0,1,.34.3233,1.0207,1.0207,0,0,1,.166.5312,1.3394,1.3394,0,0,1-.2109.668.8676.8676,0,0,1-.8184.3613.9478.9478,0,0,1-.6259-.1787,1.027,1.027,0,0,1-.3038-.41A1.3923,1.3923,0,0,1,271.4677,55.8728Z"/><path class="cls-3" d="M287.8364,57.657a6.21,6.21,0,0,1-2.7891-.5889,4.4811,4.4811,0,0,1-1.8423-1.6269,4.38,4.38,0,0,1-.6562-2.3907,9.0285,9.0285,0,0,1,.1738-1.7265,13.72,13.72,0,0,1,.457-1.7266.9345.9345,0,0,1,.4981-.5312.8688.8688,0,0,1,.7143-.0254.9244.9244,0,0,1,.5274.49.8747.8747,0,0,1,.0283.7217,11.2745,11.2745,0,0,0-.3652,1.3447,6.4617,6.4617,0,0,0-.1407,1.2871,2.6959,2.6959,0,0,0,.8672,2.1289,3.6886,3.6886,0,0,0,2.52.7676,3.86,3.86,0,0,0,2.5644-.7637,2.6192,2.6192,0,0,0,.9053-2.1162,5.9419,5.9419,0,0,0-.1865-1.4365,12.8258,12.8258,0,0,0-.502-1.5518.8759.8759,0,0,1-.0049-.7226.9321.9321,0,0,1,.503-.5059.954.954,0,0,1,1.2441.5059q.233.59.4072,1.1455a2.6885,2.6885,0,0,0,.6973,1.1875,1.612,1.612,0,0,0,1.0869.3564h.0088a.938.938,0,0,1,0,1.876h-.0088a3.2514,3.2514,0,0,1-1.3613-.2988,4.1977,4.1977,0,0,1-.792,2.1914,4.6232,4.6232,0,0,1-1.8594,1.4775A6.4336,6.4336,0,0,1,287.8364,57.657Zm-1.0537-7.4541a.977.977,0,0,1,.2783-.6768.9328.9328,0,0,1,.7178-.3027,1.0015,1.0015,0,0,1,.5312.1328,1.076,1.076,0,0,1,.3408.3242,1.0266,1.0266,0,0,1,.166.5313,1.3459,1.3459,0,0,1-.2119.6679.8687.8687,0,0,1-.8174.3614.949.949,0,0,1-.6269-.1787,1.0177,1.0177,0,0,1-.3027-.4112A1.3328,1.3328,0,0,1,286.7827,50.2029Z"/><path class="cls-3" d="M293.6069,52.8181a.889.889,0,0,1,.2822-.6641.923.923,0,0,1,.6641-.2744,10.8819,10.8819,0,0,0,2.7929-.2861q1.0343-.2871,1.0332-1.083a2.4082,2.4082,0,0,0-.4189-1.2168,11.2054,11.2054,0,0,0-1.083-1.4522q-.6636-.7676-1.42-1.5312a4.1663,4.1663,0,0,1-.419-.49.9254.9254,0,0,1-.1367-.5313.9376.9376,0,0,1,.1865-.5683.9689.9689,0,0,1,.5108-.3526l5.81-1.9346a1.1629,1.1629,0,0,1,.8262.004.796.796,0,0,1,.4687.56.9863.9863,0,0,1-.05.7393.8752.8752,0,0,1-.5478.4316l-4.69,1.4853a28.1486,28.1486,0,0,1,2.0712,2.586,3.907,3.907,0,0,1,.7842,2.2285,2.6414,2.6414,0,0,1-.6885,1.9014,4.0525,4.0525,0,0,1-1.9716,1.0537,12.3045,12.3045,0,0,1-3.0586.332.9152.9152,0,0,1-.6641-.2783A.8921.8921,0,0,1,293.6069,52.8181Z"/><path class="cls-3" d="M306.3061,47.14a2.5763,2.5763,0,0,1,1.7559.6513,4.2988,4.2988,0,0,1,1.1533,1.6973,6.0889,6.0889,0,0,1,.4111,2.25,5.9673,5.9673,0,0,1-.44,2.3027A6.3164,6.3164,0,0,1,307.97,55.947a7.1416,7.1416,0,0,1-1.78,1.3985,7.6149,7.6149,0,0,1-2.1416.8017.905.905,0,0,1-.71-.1494.8923.8923,0,0,1-.3945-.5977.8535.8535,0,0,1,.1543-.6972,1.1085,1.1085,0,0,1,.5937-.4151,6.912,6.912,0,0,0,2.2618-1.0293,4.5017,4.5017,0,0,0,1.4062-1.5859,6.1683,6.1683,0,0,1-.93.0752,3.5632,3.5632,0,0,1-2.3613-.71,2.66,2.66,0,0,1-.8418-2.1543,4.2217,4.2217,0,0,1,.4062-1.8466,3.6507,3.6507,0,0,1,1.1036-1.3741A2.55,2.55,0,0,1,306.3061,47.14Zm-1.3193,3.6689a1.0643,1.0643,0,0,0,.373.9248,1.7724,1.7724,0,0,0,1.0547.2705,4.3068,4.3068,0,0,0,.6553-.05q.3237-.05.6142-.125a.5339.5339,0,0,1,.125-.0166v-.0078a4.8617,4.8617,0,0,0-.1787-1.2744,3.2417,3.2417,0,0,0-.5185-1.1123,1.0256,1.0256,0,0,0-.8477-.4522.93.93,0,0,0-.6553.2735,1.8951,1.8951,0,0,0-.456.6933A2.344,2.344,0,0,0,304.9868,50.8093Z"/><path class="cls-3" d="M313.893,50.0124q0-1.5937.0332-3.1376t-.0254-3.3458a.951.951,0,0,1,.2578-.6806.8728.8728,0,0,1,.6475-.2988.9173.9173,0,0,1,.6807.249.884.884,0,0,1,.2988.6562q.0587,1.7754.0254,3.3408t-.0332,3.1915a2.2621,2.2621,0,0,0,.3652,1.4775,1.9013,1.9013,0,0,0,1.4434.415h.0088a.938.938,0,0,1,0,1.876h-.0088a3.9813,3.9813,0,0,1-2.7637-.8467A3.7808,3.7808,0,0,1,313.893,50.0124Z"/><path class="cls-3" d="M315.895,57.2175a.77.77,0,0,1,.5136-.9463,6.37,6.37,0,0,1,1.0752-.2158,9.9435,9.9435,0,0,1,1.208-.0752,6.932,6.932,0,0,1,1.0664.0752,3.82,3.82,0,0,1,.81.207.771.771,0,0,1,.3946.4981.7216.7216,0,0,1-.1045.6143.779.779,0,0,1-.3809.3027.8088.8088,0,0,1-.4648.0215,4.0543,4.0543,0,0,0-.6026-.1084,6.3289,6.3289,0,0,0-.7178-.041c-.3759,0-.7265.0146-1.05.0449a4.0061,4.0061,0,0,0-.8017.1455.7309.7309,0,0,1-.5762-.0742A.7661.7661,0,0,1,315.895,57.2175Zm.7549-4.3994a.889.889,0,0,1,.2822-.6641.9229.9229,0,0,1,.664-.2744,4.0425,4.0425,0,0,0,1.6729-.2617,1.3364,1.3364,0,0,0,.7217-.8838,6.8834,6.8834,0,0,0,.2031-1.6845.902.902,0,0,1,.32-.6807.9593.9593,0,0,1,.6934-.2158.9022.9022,0,0,1,.6465.3193.8739.8739,0,0,1,.2246.6768,5.3913,5.3913,0,0,0,.1367,1.6015,1.3434,1.3434,0,0,0,.6679.8633,3.111,3.111,0,0,0,1.4366.2656h.0088a.938.938,0,0,1,0,1.876H324.32a4.4235,4.4235,0,0,1-1.9961-.3945,2.5894,2.5894,0,0,1-1.2-1.34,2.9922,2.9922,0,0,1-1.3819,1.3565,5.2634,5.2634,0,0,1-2.1455.3779.9151.9151,0,0,1-.664-.2783A.8921.8921,0,0,1,316.65,52.8181Z"/><path class="cls-3" d="M323.39,52.8181a.8957.8957,0,0,1,.2773-.6641.9094.9094,0,0,1,.66-.2744,2.8439,2.8439,0,0,0,1.5937-.34,1.48,1.48,0,0,0,.4815-1.2871c0-.2207-.0166-.5049-.05-.8506s-.083-.6934-.1494-1.042a.9146.9146,0,0,1,.1865-.6934.93.93,0,0,1,.6191-.3691.886.886,0,0,1,.6973.1787.9637.9637,0,0,1,.373.6182q.1158.6152.1739,1.1787a9.7557,9.7557,0,0,1,.0586.9883,3.28,3.28,0,0,1-1.0166,2.5976,4.3579,4.3579,0,0,1-2.9678.8965.9487.9487,0,0,1-.9375-.9375Zm.5469,3.9258a.977.977,0,0,1,.2783-.6768.9331.9331,0,0,1,.7178-.3027.9993.9993,0,0,1,.5312.1328,1.0564,1.0564,0,0,1,.3408.3242,1.0266,1.0266,0,0,1,.166.5313,1.3368,1.3368,0,0,1-.2119.6679.8667.8667,0,0,1-.8174.3614.9527.9527,0,0,1-.6269-.1787,1.027,1.027,0,0,1-.3027-.4112A1.3577,1.3577,0,0,1,323.937,56.7439Z"/><path class="cls-3" d="M332.9682,53.7556a3.6072,3.6072,0,0,1-2.3818-.7139,2.65,2.65,0,0,1-.8545-2.1582,4.22,4.22,0,0,1,.4062-1.8466,3.6514,3.6514,0,0,1,1.1035-1.3741,2.6575,2.6575,0,0,1,3.3252.1289A4.2979,4.2979,0,0,1,335.72,49.489a6.0889,6.0889,0,0,1,.4111,2.25V51.88h.7393a.938.938,0,0,1,0,1.876h-1.08a6.0717,6.0717,0,0,1-1.1739,2.0381,7.097,7.097,0,0,1-1.83,1.5019,7.5649,7.5649,0,0,1-2.2334.8516.905.905,0,0,1-.71-.1494.8923.8923,0,0,1-.3945-.5977.8535.8535,0,0,1,.1543-.6972,1.1085,1.1085,0,0,1,.5937-.4151,6.9129,6.9129,0,0,0,2.2158-1.0009,4.6332,4.6332,0,0,0,1.4112-1.5313Zm-.0156-1.876h1.3613v-.0742a4.8659,4.8659,0,0,0-.1787-1.2744,3.24,3.24,0,0,0-.5186-1.1123,1.0253,1.0253,0,0,0-.8476-.4522,1.0737,1.0737,0,0,0-.917.5352,2.1273,2.1273,0,0,0-.36,1.2158,1.0012,1.0012,0,0,0,.39.9092A1.952,1.952,0,0,0,332.9526,51.88Z"/><path class="cls-3" d="M335.9233,52.8181a.889.889,0,0,1,.2822-.6641.923.923,0,0,1,.6641-.2744,4.0423,4.0423,0,0,0,1.6728-.2617,1.3361,1.3361,0,0,0,.7217-.8838,6.8834,6.8834,0,0,0,.2031-1.6845.9023.9023,0,0,1,.32-.6807.9594.9594,0,0,1,.6934-.2158.902.902,0,0,1,.6465.3193.8732.8732,0,0,1,.2246.6768,5.3913,5.3913,0,0,0,.1367,1.6015,1.3435,1.3435,0,0,0,.668.8633,3.11,3.11,0,0,0,1.4365.2656h.0088a.938.938,0,0,1,0,1.876h-.0088a4.4238,4.4238,0,0,1-1.9961-.3945,2.59,2.59,0,0,1-1.2-1.34,2.9925,2.9925,0,0,1-1.3818,1.3565,5.2637,5.2637,0,0,1-2.1455.3779.9152.9152,0,0,1-.6641-.2783A.8921.8921,0,0,1,335.9233,52.8181Zm1.917-7.3633a.9771.9771,0,0,1,.2783-.6767.9329.9329,0,0,1,.7178-.3028,1,1,0,0,1,.5312.1328,1.0546,1.0546,0,0,1,.3408.3243,1.0264,1.0264,0,0,1,.1661.5312,1.3373,1.3373,0,0,1-.212.668.8666.8666,0,0,1-.8173.3613.9528.9528,0,0,1-.627-.1787,1.0267,1.0267,0,0,1-.3027-.4111A1.3587,1.3587,0,0,1,337.84,45.4548Z"/><path class="cls-3" d="M341.9008,57.2175a.77.77,0,0,1,.5137-.9463,6.3661,6.3661,0,0,1,1.0752-.2158,9.9423,9.9423,0,0,1,1.208-.0752,6.9329,6.9329,0,0,1,1.0664.0752,3.82,3.82,0,0,1,.81.207.7708.7708,0,0,1,.3945.4981.7216.7216,0,0,1-.1045.6143.7788.7788,0,0,1-.3808.3027.8091.8091,0,0,1-.4649.0215,4.05,4.05,0,0,0-.6025-.1084,6.33,6.33,0,0,0-.7178-.041c-.376,0-.7266.0146-1.05.0449a4.0086,4.0086,0,0,0-.8018.1455.7306.7306,0,0,1-.5761-.0742A.7663.7663,0,0,1,341.9008,57.2175Zm.7637-4.3994a.8957.8957,0,0,1,.2773-.6641.9094.9094,0,0,1,.66-.2744,2.8437,2.8437,0,0,0,1.5937-.34,1.48,1.48,0,0,0,.4815-1.2871c0-.2207-.0166-.5049-.05-.8506s-.083-.6934-.1494-1.042a.9146.9146,0,0,1,.1865-.6934.93.93,0,0,1,.6191-.3691.886.886,0,0,1,.6973.1787.9643.9643,0,0,1,.3731.6182q.1157.6152.1738,1.1787a9.7557,9.7557,0,0,1,.0586.9883,3.28,3.28,0,0,1-1.0166,2.5976,4.3579,4.3579,0,0,1-2.9678.8965.9487.9487,0,0,1-.9375-.9375Z"/><path class="cls-3" d="M351.4135,49.3894a.7648.7648,0,0,1,.1-.7051.969.969,0,0,1,.6055-.4316.84.84,0,0,1,.2578-.0254.8969.8969,0,0,1,.543.208.9658.9658,0,0,1,.3115.4482.2783.2783,0,0,1,.0244.0743,6.9545,6.9545,0,0,0,.8965,2.2119,1.7608,1.7608,0,0,0,1.5361.71h.0088a.938.938,0,0,1,0,1.876h-.0088a3.3,3.3,0,0,1-1.1289-.1865,3.5341,3.5341,0,0,1-.9384-.5108,5.9056,5.9056,0,0,1-1.3692,3.25,6.2832,6.2832,0,0,1-2.7812,1.83.87.87,0,0,1-.7637-.0664.9447.9447,0,0,1-.44-.539.8739.8739,0,0,1,.0743-.76,1.0188,1.0188,0,0,1,.5156-.4277,4.3513,4.3513,0,0,0,2.1621-1.5147,4.5751,4.5751,0,0,0,.7842-2.8018,10.1177,10.1177,0,0,0-.3408-2.4736C351.4467,49.5007,351.4291,49.4451,351.4135,49.3894Z"/><path class="cls-3" d="M354.7582,52.8181a.8954.8954,0,0,1,.2774-.6641.9092.9092,0,0,1,.66-.2744,2.8441,2.8441,0,0,0,1.5938-.34,1.48,1.48,0,0,0,.4814-1.2871c0-.2207-.0166-.5049-.05-.8506s-.083-.6934-.1494-1.042a.9146.9146,0,0,1,.1865-.6934.9306.9306,0,0,1,.6192-.3691.886.886,0,0,1,.6973.1787.9637.9637,0,0,1,.373.6182q.1158.6152.1738,1.1787a9.7266,9.7266,0,0,1,.0586.9883,3.28,3.28,0,0,1-1.0166,2.5976,4.3577,4.3577,0,0,1-2.9678.8965.9489.9489,0,0,1-.9375-.9375Zm.3067-7.7119a.773.773,0,0,1,.5146-.9463,6.4289,6.4289,0,0,1,1.0752-.2158,9.9124,9.9124,0,0,1,1.2071-.0742,6.9432,6.9432,0,0,1,1.0673.0742,3.751,3.751,0,0,1,.81.208.7646.7646,0,0,1,.3936.498.7224.7224,0,0,1-.1035.6143.7863.7863,0,0,1-.3819.3027.7991.7991,0,0,1-.4648.02,4.0782,4.0782,0,0,0-.6016-.1074,6.1584,6.1584,0,0,0-.7187-.042q-.564,0-1.05.0459a3.9315,3.9315,0,0,0-.8008.1455.7332.7332,0,0,1-.5772-.0752A.76.76,0,0,1,355.0649,45.1062Z"/><path class="cls-3" d="M363.4243,53.822a9.8205,9.8205,0,0,1,.2363-2.1709,17.8909,17.8909,0,0,1,.6846-2.2617.9453.9453,0,0,1,1.7763.6475,15.9321,15.9321,0,0,0-.59,2.0009,8.1879,8.1879,0,0,0-.207,1.7344,2.5051,2.5051,0,0,0,.8007,2.0342,4.0547,4.0547,0,0,0,2.6114.6719,5.4406,5.4406,0,0,0,2.34-.4063q.8306-.4073.83-.9463,0-.4658-.6719-.8388a5.7008,5.7008,0,0,0-2.0332-.5313.9.9,0,0,1-.5644-.29.9693.9693,0,0,1-.2657-.5811.8731.8731,0,0,1,.253-.706.9229.9229,0,0,1,.6923-.2989h5.0557a.938.938,0,0,1,0,1.876h-1.6846a2.0446,2.0446,0,0,1,1.0118,1.66,2.1169,2.1169,0,0,1-.6348,1.4863,4.3789,4.3789,0,0,1-1.7676,1.07,7.9416,7.9416,0,0,1-2.6357.3984,6.4267,6.4267,0,0,1-2.8467-.5722A4.1126,4.1126,0,0,1,364.0336,56.2,4.5619,4.5619,0,0,1,363.4243,53.822Z"/><path class="cls-3" d="M373.436,52.8181a.8957.8957,0,0,1,.2773-.6641.9094.9094,0,0,1,.66-.2744,1.2092,1.2092,0,0,0,1.1992-.7343,5.477,5.477,0,0,0,.3359-2.1875q0-.7794-.041-1.5606-.0409-.7793-.1367-1.7637t-.2617-2.37a.9538.9538,0,0,1,.1953-.6972.889.889,0,0,1,.6182-.3653.9246.9246,0,0,1,.6972.1865.899.899,0,0,1,.3653.627q.1494,1.17.2412,2.1006.0907.9286.1328,1.7676t.041,1.7431a7.66,7.66,0,0,1-.76,3.9014,2.8382,2.8382,0,0,1-2.6269,1.2285.9487.9487,0,0,1-.9375-.9375Z"/><path class="cls-3" d="M378.2,59.6414a.4143.4143,0,0,1,.02-.3487.4623.4623,0,0,1,.27-.249l1.0293-.3574a1.4152,1.4152,0,0,1-.5811-.5274,1.5408,1.5408,0,0,1-.2158-.834,1.7908,1.7908,0,0,1,.5147-1.3154,1.91,1.91,0,0,1,1.42-.5185,3.4938,3.4938,0,0,1,.5644.041.504.504,0,0,1,.3106.1787.42.42,0,0,1,.1035.3193.4734.4734,0,0,1-.17.3194.3945.3945,0,0,1-.3438.1045,1.7589,1.7589,0,0,0-.35-.0333,1.1726,1.1726,0,0,0-.8418.2735.9122.9122,0,0,0-.2871.6894.7016.7016,0,0,0,.25.5811,1.0589,1.0589,0,0,0,.68.1992,2.4752,2.4752,0,0,0,.5156-.0586,6.7263,6.7263,0,0,0,.7715-.2324.429.429,0,0,1,.3692.0371.4421.4421,0,0,1,.2207.2949.4853.4853,0,0,1-.0459.3448.3859.3859,0,0,1-.2452.2031l-3.3613,1.1787a.4353.4353,0,0,1-.3574-.02A.4728.4728,0,0,1,378.2,59.6414Zm1.2109-16.004a.9154.9154,0,0,1,.1914-.6972.9375.9375,0,0,1,1.6768.4482q.1494,1.0709.2324,1.8965t.1162,1.6182c.0225.5293.0332,1.122.0332,1.7812q0,1.1529-.041,2.3487t-.1328,2.2246a.9239.9239,0,0,1-.3321.64.9021.9021,0,0,1-.6894.2236.9158.9158,0,0,1-.6387-.332.8854.8854,0,0,1-.2246-.6807q.0908-1.0282.1328-2.2119t.041-2.3037q0-.9213-.0332-1.64t-.1113-1.4854Q379.5522,44.7,379.4106,43.6374Z"/><path class="cls-3" d="M391.3237,47.5632a2.8836,2.8836,0,0,1,1.7265.502,3.1614,3.1614,0,0,1,1.0577,1.3281,4.63,4.63,0,0,1,.3779,1.7979,1.7324,1.7324,0,0,0,.6514.539,3.2141,3.2141,0,0,0,1.1669.1494h.0079a.8874.8874,0,0,1,.6718.2784.9517.9517,0,0,1,0,1.3193.8876.8876,0,0,1-.6718.2783h-.0079a5.4808,5.4808,0,0,1-1.3906-.1572,3.489,3.489,0,0,1-1.0508-.4649,2.5016,2.5016,0,0,1-1.1621.7012,5.5444,5.5444,0,0,1-1.5761.2119,10.0378,10.0378,0,0,1-1.3829-.0957q-.684-.0953-1.2822-.2031a1.2241,1.2241,0,0,0-.6553.0166q-.2079.0907-.1914.4561l.2989,5.1962a.9685.9685,0,0,1-.2578.7178.878.878,0,0,1-.68.3037.9062.9062,0,0,1-.6436-.2539.8775.8775,0,0,1-.2861-.626l-.3164-5.62a1.9724,1.9724,0,0,1,.5195-1.6181,2.2109,2.2109,0,0,1,1.5234-.5733.9736.9736,0,0,1,.0079-.34,7.5255,7.5255,0,0,1,.4062-1.37,5.2555,5.2555,0,0,1,.7061-1.2413,3.3656,3.3656,0,0,1,1.038-.8964A2.828,2.828,0,0,1,391.3237,47.5632Zm-1.793,4.167a.9578.9578,0,0,1-.084.249c.2989.0616.5977.1094.8965.1456a7.2732,7.2732,0,0,0,.8721.0537,2.3881,2.3881,0,0,0,.9961-.1866.7962.7962,0,0,0,.4072-.8095,2.4417,2.4417,0,0,0-.3037-1.208,1.047,1.047,0,0,0-.9912-.543,1.3111,1.3111,0,0,0-1.1914.6807A5.0414,5.0414,0,0,0,389.5307,51.73Z"/><path class="cls-3" d="M395.3745,52.8181a.8957.8957,0,0,1,.2773-.6641.9094.9094,0,0,1,.66-.2744,2.5591,2.5591,0,0,0,1.7558-.5888,3.06,3.06,0,0,0,.7754-2.1338,1.0179,1.0179,0,0,1,.084-.3067.8788.8788,0,0,1,.7217-.54.94.94,0,0,1,.2158-.0078.965.965,0,0,1,.4394.1572.8969.8969,0,0,1,.4239.73,3.1472,3.1472,0,0,0,.59,1.7763,10.0539,10.0539,0,0,1,2.2529-2.8925,4.217,4.217,0,0,1,2.794-1.0664,3.3214,3.3214,0,0,1,1.6143.3857,2.8942,2.8942,0,0,1,1.12,1.07,3.0438,3.0438,0,0,1,.4111,1.5987,3.1464,3.1464,0,0,1-.1572.996,1.278,1.278,0,0,0,.5976.6309,2.9274,2.9274,0,0,0,1.22.19h.0087a.938.938,0,0,1,0,1.876H411.17a4.6137,4.6137,0,0,1-1.6729-.29,3.6192,3.6192,0,0,1-1.2734-.8135,5.1609,5.1609,0,0,1-1.6983.875,7.0577,7.0577,0,0,1-2.1289.3115,6.9087,6.9087,0,0,1-2.5234-.4394c-.0772.166-.1553.3369-.2324.5146a.7533.7533,0,0,1-.4942.46.7611.7611,0,0,1-.61-.0615.7059.7059,0,0,1-.3233-.4278.9557.9557,0,0,1,.042-.6181q.1319-.3325.2656-.64a4.205,4.205,0,0,1-.6562-.6475,3.85,3.85,0,0,1-1.4815,1.3155,4.5147,4.5147,0,0,1-2.0712.4609.9487.9487,0,0,1-.9375-.9375ZM406.1479,48.9a2.6732,2.6732,0,0,0-1.834.7842,8.9023,8.9023,0,0,0-1.6191,2.0957,6.7434,6.7434,0,0,0,1.7021.1826,5.5148,5.5148,0,0,0,2.32-.4228,1.4113,1.4113,0,0,0,.9092-1.3535,1.1267,1.1267,0,0,0-.44-.95A1.6577,1.6577,0,0,0,406.1479,48.9Zm-.7969-4.8144a.9775.9775,0,0,1,.2783-.6768.93.93,0,0,1,.7178-.3027.99.99,0,0,1,.5313.1328,1.0529,1.0529,0,0,1,.3408.3233,1.03,1.03,0,0,1,.166.5312,1.3316,1.3316,0,0,1-.2119.668.8648.8648,0,0,1-.8174.3613.9525.9525,0,0,1-.6269-.1787,1.0243,1.0243,0,0,1-.3028-.41A1.3665,1.3665,0,0,1,405.351,44.0857Z"/><path class="cls-3" d="M410.2407,52.8181a.8957.8957,0,0,1,.2773-.6641.9094.9094,0,0,1,.66-.2744,2.8439,2.8439,0,0,0,1.5937-.34,1.48,1.48,0,0,0,.4815-1.2871c0-.2207-.0166-.5049-.05-.8506s-.083-.6934-.1495-1.042a.9142.9142,0,0,1,.1866-.6934.93.93,0,0,1,.6191-.3691.886.886,0,0,1,.6973.1787.9637.9637,0,0,1,.373.6182q.1158.6152.1739,1.1787a9.7527,9.7527,0,0,1,.0585.9883,3.28,3.28,0,0,1-1.0166,2.5976,4.3574,4.3574,0,0,1-2.9677.8965.9487.9487,0,0,1-.9375-.9375Zm1.6093-8.11a.9768.9768,0,0,1,.2784-.6768.9327.9327,0,0,1,.7177-.3027.9994.9994,0,0,1,.5313.1328,1.0553,1.0553,0,0,1,.3408.3242,1.0265,1.0265,0,0,1,.166.5312,1.3371,1.3371,0,0,1-.2119.668.8666.8666,0,0,1-.8174.3613.9521.9521,0,0,1-.6269-.1787,1.0272,1.0272,0,0,1-.3028-.4111A1.3586,1.3586,0,0,1,411.85,44.7078Z"/><path class="cls-3" d="M416.7641,43.6374a.9158.9158,0,0,1,.1914-.6972.9375.9375,0,0,1,1.6768.4482q.1494,1.0709.2324,1.8965t.1162,1.6182c.0225.5293.0332,1.122.0332,1.7812q0,1.1529-.041,2.3487t-.1328,2.2246a.9239.9239,0,0,1-.3321.64.9019.9019,0,0,1-.6894.2236.9158.9158,0,0,1-.6387-.332.8858.8858,0,0,1-.2246-.6807q.0909-1.0282.1328-2.2119t.041-2.3037q0-.9213-.0332-1.64t-.1113-1.4854Q416.9058,44.7,416.7641,43.6374Z"/></g></svg>