<svg xmlns="http://www.w3.org/2000/svg" viewBox="0 0 500.6876 97.0213"><defs><style>.cls-1{fill:#ffb900;}.cls-2{fill:#fff;}.cls-3{fill:none;stroke:#fff;stroke-miterlimit:10;}.cls-4{fill:#00193e;}</style></defs><g id="_4" data-name="4"><g id="_4-2" data-name="4"><rect class="cls-1" x="34.5283" y="23.1557" width="436.7908" height="60.5127" rx="30.2563"/><path class="cls-2" d="M446.3546,49.7924a2.6134,2.6134,0,1,1-2.6133,2.6134,2.6134,2.6134,0,0,1,2.6133-2.6134m0-1a3.6134,3.6134,0,1,0,3.6133,3.6134,3.6175,3.6175,0,0,0-3.6133-3.6134Z"/><line class="cls-3" x1="553.0646" y1="52.4058" x2="448.3107" y2="52.4058"/><path class="cls-2" d="M56.0875,49.7924a2.6134,2.6134,0,1,1-2.6133,2.6134,2.6134,2.6134,0,0,1,2.6133-2.6134m0-1a3.6134,3.6134,0,1,0,3.6133,3.6134,3.6175,3.6175,0,0,0-3.6133-3.6134Z"/><line class="cls-3" x1="-39.6225" y1="52.4058" x2="54.1314" y2="52.4058"/></g><path class="cls-4" d="M71.6351,48.777a3.8429,3.8429,0,0,1,.3818-1.7217,5.4125,5.4125,0,0,1,1.0166-1.42,11.1591,11.1591,0,0,1,1.3907-1.19q-.6064-.5742-1.2159-1.2334t-1.2578-1.39l-.0088-.0088a.8109.8109,0,0,1-.0908-.1084.8646.8646,0,0,1-.1494-.373.9257.9257,0,0,1,.0039-.4355.8577.8577,0,0,1,.2363-.4024.7069.7069,0,0,1,.0664-.0586,5.6328,5.6328,0,0,1,1.81-1.05,6.1532,6.1532,0,0,1,2.084-.3613,4.8556,4.8556,0,0,1,1.7344.2988,2.888,2.888,0,0,1,1.2617.8877,2.2745,2.2745,0,0,1,.4736,1.47,2.6705,2.6705,0,0,1-.4736,1.5772,5.9182,5.9182,0,0,1-1.22,1.2539,6.0175,6.0175,0,0,0,1.2695.4355,6.6989,6.6989,0,0,0,1.4775.1534h.0088a.9071.9071,0,0,1,.66.2744.94.94,0,0,1-.66,1.6015h-.0088a8.08,8.08,0,0,1-2.4521-.3447,7.8986,7.8986,0,0,1-2.0137-.9668,10.055,10.055,0,0,0-1.78,1.47,2.352,2.352,0,0,0-.6679,1.6426,1.5322,1.5322,0,0,0,.498,1.1914,2.981,2.981,0,0,0,1.27.6563,6.224,6.224,0,0,0,1.5937.2031,10.2565,10.2565,0,0,0,1.76-.166.871.871,0,0,1,.7519.1738.9372.9372,0,0,1,.3526.6309.9658.9658,0,0,1-.1866.6523.8791.8791,0,0,1-.5771.3858,9.6127,9.6127,0,0,1-1.0713.1533c-.3535.03-.6973.0459-1.0293.0459a7.9383,7.9383,0,0,1-1.98-.2412,5.4813,5.4813,0,0,1-1.6767-.7256,3.6124,3.6124,0,0,1-1.1583-1.2246A3.4307,3.4307,0,0,1,71.6351,48.777Zm4.2666-7.86a4.2683,4.2683,0,0,0-1.8682.4228q.4981.5816.9844,1.0957a13.4707,13.4707,0,0,0,.9834.9473,7.5135,7.5135,0,0,0,1.1123-.876,1.09,1.09,0,0,0,.3818-.7266.69.69,0,0,0-.4736-.6513A2.7164,2.7164,0,0,0,75.9017,40.9167Z"/><path class="cls-4" d="M79.4876,46.0387a.8872.8872,0,0,1,.2823-.664.9171.9171,0,0,1,.664-.2744H81.679a.9148.9148,0,0,1,.668.2744.9256.9256,0,0,1,0,1.3232.9107.9107,0,0,1-.668.2783H80.4339a.913.913,0,0,1-.664-.2783A.8936.8936,0,0,1,79.4876,46.0387Z"/><path class="cls-4" d="M79.9769,50.4372a.7713.7713,0,0,1,.5146-.9453,6.4448,6.4448,0,0,1,1.0752-.2168,10.1255,10.1255,0,0,1,1.208-.0743,7.0561,7.0561,0,0,1,1.0665.0743,3.8047,3.8047,0,0,1,.8095.208.7688.7688,0,0,1,.3946.498.7222.7222,0,0,1-.1045.6143.7819.7819,0,0,1-.3819.3027.8079.8079,0,0,1-.4648.0215,3.9025,3.9025,0,0,0-.6016-.1084,6.3432,6.3432,0,0,0-.7178-.042q-.5653,0-1.05.0459a3.9429,3.9429,0,0,0-.8017.1455.73.73,0,0,1-.5762-.0742A.77.77,0,0,1,79.9769,50.4372Zm.7559-4.3985a.8871.8871,0,0,1,.2822-.664.9172.9172,0,0,1,.664-.2744,4.0486,4.0486,0,0,0,1.6729-.2618,1.3364,1.3364,0,0,0,.7217-.8838,6.9352,6.9352,0,0,0,.2031-1.6855.895.895,0,0,1,.32-.68.9621.9621,0,0,1,.6924-.2168.9073.9073,0,0,1,.6475.32.8767.8767,0,0,1,.2246.6758,5.3951,5.3951,0,0,0,.1367,1.6025,1.3432,1.3432,0,0,0,.668.8633,3.119,3.119,0,0,0,1.4365.2657h.0078a.938.938,0,0,1,0,1.8759h-.0078a4.434,4.434,0,0,1-1.9961-.3945,2.59,2.59,0,0,1-1.2-1.34,2.9975,2.9975,0,0,1-1.3818,1.3564,5.2659,5.2659,0,0,1-2.1456.3779.9131.9131,0,0,1-.664-.2783A.8935.8935,0,0,1,80.7328,46.0387Z"/><path class="cls-4" d="M87.473,46.03a.8875.8875,0,0,1,.2773-.66.918.918,0,0,1,.66-.27h.49a.2429.2429,0,0,1,.0332-.0909,12.2325,12.2325,0,0,1,.6885-1.3125.8281.8281,0,0,1,.0088-.124,9.3248,9.3248,0,0,0,.0742-.9629q.0175-.5391.0166-1.1865,0-.8892-.0371-1.8262-.0381-.939-.1-1.7685-.063-.8306-.1367-1.3946a.81.81,0,0,1,.1992-.6845.9665.9665,0,0,1,.5976-.3448.8661.8661,0,0,1,.7217.2032,1.0434,1.0434,0,0,1,.3575.6435q.0819.564.1494,1.3321.0658.7675.1074,1.59t.042,1.5527v.6387a5.3315,5.3315,0,0,1,1.3779-.8008,4.1358,4.1358,0,0,1,1.5274-.2871,3.0489,3.0489,0,0,1,2.1914.8145,2.8831,2.8831,0,0,1,.8545,2.1914,3.5029,3.5029,0,0,1-.1661,1.1035,1.5279,1.5279,0,0,0,.5811.5234,2.0476,2.0476,0,0,0,.9463.1905h.0088a.938.938,0,0,1,0,1.8759h-.0088a3.5657,3.5657,0,0,1-2.7305-1.07,5.9516,5.9516,0,0,1-2.3789.8379A20.1539,20.1539,0,0,1,90.81,46.96H88.4105a.9071.9071,0,0,1-.66-.2744A.8875.8875,0,0,1,87.473,46.03Zm6.84-3.8681a2.405,2.405,0,0,0-1.3076.3906,4.7659,4.7659,0,0,0-1.1543,1.0537A8.975,8.975,0,0,0,90.8841,45.1h.05a22.0677,22.0677,0,0,0,3.0342-.17,2,2,0,0,0,1.5566-.8174.511.511,0,0,1,.0665-.125,1.4868,1.4868,0,0,0,.1-.5566,1.1965,1.1965,0,0,0-.3741-.93A1.4354,1.4354,0,0,0,94.3128,42.1618Z"/><path class="cls-4" d="M97.9984,46.0387a.8871.8871,0,0,1,.2822-.664.9173.9173,0,0,1,.6641-.2744,4.0484,4.0484,0,0,0,1.6728-.2618,1.3361,1.3361,0,0,0,.7217-.8838,6.9352,6.9352,0,0,0,.2031-1.6855.8953.8953,0,0,1,.32-.68.9621.9621,0,0,1,.6924-.2168.9071.9071,0,0,1,.6475.32.8759.8759,0,0,1,.2246.6758,5.3951,5.3951,0,0,0,.1367,1.6025,1.3432,1.3432,0,0,0,.668.8633,3.119,3.119,0,0,0,1.4365.2657h.0078a.938.938,0,0,1,0,1.8759h-.0078a4.4343,4.4343,0,0,1-1.9961-.3945,2.59,2.59,0,0,1-1.2-1.34,2.9975,2.9975,0,0,1-1.3818,1.3564,5.2653,5.2653,0,0,1-2.1455.3779.9132.9132,0,0,1-.6641-.2783A.8935.8935,0,0,1,97.9984,46.0387Zm.8633-7.23a.773.773,0,0,1,.5146-.9463,6.4189,6.4189,0,0,1,1.0752-.2158,9.8923,9.8923,0,0,1,1.207-.0743,6.93,6.93,0,0,1,1.0674.0743,3.8035,3.8035,0,0,1,.8086.207.7674.7674,0,0,1,.3945.498.7236.7236,0,0,1-.1035.6153.7914.7914,0,0,1-.3818.3027.8.8,0,0,1-.4649.0205,4.2076,4.2076,0,0,0-.6015-.1084,6.383,6.383,0,0,0-.7188-.041q-.5639,0-1.05.0459a3.9341,3.9341,0,0,0-.8008.1455.7329.7329,0,0,1-.5771-.0752A.7662.7662,0,0,1,98.8617,38.8083Z"/><path class="cls-4" d="M104.7386,46.0387a.9353.9353,0,0,1,.9375-.9384,1.9969,1.9969,0,0,0,1.4736-.54,2.7872,2.7872,0,0,0,.7266-1.5019c.0215-.16.05-.3711.083-.6309a.9488.9488,0,0,1,.377-.623.8945.8945,0,0,1,.6933-.1739.92.92,0,0,1,.6182.3731.9375.9375,0,0,1,.1875.706c-.0059.044-.0117.083-.0166.1162-.0117.083-.0225.1661-.0332.2491-.0283.1884-.0459.3379-.0547.4482s-.0117.2188-.0117.3242a1.6672,1.6672,0,0,0,.2939,1.0293.9947.9947,0,0,0,.8428.39,1.181,1.181,0,0,0,1.0332-.5606,4.0257,4.0257,0,0,0,.5361-1.6553q.0162-.1992.05-.416v-.0332a.8422.8422,0,0,1,.4229-.6718c0-.0059.0029-.0079.0088-.0079h.0078a.8831.8831,0,0,1,.59-.125.8569.8569,0,0,1,.4981.2491.9.9,0,0,1,.2568.4814v.0254a.9322.9322,0,0,1,.0088.2148c-.0166.15-.0361.2969-.0586.4405-.0107.1328-.0166.2568-.0166.374a2.1036,2.1036,0,0,0,.3154,1.2031,1.1285,1.1285,0,0,0,1.0049.4649,1.1117,1.1117,0,0,0,.9463-.4063,1.8581,1.8581,0,0,0,.3067-1.1377,5.3855,5.3855,0,0,0-.0538-.751q-.0541-.3867-.1533-.8095a.8531.8531,0,0,1,.0078-.4561.8622.8622,0,0,1,.6973-.664.8474.8474,0,0,1,.7139.1035.8986.8986,0,0,1,.4238.5937c.0049.0332.0107.0635.0166.0908.0273.11.0527.2129.0742.3077a6.2849,6.2849,0,0,0,.8838,2.27,1.6349,1.6349,0,0,0,1.374.71h.0088a.938.938,0,0,1,0,1.8759H120.75a2.9651,2.9651,0,0,1-1.4277-.3447,3.9988,3.9988,0,0,1-1.1533-.95,2.7354,2.7354,0,0,1-1.0215,1.0625,2.93,2.93,0,0,1-1.5186.3818,3.1027,3.1027,0,0,1-1.4531-.332,2.9616,2.9616,0,0,1-1.0625-.93,3.66,3.66,0,0,1-1.083.9385,2.6761,2.6761,0,0,1-1.3242.34,2.5448,2.5448,0,0,1-1.3447-.3613,2.8627,2.8627,0,0,1-.9707-.9668,4.1479,4.1479,0,0,1-1.2207.8467,3.5486,3.5486,0,0,1-1.4942.3154.9489.9489,0,0,1-.9375-.9375Z"/><path class="cls-4" d="M119.057,50.4372a.7713.7713,0,0,1,.5146-.9453,6.4448,6.4448,0,0,1,1.0752-.2168,10.1242,10.1242,0,0,1,1.208-.0743,7.0537,7.0537,0,0,1,1.0664.0743,3.8041,3.8041,0,0,1,.81.208.7687.7687,0,0,1,.3945.498.7218.7218,0,0,1-.1045.6143.7817.7817,0,0,1-.3818.3027.8079.8079,0,0,1-.4648.0215,3.9025,3.9025,0,0,0-.6016-.1084,6.3445,6.3445,0,0,0-.7178-.042q-.5653,0-1.05.0459a3.9429,3.9429,0,0,0-.8017.1455.73.73,0,0,1-.5762-.0742A.77.77,0,0,1,119.057,50.4372Zm.7636-4.3985a.8943.8943,0,0,1,.2784-.664.9051.9051,0,0,1,.66-.2744,2.8346,2.8346,0,0,0,1.5938-.3409,1.4791,1.4791,0,0,0,.4814-1.2861q0-.3325-.05-.8506t-.1494-1.042a.9131.9131,0,0,1,.1865-.6933.93.93,0,0,1,.6182-.3692.8807.8807,0,0,1,.6973.1787.9632.9632,0,0,1,.374.6182q.1157.6138.1738,1.1787a9.6977,9.6977,0,0,1,.0586.9883,3.28,3.28,0,0,1-1.0166,2.5976,4.3612,4.3612,0,0,1-2.9678.8965.9506.9506,0,0,1-.9385-.9375Z"/><path class="cls-4" d="M128.4369,42.9753a5.4233,5.4233,0,0,1,.0918-.9834,8.5981,8.5981,0,0,1,.2568-1.0332.9137.9137,0,0,1,.4648-.5489.9442.9442,0,0,1,1.3369,1.1133,5.5742,5.5742,0,0,0-.1914.7881,4.3423,4.3423,0,0,0-.0576.6641,2.2484,2.2484,0,0,0,.34,1.2324,2.2224,2.2224,0,0,0,1.1338.8388,6.16,6.16,0,0,0,2.1455.3028,8.2455,8.2455,0,0,0,4.32-.9219,4.0383,4.0383,0,0,0,1.8554-2.7637.9281.9281,0,0,1,.3487-.5644.8744.8744,0,0,1,.664-.1826.9141.9141,0,0,1,.6221.3281.89.89,0,0,1,.2324.668c-.0107.1718-.02.333-.0283.4853s-.0127.3008-.0127.4443a2.7258,2.7258,0,0,0,.4395,1.7022,1.902,1.902,0,0,0,1.5693.5557h.0078a.938.938,0,0,1,0,1.8759h-.0078a3.1805,3.1805,0,0,1-2.0879-.6347,3.2443,3.2443,0,0,1-1.042-1.8633,6.0047,6.0047,0,0,1-2.8926,2.1123,11.9189,11.9189,0,0,1-3.9882.6348,7.8,7.8,0,0,1-2.8262-.4815,4.4054,4.4054,0,0,1-1.9717-1.4277A3.7461,3.7461,0,0,1,128.4369,42.9753Zm3.8437-3.503a2.035,2.035,0,0,1,1.2031-1.9629,2.66,2.66,0,0,1,1.125-.2451,2.6875,2.6875,0,0,1,1.125.2412,2.01,2.01,0,0,1,1.2032,1.9414,2.8847,2.8847,0,0,1-.0538.5645,1.8041,1.8041,0,0,1-.1787.5068.9035.9035,0,0,1-.41.4278.6011.6011,0,0,1-.6026-.0381.6356.6356,0,0,1-.31-.3985.842.842,0,0,1,.0449-.5224,1.1248,1.1248,0,0,0,.1328-.54.6972.6972,0,0,0-.2861-.6093,1.0922,1.0922,0,0,0-.6641-.1993,1.13,1.13,0,0,0-.664.211.7212.7212,0,0,0-.2862.623,1.047,1.047,0,0,0,.17.6055,4.1889,4.1889,0,0,0,.5273.5976.5321.5321,0,0,1,.1455.4776.7405.7405,0,0,1-.2451.4521.5638.5638,0,0,1-.502.15.9248.9248,0,0,1-.4941-.25,4.88,4.88,0,0,1-.6807-.8086A2.1714,2.1714,0,0,1,132.2806,39.4723Z"/><path class="cls-4" d="M142.2747,50.4372a.7693.7693,0,0,1,.5147-.9453,6.4109,6.4109,0,0,1,1.0742-.2168,10.1242,10.1242,0,0,1,1.208-.0743,7.0356,7.0356,0,0,1,1.0664.0743,3.7883,3.7883,0,0,1,.81.208.7657.7657,0,0,1,.3945.498.7249.7249,0,0,1-.1035.6143.7861.7861,0,0,1-.3818.3027.8086.8086,0,0,1-.4649.0215,3.9369,3.9369,0,0,0-.6025-.1084,6.331,6.331,0,0,0-.7178-.042q-.564,0-1.05.0459a3.9209,3.9209,0,0,0-.8008.1455.7326.7326,0,0,1-.5771-.0742A.7654.7654,0,0,1,142.2747,50.4372Zm.7549-4.3985a.8909.8909,0,0,1,.2823-.664.92.92,0,0,1,.664-.2744,4.0425,4.0425,0,0,0,1.6729-.2618,1.3332,1.3332,0,0,0,.7216-.8838,6.9274,6.9274,0,0,0,.2042-1.6855.8975.8975,0,0,1,.3193-.68.9643.9643,0,0,1,.6933-.2168.9108.9108,0,0,1,.6475.32.8752.8752,0,0,1,.2236.6758,5.4317,5.4317,0,0,0,.1368,1.6025,1.3475,1.3475,0,0,0,.6689.8633A3.1177,3.1177,0,0,0,150.7,45.1h.0087a.938.938,0,0,1,0,1.8759H150.7a4.4367,4.4367,0,0,1-1.9961-.3945,2.5844,2.5844,0,0,1-1.1993-1.34,2.9989,2.9989,0,0,1-1.3828,1.3564,5.2617,5.2617,0,0,1-2.1455.3779.9161.9161,0,0,1-.664-.2783A.8974.8974,0,0,1,143.03,46.0387Z"/><path class="cls-4" d="M153.8626,39.4723a4.0776,4.0776,0,0,1,1.5772.3526q.8379.353,1.7431.8173.5889.3076,1.3282.6436t1.66.7266a.9053.9053,0,0,1,.4063.3525.9291.9291,0,0,1,.1582.5107.8819.8819,0,0,1-.44.7969,23.6856,23.6856,0,0,1-4.6651,2.4151,13.7868,13.7868,0,0,1-4.9219.8886.938.938,0,1,1,0-1.8759,11.95,11.95,0,0,0,3.5362-.5352,16.13,16.13,0,0,0,3.4775-1.5732q-.4893-.233-.93-.44-.4393-.2081-.8379-.4238-.64-.34-1.1084-.5391a2.1306,2.1306,0,0,0-.81-.1992.7776.7776,0,0,0-.626.2939,4.6235,4.6235,0,0,0-.5606.9834.8782.8782,0,0,1-.5351.4776.8616.8616,0,0,1-.8262-.0869.9384.9384,0,0,1-.374-.5059.9076.9076,0,0,1,.042-.6895,6.5957,6.5957,0,0,1,1.1123-1.73A2.0754,2.0754,0,0,1,153.8626,39.4723Z"/><path class="cls-4" d="M166.77,46.8356a1.55,1.55,0,0,1-1.1993-.4736,1.8852,1.8852,0,0,1-.4355-1.3282,3.6058,3.6058,0,0,1,1.751-3.1962.5911.5911,0,0,1,.4941-.0821.5117.5117,0,0,1,.3115.2569.5647.5647,0,0,1,.05.3818.5079.5079,0,0,1-.2822.34,3.1408,3.1408,0,0,0-.8183.7559,1.9162,1.9162,0,0,0-.3692.9219,1.183,1.183,0,0,1,.2744-.15.9217.9217,0,0,1,.3321-.0576,1.2356,1.2356,0,0,1,.917.3564,1.2565,1.2565,0,0,1,.3525.9219,1.325,1.325,0,0,1-.3691.9922A1.3825,1.3825,0,0,1,166.77,46.8356Z"/><path class="cls-4" d="M169.9,43.3161a6.7533,6.7533,0,0,1,.1-1.1338,3.8312,3.8312,0,0,1,.332-1.0576.8809.8809,0,0,1,.5478-.4737.93.93,0,0,1,.7305.05q.7295.3575.415,1.27a3.2672,3.2672,0,0,0-.1582.623,4.3635,4.3635,0,0,0-.0664.7227,1.4279,1.4279,0,0,0,.5977,1.2031,3.9,3.9,0,0,0,1.66.6387,13.9667,13.9667,0,0,0,2.4571.1914,14.47,14.47,0,0,0,1.9013-.12,7.9846,7.9846,0,0,0,1.6182-.3741A3.028,3.028,0,0,0,181.16,44.2a1.3087,1.3087,0,0,0,.4111-.9678,3.448,3.448,0,0,0-.125-.8838,4.2369,4.2369,0,0,0-.2236-.6768,1.1145,1.1145,0,0,1-.0752-.7382.8577.8577,0,0,1,.4238-.5479.9316.9316,0,0,1,.7178-.0908.8851.8851,0,0,1,.5684.4394,4.2973,4.2973,0,0,1,.4521,1.1582,5.5785,5.5785,0,0,1,.1621,1.34,3.1985,3.1985,0,0,1-.5058,1.8555,3.6457,3.6457,0,0,1-1.32,1.166,6.87,6.87,0,0,1-1.7559.64,12.499,12.499,0,0,1-1.834.27q-.8921.0629-1.54.0625-.7045,0-1.5811-.0577a10.9146,10.9146,0,0,1-1.76-.2656,6.1029,6.1029,0,0,1-1.627-.6308A3.1645,3.1645,0,0,1,169.9,43.3161Zm4.25-2.6485a.771.771,0,0,1,.5147-.9463,6.4366,6.4366,0,0,1,1.0742-.2158,9.9393,9.9393,0,0,1,1.208-.0742,6.9218,6.9218,0,0,1,1.0664.0742,3.7977,3.7977,0,0,1,.81.2071.77.77,0,0,1,.3945.498.7268.7268,0,0,1-.1035.6152.7921.7921,0,0,1-.3818.3028.801.801,0,0,1-.4649.02,4.1842,4.1842,0,0,0-.6025-.1084,6.3289,6.3289,0,0,0-.7178-.041q-.564,0-1.05.0459a3.9141,3.9141,0,0,0-.8008.1455.7333.7333,0,0,1-.5771-.0752A.7663.7663,0,0,1,174.15,40.6676Z"/><path class="cls-4" d="M185.2142,43.2321q0-1.5937.0332-3.1367T185.223,36.75a.9445.9445,0,0,1,.2568-.6807.8761.8761,0,0,1,.6475-.2988.9156.9156,0,0,1,.6806.249.8752.8752,0,0,1,.2989.6562q.0585,1.7754.0254,3.3409t-.0332,3.1914a2.2638,2.2638,0,0,0,.3652,1.4775,1.906,1.906,0,0,0,1.4443.4151h.0078a.938.938,0,0,1,0,1.8759h-.0078a3.9828,3.9828,0,0,1-2.7646-.8466A3.7857,3.7857,0,0,1,185.2142,43.2321Z"/><path class="cls-4" d="M187.2152,50.4372a.7691.7691,0,0,1,.5146-.9453,6.4109,6.4109,0,0,1,1.0742-.2168,10.1259,10.1259,0,0,1,1.2081-.0743,7.0366,7.0366,0,0,1,1.0664.0743,3.7888,3.7888,0,0,1,.81.208.7658.7658,0,0,1,.3946.498.7249.7249,0,0,1-.1036.6143.7857.7857,0,0,1-.3818.3027.8083.8083,0,0,1-.4648.0215,3.9407,3.9407,0,0,0-.6026-.1084,6.3306,6.3306,0,0,0-.7177-.042c-.376,0-.7266.0156-1.05.0459a3.9185,3.9185,0,0,0-.8007.1455.7328.7328,0,0,1-.5772-.0742A.7652.7652,0,0,1,187.2152,50.4372Zm.7636-4.3985a.8972.8972,0,0,1,.2774-.664.9067.9067,0,0,1,.66-.2744,2.83,2.83,0,0,0,1.5938-.3409,1.4764,1.4764,0,0,0,.4814-1.2861q0-.3325-.05-.8506t-.1494-1.042a.9131.9131,0,0,1,.1865-.6933.93.93,0,0,1,.6192-.3692.8825.8825,0,0,1,.6973.1787.9615.9615,0,0,1,.373.6182q.1172.6138.1748,1.1787t.0576.9883a3.28,3.28,0,0,1-1.0166,2.5976,4.3577,4.3577,0,0,1-2.9678.8965.9489.9489,0,0,1-.9375-.9375Z"/><path class="cls-4" d="M194.1458,45.7809a.8769.8769,0,0,1,.44-.5517.9909.9909,0,0,1,.7216-.087c.2608.0665.5079.1172.7432.1534a4.955,4.955,0,0,0,.751.0537,2.8578,2.8578,0,0,0,1.6523-.3614,1.2142,1.2142,0,0,0,.4893-1.041,1.3776,1.3776,0,0,0-.05-.3652c-.0381-.1055-.08-.2217-.124-.35a10.77,10.77,0,0,0-.5567-1.34q-.3237-.6517-.7969-1.4736a.9316.9316,0,0,1-.1035-.7217.9082.9082,0,0,1,.4278-.582.9215.9215,0,0,1,.7138-.1074.8885.8885,0,0,1,.5811.4316q.4731.813.8418,1.5274a10.9678,10.9678,0,0,1,.6767,1.6523,10.9086,10.9086,0,0,0,.5684,1.3486,2.2871,2.2871,0,0,0,.6934.8379,1.8192,1.8192,0,0,0,1.0459.295h.0087a.938.938,0,0,1,0,1.8759h-.0087a3.5839,3.5839,0,0,1-1.544-.3066,3.8629,3.8629,0,0,1-1.1123-.7813,3.1583,3.1583,0,0,1-1.5351,1.0342,6.0977,6.0977,0,0,1-1.8682.3028,7.1928,7.1928,0,0,1-1-.0625,7.7555,7.7555,0,0,1-1.0088-.22.838.838,0,0,1-.56-.4394A.96.96,0,0,1,194.1458,45.7809Z"/><path class="cls-4" d="M206.0247,39.4723a4.0776,4.0776,0,0,1,1.5772.3526q.8379.353,1.7432.8173.5887.3076,1.3281.6436t1.66.7266a.9047.9047,0,0,1,.4063.3525.9282.9282,0,0,1,.1582.5107.8819.8819,0,0,1-.44.7969q-.3809.249-.7471.4815a1.23,1.23,0,0,0,.6855.7138,3.5355,3.5355,0,0,0,1.4317.2325h.0078a.938.938,0,0,1,0,1.8759h-.0078a5.41,5.41,0,0,1-2.2617-.4609,2.9957,2.9957,0,0,1-1.4991-1.4316,18.2694,18.2694,0,0,1-3.5068,1.3945,13.6308,13.6308,0,0,1-3.69.498.938.938,0,1,1,0-1.8759,11.95,11.95,0,0,0,3.5362-.5352,16.13,16.13,0,0,0,3.4775-1.5732q-.4893-.233-.93-.44-.4394-.2081-.8379-.4238-.64-.34-1.1084-.5391a2.1306,2.1306,0,0,0-.81-.1992.7776.7776,0,0,0-.626.2939,4.62,4.62,0,0,0-.56.9834.8787.8787,0,0,1-.5352.4776.8616.8616,0,0,1-.8262-.0869.9384.9384,0,0,1-.374-.5059.908.908,0,0,1,.042-.6895,6.5957,6.5957,0,0,1,1.1123-1.73A2.0754,2.0754,0,0,1,206.0247,39.4723Z"/><path class="cls-4" d="M212.889,46.0387a.8908.8908,0,0,1,.2822-.664.9206.9206,0,0,1,.6641-.2744,4.042,4.042,0,0,0,1.6728-.2618,1.3334,1.3334,0,0,0,.7217-.8838,6.9231,6.9231,0,0,0,.2041-1.6855.8976.8976,0,0,1,.3194-.68.9643.9643,0,0,1,.6933-.2168.9108.9108,0,0,1,.6475.32.8752.8752,0,0,1,.2236.6758,5.4322,5.4322,0,0,0,.1367,1.6025,1.3477,1.3477,0,0,0,.669.8633,3.1172,3.1172,0,0,0,1.4355.2657h.0088a.938.938,0,0,1,0,1.8759h-.0088a4.4373,4.4373,0,0,1-1.9961-.3945,2.5846,2.5846,0,0,1-1.1992-1.34,2.9989,2.9989,0,0,1-1.3828,1.3564,5.2621,5.2621,0,0,1-2.1455.3779.9165.9165,0,0,1-.6641-.2783A.8973.8973,0,0,1,212.889,46.0387Zm.8633-7.23a.773.773,0,0,1,.5146-.9463,6.44,6.44,0,0,1,1.0752-.2158,9.9085,9.9085,0,0,1,1.208-.0743,6.9261,6.9261,0,0,1,1.0664.0743,3.8139,3.8139,0,0,1,.81.207.7691.7691,0,0,1,.3936.498.7206.7206,0,0,1-.1035.6153.7876.7876,0,0,1-.3819.3027.8.8,0,0,1-.4648.0205,4.1857,4.1857,0,0,0-.6016-.1084,6.3787,6.3787,0,0,0-.7178-.041c-.3769,0-.7265.0156-1.0507.0459a3.9447,3.9447,0,0,0-.8008.1455.7332.7332,0,0,1-.5772-.0752A.7735.7735,0,0,1,213.7523,38.8083Z"/><path class="cls-4" d="M219.6292,46.0387a.8943.8943,0,0,1,.2784-.664.9051.9051,0,0,1,.66-.2744,1.2092,1.2092,0,0,0,1.1992-.7344,5.4767,5.4767,0,0,0,.336-2.1875q0-.7808-.041-1.5606-.0426-.7808-.1368-1.7636-.0966-.9845-.2617-2.37a.9475.9475,0,0,1,.1953-.6972.8892.8892,0,0,1,.6182-.3653.9267.9267,0,0,1,.6973.1866.8993.8993,0,0,1,.3652.6269q.1494,1.17.24,2.1006.0924.9287.1328,1.7676.0426.8379.042,1.7431a7.6633,7.6633,0,0,1-.76,3.9014,2.8383,2.8383,0,0,1-2.627,1.2285.9506.9506,0,0,1-.9385-.9375Z"/><path class="cls-4" d="M225.7308,43.2321q0-1.5937.0332-3.1367t-.0254-3.3457a.9454.9454,0,0,1,.2578-.6807.8728.8728,0,0,1,.6475-.2988.9188.9188,0,0,1,.6807.249.8825.8825,0,0,1,.2988.6562q.0571,1.7754.0244,3.3409t-.0332,3.1914a2.27,2.27,0,0,0,.3652,1.4775,1.9092,1.9092,0,0,0,1.4444.4151h.0087a.938.938,0,0,1,0,1.8759h-.0087a3.98,3.98,0,0,1-2.7637-.8466A3.7822,3.7822,0,0,1,225.7308,43.2321Z"/><path class="cls-4" d="M228.4945,46.0387a.8942.8942,0,0,1,.2783-.664.9052.9052,0,0,1,.66-.2744,2.8344,2.8344,0,0,0,1.5938-.3409,1.4791,1.4791,0,0,0,.4814-1.2861q0-.3325-.05-.8506t-.1494-1.042a.9131.9131,0,0,1,.1865-.6933.9305.9305,0,0,1,.6182-.3692.8805.8805,0,0,1,.6973.1787.9628.9628,0,0,1,.374.6182q.1158.6138.1738,1.1787a9.6977,9.6977,0,0,1,.0586.9883,3.28,3.28,0,0,1-1.0166,2.5976,4.361,4.361,0,0,1-2.9678.8965.95.95,0,0,1-.9384-.9375Zm.5478,3.9258a.9771.9771,0,0,1,.2783-.6767.93.93,0,0,1,.7178-.3028.9912.9912,0,0,1,.5313.1328,1.0635,1.0635,0,0,1,.3408.3233,1.0327,1.0327,0,0,1,.166.5312,1.3374,1.3374,0,0,1-.2119.669.8674.8674,0,0,1-.8174.36.9508.9508,0,0,1-.6269-.1777,1.0276,1.0276,0,0,1-.3028-.4111A1.3587,1.3587,0,0,1,229.0423,49.9645Z"/><path class="cls-4" d="M237.4427,43.3239a2.92,2.92,0,0,1,.7559-1.9883,6.2421,6.2421,0,0,1,1.9756-1.457,10.4569,10.4569,0,0,0,.9257-.5137,1.4881,1.4881,0,0,0,.5684-.5488v-.041a.9542.9542,0,0,1,.8545-1.0215.8811.8811,0,0,1,.6894.2119.9167.9167,0,0,1,.3321.6435l.0166.1582a.6833.6833,0,0,1,.0078.1l.3906,4.3408a3.816,3.816,0,0,0,.2656,1.2324.9677.9677,0,0,0,.5479.5312,2.7523,2.7523,0,0,0,.9209.129h.0088a.938.938,0,0,1,0,1.8759h-.0088a4.3355,4.3355,0,0,1-1.8594-.3447,2.5959,2.5959,0,0,1-1.1289-1.0166.9561.9561,0,0,1-.5557.291c-.1552.0215-.3212.0371-.498.0449s-.3291.0127-.457.0127a4.6041,4.6041,0,0,1-2.7969-.7177A2.283,2.283,0,0,1,237.4427,43.3239Zm1.0381-8.16a.7714.7714,0,0,1,.5146-.9453,6.4233,6.4233,0,0,1,1.0752-.2168,10.1172,10.1172,0,0,1,1.2071-.0742,7.0737,7.0737,0,0,1,1.0674.0742,3.8089,3.8089,0,0,1,.8086.208.7634.7634,0,0,1,.3945.4981.7215.7215,0,0,1-.1035.6142.7871.7871,0,0,1-.3819.3028.8092.8092,0,0,1-.4648.0215,3.9314,3.9314,0,0,0-.6016-.1084,6.36,6.36,0,0,0-.7187-.042q-.564,0-1.05.0459a3.9259,3.9259,0,0,0-.8008.1455.7333.7333,0,0,1-.5772-.0743A.7646.7646,0,0,1,238.4808,35.1637Zm.8633,8.0528q0,.87,1.8506.8711c.0888,0,.1953-.0059.32-.0166s.2471-.0245.3691-.042a.9763.9763,0,0,1,.2822.0088c-.0332-.2051-.0615-.4258-.083-.6641l-.208-2.2744q-.39.24-.8965.498a6.4869,6.4869,0,0,0-1.1621.751A1.1268,1.1268,0,0,0,239.3441,43.2165Z"/><path class="cls-4" d="M244.7562,46.0387a.8871.8871,0,0,1,.2822-.664.9173.9173,0,0,1,.6641-.2744,4.048,4.048,0,0,0,1.6728-.2618,1.3361,1.3361,0,0,0,.7217-.8838,6.93,6.93,0,0,0,.2031-1.6855.8953.8953,0,0,1,.32-.68.9621.9621,0,0,1,.6924-.2168.9071.9071,0,0,1,.6475.32.8759.8759,0,0,1,.2246.6758,5.3951,5.3951,0,0,0,.1367,1.6025,1.3435,1.3435,0,0,0,.668.8633,3.119,3.119,0,0,0,1.4365.2657h.0078a.938.938,0,0,1,0,1.8759h-.0078a4.4343,4.4343,0,0,1-1.9961-.3945,2.59,2.59,0,0,1-1.2-1.34,2.9975,2.9975,0,0,1-1.3818,1.3564,5.2653,5.2653,0,0,1-2.1455.3779.9132.9132,0,0,1-.6641-.2783A.8935.8935,0,0,1,244.7562,46.0387Zm.9209-5.8359a.4184.4184,0,0,1,.0215-.3486.4628.4628,0,0,1,.2695-.2491l1.0293-.3574a1.4141,1.4141,0,0,1-.5811-.5264,1.5353,1.5353,0,0,1-.2158-.8349,1.7867,1.7867,0,0,1,.5147-1.3154,1.9091,1.9091,0,0,1,1.4189-.5186,3.4968,3.4968,0,0,1,.5645.041.5042.5042,0,0,1,.3115.1787.421.421,0,0,1,.1035.3194.4774.4774,0,0,1-.17.32.3944.3944,0,0,1-.3447.1035,1.7435,1.7435,0,0,0-.3487-.0332,1.1771,1.1771,0,0,0-.8418.2734.9153.9153,0,0,0-.2871.69.7.7,0,0,0,.249.581,1.0621,1.0621,0,0,0,.6807.1993,2.525,2.525,0,0,0,.5147-.0577,7.0828,7.0828,0,0,0,.7724-.2324.4226.4226,0,0,1,.3692.0371.4358.4358,0,0,1,.22.2949.4771.4771,0,0,1-.0449.3438.3851.3851,0,0,1-.2451.2031l-3.3624,1.18a.433.433,0,0,1-.3564-.0215A.4715.4715,0,0,1,245.6771,40.2028Z"/><path class="cls-4" d="M250.7328,50.4372a.7691.7691,0,0,1,.5146-.9453,6.4109,6.4109,0,0,1,1.0742-.2168,10.1242,10.1242,0,0,1,1.208-.0743,7.0347,7.0347,0,0,1,1.0664.0743,3.7883,3.7883,0,0,1,.81.208.7657.7657,0,0,1,.3945.498.7245.7245,0,0,1-.1035.6143.7857.7857,0,0,1-.3818.3027.8086.8086,0,0,1-.4649.0215,3.9369,3.9369,0,0,0-.6025-.1084,6.331,6.331,0,0,0-.7178-.042c-.3759,0-.7265.0156-1.05.0459a3.9209,3.9209,0,0,0-.8008.1455.7326.7326,0,0,1-.5771-.0742A.7648.7648,0,0,1,250.7328,50.4372Zm.7548-4.3985a.8909.8909,0,0,1,.2823-.664.92.92,0,0,1,.664-.2744,4.0422,4.0422,0,0,0,1.6729-.2618,1.3336,1.3336,0,0,0,.7217-.8838,6.9281,6.9281,0,0,0,.2041-1.6855.8975.8975,0,0,1,.3193-.68.9644.9644,0,0,1,.6934-.2168.9108.9108,0,0,1,.6474.32.8752.8752,0,0,1,.2236.6758,5.4317,5.4317,0,0,0,.1368,1.6025,1.3475,1.3475,0,0,0,.6689.8633,3.1177,3.1177,0,0,0,1.4356.2657h.0087a.938.938,0,0,1,0,1.8759h-.0087a4.4367,4.4367,0,0,1-1.9961-.3945,2.5844,2.5844,0,0,1-1.1993-1.34,2.9989,2.9989,0,0,1-1.3828,1.3564,5.2617,5.2617,0,0,1-2.1455.3779.9161.9161,0,0,1-.664-.2783A.8974.8974,0,0,1,251.4876,46.0387Z"/><path class="cls-4" d="M258.2279,46.0387a.8942.8942,0,0,1,.2783-.664.9052.9052,0,0,1,.66-.2744,2.2313,2.2313,0,0,0,1.4688-.3565,1.8806,1.8806,0,0,0,.3906-1.3945q0-1.2715-.0459-2.3955t-.124-2.22q-.079-1.0956-.1953-2.2832a.9286.9286,0,0,1,.2158-.6933.8874.8874,0,0,1,.6309-.336.9319.9319,0,0,1,1.0293.8467q.1655,1.768.2656,3.4072t.1,3.5489a.9943.9943,0,0,1,.0078.125,1.7384,1.7384,0,0,0,.4443,1.373,2.133,2.133,0,0,0,1.3985.378h.0088a.938.938,0,0,1,0,1.8759h-.0088a4.4435,4.4435,0,0,1-1.5274-.2617,3.26,3.26,0,0,1-1.2363-.7842,3.729,3.729,0,0,1-2.8223,1.0459.95.95,0,0,1-.9384-.9375Z"/><path class="cls-4" d="M263.8226,46.0387a.8946.8946,0,0,1,.2783-.664.9055.9055,0,0,1,.66-.2744,1.5273,1.5273,0,0,0,1.2744-.6768,11.283,11.283,0,0,0,1.0078-1.6973q.2665-.5389.5693-1.0332a7.0912,7.0912,0,0,1,.6094-.8593l.0254-.0254a.8449.8449,0,0,1,.6348-.3106.9381.9381,0,0,1,.6845.2285.8437.8437,0,0,1,.1748.1992.67.67,0,0,1,.1-.125.8963.8963,0,0,1,.66-.291.9248.9248,0,0,1,.6758.2578,5.2124,5.2124,0,0,1,1.8848,3.7686,2.4576,2.4576,0,0,1-.8506,1.9551,3.5151,3.5151,0,0,1-2.37.7344,3.8306,3.8306,0,0,1-1.6856-.336,2.3819,2.3819,0,0,1-1.0371-.9258,3.9826,3.9826,0,0,1-1.0293.7266,2.9739,2.9739,0,0,1-1.3281.2861.95.95,0,0,1-.9385-.9375Zm4.665-1.7353a.9494.9494,0,0,0,.337.7549,1.4313,1.4313,0,0,0,.9667.291,1.55,1.55,0,0,0,1.0459-.2949.98.98,0,0,0,.3321-.7676,3.3512,3.3512,0,0,0-1.2949-2.1582.8112.8112,0,0,1-.1416-.166.8591.8591,0,0,1-.0577.083c-.1494.1718-.3086.3759-.4775.6142a7.0047,7.0047,0,0,0-.4355.69A2.1609,2.1609,0,0,0,268.4876,44.3034Z"/><path class="cls-4" d="M277.0374,44.403a4.935,4.935,0,0,1,.5108-2.0879,7.8322,7.8322,0,0,1,1.374-2.02c-.0332-.0283-.0664-.0557-.1-.084a.8937.8937,0,0,1-.3193-.6426.911.911,0,0,1,.22-.6855.9455.9455,0,0,1,.6514-.3233.88.88,0,0,1,.6845.2237,14.3376,14.3376,0,0,1,1.7393,1.76,8.8649,8.8649,0,0,1,1.2119,1.8809,4.3687,4.3687,0,0,1,.4443,1.8555,2.8645,2.8645,0,0,1-.4355,1.6181,2.7572,2.7572,0,0,1-1.167.9922,3.8717,3.8717,0,0,1-1.6348.336,3.8284,3.8284,0,0,1-1.6025-.3282,2.72,2.72,0,0,1-1.1494-.9541A2.6686,2.6686,0,0,1,277.0374,44.403Zm.4815-8.1016a.7719.7719,0,0,1,.5146-.9463,6.4707,6.4707,0,0,1,1.0752-.2158,9.9435,9.9435,0,0,1,1.208-.0752,6.932,6.932,0,0,1,1.0664.0752,3.7569,3.7569,0,0,1,.81.208.7688.7688,0,0,1,.3945.4981.72.72,0,0,1-.1044.6133.78.78,0,0,1-.3819.3037.8.8,0,0,1-.4648.02,4.04,4.04,0,0,0-.6016-.1075,6.1416,6.1416,0,0,0-.7178-.0419q-.5654,0-1.05.0459a3.9431,3.9431,0,0,0-.8017.1445.7263.7263,0,0,1-.5762-.0742A.7714.7714,0,0,1,277.5189,36.3014Zm1.42,7.9854a1.0071,1.0071,0,0,0,.3154.76,1.3428,1.3428,0,0,0,.9629.3028,1.4642,1.4642,0,0,0,1.0254-.3067,1.0663,1.0663,0,0,0,.3272-.8144,2.6441,2.6441,0,0,0-.34-1.1445,7.9906,7.9906,0,0,0-.98-1.4454,5.804,5.804,0,0,0-.9716,1.4278A3.0409,3.0409,0,0,0,278.9388,44.2868Z"/><path class="cls-4" d="M286.0521,42.61a.7728.7728,0,0,1,.1-.706.9807.9807,0,0,1,.6064-.4317.8355.8355,0,0,1,.2569-.0244.8916.8916,0,0,1,.5439.208.9665.9665,0,0,1,.3115.4473.2924.2924,0,0,1,.0245.0752,6.9524,6.9524,0,0,0,.8964,2.2119,1.761,1.761,0,0,0,1.5362.71h.0078a.938.938,0,0,1,0,1.8759h-.0078a3.2948,3.2948,0,0,1-1.1289-.1865,3.505,3.505,0,0,1-.9385-.5107,5.9058,5.9058,0,0,1-1.3691,3.25,6.2926,6.2926,0,0,1-2.7813,1.83.8722.8722,0,0,1-.7637-.0664.9477.9477,0,0,1-.4394-.539.8736.8736,0,0,1,.0742-.76,1.0212,1.0212,0,0,1,.5146-.4277,4.35,4.35,0,0,0,2.1631-1.5147,4.575,4.575,0,0,0,.7842-2.8017,10.1115,10.1115,0,0,0-.3408-2.4737Z"/><path class="cls-4" d="M289.389,46.0387a.8908.8908,0,0,1,.2822-.664.9206.9206,0,0,1,.6641-.2744h.83a.9116.9116,0,0,1,.6679.2744.9253.9253,0,0,1,0,1.3232.9074.9074,0,0,1-.6679.2783h-.83a.9165.9165,0,0,1-.6641-.2783A.8973.8973,0,0,1,289.389,46.0387Z"/><path class="cls-4" d="M289.4642,50.4372a.7691.7691,0,0,1,.5146-.9453,6.41,6.41,0,0,1,1.0743-.2168,10.123,10.123,0,0,1,1.208-.0743,7.0366,7.0366,0,0,1,1.0664.0743,3.7915,3.7915,0,0,1,.81.208.766.766,0,0,1,.3945.498.7252.7252,0,0,1-.1035.6143.7863.7863,0,0,1-.3819.3027.8083.8083,0,0,1-.4648.0215,3.9361,3.9361,0,0,0-.6026-.1084,6.3292,6.3292,0,0,0-.7177-.042c-.376,0-.7266.0156-1.05.0459a3.92,3.92,0,0,0-.8008.1455.7329.7329,0,0,1-.5772-.0742A.7652.7652,0,0,1,289.4642,50.4372Zm.7549-4.3985a.8908.8908,0,0,1,.2822-.664.9206.9206,0,0,1,.6641-.2744,4.042,4.042,0,0,0,1.6728-.2618,1.3336,1.3336,0,0,0,.7217-.8838,6.9281,6.9281,0,0,0,.2041-1.6855.8978.8978,0,0,1,.3193-.68.9646.9646,0,0,1,.6934-.2168.9108.9108,0,0,1,.6475.32.8752.8752,0,0,1,.2236.6758,5.4288,5.4288,0,0,0,.1367,1.6025,1.3477,1.3477,0,0,0,.669.8633,3.1172,3.1172,0,0,0,1.4355.2657h.0088a.938.938,0,0,1,0,1.8759h-.0088a4.4373,4.4373,0,0,1-1.9961-.3945,2.5846,2.5846,0,0,1-1.1992-1.34,2.9994,2.9994,0,0,1-1.3828,1.3564,5.2621,5.2621,0,0,1-2.1455.3779.9165.9165,0,0,1-.6641-.2783A.8973.8973,0,0,1,290.2191,46.0387Z"/><path class="cls-4" d="M296.9515,46.0387a.8875.8875,0,0,1,.2822-.664.9173.9173,0,0,1,.6641-.2744,4.048,4.048,0,0,0,1.6728-.2618,1.3361,1.3361,0,0,0,.7217-.8838,6.93,6.93,0,0,0,.2031-1.6855.8954.8954,0,0,1,.32-.68.9619.9619,0,0,1,.6923-.2168.9071.9071,0,0,1,.6475.32.8759.8759,0,0,1,.2246.6758,5.4018,5.4018,0,0,0,.1367,1.6025,1.3435,1.3435,0,0,0,.668.8633,3.119,3.119,0,0,0,1.4365.2657h.0078a.938.938,0,0,1,0,1.8759h-.0078a4.4343,4.4343,0,0,1-1.9961-.3945,2.59,2.59,0,0,1-1.2-1.34,2.9971,2.9971,0,0,1-1.3818,1.3564,5.265,5.265,0,0,1-2.1455.3779.9132.9132,0,0,1-.6641-.2783A.8939.8939,0,0,1,296.9515,46.0387Zm.6309-8.4511a2.0348,2.0348,0,0,1,1.2031-1.9629,2.66,2.66,0,0,1,1.125-.2442,2.7007,2.7007,0,0,1,1.125.24,2.0117,2.0117,0,0,1,1.2031,1.9423,2.9065,2.9065,0,0,1-.0537.5645,1.8142,1.8142,0,0,1-.1787.5068.9055.9055,0,0,1-.41.4268.6.6,0,0,1-.6025-.0371.6359.6359,0,0,1-.3106-.3985.8422.8422,0,0,1,.045-.5224,1.1288,1.1288,0,0,0,.1328-.54.6979.6979,0,0,0-.2861-.61,1.0925,1.0925,0,0,0-.6641-.1992,1.1233,1.1233,0,0,0-.6641.2119.72.72,0,0,0-.2861.6221,1.05,1.05,0,0,0,.17.6064,4.2024,4.2024,0,0,0,.5274.5977.5325.5325,0,0,1,.1455.4775.7434.7434,0,0,1-.2452.4521.5629.5629,0,0,1-.5019.15.9228.9228,0,0,1-.4941-.2491,4.8814,4.8814,0,0,1-.6807-.8095A2.1714,2.1714,0,0,1,297.5824,37.5876Z"/><path class="cls-4" d="M303.6917,46.0387a.8972.8972,0,0,1,.2774-.664.9067.9067,0,0,1,.66-.2744,1.5274,1.5274,0,0,0,1.2745-.6768,11.2807,11.2807,0,0,0,1.0087-1.6973q.2652-.5389.5684-1.0332a7.0808,7.0808,0,0,1,.61-.8593l.0244-.0254a.8462.8462,0,0,1,.6347-.3106.9409.9409,0,0,1,.6856.2285.84.84,0,0,1,.1738.1992.757.757,0,0,1,.1-.125.9.9,0,0,1,.66-.291.9283.9283,0,0,1,.6767.2578,5.2143,5.2143,0,0,1,1.8838,3.7686,2.4545,2.4545,0,0,1-.8506,1.9551,3.5147,3.5147,0,0,1-2.37.7344,3.8233,3.8233,0,0,1-1.6846-.336,2.3793,2.3793,0,0,1-1.038-.9258,3.9674,3.9674,0,0,1-1.0293.7266,2.9713,2.9713,0,0,1-1.3282.2861.9489.9489,0,0,1-.9375-.9375Zm4.6651-1.7353a.9488.9488,0,0,0,.3359.7549,1.4333,1.4333,0,0,0,.9668.291,1.5471,1.5471,0,0,0,1.0459-.2949.9765.9765,0,0,0,.332-.7676,3.3507,3.3507,0,0,0-1.2949-2.1582.8092.8092,0,0,1-.1406-.166.723.723,0,0,1-.0586.083c-.1494.1718-.3086.3759-.4775.6142a7.4021,7.4021,0,0,0-.4356.69A2.1591,2.1591,0,0,0,308.3568,44.3034Z"/><path class="cls-4" d="M317.2386,43.3239a2.9239,2.9239,0,0,1,.7549-1.9883,6.2535,6.2535,0,0,1,1.9756-1.457,10.3327,10.3327,0,0,0,.9258-.5137,1.481,1.481,0,0,0,.5683-.5488v-.041a.9138.9138,0,0,1,.22-.6846.9041.9041,0,0,1,.6358-.3369.88.88,0,0,1,.6885.2119.9132.9132,0,0,1,.332.6435l.0166.1582a.5693.5693,0,0,1,.0088.1l.39,4.3408A3.84,3.84,0,0,0,324.02,44.44a.9731.9731,0,0,0,.5478.5312,2.7587,2.7587,0,0,0,.9219.129h.0078a.938.938,0,0,1,0,1.8759H325.49a4.3324,4.3324,0,0,1-1.8594-.3447,2.59,2.59,0,0,1-1.1289-1.0166.9617.9617,0,0,1-.5566.291c-.1543.0215-.32.0371-.4981.0449s-.3291.0127-.456.0127a4.6094,4.6094,0,0,1-2.7979-.7177A2.2846,2.2846,0,0,1,317.2386,43.3239Zm1.0371-8.16a.7714.7714,0,0,1,.5147-.9453,6.44,6.44,0,0,1,1.0752-.2168,10.1308,10.1308,0,0,1,1.208-.0742,7.0685,7.0685,0,0,1,1.0664.0742,3.8178,3.8178,0,0,1,.81.208.7646.7646,0,0,1,.3935.4981.7181.7181,0,0,1-.1035.6142.7825.7825,0,0,1-.3818.3028.8092.8092,0,0,1-.4649.0215,3.9085,3.9085,0,0,0-.6016-.1084,6.3563,6.3563,0,0,0-.7177-.042c-.377,0-.7266.0156-1.0508.0459a3.9391,3.9391,0,0,0-.8008.1455.733.733,0,0,1-.5771-.0743A.7716.7716,0,0,1,318.2757,35.1637Zm.8633,8.0528q0,.87,1.8516.8711c.0879,0,.1943-.0059.3193-.0166s.248-.0245.3691-.042a.975.975,0,0,1,.2823.0088c-.0332-.2051-.0606-.4258-.083-.6641l-.2071-2.2744q-.391.24-.8965.498a6.4511,6.4511,0,0,0-1.1621.751A1.1281,1.1281,0,0,0,319.139,43.2165Z"/><path class="cls-4" d="M324.56,46.0387a.8975.8975,0,0,1,.2773-.664.9071.9071,0,0,1,.66-.2744,2.2342,2.2342,0,0,0,1.47-.3565,1.8849,1.8849,0,0,0,.39-1.3945q0-1.2715-.0459-2.3955t-.124-2.22q-.0792-1.0956-.1954-2.2832a.9328.9328,0,0,1,.2159-.6933.8891.8891,0,0,1,.6308-.336.9317.9317,0,0,1,1.0293.8467q.1669,1.768.2656,3.4072t.1,3.5489a.845.845,0,0,1,.0087.125,1.7384,1.7384,0,0,0,.4434,1.373,2.136,2.136,0,0,0,1.3994.378h.0078a.938.938,0,0,1,0,1.8759h-.0078a4.4384,4.4384,0,0,1-1.5273-.2617A3.27,3.27,0,0,1,328.32,45.93a3.7278,3.7278,0,0,1-2.8223,1.0459.9487.9487,0,0,1-.9375-.9375Z"/><path class="cls-4" d="M334.2464,39.4723a4.07,4.07,0,0,1,1.5772.3526q.8393.353,1.7431.8173.59.3076,1.3282.6436.74.3369,1.66.7266a.9121.9121,0,0,1,.4072.3525.9353.9353,0,0,1,.1573.5107.8829.8829,0,0,1-.44.7969,23.71,23.71,0,0,1-4.665,2.4151,13.7926,13.7926,0,0,1-4.9229.8886.9106.9106,0,0,1-.6679-.2783.9207.9207,0,0,1,0-1.3193.9106.9106,0,0,1,.6679-.2783,11.94,11.94,0,0,0,3.5362-.5352,16.1152,16.1152,0,0,0,3.4785-1.5732q-.4908-.233-.93-.44-.441-.2081-.8389-.4238-.6387-.34-1.1084-.5391a2.13,2.13,0,0,0-.8086-.1992.778.778,0,0,0-.6269.2939,4.7126,4.7126,0,0,0-.5606.9834.8755.8755,0,0,1-.5351.4776.8621.8621,0,0,1-.8262-.0869.937.937,0,0,1-.373-.5059.9073.9073,0,0,1,.041-.6895,6.6212,6.6212,0,0,1,1.1123-1.73A2.0782,2.0782,0,0,1,334.2464,39.4723Z"/><path class="cls-4" d="M344.39,41.5143a.854.854,0,0,1,.8056.0664.9631.9631,0,0,1,.4317.5811,12.1425,12.1425,0,0,1,.4316,3.0879,7.0446,7.0446,0,0,1-.5312,2.83,5.6381,5.6381,0,0,1-1.4815,2.043A6.4372,6.4372,0,0,1,341.85,51.359a.872.872,0,0,1-.7636-.0664.9475.9475,0,0,1-.44-.539.8736.8736,0,0,1,.0742-.76,1.0214,1.0214,0,0,1,.5147-.4277,4.3506,4.3506,0,0,0,2.1631-1.5147,4.5756,4.5756,0,0,0,.7841-2.8017,10.4325,10.4325,0,0,0-.374-2.6231.8308.8308,0,0,1,.0957-.71A1.0535,1.0535,0,0,1,344.39,41.5143Z"/><path class="cls-4" d="M349.8939,47.0426a9.8212,9.8212,0,0,1,.2363-2.1709,17.8092,17.8092,0,0,1,.6846-2.2617.9454.9454,0,0,1,1.7764.6475,15.8883,15.8883,0,0,0-.5889,2,8.1359,8.1359,0,0,0-.208,1.7353,2.51,2.51,0,0,0,.8008,2.0342,4.06,4.06,0,0,0,2.6113.6719,5.4487,5.4487,0,0,0,2.3408-.4063q.8291-.4071.83-.9472,0-.4644-.6729-.8379a5.7023,5.7023,0,0,0-2.0332-.5313.901.901,0,0,1-.5644-.291.9659.9659,0,0,1-.2656-.58.8728.8728,0,0,1,.2529-.706.924.924,0,0,1,.6933-.2988h5.0547a.938.938,0,0,1,0,1.8759h-1.6845a2.0457,2.0457,0,0,1,1.0127,1.66,2.1214,2.1214,0,0,1-.6358,1.4863,4.3881,4.3881,0,0,1-1.7676,1.07,7.9389,7.9389,0,0,1-2.6357.3985,6.4452,6.4452,0,0,1-2.8467-.5723,4.1227,4.1227,0,0,1-1.7812-1.5986A4.5638,4.5638,0,0,1,349.8939,47.0426Zm2.6807,7.7364a.773.773,0,0,1,.5146-.9463,6.4375,6.4375,0,0,1,1.0752-.2158,9.9273,9.9273,0,0,1,1.208-.0743,6.94,6.94,0,0,1,1.0664.0743,3.8139,3.8139,0,0,1,.81.207.7689.7689,0,0,1,.3935.498.7206.7206,0,0,1-.1035.6153.7874.7874,0,0,1-.3818.3027.8.8,0,0,1-.4649.02,4.1814,4.1814,0,0,0-.6015-.1084,6.3787,6.3787,0,0,0-.7178-.041c-.377,0-.7266.0156-1.0508.0459a3.9474,3.9474,0,0,0-.8008.1455.7329.7329,0,0,1-.5771-.0752A.7731.7731,0,0,1,352.5746,54.779Z"/><path class="cls-4" d="M359.9046,46.0387a.8972.8972,0,0,1,.2774-.664.9067.9067,0,0,1,.66-.2744q1.5777,0,2.5821-.0752a4.3557,4.3557,0,0,0,1.5351-.3321,2.1087,2.1087,0,0,0,.7432-.4394,1.3875,1.3875,0,0,0,.3613-.7051,7.4178,7.4178,0,0,1-1.5361.1738,3.57,3.57,0,0,1-2.2989-.6513,2.5194,2.5194,0,0,1-.8056-2.0791,5.058,5.058,0,0,1,.3818-2.0049,3.4833,3.4833,0,0,1,1.0547-1.4151,2.44,2.44,0,0,1,1.544-.5234,2.6666,2.6666,0,0,1,1.9042.7432,4.6863,4.6863,0,0,1,1.1954,2.042,9.8211,9.8211,0,0,1,.4111,2.9667,4.2344,4.2344,0,0,1-.3945,1.9717,2.95,2.95,0,0,1-1.29,1.2246,5.455,5.455,0,0,1-2.1709.76,20.5179,20.5179,0,0,1-3.2168.22.9489.9489,0,0,1-.9375-.9375Zm3.2207-5.2715a1.12,1.12,0,0,0,.3692.9424,1.6694,1.6694,0,0,0,1.042.2862,3.9715,3.9715,0,0,0,.705-.0664c.2442-.044.4678-.0938.6729-.15a.5694.5694,0,0,1,.166-.0244,5.1192,5.1192,0,0,0-.5361-2.0879,1.2461,1.2461,0,0,0-1.1-.7265,1.11,1.11,0,0,0-.9541.5351A2.2312,2.2312,0,0,0,363.1253,40.7672Zm.2735-7.3632a.9761.9761,0,0,1,.2783-.6758.9294.9294,0,0,1,.7178-.3028.99.99,0,0,1,.5312.1329,1.0537,1.0537,0,0,1,.3408.3232,1.0266,1.0266,0,0,1,.166.5313,1.34,1.34,0,0,1-.2119.6679.8668.8668,0,0,1-.8173.3614.9485.9485,0,0,1-.627-.1788,1.0205,1.0205,0,0,1-.3027-.41A1.3684,1.3684,0,0,1,363.3988,33.404Z"/><path class="cls-4" d="M372.0648,43.2321q0-1.5937.0332-3.1367t-.0244-3.3457a.9445.9445,0,0,1,.2568-.6807.8759.8759,0,0,1,.6475-.2988.9156.9156,0,0,1,.6806.249.8752.8752,0,0,1,.2989.6562q.0585,1.7754.0254,3.3409t-.0332,3.1914a2.2632,2.2632,0,0,0,.3652,1.4775,1.9059,1.9059,0,0,0,1.4443.4151h.0078a.938.938,0,0,1,0,1.8759h-.0078a3.9828,3.9828,0,0,1-2.7646-.8466A3.7857,3.7857,0,0,1,372.0648,43.2321Z"/><path class="cls-4" d="M374.8206,46.0387a.8909.8909,0,0,1,.2823-.664.92.92,0,0,1,.664-.2744,4.0422,4.0422,0,0,0,1.6729-.2618,1.3336,1.3336,0,0,0,.7217-.8838,6.9281,6.9281,0,0,0,.2041-1.6855.8975.8975,0,0,1,.3193-.68.9644.9644,0,0,1,.6934-.2168.9108.9108,0,0,1,.6474.32.8756.8756,0,0,1,.2237.6758,5.4288,5.4288,0,0,0,.1367,1.6025,1.3475,1.3475,0,0,0,.6689.8633,3.118,3.118,0,0,0,1.4356.2657h.0088a.938.938,0,0,1,0,1.8759h-.0088a4.4367,4.4367,0,0,1-1.9961-.3945,2.5838,2.5838,0,0,1-1.1992-1.34,3,3,0,0,1-1.3829,1.3564,5.2617,5.2617,0,0,1-2.1455.3779.9161.9161,0,0,1-.664-.2783A.8974.8974,0,0,1,374.8206,46.0387Zm1.918-7.3633a.98.98,0,0,1,.2774-.6767.93.93,0,0,1,.7187-.3027.9951.9951,0,0,1,.5313.1328,1.07,1.07,0,0,1,.34.3232,1.0237,1.0237,0,0,1,.166.5313,1.3374,1.3374,0,0,1-.2119.6689.8664.8664,0,0,1-.8174.36.9521.9521,0,0,1-.6269-.1778,1.0357,1.0357,0,0,1-.3028-.4111A1.3579,1.3579,0,0,1,376.7386,38.6754Z"/><path class="cls-4" d="M380.7972,50.4372a.7713.7713,0,0,1,.5147-.9453,6.4407,6.4407,0,0,1,1.0752-.2168,10.123,10.123,0,0,1,1.208-.0743,7.0556,7.0556,0,0,1,1.0664.0743,3.8031,3.8031,0,0,1,.81.208.7688.7688,0,0,1,.3946.498.7222.7222,0,0,1-.1045.6143.7815.7815,0,0,1-.3819.3027.8079.8079,0,0,1-.4648.0215,3.9025,3.9025,0,0,0-.6016-.1084,6.3428,6.3428,0,0,0-.7177-.042q-.5655,0-1.05.0459a3.9427,3.9427,0,0,0-.8018.1455.73.73,0,0,1-.5762-.0742A.77.77,0,0,1,380.7972,50.4372Zm.7559-4.3985a.8871.8871,0,0,1,.2822-.664.9173.9173,0,0,1,.6641-.2744,4.0484,4.0484,0,0,0,1.6728-.2618,1.3364,1.3364,0,0,0,.7217-.8838,6.9352,6.9352,0,0,0,.2031-1.6855.8953.8953,0,0,1,.32-.68.9621.9621,0,0,1,.6924-.2168.9073.9073,0,0,1,.6475.32.8763.8763,0,0,1,.2246.6758,5.3951,5.3951,0,0,0,.1367,1.6025,1.3432,1.3432,0,0,0,.668.8633,3.119,3.119,0,0,0,1.4365.2657h.0078a.938.938,0,0,1,0,1.8759h-.0078a4.4343,4.4343,0,0,1-1.9961-.3945,2.59,2.59,0,0,1-1.2-1.34,2.9975,2.9975,0,0,1-1.3818,1.3564,5.2657,5.2657,0,0,1-2.1455.3779.9132.9132,0,0,1-.6641-.2783A.8935.8935,0,0,1,381.5531,46.0387Z"/><path class="cls-4" d="M388.2933,46.0387a.8975.8975,0,0,1,.2773-.664.9071.9071,0,0,1,.66-.2744,1.2084,1.2084,0,0,0,1.1992-.7344,5.4743,5.4743,0,0,0,.3369-2.1875q0-.7808-.042-1.5606t-.1367-1.7636q-.0952-.9845-.2617-2.37a.9519.9519,0,0,1,.1953-.6972.8911.8911,0,0,1,.6182-.3653.9241.9241,0,0,1,.6972.1866.8956.8956,0,0,1,.3653.6269q.1494,1.17.2412,2.1006t.1328,1.7676q.0409.8379.041,1.7431a7.6633,7.6633,0,0,1-.76,3.9014,2.8383,2.8383,0,0,1-2.627,1.2285.9487.9487,0,0,1-.9375-.9375Z"/><path class="cls-4" d="M393.0579,52.861a.4126.4126,0,0,1,.0206-.3477.4707.4707,0,0,1,.2695-.25l1.0293-.3564a1.4358,1.4358,0,0,1-.5811-.5273,1.5434,1.5434,0,0,1-.2158-.834,1.7909,1.7909,0,0,1,.5147-1.3155,1.912,1.912,0,0,1,1.42-.52,3.4977,3.4977,0,0,1,.5644.042.5044.5044,0,0,1,.3106.1787.4209.4209,0,0,1,.1045.3193.4786.4786,0,0,1-.1709.3194.39.39,0,0,1-.3438.1035,1.834,1.834,0,0,0-.3486-.0332,1.1737,1.1737,0,0,0-.8428.2744.9107.9107,0,0,0-.2861.6885.7015.7015,0,0,0,.249.582,1.06,1.06,0,0,0,.6807.1992,2.4661,2.4661,0,0,0,.5146-.0586,6.86,6.86,0,0,0,.7715-.2324.425.425,0,0,1,.3691.0371.4418.4418,0,0,1,.2207.2949.4847.4847,0,0,1-.0458.3448.3856.3856,0,0,1-.2452.2031l-3.3613,1.1787a.4388.4388,0,0,1-.3574-.02A.4719.4719,0,0,1,393.0579,52.861Zm1.212-16.0039a.9172.9172,0,0,1,.19-.6973.93.93,0,0,1,1.3154-.1777.8977.8977,0,0,1,.3614.6269q.1494,1.0693.2324,1.8965t.1162,1.6182q.0336.7925.0332,1.78,0,1.1542-.041,2.35t-.1328,2.2246a.92.92,0,0,1-.3321.6387.8985.8985,0,0,1-.6894.2246.9217.9217,0,0,1-.6387-.3321.889.889,0,0,1-.2246-.6806q.0922-1.03.1328-2.2119.0424-1.1836.042-2.3038,0-.9213-.0332-1.64t-.1123-1.4854Q394.4105,37.9206,394.27,36.8571Z"/><path class="cls-4" d="M406.181,40.7838a2.8752,2.8752,0,0,1,1.7266.502,3.1586,3.1586,0,0,1,1.0586,1.3281,4.6421,4.6421,0,0,1,.3779,1.7979,1.7254,1.7254,0,0,0,.6513.539,3.2122,3.2122,0,0,0,1.1661.1495h.0088a.8886.8886,0,0,1,.6718.2783.9517.9517,0,0,1,0,1.3193.8886.8886,0,0,1-.6718.2783h-.0088a5.425,5.425,0,0,1-1.39-.1582,3.4293,3.4293,0,0,1-1.0508-.4648,2.4956,2.4956,0,0,1-1.1621.7021,5.5435,5.5435,0,0,1-1.5771.2119,10.0234,10.0234,0,0,1-1.3819-.0957q-.684-.0951-1.2822-.2031a1.2306,1.2306,0,0,0-.6562.0156c-.1377.0616-.2022.2139-.19.4571l.2989,5.1963a.9753.9753,0,0,1-.2578.7177.8792.8792,0,0,1-.6807.3028.9047.9047,0,0,1-.6426-.253.8821.8821,0,0,1-.2871-.6259l-.3154-5.62a1.9724,1.9724,0,0,1,.5195-1.6181,2.2066,2.2066,0,0,1,1.5225-.5733,1.0027,1.0027,0,0,1,.0088-.3408,7.3833,7.3833,0,0,1,.4062-1.3691,5.2007,5.2007,0,0,1,.7061-1.2412,3.36,3.36,0,0,1,1.0371-.8965A2.8338,2.8338,0,0,1,406.181,40.7838Zm-1.793,4.167a.9221.9221,0,0,1-.083.2491q.4482.0907.8965.1455a7.2719,7.2719,0,0,0,.8721.0537,2.39,2.39,0,0,0,.9961-.1865.7973.7973,0,0,0,.4062-.81,2.4385,2.4385,0,0,0-.3027-1.208,1.0475,1.0475,0,0,0-.9922-.543,1.3116,1.3116,0,0,0-1.19.68A5.0805,5.0805,0,0,0,404.388,44.9508Z"/><path class="cls-4" d="M410.2318,46.0387a.8946.8946,0,0,1,.2783-.664.9053.9053,0,0,1,.66-.2744,2.56,2.56,0,0,0,1.7558-.5889,3.06,3.06,0,0,0,.7754-2.1338,1.0432,1.0432,0,0,1,.083-.3076.881.881,0,0,1,.7227-.5391.9066.9066,0,0,1,.6552.1494.8957.8957,0,0,1,.4239.73,3.1509,3.1509,0,0,0,.5888,1.7764,10.0413,10.0413,0,0,1,2.2539-2.8926,4.2169,4.2169,0,0,1,2.793-1.0664,3.322,3.322,0,0,1,1.6152.3857,2.8945,2.8945,0,0,1,1.12,1.07,3.0441,3.0441,0,0,1,.4111,1.5987,3.1284,3.1284,0,0,1-.1582.9961,1.2867,1.2867,0,0,0,.5976.6308,2.9356,2.9356,0,0,0,1.2208.1905h.0078a.938.938,0,0,1,0,1.8759h-.0078a4.59,4.59,0,0,1-1.6729-.291,3.6275,3.6275,0,0,1-1.2744-.8125,5.1458,5.1458,0,0,1-1.6973.875,7.0577,7.0577,0,0,1-2.1289.3115,6.8819,6.8819,0,0,1-2.5234-.44q-.1172.249-.2324.5156a.7533.7533,0,0,1-.4942.46.7638.7638,0,0,1-.61-.0615.702.702,0,0,1-.3233-.4278.965.965,0,0,1,.041-.6191q.1334-.331.2657-.6387a4.2334,4.2334,0,0,1-.6553-.6474,3.8493,3.8493,0,0,1-1.4815,1.3154,4.5147,4.5147,0,0,1-2.0712.4609.95.95,0,0,1-.9385-.9375Zm10.7744-3.9179a2.6711,2.6711,0,0,0-1.834.7841,8.9023,8.9023,0,0,0-1.6191,2.0957,6.7375,6.7375,0,0,0,1.7021.1827,5.4985,5.4985,0,0,0,2.32-.4239,1.4082,1.4082,0,0,0,.9082-1.3525,1.1262,1.1262,0,0,0-.4394-.95A1.66,1.66,0,0,0,421.0062,42.1208Zm-.7969-4.8145a.9753.9753,0,0,1,.2783-.6767.93.93,0,0,1,.7178-.3038,1,1,0,0,1,.5313.1329,1.0649,1.0649,0,0,1,.3408.3242,1.0272,1.0272,0,0,1,.166.5312,1.3313,1.3313,0,0,1-.2119.668.8659.8659,0,0,1-.8174.3613.9511.9511,0,0,1-.627-.1787,1.0276,1.0276,0,0,1-.3027-.4111A1.3572,1.3572,0,0,1,420.2093,37.3063Z"/><path class="cls-4" d="M425.099,46.0387a.8971.8971,0,0,1,.2773-.664.9071.9071,0,0,1,.66-.2744,2.83,2.83,0,0,0,1.5937-.3409,1.4764,1.4764,0,0,0,.4815-1.2861q0-.3325-.05-.8506t-.1495-1.042a.9128.9128,0,0,1,.1866-.6933.93.93,0,0,1,.6191-.3692.8825.8825,0,0,1,.6973.1787.9615.9615,0,0,1,.373.6182q.1171.6138.1748,1.1787t.0576.9883a3.28,3.28,0,0,1-1.0166,2.5976,4.3576,4.3576,0,0,1-2.9677.8965.9487.9487,0,0,1-.9375-.9375Zm1.61-8.11a.98.98,0,0,1,.2774-.6768.93.93,0,0,1,.7187-.3027.9951.9951,0,0,1,.5313.1328,1.063,1.063,0,0,1,.34.3242,1.0159,1.0159,0,0,1,.166.5313,1.3368,1.3368,0,0,1-.2119.6679.8667.8667,0,0,1-.8174.3614.9527.9527,0,0,1-.6269-.1787,1.0367,1.0367,0,0,1-.3028-.4112A1.3569,1.3569,0,0,1,426.7093,37.9284Z"/><path class="cls-4" d="M431.6234,36.8571a.9176.9176,0,0,1,.19-.6973.93.93,0,0,1,1.3154-.1777.8973.8973,0,0,1,.3614.6269q.1494,1.0693.2324,1.8965t.1162,1.6182q.0337.7925.0332,1.78,0,1.1542-.041,2.35t-.1328,2.2246a.92.92,0,0,1-.3321.6387.8985.8985,0,0,1-.6894.2246.9217.9217,0,0,1-.6387-.3321.889.889,0,0,1-.2246-.6806q.0922-1.03.1328-2.2119.0425-1.1836.042-2.3038,0-.9213-.0332-1.64t-.1123-1.4854Q431.7641,37.9206,431.6234,36.8571Z"/><path class="cls-4" d="M138.6429,66.7067a1.3049,1.3049,0,0,1-.1367.543,1.3988,1.3988,0,0,1-.4111.5107,1.0671,1.0671,0,0,1-.6807.2158,1.5908,1.5908,0,0,1-.5557-.12,1.3687,1.3687,0,0,1-.5527-.3945,1.1074,1.1074,0,0,1-.2363-.7471,1.3169,1.3169,0,0,1,1.3115-1.3115,1.1041,1.1041,0,0,1,.93.4316A1.4218,1.4218,0,0,1,138.6429,66.7067Zm-1.751-11.53a.911.911,0,0,1,.6924.1865.9333.9333,0,0,1,.37.627q.1494,1.1207.2325,2.1045t.1162,1.9873q.0323,1.0049.0332,2.2168v.5059c0,.1777-.003.3544-.0088.5312a.8908.8908,0,0,1-.2822.6523.9613.9613,0,0,1-1.336-.0166.8787.8787,0,0,1-.2744-.6689c.0059-.166.01-.334.0127-.5059s.0039-.3378.0039-.498q0-1.1953-.0332-2.166-.0322-.9727-.1123-1.9014-.0777-.93-.2275-1.9922a.9035.9035,0,0,1,.19-.6933A.9451.9451,0,0,1,136.8919,55.1764Z"/><path class="cls-4" d="M146.014,61.7838a2.8771,2.8771,0,0,1,1.7266.502,3.1565,3.1565,0,0,1,1.0576,1.3281,4.624,4.624,0,0,1,.3779,1.7979,1.7324,1.7324,0,0,0,.6514.539,3.2212,3.2212,0,0,0,1.167.15h.0078a.8908.8908,0,0,1,.6728.2783.9517.9517,0,0,1,0,1.3193.8908.8908,0,0,1-.6728.2783h-.0078a5.4337,5.4337,0,0,1-1.3907-.1582,3.4246,3.4246,0,0,1-1.05-.4648,2.5006,2.5006,0,0,1-1.1621.7021,5.5525,5.5525,0,0,1-1.5771.2119,10.0353,10.0353,0,0,1-1.3828-.0957q-.6841-.0951-1.2823-.2031a1.226,1.226,0,0,0-.6552.0156q-.208.0924-.1914.4571l.2988,5.1963a.97.97,0,0,1-.2568.7177.8807.8807,0,0,1-.6807.3028.9071.9071,0,0,1-.6436-.253.8815.8815,0,0,1-.2861-.6259l-.3154-5.62a1.9691,1.9691,0,0,1,.5185-1.6181,2.211,2.211,0,0,1,1.5235-.5733,1.028,1.028,0,0,1,.0078-.3408,7.4646,7.4646,0,0,1,.4072-1.3691,5.2319,5.2319,0,0,1,.7051-1.2412A3.365,3.365,0,0,1,144.62,62.12,2.8284,2.8284,0,0,1,146.014,61.7838Zm-1.793,4.167a.9581.9581,0,0,1-.083.2491q.4484.0907.8965.1455a7.2568,7.2568,0,0,0,.8711.0537,2.3834,2.3834,0,0,0,.9961-.1865.7963.7963,0,0,0,.4072-.81,2.4382,2.4382,0,0,0-.3037-1.208,1.046,1.046,0,0,0-.9912-.543,1.3121,1.3121,0,0,0-1.1914.68A5.0563,5.0563,0,0,0,144.221,65.9508Z"/><path class="cls-4" d="M150.0648,67.0387a.8975.8975,0,0,1,.2773-.664.9071.9071,0,0,1,.66-.2744c.249,0,.49-.0088.7226-.0245a11.5838,11.5838,0,0,1,.2276-1.9472,7.3817,7.3817,0,0,1,.6523-1.9,4.04,4.04,0,0,1,1.1865-1.4365A2.9522,2.9522,0,0,1,155.61,60.24a2.06,2.06,0,0,1,1.2861.3984,2.58,2.58,0,0,1,.7969,1.0039,2.978,2.978,0,0,1,.2744,1.2374,3.8415,3.8415,0,0,1-.4277,1.7353,5.1552,5.1552,0,0,1-1.2158,1.5518A.9547.9547,0,0,1,156.68,66.1h2.54a.938.938,0,0,1,0,1.8759h-1.2862a5.1355,5.1355,0,0,1,.1826,1.3614,4.2213,4.2213,0,0,1-.2246,1.3154,2.6448,2.6448,0,0,1-.7382,1.1543,1.97,1.97,0,0,1-1.378.4687,2.7656,2.7656,0,0,1-1.4277-.374,3.8909,3.8909,0,0,1-1.125-1,6.2709,6.2709,0,0,1-.8135-1.3984,8.8219,8.8219,0,0,1-.5019-1.5684q-.4484.0411-.9053.041a.9487.9487,0,0,1-.9375-.9375Zm5.3623-4.84a1.422,1.422,0,0,0-1.25.9463,6.3507,6.3507,0,0,0-.543,2.5654,4.22,4.22,0,0,0,1.93-1.18,2.2628,2.2628,0,0,0,.6348-1.4355,1.1109,1.1109,0,0,0-.1739-.6436A.6729.6729,0,0,0,155.4271,62.1989Zm.3066,4.84a.8814.8814,0,0,1,.166-.5234,6.9441,6.9441,0,0,1-1.0039.6055,7.451,7.451,0,0,1-1.1709.4648,4.6628,4.6628,0,0,0,.78,2.0469,1.5405,1.5405,0,0,0,1.1787.751.5728.5728,0,0,0,.5352-.253,1.2056,1.2056,0,0,0,.1543-.6347,2.91,2.91,0,0,0-.1211-.793,7.4233,7.4233,0,0,0-.2774-.81c-.0615-.16-.1162-.3164-.166-.4687A1.2892,1.2892,0,0,1,155.7337,67.0387Z"/><path class="cls-4" d="M158.2826,67.0387a.8971.8971,0,0,1,.2773-.664.9069.9069,0,0,1,.66-.2744,2.83,2.83,0,0,0,1.5937-.3409,1.4764,1.4764,0,0,0,.4815-1.2861q0-.3325-.05-.8506t-.1494-1.042a.9128.9128,0,0,1,.1866-.6933.93.93,0,0,1,.6191-.3692.8825.8825,0,0,1,.6973.1787.9615.9615,0,0,1,.373.6182q.1171.6138.1748,1.1787t.0576.9883a3.28,3.28,0,0,1-1.0166,2.5976,4.3576,4.3576,0,0,1-2.9677.8965.9487.9487,0,0,1-.9375-.9375Zm.3066-7.7119a.7719.7719,0,0,1,.5146-.9463,6.45,6.45,0,0,1,1.0752-.2158,9.9315,9.9315,0,0,1,1.2081-.0752,6.9339,6.9339,0,0,1,1.0664.0752,3.7516,3.7516,0,0,1,.81.208.7648.7648,0,0,1,.3936.4981.716.716,0,0,1-.1035.6132.7793.7793,0,0,1-.3819.3038.8.8,0,0,1-.4648.0205,4.0613,4.0613,0,0,0-.6016-.1075,6.1529,6.1529,0,0,0-.7177-.042c-.377,0-.7266.0157-1.0508.0459a3.9511,3.9511,0,0,0-.8008.1446.73.73,0,0,1-.5772-.0742A.7734.7734,0,0,1,158.5892,59.3268Z"/><path class="cls-4" d="M164.931,64.2321q0-1.5937.0332-3.1367T164.94,57.75a.9445.9445,0,0,1,.2568-.6807.8761.8761,0,0,1,.6475-.2988.9156.9156,0,0,1,.6806.249.8752.8752,0,0,1,.2989.6562q.0585,1.7754.0254,3.3409t-.0332,3.1914a2.2638,2.2638,0,0,0,.3652,1.4775,1.906,1.906,0,0,0,1.4443.4151h.0078a.938.938,0,0,1,0,1.8759h-.0078a3.9828,3.9828,0,0,1-2.7646-.8466A3.7857,3.7857,0,0,1,164.931,64.2321Z"/><path class="cls-4" d="M166.932,71.4372a.7691.7691,0,0,1,.5146-.9453,6.4109,6.4109,0,0,1,1.0742-.2168,10.1255,10.1255,0,0,1,1.208-.0743,7.037,7.037,0,0,1,1.0665.0743,3.7888,3.7888,0,0,1,.81.208.7658.7658,0,0,1,.3946.498.7249.7249,0,0,1-.1036.6143.7857.7857,0,0,1-.3818.3027.8083.8083,0,0,1-.4648.0215,3.9407,3.9407,0,0,0-.6026-.1084,6.331,6.331,0,0,0-.7178-.042c-.3759,0-.7265.0156-1.05.0459a3.9185,3.9185,0,0,0-.8007.1455.7328.7328,0,0,1-.5772-.0742A.7652.7652,0,0,1,166.932,71.4372Zm.7549-4.3985a.8908.8908,0,0,1,.2822-.664.92.92,0,0,1,.664-.2744,4.0422,4.0422,0,0,0,1.6729-.2618,1.3336,1.3336,0,0,0,.7217-.8838,6.9281,6.9281,0,0,0,.2041-1.6855.8975.8975,0,0,1,.3193-.68.9644.9644,0,0,1,.6934-.2168.9106.9106,0,0,1,.6474.32.8756.8756,0,0,1,.2237.6758,5.4288,5.4288,0,0,0,.1367,1.6025,1.3475,1.3475,0,0,0,.6689.8633,3.118,3.118,0,0,0,1.4356.2657h.0088a.938.938,0,0,1,0,1.8759h-.0088a4.437,4.437,0,0,1-1.9961-.3945,2.5838,2.5838,0,0,1-1.1992-1.34,2.9994,2.9994,0,0,1-1.3828,1.3564,5.2626,5.2626,0,0,1-2.1456.3779.9162.9162,0,0,1-.664-.2783A.8973.8973,0,0,1,167.6869,67.0387Z"/><path class="cls-4" d="M174.4271,67.0387a.8946.8946,0,0,1,.2783-.664.9055.9055,0,0,1,.66-.2744,2.56,2.56,0,0,0,1.7558-.5889,3.06,3.06,0,0,0,.7754-2.1338,1.0432,1.0432,0,0,1,.083-.3076.881.881,0,0,1,.7227-.5391.9069.9069,0,0,1,.6553.1494.8958.8958,0,0,1,.4238.73,3.1509,3.1509,0,0,0,.5888,1.7764,10.04,10.04,0,0,1,2.254-2.8926,4.2164,4.2164,0,0,1,2.7929-1.0664,3.3226,3.3226,0,0,1,1.6153.3857,2.8949,2.8949,0,0,1,1.12,1.07,3.0441,3.0441,0,0,1,.4111,1.5987,3.1284,3.1284,0,0,1-.1582.9961,1.2865,1.2865,0,0,0,.5977.6308,2.9351,2.9351,0,0,0,1.2207.1905h.0078a.938.938,0,0,1,0,1.8759h-.0078a4.59,4.59,0,0,1-1.6729-.291,3.6275,3.6275,0,0,1-1.2744-.8125,5.1458,5.1458,0,0,1-1.6973.875,7.0577,7.0577,0,0,1-2.1289.3115,6.8819,6.8819,0,0,1-2.5234-.44q-.1172.249-.2324.5156a.7533.7533,0,0,1-.4942.46.7638.7638,0,0,1-.61-.0615.702.702,0,0,1-.3233-.4278.965.965,0,0,1,.041-.6191q.1334-.3311.2657-.6387a4.2379,4.2379,0,0,1-.6553-.6474,3.85,3.85,0,0,1-1.4814,1.3154,4.5154,4.5154,0,0,1-2.0713.4609.95.95,0,0,1-.9385-.9375Zm10.7744-3.9179a2.6714,2.6714,0,0,0-1.834.7841,8.9023,8.9023,0,0,0-1.6191,2.0957,6.7375,6.7375,0,0,0,1.7021.1827,5.4982,5.4982,0,0,0,2.32-.4239,1.4082,1.4082,0,0,0,.9082-1.3525,1.1259,1.1259,0,0,0-.4394-.95A1.66,1.66,0,0,0,185.2015,63.1208Z"/><path class="cls-4" d="M193.3861,60.4723a4.07,4.07,0,0,1,1.5771.3526q.8394.353,1.7432.8173.59.3076,1.3281.6436.74.3369,1.66.7266a.9126.9126,0,0,1,.4072.3525.9352.9352,0,0,1,.1572.5107.883.883,0,0,1-.4394.7969q-.3824.249-.7471.4815a1.2277,1.2277,0,0,0,.6846.7138,3.5349,3.5349,0,0,0,1.4316.2325h.0088a.938.938,0,0,1,0,1.8759h-.0088a5.41,5.41,0,0,1-2.2617-.4609,2.9941,2.9941,0,0,1-1.4981-1.4316,18.3011,18.3011,0,0,1-3.5078,1.3945,13.6253,13.6253,0,0,1-3.6894.498.9109.9109,0,0,1-.668-.2783.9209.9209,0,0,1,0-1.3193.9109.9109,0,0,1,.668-.2783,11.94,11.94,0,0,0,3.5361-.5352,16.1152,16.1152,0,0,0,3.4785-1.5732q-.4907-.233-.93-.44-.4409-.2081-.8388-.4238-.6387-.34-1.1084-.5391a2.1309,2.1309,0,0,0-.8086-.1992.7782.7782,0,0,0-.627.2939,4.7087,4.7087,0,0,0-.56.9834.876.876,0,0,1-.5352.4776.8619.8619,0,0,1-.8261-.0869.9376.9376,0,0,1-.3731-.5059.9078.9078,0,0,1,.041-.6895,6.6238,6.6238,0,0,1,1.1123-1.73A2.0784,2.0784,0,0,1,193.3861,60.4723Zm-1.1367-3.0957a.9782.9782,0,0,1,.2773-.6767.9308.9308,0,0,1,.7187-.3037,1.004,1.004,0,0,1,.5313.1328,1.0706,1.0706,0,0,1,.34.3242,1.0175,1.0175,0,0,1,.1661.5312,1.3315,1.3315,0,0,1-.212.668.8646.8646,0,0,1-.8173.3613.9522.9522,0,0,1-.627-.1787,1.0355,1.0355,0,0,1-.3027-.4111A1.3564,1.3564,0,0,1,192.2494,57.3766Z"/><path class="cls-4" d="M200.2591,67.0387a.9369.9369,0,0,1,.9385-.9384,2,2,0,0,0,1.4736-.54,2.78,2.78,0,0,0,.7256-1.5019c.0225-.16.05-.3711.083-.6309a.9536.9536,0,0,1,.378-.623.8935.8935,0,0,1,.6933-.1739.9222.9222,0,0,1,.6182.3731.9369.9369,0,0,1,.1865.706c-.0049.044-.0107.083-.0166.1162-.0107.083-.0215.1661-.0332.2491-.0273.1884-.0449.3379-.0537.4482s-.0127.2188-.0127.3242a1.6674,1.6674,0,0,0,.2949,1.0293.9935.9935,0,0,0,.8428.39,1.1833,1.1833,0,0,0,1.0332-.5606,4.0134,4.0134,0,0,0,.5351-1.6553q.0177-.1992.05-.416v-.0332a.8433.8433,0,0,1,.4239-.6718c0-.0059.0029-.0079.0078-.0079h.0088a.8815.8815,0,0,1,.5888-.125.8511.8511,0,0,1,.4981.2491.8948.8948,0,0,1,.2578.4814v.0254a.9316.9316,0,0,1,.0078.2148c-.0166.15-.0361.2969-.0576.4405-.0117.1328-.0166.2568-.0166.374a2.0959,2.0959,0,0,0,.3154,1.2031,1.1266,1.1266,0,0,0,1.0039.4649,1.1092,1.1092,0,0,0,.9463-.4063,1.8515,1.8515,0,0,0,.3076-1.1377,5.5421,5.5421,0,0,0-.0537-.751q-.0541-.3867-.1543-.8095a.9179.9179,0,0,1,.125-.71.8877.8877,0,0,1,.5811-.41.9145.9145,0,0,1,.7139.1113.8755.8755,0,0,1,.4228.5937q.1494.6387.1992,1.0215a6.49,6.49,0,0,1,.05.8379,3.8882,3.8882,0,0,1-.8047,2.5693,2.7291,2.7291,0,0,1-2.2168.9668,3.0985,3.0985,0,0,1-1.4521-.332,2.9533,2.9533,0,0,1-1.0625-.93,3.6614,3.6614,0,0,1-1.083.9385,2.6786,2.6786,0,0,1-1.3242.34,2.5454,2.5454,0,0,1-1.3448-.3613,2.8662,2.8662,0,0,1-.9716-.9668,4.1437,4.1437,0,0,1-1.22.8467,3.5544,3.5544,0,0,1-1.4941.3154.95.95,0,0,1-.9385-.9375Zm5.2959-8.2851a2.12,2.12,0,0,1,.3369-1.2285,2.0988,2.0988,0,0,1,.8672-.7344,2.6531,2.6531,0,0,1,1.125-.2442,2.6928,2.6928,0,0,1,1.124.24,2.0105,2.0105,0,0,1,1.2041,1.9424,2.9781,2.9781,0,0,1-.0537.5644,1.8142,1.8142,0,0,1-.1787.5068.9074.9074,0,0,1-.4111.4268.5985.5985,0,0,1-.6016-.0371.64.64,0,0,1-.3115-.3984.8423.8423,0,0,1,.0459-.5225,1.1391,1.1391,0,0,0,.1328-.54.7.7,0,0,0-.2861-.61,1.0968,1.0968,0,0,0-.6641-.1992,1.121,1.121,0,0,0-.664.2119.718.718,0,0,0-.2872.6221,1.0437,1.0437,0,0,0,.1709.6064,4.2436,4.2436,0,0,0,.5264.5977.53.53,0,0,1,.1455.4775.7388.7388,0,0,1-.2451.4522.5615.5615,0,0,1-.5019.1494.93.93,0,0,1-.4942-.249,4.94,4.94,0,0,1-.6807-.81A2.1714,2.1714,0,0,1,205.555,58.7536Z"/><path class="cls-4" d="M217.94,67.652a5.98,5.98,0,0,1,.2656-1.8047,10.3187,10.3187,0,0,1,.6231-1.5488.8541.8541,0,0,1,.5478-.4648.9785.9785,0,0,1,.7305.0507.8726.8726,0,0,1,.4609.543.938.938,0,0,1-.0459.7188,8.3524,8.3524,0,0,0-.4736,1.2031,4.3709,4.3709,0,0,0-.207,1.3027,2.2709,2.2709,0,0,0,.6933,1.7393,2.7675,2.7675,0,0,0,1.9707.6513,3.23,3.23,0,0,0,1.8311-.4472,2.4064,2.4064,0,0,0,.9336-1.3076,7.0041,7.0041,0,0,0,.2734-2.1045q0-2.1255-.1113-4.23t-.2871-4.5284a.8881.8881,0,0,1,.2246-.6845.9024.9024,0,0,1,.6474-.3194.922.922,0,0,1,.6846.2286.89.89,0,0,1,.3193.6425q.1334,1.86.2373,3.545t.1534,3.3369a3.7681,3.7681,0,0,0,.2236,1.1455,1.0773,1.0773,0,0,0,.5859.6015,3.0965,3.0965,0,0,0,1.19.1788h.0088a.938.938,0,0,1,0,1.8759h-.0088a3.9737,3.9737,0,0,1-2.0586-.5234,6.7546,6.7546,0,0,1-.7178,2.2168,4.24,4.24,0,0,1-1.5566,1.6435,4.84,4.84,0,0,1-2.5733.6221,4.901,4.901,0,0,1-2.3027-.539,4.2533,4.2533,0,0,1-1.6485-1.502A4.0839,4.0839,0,0,1,217.94,67.652Z"/><path class="cls-4" d="M228.4818,67.0387a.8946.8946,0,0,1,.2783-.664.9053.9053,0,0,1,.66-.2744,2.56,2.56,0,0,0,1.7558-.5889,3.06,3.06,0,0,0,.7754-2.1338,1.0432,1.0432,0,0,1,.083-.3076.881.881,0,0,1,.7227-.5391.9066.9066,0,0,1,.6552.1494.8957.8957,0,0,1,.4239.73,3.1509,3.1509,0,0,0,.5888,1.7764,10.0413,10.0413,0,0,1,2.2539-2.8926,4.2169,4.2169,0,0,1,2.793-1.0664,3.322,3.322,0,0,1,1.6152.3857,2.8945,2.8945,0,0,1,1.12,1.07,3.0441,3.0441,0,0,1,.4111,1.5987,3.1284,3.1284,0,0,1-.1582.9961,1.2867,1.2867,0,0,0,.5976.6308,2.9356,2.9356,0,0,0,1.2208.1905h.0078a.938.938,0,0,1,0,1.8759h-.0078a4.59,4.59,0,0,1-1.6729-.291,3.6275,3.6275,0,0,1-1.2744-.8125,5.1458,5.1458,0,0,1-1.6973.875,7.0577,7.0577,0,0,1-2.1289.3115,6.8819,6.8819,0,0,1-2.5234-.44q-.1172.249-.2324.5156a.7533.7533,0,0,1-.4942.46.7638.7638,0,0,1-.61-.0615.702.702,0,0,1-.3233-.4278.965.965,0,0,1,.041-.6191q.1334-.3311.2657-.6387a4.2334,4.2334,0,0,1-.6553-.6474,3.8493,3.8493,0,0,1-1.4815,1.3154,4.5147,4.5147,0,0,1-2.0712.4609.95.95,0,0,1-.9385-.9375Zm10.7744-3.9179a2.6711,2.6711,0,0,0-1.834.7841,8.9023,8.9023,0,0,0-1.6191,2.0957,6.7375,6.7375,0,0,0,1.7021.1827,5.4985,5.4985,0,0,0,2.32-.4239,1.4082,1.4082,0,0,0,.9082-1.3525,1.1262,1.1262,0,0,0-.4394-.95A1.66,1.66,0,0,0,239.2562,63.1208Zm-.7969-4.8145a.9753.9753,0,0,1,.2783-.6767.93.93,0,0,1,.7178-.3038,1,1,0,0,1,.5313.1329,1.0649,1.0649,0,0,1,.3408.3242,1.0272,1.0272,0,0,1,.166.5312,1.3313,1.3313,0,0,1-.2119.668.8659.8659,0,0,1-.8174.3613.9511.9511,0,0,1-.627-.1787,1.0276,1.0276,0,0,1-.3027-.4111A1.3572,1.3572,0,0,1,238.4593,58.3063Z"/><path class="cls-4" d="M243.349,67.0387a.8971.8971,0,0,1,.2773-.664.9071.9071,0,0,1,.66-.2744q1.5776,0,2.582-.0752a4.3569,4.3569,0,0,0,1.5352-.3321,2.109,2.109,0,0,0,.7431-.4394,1.3875,1.3875,0,0,0,.3613-.7051,7.4164,7.4164,0,0,1-1.5361.1738,3.5693,3.5693,0,0,1-2.2988-.6513,2.5194,2.5194,0,0,1-.8057-2.0791,5.0562,5.0562,0,0,1,.3819-2.0049,3.4822,3.4822,0,0,1,1.0546-1.4151,2.4406,2.4406,0,0,1,1.544-.5234,2.6669,2.6669,0,0,1,1.9043.7432,4.6862,4.6862,0,0,1,1.1953,2.042,9.8211,9.8211,0,0,1,.4111,2.9667,4.2332,4.2332,0,0,1-.3945,1.9717,2.95,2.95,0,0,1-1.29,1.2246,5.4556,5.4556,0,0,1-2.1709.76,20.52,20.52,0,0,1-3.2168.22.9487.9487,0,0,1-.9375-.9375Zm3.2207-5.2715a1.12,1.12,0,0,0,.3691.9424,1.67,1.67,0,0,0,1.042.2862,3.9726,3.9726,0,0,0,.7051-.0664c.2441-.044.4678-.0938.6728-.15a.57.57,0,0,1,.166-.0244,5.1192,5.1192,0,0,0-.5361-2.0879,1.2461,1.2461,0,0,0-1.1-.7265,1.11,1.11,0,0,0-.9541.5351A2.2319,2.2319,0,0,0,246.57,61.7672Zm.2734-7.3632a.9766.9766,0,0,1,.2783-.6758.93.93,0,0,1,.7178-.3028.99.99,0,0,1,.5312.1329,1.0531,1.0531,0,0,1,.3409.3232,1.0275,1.0275,0,0,1,.166.5313,1.3412,1.3412,0,0,1-.2119.6679.8669.8669,0,0,1-.8174.3614.9487.9487,0,0,1-.627-.1788,1.0205,1.0205,0,0,1-.3027-.41A1.3684,1.3684,0,0,1,246.8431,54.404Z"/><path class="cls-4" d="M252.2386,54.9352a.42.42,0,0,1,.02-.3476.4721.4721,0,0,1,.27-.25l1.0293-.3565a1.4222,1.4222,0,0,1-.581-.5273,1.5336,1.5336,0,0,1-.2158-.834,1.7866,1.7866,0,0,1,.5146-1.3154,1.91,1.91,0,0,1,1.4189-.52,3.4891,3.4891,0,0,1,.5645.042.5042.5042,0,0,1,.3115.1787.42.42,0,0,1,.1035.3194.4728.4728,0,0,1-.17.3193.3915.3915,0,0,1-.3447.1035,1.82,1.82,0,0,0-.3486-.0332,1.1768,1.1768,0,0,0-.8428.2744.9144.9144,0,0,0-.2862.6885.7016.7016,0,0,0,.2491.582,1.0616,1.0616,0,0,0,.6806.1993,2.4657,2.4657,0,0,0,.5147-.0586,6.8892,6.8892,0,0,0,.7724-.2325.4259.4259,0,0,1,.3692.0371.4376.4376,0,0,1,.22.295.4749.4749,0,0,1-.0459.3447.3838.3838,0,0,1-.2441.2031l-3.3623,1.1787a.437.437,0,0,1-.3565-.02A.4765.4765,0,0,1,252.2386,54.9352Zm.78,9.2969q0-1.5937.0332-3.1367t-.0244-3.3457a.9445.9445,0,0,1,.2568-.6807.8759.8759,0,0,1,.6475-.2988.9156.9156,0,0,1,.6806.249.8752.8752,0,0,1,.2989.6562q.0585,1.7754.0254,3.3409t-.0332,3.1914a2.2632,2.2632,0,0,0,.3652,1.4775,1.906,1.906,0,0,0,1.4443.4151h.0078a.938.938,0,0,1,0,1.8759h-.0078a3.9828,3.9828,0,0,1-2.7646-.8466A3.7857,3.7857,0,0,1,253.0189,64.2321Z"/><path class="cls-4" d="M255.7835,67.0387a.8972.8972,0,0,1,.2774-.664.9067.9067,0,0,1,.66-.2744,2.83,2.83,0,0,0,1.5938-.3409,1.4764,1.4764,0,0,0,.4814-1.2861q0-.3325-.05-.8506t-.1494-1.042a.9131.9131,0,0,1,.1865-.6933.93.93,0,0,1,.6192-.3692.8823.8823,0,0,1,.6972.1787.962.962,0,0,1,.3731.6182q.1171.6138.1748,1.1787t.0576.9883a3.28,3.28,0,0,1-1.0166,2.5976,4.3577,4.3577,0,0,1-2.9678.8965.9489.9489,0,0,1-.9375-.9375Zm.5479,3.9258a.98.98,0,0,1,.2773-.6767.93.93,0,0,1,.7188-.3028.9957.9957,0,0,1,.5312.1328,1.07,1.07,0,0,1,.34.3233,1.0234,1.0234,0,0,1,.166.5312,1.3374,1.3374,0,0,1-.2119.669.8664.8664,0,0,1-.8174.36.9528.9528,0,0,1-.627-.1777,1.0368,1.0368,0,0,1-.3027-.4111A1.3579,1.3579,0,0,1,256.3314,70.9645Z"/><path class="cls-4" d="M264.7982,57.8571a.9176.9176,0,0,1,.19-.6973.93.93,0,0,1,1.3154-.1777.897.897,0,0,1,.3614.6269q.1494,1.0693.2324,1.8965t.1162,1.6182q.0337.7925.0332,1.78,0,1.1542-.041,2.35t-.1328,2.2246a.92.92,0,0,1-.3321.6387.8985.8985,0,0,1-.6894.2246.9217.9217,0,0,1-.6387-.3321.889.889,0,0,1-.2246-.6806q.0922-1.03.1328-2.2119.0425-1.1837.042-2.3038,0-.9213-.0332-1.64t-.1123-1.4854Q264.9389,58.9206,264.7982,57.8571Z"/><path class="cls-4" d="M271.9779,67.9762a3.6119,3.6119,0,0,1-2.3819-.7138,2.65,2.65,0,0,1-.8554-2.1582,4.2214,4.2214,0,0,1,.4072-1.8467,3.6408,3.6408,0,0,1,1.1035-1.374,2.55,2.55,0,0,1,1.5693-.5225,2.5776,2.5776,0,0,1,1.7559.6514A4.2974,4.2974,0,0,1,274.73,63.71a6.0876,6.0876,0,0,1,.4112,2.2491V66.1h.7382a.938.938,0,0,1,0,1.8759H274.8a6.08,6.08,0,0,1-1.1738,2.0381,7.1246,7.1246,0,0,1-1.831,1.502,7.5629,7.5629,0,0,1-2.2325.8506.9467.9467,0,0,1-1.1045-.7461.85.85,0,0,1,.1543-.6973,1.1127,1.1127,0,0,1,.5928-.416,6.9165,6.9165,0,0,0,2.2168-1,4.6521,4.6521,0,0,0,1.4111-1.5313ZM271.9613,66.1h1.3613v-.0752a4.9044,4.9044,0,0,0-.1777-1.2735,3.2245,3.2245,0,0,0-.52-1.1123,1.0226,1.0226,0,0,0-.8466-.4521,1.0735,1.0735,0,0,0-.917.5351,2.1253,2.1253,0,0,0-.3614,1.2158.9994.9994,0,0,0,.3907.9092A1.9492,1.9492,0,0,0,271.9613,66.1Z"/><path class="cls-4" d="M274.9417,67.0387a.8972.8972,0,0,1,.2774-.664.9067.9067,0,0,1,.66-.2744,2.2345,2.2345,0,0,0,1.47-.3565,1.8854,1.8854,0,0,0,.39-1.3945q0-1.2715-.0459-2.3955t-.124-2.22q-.079-1.0956-.1953-2.2832a.9328.9328,0,0,1,.2158-.6933.8893.8893,0,0,1,.6309-.336.9319.9319,0,0,1,1.0293.8467q.167,1.768.2656,3.4072t.1,3.5489a.8445.8445,0,0,1,.0088.125,1.7384,1.7384,0,0,0,.4433,1.373,2.1361,2.1361,0,0,0,1.3995.378h.0078a.938.938,0,0,1,0,1.8759h-.0078a4.439,4.439,0,0,1-1.5274-.2617,3.272,3.272,0,0,1-1.2373-.7842,3.7275,3.7275,0,0,1-2.8223,1.0459.9489.9489,0,0,1-.9375-.9375Z"/><path class="cls-4" d="M284.6283,60.4723a4.07,4.07,0,0,1,1.5771.3526q.8394.353,1.7432.8173.59.3076,1.3281.6436.74.3369,1.66.7266a.9126.9126,0,0,1,.4072.3525.9352.9352,0,0,1,.1572.5107.883.883,0,0,1-.4394.7969q-.3823.249-.7471.4815a1.2277,1.2277,0,0,0,.6846.7138,3.5346,3.5346,0,0,0,1.4316.2325h.0088a.938.938,0,0,1,0,1.8759h-.0088a5.41,5.41,0,0,1-2.2617-.4609,2.9933,2.9933,0,0,1-1.4981-1.4316,18.3011,18.3011,0,0,1-3.5078,1.3945,13.6253,13.6253,0,0,1-3.6894.498.9107.9107,0,0,1-.668-.2783.9209.9209,0,0,1,0-1.3193.9107.9107,0,0,1,.668-.2783,11.94,11.94,0,0,0,3.5361-.5352,16.1152,16.1152,0,0,0,3.4785-1.5732q-.4907-.233-.93-.44-.4409-.2081-.8388-.4238-.6387-.34-1.1084-.5391a2.1309,2.1309,0,0,0-.8086-.1992.7782.7782,0,0,0-.627.2939,4.7087,4.7087,0,0,0-.5605.9834.876.876,0,0,1-.5352.4776.8621.8621,0,0,1-.8262-.0869.937.937,0,0,1-.373-.5059.9078.9078,0,0,1,.041-.6895,6.6212,6.6212,0,0,1,1.1123-1.73A2.0784,2.0784,0,0,1,284.6283,60.4723Z"/><path class="cls-4" d="M291.4935,67.0387a.8871.8871,0,0,1,.2822-.664A.9173.9173,0,0,1,292.44,66.1a4.048,4.048,0,0,0,1.6728-.2618,1.3361,1.3361,0,0,0,.7217-.8838,6.93,6.93,0,0,0,.2031-1.6855.8951.8951,0,0,1,.32-.68.9617.9617,0,0,1,.6923-.2168.9071.9071,0,0,1,.6475.32.8759.8759,0,0,1,.2246.6758,5.3951,5.3951,0,0,0,.1367,1.6025,1.3435,1.3435,0,0,0,.668.8633,3.119,3.119,0,0,0,1.4365.2657h.0078a.938.938,0,0,1,0,1.8759h-.0078a4.4343,4.4343,0,0,1-1.9961-.3945,2.59,2.59,0,0,1-1.2-1.34,2.9971,2.9971,0,0,1-1.3818,1.3564,5.2653,5.2653,0,0,1-2.1455.3779.9132.9132,0,0,1-.6641-.2783A.8935.8935,0,0,1,291.4935,67.0387Zm.8633-7.23a.773.773,0,0,1,.5146-.9463,6.4189,6.4189,0,0,1,1.0752-.2158,9.8927,9.8927,0,0,1,1.2071-.0743,6.93,6.93,0,0,1,1.0673.0743,3.8035,3.8035,0,0,1,.8086.207.7678.7678,0,0,1,.3946.498.7237.7237,0,0,1-.1036.6153.7914.7914,0,0,1-.3818.3027.8.8,0,0,1-.4648.0205,4.2119,4.2119,0,0,0-.6016-.1084,6.3826,6.3826,0,0,0-.7187-.041q-.564,0-1.05.0459a3.9317,3.9317,0,0,0-.8007.1455.7332.7332,0,0,1-.5772-.0752A.7662.7662,0,0,1,292.3568,59.8083Z"/><path class="cls-4" d="M297.47,71.4372a.7691.7691,0,0,1,.5146-.9453,6.4109,6.4109,0,0,1,1.0742-.2168,10.1255,10.1255,0,0,1,1.208-.0743,7.0347,7.0347,0,0,1,1.0664.0743,3.7883,3.7883,0,0,1,.81.208.7657.7657,0,0,1,.3945.498.7245.7245,0,0,1-.1035.6143.7857.7857,0,0,1-.3818.3027.8086.8086,0,0,1-.4649.0215,3.9369,3.9369,0,0,0-.6025-.1084,6.331,6.331,0,0,0-.7178-.042c-.3759,0-.7265.0156-1.05.0459a3.9209,3.9209,0,0,0-.8008.1455.7326.7326,0,0,1-.5771-.0742A.7652.7652,0,0,1,297.47,71.4372Zm.7636-4.3985a.8972.8972,0,0,1,.2774-.664.9067.9067,0,0,1,.66-.2744,2.83,2.83,0,0,0,1.5938-.3409,1.4764,1.4764,0,0,0,.4814-1.2861q0-.3325-.05-.8506t-.1494-1.042a.9131.9131,0,0,1,.1865-.6933.93.93,0,0,1,.6192-.3692.8823.8823,0,0,1,.6972.1787.962.962,0,0,1,.3731.6182q.1171.6138.1748,1.1787t.0576.9883A3.28,3.28,0,0,1,302.139,67.08a4.3577,4.3577,0,0,1-2.9678.8965.9489.9489,0,0,1-.9375-.9375Z"/><path class="cls-4" d="M312.2621,71.8776a6.2037,6.2037,0,0,1-2.7891-.5889,4.4762,4.4762,0,0,1-1.8428-1.6269,4.38,4.38,0,0,1-.6562-2.3906,8.9521,8.9521,0,0,1,.1748-1.7266,13.7006,13.7006,0,0,1,.456-1.7266.9409.9409,0,0,1,.4981-.5312.8678.8678,0,0,1,.7138-.0254.9248.9248,0,0,1,.5274.49.8787.8787,0,0,1,.0293.7217,10.9269,10.9269,0,0,0-.3653,1.3447,6.3927,6.3927,0,0,0-.1416,1.2871,2.6957,2.6957,0,0,0,.8672,2.1289,3.6914,3.6914,0,0,0,2.52.7676,3.8688,3.8688,0,0,0,2.5654-.7637,2.622,2.622,0,0,0,.9043-2.1171,5.9411,5.9411,0,0,0-.1865-1.4356,12.8942,12.8942,0,0,0-.502-1.5527.8777.8777,0,0,1-.0049-.7217.93.93,0,0,1,.503-.5068.9573.9573,0,0,1,1.2451.5068,13.8766,13.8766,0,0,1,.6142,1.9346,8.4151,8.4151,0,0,1,.2325,1.9414,4.2774,4.2774,0,0,1-.6729,2.3867,4.5536,4.5536,0,0,1-1.88,1.6191A6.3811,6.3811,0,0,1,312.2621,71.8776Zm-1.0127-7.4541a.98.98,0,0,1,.2773-.6768.93.93,0,0,1,.7187-.3027.9949.9949,0,0,1,.5313.1328,1.0692,1.0692,0,0,1,.34.3233,1.0226,1.0226,0,0,1,.1661.5312,1.338,1.338,0,0,1-.212.669.8662.8662,0,0,1-.8173.36.9528.9528,0,0,1-.627-.1777,1.0364,1.0364,0,0,1-.3027-.4112A1.3569,1.3569,0,0,1,311.2494,64.4235Z"/><path class="cls-4" d="M318.4046,55.234a.4124.4124,0,0,1,.02-.3476.4705.4705,0,0,1,.27-.25l1.0293-.3565a1.4337,1.4337,0,0,1-.5811-.5273,1.5432,1.5432,0,0,1-.2158-.834,1.7911,1.7911,0,0,1,.5146-1.3154,1.9123,1.9123,0,0,1,1.42-.52,3.4984,3.4984,0,0,1,.5644.0419.5046.5046,0,0,1,.3106.1788.4208.4208,0,0,1,.1045.3193.4788.4788,0,0,1-.1709.3193.39.39,0,0,1-.3438.1035,1.8422,1.8422,0,0,0-.3486-.0332,1.1733,1.1733,0,0,0-.8428.2745.9107.9107,0,0,0-.2861.6884.7018.7018,0,0,0,.249.5821,1.06,1.06,0,0,0,.6807.1992,2.4729,2.4729,0,0,0,.5146-.0586,6.8811,6.8811,0,0,0,.7715-.2324.4244.4244,0,0,1,.3691.0371.4413.4413,0,0,1,.2207.2949.4845.4845,0,0,1-.0459.3447.3855.3855,0,0,1-.2451.2031l-3.3613,1.1788a.4392.4392,0,0,1-.3574-.02A.4721.4721,0,0,1,318.4046,55.234Zm.7969,2.6231a.9176.9176,0,0,1,.19-.6973.93.93,0,0,1,1.3155-.1777.8972.8972,0,0,1,.3613.6269q.1494,1.0693.2324,1.8965t.1162,1.6182q.0337.7925.0332,1.78,0,1.1542-.041,2.35t-.1328,2.2246a.92.92,0,0,1-.332.6387.8987.8987,0,0,1-.69.2246.9217.9217,0,0,1-.6387-.3321.8894.8894,0,0,1-.2246-.6806q.0924-1.03.1328-2.2119.0426-1.1837.042-2.3038,0-.9213-.0332-1.64t-.1123-1.4854Q319.3421,58.9206,319.2015,57.8571Z"/><path class="cls-4" d="M325.5013,64.2575a5.3683,5.3683,0,0,1,.415-2.1582.8791.8791,0,0,1,.544-.4815.9213.9213,0,0,1,.7266.05q.7046.3488.4228,1.2618a4.84,4.84,0,0,0-.2158,1.4023,1.8,1.8,0,0,0,.3906,1.2373,2.189,2.189,0,0,0,1.249.61,11.999,11.999,0,0,0,2.2452.17,11.0439,11.0439,0,0,0,2.5986-.2451,2.34,2.34,0,0,0,1.4023-.8506,2.8636,2.8636,0,0,0,.4317-1.6856q0-1.3945-.0909-3.0166t-.2744-3.1172a.9012.9012,0,0,1,.1914-.6972.94.94,0,0,1,1.3155-.17.8972.8972,0,0,1,.3613.6259q.1992,1.6026.29,3.2588.0924,1.6553.0918,3.1162a4.1228,4.1228,0,0,1-1.498,3.5489,8.1741,8.1741,0,0,1-4.8027,1.1084,8.3669,8.3669,0,0,1-4.378-.8965A3.3479,3.3479,0,0,1,325.5013,64.2575Zm7.4707-5.8438a.4668.4668,0,0,1-.17.336.4507.4507,0,0,1-.3613.1035.8762.8762,0,0,0-.17-.0156h-.1787a1.9673,1.9673,0,0,0-1.0869.2734.7884.7884,0,0,0-.4238.6641.4187.4187,0,0,0,.2656.3945,4.0472,4.0472,0,0,0,.6475.2363,6.6312,6.6312,0,0,1,.7226.2363,1.5718,1.5718,0,0,1,.6309.4444,1.2486,1.2486,0,0,1,.2568.8388,1.39,1.39,0,0,1-.7177,1.22,3.2525,3.2525,0,0,1-1.78.456c-.1612,0-.3115-.0039-.4522-.0117s-.2754-.0185-.4033-.0293a.4571.4571,0,0,1-.3359-.1787.477.477,0,0,1-.1035-.3691.5328.5328,0,0,1,.19-.3448.4673.4673,0,0,1,.3652-.1035c.1221.0108.2461.0225.374.0332s.2569.0166.39.0166a2.9973,2.9973,0,0,0,1.0127-.1621c.3047-.1074.457-.2754.457-.5019a.3746.3746,0,0,0-.2412-.3448,3.7985,3.7985,0,0,0-.6055-.2285,6.6388,6.6388,0,0,1-.7343-.2607,1.7863,1.7863,0,0,1-.66-.4737,1.2559,1.2559,0,0,1-.2744-.8593,1.5526,1.5526,0,0,1,.3369-.9746,2.3481,2.3481,0,0,1,.9043-.6973,2.9855,2.9855,0,0,1,1.2656-.2617,4.3834,4.3834,0,0,1,.44.0254.4547.4547,0,0,1,.332.17A.5.5,0,0,1,332.972,58.4137Z"/><path class="cls-4" d="M339.1478,67.7692a.6687.6687,0,0,1-.07-.5195.6922.6922,0,0,1,.3027-.4278q.6064-.3646,1.2207-.6718a2.2764,2.2764,0,0,1-1.3281-2.2247,2.9512,2.9512,0,0,1,1.5185-2.6435,3.0193,3.0193,0,0,1,1.503-.3857,3.4043,3.4043,0,0,1,1.6513.4394.77.77,0,0,1,.378.3906.6066.6066,0,0,1,.0039.5059.7115.7115,0,0,1-.39.3906.5443.5443,0,0,1-.5068-.0176,2.4094,2.4094,0,0,0-.6016-.2607,2.22,2.22,0,0,0-.5771-.0791,1.6322,1.6322,0,0,0-1.1455.4355,1.51,1.51,0,0,0-.4727,1.1661,1.1867,1.1867,0,0,0,.3946.9384,1.8842,1.8842,0,0,0,1.2656.3487,6.558,6.558,0,0,0,.8379-.0625q.4819-.0617.9882-.1534c.0547-.0107.1075-.0224.1573-.0332a.15.15,0,0,0,.05-.0087.6083.6083,0,0,1,.5644.1914.6891.6891,0,0,1,.1914.3574v.0156a.0549.0549,0,0,1,.0079.0332.6693.6693,0,0,1-.0743.3984.6489.6489,0,0,1-.4736.3575,13.3593,13.3593,0,0,0-4.4492,1.7519.6513.6513,0,0,1-.5147.07A.6948.6948,0,0,1,339.1478,67.7692Z"/><path class="cls-4" d="M346.8011,64.2321q0-1.5937.0332-3.1367T346.81,57.75a.9445.9445,0,0,1,.2568-.6807.8761.8761,0,0,1,.6475-.2988.916.916,0,0,1,.6807.249.8754.8754,0,0,1,.2988.6562q.0587,1.7754.0254,3.3409t-.0332,3.1914a2.2638,2.2638,0,0,0,.3652,1.4775,1.906,1.906,0,0,0,1.4443.4151h.0079a.938.938,0,0,1,0,1.8759h-.0079a3.9828,3.9828,0,0,1-2.7646-.8466A3.7861,3.7861,0,0,1,346.8011,64.2321Z"/><path class="cls-4" d="M349.557,67.0387a.8908.8908,0,0,1,.2822-.664.9206.9206,0,0,1,.6641-.2744,4.042,4.042,0,0,0,1.6728-.2618,1.3336,1.3336,0,0,0,.7217-.8838,6.9281,6.9281,0,0,0,.2041-1.6855.8975.8975,0,0,1,.3193-.68.9646.9646,0,0,1,.6934-.2168.9108.9108,0,0,1,.6475.32.8759.8759,0,0,1,.2236.6758,5.4288,5.4288,0,0,0,.1367,1.6025,1.3478,1.3478,0,0,0,.6689.8633,3.118,3.118,0,0,0,1.4356.2657h.0088a.938.938,0,0,1,0,1.8759h-.0088a4.4373,4.4373,0,0,1-1.9961-.3945,2.5842,2.5842,0,0,1-1.1992-1.34,2.9994,2.9994,0,0,1-1.3828,1.3564,5.2624,5.2624,0,0,1-2.1455.3779.9165.9165,0,0,1-.6641-.2783A.8973.8973,0,0,1,349.557,67.0387Zm1.9179-7.3633a.98.98,0,0,1,.2774-.6767.93.93,0,0,1,.7187-.3027.9949.9949,0,0,1,.5313.1328,1.07,1.07,0,0,1,.34.3232,1.0228,1.0228,0,0,1,.166.5313,1.3374,1.3374,0,0,1-.2119.6689.8664.8664,0,0,1-.8174.36.9521.9521,0,0,1-.6269-.1778,1.0355,1.0355,0,0,1-.3027-.4111A1.358,1.358,0,0,1,351.4749,59.6754Z"/><path class="cls-4" d="M356.2972,67.0387a.8946.8946,0,0,1,.2783-.664.9055.9055,0,0,1,.66-.2744,2.8342,2.8342,0,0,0,1.5937-.3409,1.4791,1.4791,0,0,0,.4815-1.2861q0-.3325-.05-.8506t-.1494-1.042a.9131.9131,0,0,1,.1865-.6933.93.93,0,0,1,.6181-.3692.8805.8805,0,0,1,.6973.1787.9628.9628,0,0,1,.374.6182q.1158.6138.1739,1.1787a9.7266,9.7266,0,0,1,.0586.9883,3.28,3.28,0,0,1-1.0166,2.5976,4.3614,4.3614,0,0,1-2.9678.8965.95.95,0,0,1-.9385-.9375Zm.5479,3.9258a.9766.9766,0,0,1,.2783-.6767.9294.9294,0,0,1,.7178-.3028.9911.9911,0,0,1,.5312.1328,1.0635,1.0635,0,0,1,.3408.3233,1.0317,1.0317,0,0,1,.166.5312,1.3374,1.3374,0,0,1-.2119.669.8673.8673,0,0,1-.8174.36.9508.9508,0,0,1-.6269-.1777,1.0274,1.0274,0,0,1-.3027-.4111A1.3562,1.3562,0,0,1,356.8451,70.9645Z"/><path class="cls-4" d="M362.0247,55.234a.4163.4163,0,0,1,.0215-.3476.4673.4673,0,0,1,.27-.25l1.0293-.3565a1.4218,1.4218,0,0,1-.5811-.5273,1.5345,1.5345,0,0,1-.2158-.834,1.7872,1.7872,0,0,1,.5146-1.3154,1.91,1.91,0,0,1,1.419-.52,3.49,3.49,0,0,1,.5644.0419.5043.5043,0,0,1,.3116.1788.42.42,0,0,1,.1035.3193.4731.4731,0,0,1-.17.3193.3914.3914,0,0,1-.3447.1035,1.8264,1.8264,0,0,0-.3486-.0332,1.1723,1.1723,0,0,0-.8418.2745.9115.9115,0,0,0-.2871.6884.7018.7018,0,0,0,.249.5821,1.0619,1.0619,0,0,0,.6807.1992,2.4655,2.4655,0,0,0,.5146-.0586,6.8909,6.8909,0,0,0,.7725-.2324.425.425,0,0,1,.3691.0371.4369.4369,0,0,1,.22.2949.479.479,0,0,1-.0449.3447.3879.3879,0,0,1-.2451.2031l-3.3623,1.1788a.4371.4371,0,0,1-.3564-.02A.4768.4768,0,0,1,362.0247,55.234Zm.7969,2.6231a.9417.9417,0,0,1,1.5069-.875.8972.8972,0,0,1,.3613.6269q.1494,1.0693.2324,1.8965t.1162,1.6182q.0322.7925.0332,1.78,0,1.1542-.042,2.35t-.1328,2.2246a.9162.9162,0,0,1-.332.6387.8976.8976,0,0,1-.6885.2246.9235.9235,0,0,1-.64-.3321.8887.8887,0,0,1-.2237-.6806q.0909-1.03.1328-2.2119.0411-1.1837.0411-2.3038,0-.9213-.0332-1.64c-.0215-.4785-.06-.9736-.1114-1.4854S362.9163,58.5661,362.8216,57.8571Z"/></g></svg>