<svg xmlns="http://www.w3.org/2000/svg" viewBox="0 0 500.6876 91.9149"><defs><style>.cls-1{fill:#ffb900;}.cls-2{fill:#fff;}.cls-3{fill:#00193e;}</style></defs><g id="_5" data-name="5"><g id="_4-2" data-name="4"><rect class="cls-1" x="56.2304" y="19.6356" width="393.3866" height="60.101" rx="30.0505"/><circle class="cls-2" cx="432.9496" cy="48.6799" r="2.6133"/><circle class="cls-2" cx="72.6825" cy="48.6799" r="2.6133"/><line class="cls-2" x1="-23.0275" y1="48.6799" x2="70.7264" y2="48.6799"/></g><path class="cls-3" d="M87.929,40.9558a.9123.9123,0,0,1,.6934.1865.9281.9281,0,0,1,.3691.627q.15,1.1206.2325,2.1045t.1162,1.9883q.0336,1.0033.0332,2.2158v.5068c0,.1768-.003.3535-.0078.5313a.8937.8937,0,0,1-.2823.6513.9627.9627,0,0,1-1.3369-.0166.8771.8771,0,0,1-.2734-.6679c.0049-.1661.01-.335.0127-.5069s.0039-.3369.0039-.498q0-1.1954-.0332-2.166t-.1123-1.9014q-.0792-.9287-.2285-1.9922a.9016.9016,0,0,1,.1914-.6934A.943.943,0,0,1,87.929,40.9558Zm1.752,11.53a1.3041,1.3041,0,0,1-.1367.5429,1.3911,1.3911,0,0,1-.4112.5108,1.0633,1.0633,0,0,1-.6806.2158,1.5957,1.5957,0,0,1-.5567-.12,1.3724,1.3724,0,0,1-.5517-.3945,1.1076,1.1076,0,0,1-.2363-.7471,1.3169,1.3169,0,0,1,1.3115-1.3115,1.108,1.108,0,0,1,.93.4316A1.4276,1.4276,0,0,1,89.681,52.4861Z"/><path class="cls-3" d="M94.1634,45.7205a3.7271,3.7271,0,0,1,1.2617.2617q.7134.2607,1.5186.6474t1.6523.7676a12.9089,12.9089,0,0,0,1.668.6231.9627.9627,0,0,1,.83.9628.8312.8312,0,0,1-.29.626,1.58,1.58,0,0,1-.78.37,16.2849,16.2849,0,0,0-3.6153,1.0079,6.9234,6.9234,0,0,0-2.3662,1.54,2.79,2.79,0,0,0-.834,1.9424,2.0435,2.0435,0,0,0,.4483,1.332,2.7962,2.7962,0,0,0,1.2285.8428,5.0819,5.0819,0,0,0,1.7852.291,8.6615,8.6615,0,0,0,1.5556-.1494,9.37,9.37,0,0,0,1.5987-.44,1.0036,1.0036,0,0,1,.7343-.004.8123.8123,0,0,1,.4776.4776.9117.9117,0,0,1,.0039.7178.9622.9622,0,0,1-.502.5273,8.3727,8.3727,0,0,1-1.789.543,10.2093,10.2093,0,0,1-1.93.1875,7.1553,7.1553,0,0,1-2.8184-.5235,4.4613,4.4613,0,0,1-1.9346-1.498,3.8742,3.8742,0,0,1-.7011-2.32,4.205,4.205,0,0,1,1.581-3.2744,12.8882,12.8882,0,0,1,4.6113-2.32q-.53-.249-1.1621-.5273c-.42-.1846-.8095-.3428-1.166-.4727a2.6394,2.6394,0,0,0-.8008-.1953.6445.6445,0,0,0-.5478.2862,2.5774,2.5774,0,0,0-.3486.7187.9617.9617,0,0,1-.4483.5762.9.9,0,0,1-.706.1123.9571.9571,0,0,1-.5772-.4443.8862.8862,0,0,1-.1113-.7178,4.2687,4.2687,0,0,1,.9375-1.7764A2.0128,2.0128,0,0,1,94.1634,45.7205Z"/><path class="cls-3" d="M102.7542,50.0124q0-1.5937.0332-3.1376t-.0244-3.3458a.946.946,0,0,1,.2569-.6806.8757.8757,0,0,1,.6474-.2988.9159.9159,0,0,1,.6807.249.8769.8769,0,0,1,.2988.6562q.0587,1.7754.0254,3.3408t-.0332,3.1915a2.2621,2.2621,0,0,0,.3652,1.4775,1.9024,1.9024,0,0,0,1.4444.415h.0078a.938.938,0,0,1,0,1.876h-.0078a3.9824,3.9824,0,0,1-2.7647-.8467A3.7847,3.7847,0,0,1,102.7542,50.0124Z"/><path class="cls-3" d="M109.6107,46.2517a4.09,4.09,0,0,1,1.5771.3525q.8394.3531,1.7432.8184.59.3061,1.3281.6426.74.3369,1.66.7265a.9134.9134,0,0,1,.4072.3526.9374.9374,0,0,1,.1572.5107.883.883,0,0,1-.4394.7969q-.3824.249-.7471.4814a1.2257,1.2257,0,0,0,.6846.7139,3.5351,3.5351,0,0,0,1.4316.2324h.0088a.938.938,0,0,1,0,1.876h-.0088a5.41,5.41,0,0,1-2.2617-.4609,2.9936,2.9936,0,0,1-1.498-1.4317,18.305,18.305,0,0,1-3.5079,1.3946,13.6253,13.6253,0,0,1-3.6894.498.9112.9112,0,0,1-.668-.2783.9209.9209,0,0,1,0-1.3193.911.911,0,0,1,.668-.2784,11.9392,11.9392,0,0,0,3.5361-.5351,16.0675,16.0675,0,0,0,3.4785-1.5733c-.3271-.1543-.6367-.3017-.93-.4394s-.5732-.2793-.8388-.4238q-.6387-.34-1.1084-.5391a2.13,2.13,0,0,0-.8086-.1992.7782.7782,0,0,0-.627.2939,4.7191,4.7191,0,0,0-.5605.9844.8776.8776,0,0,1-.5352.4766.8593.8593,0,0,1-.8261-.087.9373.9373,0,0,1-.3731-.5058.9077.9077,0,0,1,.041-.69,6.6264,6.6264,0,0,1,1.1123-1.73A2.0781,2.0781,0,0,1,109.6107,46.2517Zm.7305,9.6211a.977.977,0,0,1,.2783-.6768.93.93,0,0,1,.7177-.3027.9912.9912,0,0,1,.5313.1328,1.0529,1.0529,0,0,1,.3408.3233,1.029,1.029,0,0,1,.166.5312,1.3416,1.3416,0,0,1-.2119.668.8668.8668,0,0,1-.8174.3613.949.949,0,0,1-.6269-.1787,1.016,1.016,0,0,1-.3028-.41A1.3664,1.3664,0,0,1,110.3412,55.8728Z"/><path class="cls-3" d="M116.4759,52.8181a.8894.8894,0,0,1,.2822-.6641.9213.9213,0,0,1,.6641-.2744,4.0488,4.0488,0,0,0,1.6729-.2617,1.336,1.336,0,0,0,.7216-.8838A6.9271,6.9271,0,0,0,120.02,49.05a.8953.8953,0,0,1,.32-.6807.9568.9568,0,0,1,.6924-.2158.9023.9023,0,0,1,.6474.3193.8769.8769,0,0,1,.2246.6768,5.398,5.398,0,0,0,.1367,1.6015,1.3435,1.3435,0,0,0,.668.8633,3.1078,3.1078,0,0,0,1.4365.2656h.0079a.938.938,0,0,1,0,1.876h-.0079a4.4209,4.4209,0,0,1-1.9961-.3945,2.59,2.59,0,0,1-1.2-1.34,2.9926,2.9926,0,0,1-1.3819,1.3565,5.2667,5.2667,0,0,1-2.1455.3779.9136.9136,0,0,1-.6641-.2783A.8925.8925,0,0,1,116.4759,52.8181Zm1.917-7.3633a.9771.9771,0,0,1,.2783-.6767.933.933,0,0,1,.7178-.3028,1.0005,1.0005,0,0,1,.5313.1328,1.0556,1.0556,0,0,1,.3408.3243,1.0272,1.0272,0,0,1,.166.5312,1.3371,1.3371,0,0,1-.2119.668.8679.8679,0,0,1-.8174.3613.9509.9509,0,0,1-.627-.1787,1.0276,1.0276,0,0,1-.3027-.4111A1.3587,1.3587,0,0,1,118.3929,45.4548Z"/><path class="cls-3" d="M123.2162,52.8181a.8991.8991,0,0,1,.2773-.6641.9107.9107,0,0,1,.66-.2744,1.2085,1.2085,0,0,0,1.1992-.7343,5.4743,5.4743,0,0,0,.3369-2.1875q0-.7794-.042-1.5606-.0411-.7793-.1367-1.7637t-.2617-2.37a.9538.9538,0,0,1,.1953-.6972.8909.8909,0,0,1,.6181-.3653.9248.9248,0,0,1,.6973.1865.8958.8958,0,0,1,.3652.627q.1494,1.17.2412,2.1006.0909.9286.1329,1.7676t.041,1.7431a7.6608,7.6608,0,0,1-.76,3.9014,2.8383,2.8383,0,0,1-2.6269,1.2285.9487.9487,0,0,1-.9375-.9375Z"/><path class="cls-3" d="M129.1927,43.6374a.9152.9152,0,0,1,.19-.6972.9375.9375,0,0,1,1.6768.4482q.1494,1.0709.2324,1.8965t.1162,1.6182c.0225.5293.0332,1.122.0332,1.7812q0,1.1529-.041,2.3487t-.1328,2.2246a.9241.9241,0,0,1-.332.64.9009.9009,0,0,1-.69.2236.9175.9175,0,0,1-.6386-.332.89.89,0,0,1-.2247-.6807q.0924-1.0282.1329-2.2119.0425-1.1835.0419-2.3037,0-.9213-.0332-1.64t-.1123-1.4854Q129.3334,44.7,129.1927,43.6374Z"/><path class="cls-3" d="M136.2152,47.14a2.5777,2.5777,0,0,1,1.7558.6513,4.2979,4.2979,0,0,1,1.1534,1.6973,6.0889,6.0889,0,0,1,.4111,2.25,5.9673,5.9673,0,0,1-.44,2.3027,6.3148,6.3148,0,0,1-1.2159,1.9053,7.1574,7.1574,0,0,1-1.78,1.3985,7.6161,7.6161,0,0,1-2.1416.8017.905.905,0,0,1-.71-.1494.8923.8923,0,0,1-.3945-.5977.85.85,0,0,1,.1543-.6972,1.1061,1.1061,0,0,1,.5927-.4151,6.9065,6.9065,0,0,0,2.2627-1.0293,4.5108,4.5108,0,0,0,1.4063-1.5859,6.1694,6.1694,0,0,1-.93.0752,3.5613,3.5613,0,0,1-2.3613-.71,2.66,2.66,0,0,1-.8428-2.1543,4.221,4.221,0,0,1,.4072-1.8466,3.6419,3.6419,0,0,1,1.1035-1.3741A2.5507,2.5507,0,0,1,136.2152,47.14Zm-1.32,3.6689a1.0648,1.0648,0,0,0,.374.9248,1.7711,1.7711,0,0,0,1.0537.2705,4.3089,4.3089,0,0,0,.6562-.05c.2159-.0332.42-.0752.6143-.125a.532.532,0,0,1,.124-.0166v-.0078a4.9015,4.9015,0,0,0-.1777-1.2744,3.2244,3.2244,0,0,0-.5195-1.1123,1.0226,1.0226,0,0,0-.8467-.4522.93.93,0,0,0-.6553.2735,1.8971,1.8971,0,0,0-.457.6933A2.362,2.362,0,0,0,134.8949,50.8093Z"/><path class="cls-3" d="M146.3167,49.3894a.7706.7706,0,0,1,.1-.7051.9736.9736,0,0,1,.6065-.4316.8334.8334,0,0,1,.2568-.0254.8974.8974,0,0,1,.544.208.9658.9658,0,0,1,.3115.4482.2783.2783,0,0,1,.0244.0743,6.9545,6.9545,0,0,0,.8965,2.2119,1.7608,1.7608,0,0,0,1.5361.71H150.6a.938.938,0,0,1,0,1.876h-.0078a3.2956,3.2956,0,0,1-1.1289-.1865,3.5056,3.5056,0,0,1-.9385-.5108,5.9048,5.9048,0,0,1-1.3691,3.25,6.2832,6.2832,0,0,1-2.7812,1.83.8692.8692,0,0,1-.7637-.0664.9447.9447,0,0,1-.44-.539.8742.8742,0,0,1,.0742-.76,1.0214,1.0214,0,0,1,.5147-.4277,4.3506,4.3506,0,0,0,2.1631-1.5147,4.5757,4.5757,0,0,0,.7842-2.8018,10.1133,10.1133,0,0,0-.3409-2.4736C146.35,49.5007,146.3333,49.4451,146.3167,49.3894Z"/><path class="cls-3" d="M149.6537,52.8181a.8927.8927,0,0,1,.2822-.6641.9244.9244,0,0,1,.664-.2744h.83a.9157.9157,0,0,1,.668.2744.9257.9257,0,0,1,0,1.3233.908.908,0,0,1-.668.2783h-.83a.9166.9166,0,0,1-.664-.2783A.8958.8958,0,0,1,149.6537,52.8181Z"/><path class="cls-3" d="M149.7288,57.2175a.77.77,0,0,1,.5147-.9463,6.337,6.337,0,0,1,1.0742-.2158,9.9423,9.9423,0,0,1,1.208-.0752,6.9143,6.9143,0,0,1,1.0664.0752,3.804,3.804,0,0,1,.81.207.7708.7708,0,0,1,.3945.4981.7243.7243,0,0,1-.1035.6143.781.781,0,0,1-.3818.3027.8086.8086,0,0,1-.4649.0215,4.05,4.05,0,0,0-.6025-.1084,6.3289,6.3289,0,0,0-.7178-.041q-.564,0-1.05.0449a3.9835,3.9835,0,0,0-.8008.1455.733.733,0,0,1-.5771-.0742A.7663.7663,0,0,1,149.7288,57.2175Zm.7637-4.3994a.8991.8991,0,0,1,.2774-.6641.9106.9106,0,0,1,.66-.2744,2.84,2.84,0,0,0,1.5938-.34,1.48,1.48,0,0,0,.4814-1.2871c0-.2207-.0166-.5049-.05-.8506s-.083-.6934-.1494-1.042a.9146.9146,0,0,1,.1865-.6934.93.93,0,0,1,.6192-.3691.8858.8858,0,0,1,.6972.1787.9643.9643,0,0,1,.3731.6182q.1172.6152.1748,1.1787.0572.5653.0576.9883a3.28,3.28,0,0,1-1.0166,2.5976,4.3577,4.3577,0,0,1-2.9678.8965.9489.9489,0,0,1-.9375-.9375Z"/><path class="cls-3" d="M160.0716,53.7556a3.6084,3.6084,0,0,1-2.3828-.7139,2.6528,2.6528,0,0,1-.8545-2.1582,4.2345,4.2345,0,0,1,.4063-1.8466,3.6528,3.6528,0,0,1,1.1045-1.3741,2.5476,2.5476,0,0,1,1.5683-.5224,2.5744,2.5744,0,0,1,1.7559.6513,4.2977,4.2977,0,0,1,1.1533,1.6973,6.0889,6.0889,0,0,1,.4111,2.25V51.88h.7393a.938.938,0,0,1,0,1.876h-1.0791a6.0926,6.0926,0,0,1-1.1748,2.0381,7.0975,7.0975,0,0,1-1.83,1.5019,7.5544,7.5544,0,0,1-2.2334.8516.9059.9059,0,0,1-.71-.1494.8909.8909,0,0,1-.3935-.5977.85.85,0,0,1,.1533-.6972,1.1088,1.1088,0,0,1,.5938-.4151,6.9149,6.9149,0,0,0,2.2158-1.0009,4.6339,4.6339,0,0,0,1.4111-1.5313Zm-.0166-1.876h1.3613v-.0742a4.8617,4.8617,0,0,0-.1787-1.2744,3.2417,3.2417,0,0,0-.5185-1.1123,1.0252,1.0252,0,0,0-.8467-.4522,1.074,1.074,0,0,0-.918.5352,2.1272,2.1272,0,0,0-.36,1.2158,1.0014,1.0014,0,0,0,.39.9092A1.9543,1.9543,0,0,0,160.055,51.88Z"/><path class="cls-3" d="M163.0345,52.8093a.8861.8861,0,0,1,.2783-.66.9164.9164,0,0,1,.66-.27h.4892a.261.261,0,0,1,.0332-.0908,12.3058,12.3058,0,0,1,.69-1.3115.9955.9955,0,0,1,.0078-.125,9.2822,9.2822,0,0,0,.0752-.9629q.0162-.5391.0166-1.1865,0-.8892-.0371-1.8262-.0381-.939-.1-1.7686t-.1377-1.3945a.8169.8169,0,0,1,.1992-.6846.972.972,0,0,1,.5977-.3447.8714.8714,0,0,1,.7226.2031,1.04,1.04,0,0,1,.3565.6436q.0834.5655.1494,1.332.0673.7691.1084,1.59t.041,1.5527v.6387a5.3452,5.3452,0,0,1,1.3779-.8008,4.1387,4.1387,0,0,1,1.5274-.2861,3.0453,3.0453,0,0,1,2.1914.8134,2.88,2.88,0,0,1,.8555,2.1915,3.5273,3.5273,0,0,1-.1661,1.1035,1.5142,1.5142,0,0,0,.5811.5234,2.0423,2.0423,0,0,0,.9463.19h.0078a.938.938,0,0,1,0,1.876h-.0078a3.5644,3.5644,0,0,1-2.7315-1.07,5.929,5.929,0,0,1-2.3779.8379,20.0586,20.0586,0,0,1-3.0176.2158H163.973a.9084.9084,0,0,1-.66-.2734A.8885.8885,0,0,1,163.0345,52.8093Zm6.84-3.8681a2.4035,2.4035,0,0,0-1.3067.3906,4.7457,4.7457,0,0,0-1.1543,1.0537,8.9973,8.9973,0,0,0-.9668,1.4941h.05a22.08,22.08,0,0,0,3.0342-.17,1.9985,1.9985,0,0,0,1.5557-.8174.5471.5471,0,0,1,.0664-.125,1.4852,1.4852,0,0,0,.1-.5556,1.1928,1.1928,0,0,0-.3731-.93A1.4316,1.4316,0,0,0,169.8744,48.9412Z"/><path class="cls-3" d="M173.56,52.8181a.8927.8927,0,0,1,.2822-.6641.9246.9246,0,0,1,.6641-.2744,4.0423,4.0423,0,0,0,1.6728-.2617,1.3334,1.3334,0,0,0,.7217-.8838,6.9207,6.9207,0,0,0,.2041-1.6845.8979.8979,0,0,1,.3194-.6807.959.959,0,0,1,.6933-.2158.906.906,0,0,1,.6475.3193.8761.8761,0,0,1,.2236.6768,5.4284,5.4284,0,0,0,.1367,1.6015,1.3477,1.3477,0,0,0,.669.8633,3.1057,3.1057,0,0,0,1.4355.2656h.0088a.938.938,0,0,1,0,1.876H181.23a4.4238,4.4238,0,0,1-1.9961-.3945,2.5845,2.5845,0,0,1-1.1992-1.34,2.9939,2.9939,0,0,1-1.3828,1.3565,5.2637,5.2637,0,0,1-2.1455.3779.9168.9168,0,0,1-.6641-.2783A.8958.8958,0,0,1,173.56,52.8181Zm.8633-7.23a.7729.7729,0,0,1,.5146-.9462,6.4391,6.4391,0,0,1,1.0752-.2159,9.9283,9.9283,0,0,1,1.208-.0742,6.9394,6.9394,0,0,1,1.0664.0742,3.7569,3.7569,0,0,1,.81.208.7651.7651,0,0,1,.3936.4981.7187.7187,0,0,1-.1035.6142.7821.7821,0,0,1-.3819.3028.8.8,0,0,1-.4648.02,4.052,4.052,0,0,0-.6016-.1074,6.1328,6.1328,0,0,0-.7178-.042c-.3769,0-.7265.0156-1.0507.0459a3.9378,3.9378,0,0,0-.8008.1455.7332.7332,0,0,1-.5772-.0752A.7674.7674,0,0,1,174.4232,45.5876Z"/><path class="cls-3" d="M180.3,52.8181a.8963.8963,0,0,1,.2784-.6641.909.909,0,0,1,.66-.2744,1.2092,1.2092,0,0,0,1.1992-.7343,5.4767,5.4767,0,0,0,.336-2.1875q0-.7794-.041-1.5606-.0426-.7793-.1368-1.7637-.0966-.9843-.2617-2.37a.95.95,0,0,1,.1953-.6972.8892.8892,0,0,1,.6182-.3653.927.927,0,0,1,.6973.1865.8993.8993,0,0,1,.3652.627q.1494,1.17.24,2.1006.0924.9286.1328,1.7676.0426.8393.042,1.7431a7.661,7.661,0,0,1-.76,3.9014,2.8385,2.8385,0,0,1-2.627,1.2285.9506.9506,0,0,1-.9385-.9375Z"/><path class="cls-3" d="M186.2767,43.6374a.9118.9118,0,0,1,.1914-.6972.9375.9375,0,0,1,1.6768.4482q.1494,1.0709.2324,1.8965t.1162,1.6182c.0215.5293.0332,1.122.0332,1.7812q0,1.1529-.042,2.3487t-.1328,2.2246a.92.92,0,0,1-.332.64.9.9,0,0,1-.6885.2236.92.92,0,0,1-.64-.332.8885.8885,0,0,1-.2236-.6807q.0909-1.0282.1328-2.2119t.041-2.3037q0-.9213-.0332-1.64c-.0215-.4785-.0595-.9737-.1113-1.4854S186.3714,44.3455,186.2767,43.6374Z"/><path class="cls-3" d="M192.8265,50.1033a2.9255,2.9255,0,0,1,.7549-1.9883,6.2531,6.2531,0,0,1,1.9756-1.4561,10.3119,10.3119,0,0,0,.9258-.5146,1.48,1.48,0,0,0,.5683-.5479v-.042a.9149.9149,0,0,1,.22-.6845.9.9,0,0,1,.6358-.336.88.88,0,0,1,.6885.211.9132.9132,0,0,1,.332.6435l.0166.1582a.5681.5681,0,0,1,.0088.1l.39,4.3409a3.8333,3.8333,0,0,0,.2657,1.2324.97.97,0,0,0,.5478.5312,2.7589,2.7589,0,0,0,.9219.1289h.0078a.938.938,0,0,1,0,1.876h-.0078a4.3175,4.3175,0,0,1-1.8594-.3447,2.59,2.59,0,0,1-1.1289-1.0166.9566.9566,0,0,1-.5566.291c-.1543.0215-.32.0371-.4981.0449s-.3291.0127-.456.0127a4.6085,4.6085,0,0,1-2.7979-.7178A2.2843,2.2843,0,0,1,192.8265,50.1033Zm1.0371-8.1592a.7717.7717,0,0,1,.5147-.9463,6.3459,6.3459,0,0,1,1.0752-.2158,9.9286,9.9286,0,0,1,1.208-.0752,6.9339,6.9339,0,0,1,1.0664.0752,3.8129,3.8129,0,0,1,.8095.207.7693.7693,0,0,1,.3936.4981.7177.7177,0,0,1-.1035.6142.7759.7759,0,0,1-.3819.3027.8071.8071,0,0,1-.4648.0215,4.0619,4.0619,0,0,0-.6016-.1084,6.377,6.377,0,0,0-.7177-.041c-.377,0-.7266.0147-1.0508.0449a4.0153,4.0153,0,0,0-.8008.1455.7326.7326,0,0,1-.5771-.0742A.773.773,0,0,1,193.8636,41.9441Zm.8633,8.0517q0,.8717,1.8516.8711c.0878,0,.1943-.0048.3193-.0166s.248-.0244.3691-.041a.9441.9441,0,0,1,.2823.0078q-.05-.3062-.083-.664l-.2071-2.2744q-.391.2416-.8965.498a6.4511,6.4511,0,0,0-1.1621.751A1.131,1.131,0,0,0,194.7269,49.9958Z"/><path class="cls-3" d="M200.1478,52.8181a.8994.8994,0,0,1,.2773-.6641.911.911,0,0,1,.66-.2744,2.2343,2.2343,0,0,0,1.47-.3564,1.8849,1.8849,0,0,0,.39-1.3945q0-1.27-.0459-2.3956-.0454-1.1235-.1241-2.22t-.1953-2.2832a.9324.9324,0,0,1,.2159-.6933.8927.8927,0,0,1,.6308-.336.9027.9027,0,0,1,.6934.208.8912.8912,0,0,1,.3359.6387q.1669,1.7681.2656,3.4072.1,1.6407.1,3.5489a.83.83,0,0,1,.0088.125,1.7371,1.7371,0,0,0,.4434,1.373,2.136,2.136,0,0,0,1.3994.3779h.0078a.938.938,0,0,1,0,1.876h-.0078a4.4384,4.4384,0,0,1-1.5273-.2617,3.2717,3.2717,0,0,1-1.2373-.7842,3.7278,3.7278,0,0,1-2.8223,1.0459.9487.9487,0,0,1-.9375-.9375Z"/><path class="cls-3" d="M209.8343,46.2517a4.09,4.09,0,0,1,1.5772.3525q.8393.3531,1.7431.8184.59.3061,1.3282.6426.74.3369,1.66.7265a.9129.9129,0,0,1,.4072.3526.9375.9375,0,0,1,.1573.5107.8829.8829,0,0,1-.44.7969,23.7691,23.7691,0,0,1-4.665,2.416,13.8116,13.8116,0,0,1-4.9229.8877.911.911,0,0,1-.6679-.2783.9207.9207,0,0,1,0-1.3193.9107.9107,0,0,1,.6679-.2784,11.94,11.94,0,0,0,3.5362-.5351,16.0675,16.0675,0,0,0,3.4785-1.5733c-.3272-.1543-.6368-.3017-.93-.4394s-.5733-.2793-.8389-.4238q-.6387-.34-1.1084-.5391a2.13,2.13,0,0,0-.8086-.1992.778.778,0,0,0-.6269.2939,4.7231,4.7231,0,0,0-.5606.9844.8771.8771,0,0,1-.5351.4766.86.86,0,0,1-.8262-.087.9373.9373,0,0,1-.3731-.5058.9078.9078,0,0,1,.0411-.69,6.6212,6.6212,0,0,1,1.1123-1.73A2.0778,2.0778,0,0,1,209.8343,46.2517Z"/><path class="cls-3" d="M219.9779,48.2937a.8565.8565,0,0,1,.8056.0664.9628.9628,0,0,1,.4317.5811,12.1544,12.1544,0,0,1,.4316,3.0878,7.05,7.05,0,0,1-.5312,2.8311,5.6352,5.6352,0,0,1-1.4815,2.042,6.4224,6.4224,0,0,1-2.1963,1.2363.869.869,0,0,1-.7636-.0664.9447.9447,0,0,1-.44-.539.8736.8736,0,0,1,.0742-.76,1.0214,1.0214,0,0,1,.5147-.4277,4.3506,4.3506,0,0,0,2.1631-1.5147,4.5757,4.5757,0,0,0,.7841-2.8018,10.4318,10.4318,0,0,0-.374-2.623.8316.8316,0,0,1,.0957-.71A1.0539,1.0539,0,0,1,219.9779,48.2937Z"/><path class="cls-3" d="M230.8441,57.657a6.2037,6.2037,0,0,1-2.7891-.5889,4.4768,4.4768,0,0,1-1.8428-1.6269,4.38,4.38,0,0,1-.6562-2.3907,8.9519,8.9519,0,0,1,.1748-1.7265,13.7009,13.7009,0,0,1,.4561-1.7266.94.94,0,0,1,.498-.5312.868.868,0,0,1,.7139-.0254.9243.9243,0,0,1,.5273.49.8783.8783,0,0,1,.0293.7217,10.9088,10.9088,0,0,0-.3652,1.3447,6.3932,6.3932,0,0,0-.1416,1.2871,2.6956,2.6956,0,0,0,.8672,2.1289,3.6916,3.6916,0,0,0,2.5195.7676,3.8652,3.8652,0,0,0,2.5654-.7637,2.6185,2.6185,0,0,0,.9043-2.1162,5.989,5.989,0,0,0-.1855-1.4365,13.0045,13.0045,0,0,0-.502-1.5518.88.88,0,0,1-.0058-.7226.9366.9366,0,0,1,.5039-.5059.9548.9548,0,0,1,1.2441.5059c.1543.3935.291.7754.4063,1.1455a2.7063,2.7063,0,0,0,.6972,1.1875,1.6165,1.6165,0,0,0,1.0879.3564h.0078a.938.938,0,0,1,0,1.876h-.0078a3.248,3.248,0,0,1-1.3613-.2988,4.19,4.19,0,0,1-.793,2.1914,4.6165,4.6165,0,0,1-1.8594,1.4775A6.4318,6.4318,0,0,1,230.8441,57.657Zm-1.0547-7.4541a.9775.9775,0,0,1,.2783-.6768.9329.9329,0,0,1,.7178-.3027.999.999,0,0,1,.5312.1328,1.0557,1.0557,0,0,1,.3409.3242,1.0275,1.0275,0,0,1,.166.5313,1.3469,1.3469,0,0,1-.2119.6679.8688.8688,0,0,1-.8174.3614.9491.9491,0,0,1-.627-.1787,1.0177,1.0177,0,0,1-.3027-.4112A1.3581,1.3581,0,0,1,229.7894,50.2029Z"/><path class="cls-3" d="M236.6214,52.8181a.8954.8954,0,0,1,.2774-.6641.909.909,0,0,1,.66-.2744,1.5272,1.5272,0,0,0,1.2744-.6767,11.23,11.23,0,0,0,1.0088-1.6973q.2652-.5391.5684-1.0332a7.284,7.284,0,0,1,.6094-.8594l.0254-.0244a.8424.8424,0,0,1,.6347-.3115.9423.9423,0,0,1,.6856.2285.84.84,0,0,1,.1738.1992.6653.6653,0,0,1,.1-.125.897.897,0,0,1,.66-.29.9193.9193,0,0,1,.6757.2568,5.2136,5.2136,0,0,1,1.8848,3.7686,2.4545,2.4545,0,0,1-.8506,1.9551,3.5149,3.5149,0,0,1-2.37.7343,3.83,3.83,0,0,1-1.6855-.3359,2.3766,2.3766,0,0,1-1.0372-.9258,3.9432,3.9432,0,0,1-1.0292.7266,2.9741,2.9741,0,0,1-1.3282.2861.9489.9489,0,0,1-.9375-.9375Zm4.6641-1.7353a.9513.9513,0,0,0,.3369.7558,1.4362,1.4362,0,0,0,.9668.29,1.5448,1.5448,0,0,0,1.0459-.295.9762.9762,0,0,0,.332-.7675,3.3527,3.3527,0,0,0-1.2949-2.1582.1115.1115,0,1,0-.1992-.0831q-.2241.2579-.4776.6143a7.2168,7.2168,0,0,0-.4355.69A2.1616,2.1616,0,0,0,241.2855,51.0828Z"/><path class="cls-3" d="M250.2347,43.6374a.9158.9158,0,0,1,.1914-.6972.9375.9375,0,0,1,1.6768.4482q.1494,1.0709.2324,1.8965t.1162,1.6182c.0225.5293.0332,1.122.0332,1.7812q0,1.1529-.041,2.3487t-.1328,2.2246a.9239.9239,0,0,1-.3321.64.9019.9019,0,0,1-.6894.2236.9158.9158,0,0,1-.6387-.332.8858.8858,0,0,1-.2246-.6807q.0909-1.0282.1328-2.2119t.041-2.3037q0-.9213-.0332-1.64t-.1113-1.4854Q250.3764,44.7,250.2347,43.6374Z"/><path class="cls-3" d="M255.1078,42.4831a.426.426,0,0,1,.0244-.3564.4993.4993,0,0,1,.2656-.2412L258.76,40.69a.41.41,0,0,1,.3525.0293.5026.5026,0,0,1,.2452.27.41.41,0,0,1-.0245.3486.4994.4994,0,0,1-.2656.2413l-3.3711,1.1953a.4048.4048,0,0,1-.3476-.0254A.4851.4851,0,0,1,255.1078,42.4831Zm0,2.1417a.4262.4262,0,0,1,.0244-.3565.4993.4993,0,0,1,.2656-.2412l3.3623-1.1953a.41.41,0,0,1,.3525.0293.5026.5026,0,0,1,.2452.27.41.41,0,0,1-.0245.3486.4994.4994,0,0,1-.2656.2413l-3.3711,1.1953a.4048.4048,0,0,1-.3476-.0254A.4853.4853,0,0,1,255.1078,44.6248Z"/><path class="cls-3" d="M254.1605,53.5486a.6689.6689,0,0,1-.07-.52.6929.6929,0,0,1,.3027-.4267q.6064-.3663,1.2207-.6729a2.2762,2.2762,0,0,1-1.3281-2.2246,2.95,2.95,0,0,1,1.5195-2.6435,3.0157,3.0157,0,0,1,1.502-.3858,3.411,3.411,0,0,1,1.6523.44.7717.7717,0,0,1,.377.3906.6066.6066,0,0,1,.0039.5059.7115.7115,0,0,1-.39.3906.5475.5475,0,0,1-.5068-.0166,2.3779,2.3779,0,0,0-.6016-.2617,2.2139,2.2139,0,0,0-.5761-.0791,1.6346,1.6346,0,0,0-1.1465.4355,1.5136,1.5136,0,0,0-.4727,1.167,1.19,1.19,0,0,0,.3945.9375,1.8852,1.8852,0,0,0,1.2657.3486,6.5453,6.5453,0,0,0,.8379-.0625q.4819-.0615.9882-.1533c.0557-.0107.1075-.0215.1582-.0332a.1693.1693,0,0,0,.0489-.0078.6054.6054,0,0,1,.5644.19.6823.6823,0,0,1,.1914.3575v.0166c.0059.0048.0078.0166.0078.0332a.6646.6646,0,0,1-.0742.3984.6452.6452,0,0,1-.4726.3564,13.3451,13.3451,0,0,0-4.4492,1.752.6543.6543,0,0,1-.5157.07A.6951.6951,0,0,1,254.1605,53.5486Z"/><path class="cls-3" d="M264.33,49.3894a.7648.7648,0,0,1,.1-.7051.969.969,0,0,1,.6055-.4316.84.84,0,0,1,.2578-.0254.8969.8969,0,0,1,.543.208.9658.9658,0,0,1,.3115.4482.2783.2783,0,0,1,.0244.0743,6.9522,6.9522,0,0,0,.8965,2.2119,1.7608,1.7608,0,0,0,1.5361.71h.0088a.938.938,0,0,1,0,1.876h-.0088a3.2993,3.2993,0,0,1-1.1289-.1865,3.5331,3.5331,0,0,1-.9385-.5108,5.9048,5.9048,0,0,1-1.3691,3.25,6.2832,6.2832,0,0,1-2.7812,1.83.87.87,0,0,1-.7637-.0664.9447.9447,0,0,1-.44-.539.8739.8739,0,0,1,.0742-.76,1.0194,1.0194,0,0,1,.5157-.4277,4.3522,4.3522,0,0,0,2.1621-1.5147,4.5757,4.5757,0,0,0,.7842-2.8018,10.1133,10.1133,0,0,0-.3409-2.4736C264.3636,49.5007,264.346,49.4451,264.33,49.3894Zm-.2832-4.5234a.9773.9773,0,0,1,.2783-.6768.93.93,0,0,1,.7178-.3027.9906.9906,0,0,1,.5313.1328,1.0537,1.0537,0,0,1,.3408.3232,1.03,1.03,0,0,1,.166.5313,1.3309,1.3309,0,0,1-.2119.6679.8648.8648,0,0,1-.8174.3614.9528.9528,0,0,1-.627-.1787,1.024,1.024,0,0,1-.3027-.41A1.3665,1.3665,0,0,1,264.0472,44.866Z"/><path class="cls-3" d="M271.7669,46.2517a4.0935,4.0935,0,0,1,1.5772.3525q.8379.3531,1.7431.8184.5889.3061,1.3282.6426t1.66.7265a.9061.9061,0,0,1,.4063.3526.9313.9313,0,0,1,.1582.5107.8829.8829,0,0,1-.44.7969,23.7762,23.7762,0,0,1-4.666,2.416,13.8018,13.8018,0,0,1-4.9219.8877.911.911,0,0,1-.6679-.2783.9207.9207,0,0,1,0-1.3193.9107.9107,0,0,1,.6679-.2784,11.94,11.94,0,0,0,3.5362-.5351,16.0822,16.0822,0,0,0,3.4775-1.5733c-.3262-.1543-.6357-.3017-.93-.4394s-.5722-.2793-.8379-.4238q-.6387-.34-1.1084-.5391a2.1306,2.1306,0,0,0-.8095-.1992.7776.7776,0,0,0-.626.2939,4.678,4.678,0,0,0-.5606.9844.8771.8771,0,0,1-.5351.4766.86.86,0,0,1-.8262-.087.9381.9381,0,0,1-.374-.5058.9075.9075,0,0,1,.042-.69,6.6212,6.6212,0,0,1,1.1123-1.73A2.075,2.075,0,0,1,271.7669,46.2517Zm-.2988,9.6211a.9775.9775,0,0,1,.2783-.6768.93.93,0,0,1,.7178-.3027.993.993,0,0,1,.5312.1328,1.0487,1.0487,0,0,1,.34.3233,1.0207,1.0207,0,0,1,.166.5312,1.3394,1.3394,0,0,1-.2109.668.8676.8676,0,0,1-.8184.3613.9481.9481,0,0,1-.626-.1787,1.0267,1.0267,0,0,1-.3037-.41A1.3923,1.3923,0,0,1,271.4681,55.8728Z"/><path class="cls-3" d="M287.8363,57.657a6.21,6.21,0,0,1-2.7891-.5889,4.48,4.48,0,0,1-1.8418-1.6269,4.38,4.38,0,0,1-.6562-2.3907,9.0285,9.0285,0,0,1,.1738-1.7265,13.7031,13.7031,0,0,1,.457-1.7266.9345.9345,0,0,1,.4981-.5312.8676.8676,0,0,1,.7138-.0254.9244.9244,0,0,1,.5274.49.8747.8747,0,0,1,.0283.7217,11.2745,11.2745,0,0,0-.3652,1.3447,6.4617,6.4617,0,0,0-.1407,1.2871,2.6959,2.6959,0,0,0,.8672,2.1289,3.6886,3.6886,0,0,0,2.52.7676,3.86,3.86,0,0,0,2.5644-.7637,2.6192,2.6192,0,0,0,.9053-2.1162,5.9419,5.9419,0,0,0-.1865-1.4365,12.8258,12.8258,0,0,0-.502-1.5518.8759.8759,0,0,1-.0049-.7226.9321.9321,0,0,1,.503-.5059.954.954,0,0,1,1.2441.5059q.233.59.4072,1.1455a2.6885,2.6885,0,0,0,.6973,1.1875,1.612,1.612,0,0,0,1.0869.3564h.0088a.938.938,0,0,1,0,1.876h-.0088a3.2514,3.2514,0,0,1-1.3613-.2988,4.1977,4.1977,0,0,1-.792,2.1914,4.6239,4.6239,0,0,1-1.8594,1.4775A6.4336,6.4336,0,0,1,287.8363,57.657Zm-1.0537-7.4541a.977.977,0,0,1,.2783-.6768.9328.9328,0,0,1,.7178-.3027,1.0017,1.0017,0,0,1,.5312.1328,1.076,1.076,0,0,1,.3408.3242,1.0266,1.0266,0,0,1,.166.5313,1.3469,1.3469,0,0,1-.2119.6679.8687.8687,0,0,1-.8174.3614.949.949,0,0,1-.6269-.1787,1.0177,1.0177,0,0,1-.3027-.4112A1.3328,1.3328,0,0,1,286.7826,50.2029Z"/><path class="cls-3" d="M293.6068,52.8181a.889.889,0,0,1,.2822-.6641.923.923,0,0,1,.6641-.2744,10.8819,10.8819,0,0,0,2.7929-.2861q1.0343-.2871,1.0332-1.083a2.4082,2.4082,0,0,0-.4189-1.2168,11.2054,11.2054,0,0,0-1.083-1.4522q-.6636-.7676-1.42-1.5312a4.1663,4.1663,0,0,1-.419-.49.9254.9254,0,0,1-.1367-.5313.9376.9376,0,0,1,.1865-.5683.9689.9689,0,0,1,.5108-.3526l5.81-1.9346a1.1629,1.1629,0,0,1,.8262.004.796.796,0,0,1,.4687.56.9863.9863,0,0,1-.05.7393.8752.8752,0,0,1-.5478.4316l-4.6905,1.4853a28.1516,28.1516,0,0,1,2.0713,2.586,3.907,3.907,0,0,1,.7842,2.2285,2.6414,2.6414,0,0,1-.6885,1.9014,4.0525,4.0525,0,0,1-1.9716,1.0537,12.3045,12.3045,0,0,1-3.0586.332.9152.9152,0,0,1-.6641-.2783A.8921.8921,0,0,1,293.6068,52.8181Z"/><path class="cls-3" d="M306.306,47.14a2.5763,2.5763,0,0,1,1.7559.6513,4.2988,4.2988,0,0,1,1.1533,1.6973,6.0889,6.0889,0,0,1,.4111,2.25,5.9673,5.9673,0,0,1-.44,2.3027A6.3164,6.3164,0,0,1,307.97,55.947a7.1416,7.1416,0,0,1-1.78,1.3985,7.6149,7.6149,0,0,1-2.1416.8017.905.905,0,0,1-.71-.1494.8923.8923,0,0,1-.3945-.5977.8535.8535,0,0,1,.1543-.6972,1.1085,1.1085,0,0,1,.5937-.4151,6.912,6.912,0,0,0,2.2618-1.0293,4.5017,4.5017,0,0,0,1.4062-1.5859,6.1683,6.1683,0,0,1-.93.0752,3.5632,3.5632,0,0,1-2.3613-.71,2.66,2.66,0,0,1-.8418-2.1543,4.2217,4.2217,0,0,1,.4062-1.8466,3.6507,3.6507,0,0,1,1.1036-1.3741A2.55,2.55,0,0,1,306.306,47.14Zm-1.3193,3.6689a1.0643,1.0643,0,0,0,.373.9248,1.7724,1.7724,0,0,0,1.0547.2705,4.3078,4.3078,0,0,0,.6553-.05q.3237-.05.6142-.125a.5339.5339,0,0,1,.125-.0166v-.0078a4.8617,4.8617,0,0,0-.1787-1.2744,3.2417,3.2417,0,0,0-.5185-1.1123,1.0256,1.0256,0,0,0-.8477-.4522.93.93,0,0,0-.6553.2735,1.8951,1.8951,0,0,0-.456.6933A2.3421,2.3421,0,0,0,304.9867,50.8093Z"/><path class="cls-3" d="M313.8929,50.0124q0-1.5937.0332-3.1376t-.0254-3.3458a.951.951,0,0,1,.2578-.6806.8728.8728,0,0,1,.6475-.2988.9173.9173,0,0,1,.6807.249.884.884,0,0,1,.2988.6562q.0586,1.7754.0254,3.3408t-.0332,3.1915a2.2621,2.2621,0,0,0,.3652,1.4775,1.9013,1.9013,0,0,0,1.4434.415h.0088a.938.938,0,0,1,0,1.876h-.0088a3.9813,3.9813,0,0,1-2.7637-.8467A3.7808,3.7808,0,0,1,313.8929,50.0124Z"/><path class="cls-3" d="M315.8949,57.2175a.77.77,0,0,1,.5136-.9463,6.37,6.37,0,0,1,1.0752-.2158,9.9435,9.9435,0,0,1,1.208-.0752,6.932,6.932,0,0,1,1.0664.0752,3.82,3.82,0,0,1,.81.207.7705.7705,0,0,1,.3945.4981.7212.7212,0,0,1-.1044.6143.779.779,0,0,1-.3809.3027.8088.8088,0,0,1-.4648.0215,4.0543,4.0543,0,0,0-.6026-.1084,6.3289,6.3289,0,0,0-.7178-.041c-.3759,0-.7265.0146-1.05.0449a4.0061,4.0061,0,0,0-.8017.1455.7309.7309,0,0,1-.5762-.0742A.7661.7661,0,0,1,315.8949,57.2175Zm.7548-4.3994a.8891.8891,0,0,1,.2823-.6641.9227.9227,0,0,1,.664-.2744,4.0425,4.0425,0,0,0,1.6729-.2617,1.3364,1.3364,0,0,0,.7217-.8838,6.8834,6.8834,0,0,0,.2031-1.6845.902.902,0,0,1,.32-.6807.9593.9593,0,0,1,.6934-.2158.902.902,0,0,1,.6464.3193.8736.8736,0,0,1,.2247.6768,5.3913,5.3913,0,0,0,.1367,1.6015,1.3434,1.3434,0,0,0,.6679.8633,3.111,3.111,0,0,0,1.4366.2656h.0088a.938.938,0,0,1,0,1.876H324.32a4.4235,4.4235,0,0,1-1.9961-.3945,2.5894,2.5894,0,0,1-1.2-1.34,2.9922,2.9922,0,0,1-1.3819,1.3565,5.2634,5.2634,0,0,1-2.1455.3779.915.915,0,0,1-.664-.2783A.8922.8922,0,0,1,316.65,52.8181Z"/><path class="cls-3" d="M323.39,52.8181a.8957.8957,0,0,1,.2773-.6641.9094.9094,0,0,1,.66-.2744,2.8439,2.8439,0,0,0,1.5937-.34,1.48,1.48,0,0,0,.4815-1.2871c0-.2207-.0166-.5049-.05-.8506s-.083-.6934-.1494-1.042a.9146.9146,0,0,1,.1865-.6934.93.93,0,0,1,.6191-.3691.886.886,0,0,1,.6973.1787.9637.9637,0,0,1,.373.6182q.1158.6152.1739,1.1787a9.7557,9.7557,0,0,1,.0586.9883,3.28,3.28,0,0,1-1.0166,2.5976,4.3579,4.3579,0,0,1-2.9678.8965.9487.9487,0,0,1-.9375-.9375Zm.5469,3.9258a.977.977,0,0,1,.2783-.6768.933.933,0,0,1,.7177-.3027.9994.9994,0,0,1,.5313.1328,1.0564,1.0564,0,0,1,.3408.3242,1.0266,1.0266,0,0,1,.166.5313,1.3368,1.3368,0,0,1-.2119.6679.8667.8667,0,0,1-.8174.3614.9527.9527,0,0,1-.6269-.1787,1.027,1.027,0,0,1-.3027-.4112A1.3551,1.3551,0,0,1,323.9369,56.7439Z"/><path class="cls-3" d="M332.9681,53.7556a3.6072,3.6072,0,0,1-2.3818-.7139,2.65,2.65,0,0,1-.8545-2.1582,4.22,4.22,0,0,1,.4062-1.8466,3.6514,3.6514,0,0,1,1.1035-1.3741,2.6575,2.6575,0,0,1,3.3252.1289A4.2979,4.2979,0,0,1,335.72,49.489a6.0889,6.0889,0,0,1,.4111,2.25V51.88h.7392a.938.938,0,0,1,0,1.876h-1.08a6.0717,6.0717,0,0,1-1.1739,2.0381,7.097,7.097,0,0,1-1.83,1.5019,7.5649,7.5649,0,0,1-2.2334.8516.905.905,0,0,1-.71-.1494.8923.8923,0,0,1-.3945-.5977.8531.8531,0,0,1,.1543-.6972,1.1085,1.1085,0,0,1,.5937-.4151,6.9129,6.9129,0,0,0,2.2158-1.0009,4.6332,4.6332,0,0,0,1.4112-1.5313Zm-.0156-1.876h1.3613v-.0742a4.8659,4.8659,0,0,0-.1787-1.2744,3.24,3.24,0,0,0-.5186-1.1123,1.0253,1.0253,0,0,0-.8476-.4522,1.0737,1.0737,0,0,0-.917.5352,2.1273,2.1273,0,0,0-.36,1.2158,1.0012,1.0012,0,0,0,.39.9092A1.952,1.952,0,0,0,332.9525,51.88Z"/><path class="cls-3" d="M335.9232,52.8181a.889.889,0,0,1,.2822-.6641.923.923,0,0,1,.6641-.2744,4.0423,4.0423,0,0,0,1.6728-.2617,1.3361,1.3361,0,0,0,.7217-.8838,6.8834,6.8834,0,0,0,.2031-1.6845.9023.9023,0,0,1,.32-.6807.9594.9594,0,0,1,.6934-.2158.902.902,0,0,1,.6465.3193.8732.8732,0,0,1,.2246.6768,5.3913,5.3913,0,0,0,.1367,1.6015,1.3435,1.3435,0,0,0,.668.8633,3.11,3.11,0,0,0,1.4365.2656h.0088a.938.938,0,0,1,0,1.876h-.0088a4.4238,4.4238,0,0,1-1.9961-.3945,2.59,2.59,0,0,1-1.2-1.34,2.9925,2.9925,0,0,1-1.3818,1.3565,5.2637,5.2637,0,0,1-2.1455.3779.9152.9152,0,0,1-.6641-.2783A.8921.8921,0,0,1,335.9232,52.8181Zm1.917-7.3633a.9766.9766,0,0,1,.2783-.6767.9329.9329,0,0,1,.7178-.3028,1,1,0,0,1,.5312.1328,1.0546,1.0546,0,0,1,.3408.3243,1.0264,1.0264,0,0,1,.1661.5312,1.3373,1.3373,0,0,1-.212.668.8666.8666,0,0,1-.8173.3613.9528.9528,0,0,1-.627-.1787,1.0267,1.0267,0,0,1-.3027-.4111A1.3587,1.3587,0,0,1,337.84,45.4548Z"/><path class="cls-3" d="M341.9007,57.2175a.77.77,0,0,1,.5137-.9463,6.3661,6.3661,0,0,1,1.0752-.2158,9.9423,9.9423,0,0,1,1.208-.0752,6.9329,6.9329,0,0,1,1.0664.0752,3.82,3.82,0,0,1,.81.207.7708.7708,0,0,1,.3945.4981.7216.7216,0,0,1-.1045.6143.7788.7788,0,0,1-.3808.3027.8091.8091,0,0,1-.4649.0215,4.05,4.05,0,0,0-.6025-.1084,6.33,6.33,0,0,0-.7178-.041c-.376,0-.7266.0146-1.05.0449a4.0086,4.0086,0,0,0-.8018.1455.7306.7306,0,0,1-.5761-.0742A.7663.7663,0,0,1,341.9007,57.2175Zm.7637-4.3994a.8957.8957,0,0,1,.2773-.6641.9094.9094,0,0,1,.66-.2744,2.8437,2.8437,0,0,0,1.5937-.34,1.48,1.48,0,0,0,.4815-1.2871c0-.2207-.0166-.5049-.05-.8506s-.083-.6934-.1494-1.042a.9146.9146,0,0,1,.1865-.6934.93.93,0,0,1,.6191-.3691.886.886,0,0,1,.6973.1787.9637.9637,0,0,1,.373.6182q.1158.6152.1739,1.1787a9.7557,9.7557,0,0,1,.0586.9883,3.28,3.28,0,0,1-1.0166,2.5976,4.3579,4.3579,0,0,1-2.9678.8965.9487.9487,0,0,1-.9375-.9375Z"/><path class="cls-3" d="M351.4134,49.3894a.7648.7648,0,0,1,.1-.7051.969.969,0,0,1,.6055-.4316.84.84,0,0,1,.2578-.0254.8969.8969,0,0,1,.543.208.9658.9658,0,0,1,.3115.4482.2783.2783,0,0,1,.0244.0743,6.9545,6.9545,0,0,0,.8965,2.2119,1.7608,1.7608,0,0,0,1.5361.71h.0088a.938.938,0,0,1,0,1.876h-.0088a3.3,3.3,0,0,1-1.1289-.1865,3.5362,3.5362,0,0,1-.9385-.5108,5.9048,5.9048,0,0,1-1.3691,3.25,6.2832,6.2832,0,0,1-2.7812,1.83.87.87,0,0,1-.7637-.0664.9447.9447,0,0,1-.4395-.539.8739.8739,0,0,1,.0743-.76,1.0188,1.0188,0,0,1,.5156-.4277,4.3522,4.3522,0,0,0,2.1621-1.5147,4.5757,4.5757,0,0,0,.7842-2.8018,10.1133,10.1133,0,0,0-.3409-2.4736C351.4466,49.5007,351.429,49.4451,351.4134,49.3894Z"/><path class="cls-3" d="M354.7581,52.8181a.8954.8954,0,0,1,.2774-.6641.9092.9092,0,0,1,.66-.2744,2.8441,2.8441,0,0,0,1.5938-.34,1.48,1.48,0,0,0,.4814-1.2871c0-.2207-.0166-.5049-.05-.8506s-.083-.6934-.1494-1.042a.9146.9146,0,0,1,.1865-.6934.93.93,0,0,1,.6192-.3691.886.886,0,0,1,.6973.1787.9637.9637,0,0,1,.373.6182q.1156.6152.1738,1.1787a9.7266,9.7266,0,0,1,.0586.9883,3.28,3.28,0,0,1-1.0166,2.5976,4.3577,4.3577,0,0,1-2.9678.8965.9489.9489,0,0,1-.9375-.9375Zm.3067-7.7119a.773.773,0,0,1,.5146-.9463,6.4289,6.4289,0,0,1,1.0752-.2158,9.9124,9.9124,0,0,1,1.2071-.0742,6.9432,6.9432,0,0,1,1.0673.0742,3.751,3.751,0,0,1,.81.208.7646.7646,0,0,1,.3936.498.7224.7224,0,0,1-.1035.6143.7863.7863,0,0,1-.3819.3027.7991.7991,0,0,1-.4648.02,4.0782,4.0782,0,0,0-.6016-.1074,6.1584,6.1584,0,0,0-.7187-.042q-.564,0-1.05.0459a3.9315,3.9315,0,0,0-.8008.1455.7332.7332,0,0,1-.5772-.0752A.76.76,0,0,1,355.0648,45.1062Z"/><path class="cls-3" d="M363.4242,53.822a9.8205,9.8205,0,0,1,.2363-2.1709,17.8909,17.8909,0,0,1,.6846-2.2617.9453.9453,0,0,1,1.7763.6475,15.9321,15.9321,0,0,0-.59,2.0009,8.1879,8.1879,0,0,0-.207,1.7344,2.5051,2.5051,0,0,0,.8007,2.0342,4.0547,4.0547,0,0,0,2.6114.6719,5.4406,5.4406,0,0,0,2.34-.4063q.8306-.4073.83-.9463,0-.4658-.6719-.8388a5.7008,5.7008,0,0,0-2.0332-.5313.8992.8992,0,0,1-.5644-.29.9693.9693,0,0,1-.2657-.5811.8728.8728,0,0,1,.253-.706.9229.9229,0,0,1,.6923-.2989h5.0557a.938.938,0,0,1,0,1.876h-1.6846a2.0446,2.0446,0,0,1,1.0118,1.66,2.1169,2.1169,0,0,1-.6348,1.4863,4.3789,4.3789,0,0,1-1.7676,1.07,7.942,7.942,0,0,1-2.6357.3984,6.4267,6.4267,0,0,1-2.8467-.5722A4.1126,4.1126,0,0,1,364.0335,56.2,4.5619,4.5619,0,0,1,363.4242,53.822Z"/><path class="cls-3" d="M373.4359,52.8181a.8957.8957,0,0,1,.2773-.6641.9094.9094,0,0,1,.66-.2744,1.2092,1.2092,0,0,0,1.1992-.7343,5.477,5.477,0,0,0,.3359-2.1875q0-.7794-.041-1.5606-.041-.7793-.1367-1.7637t-.2617-2.37a.9538.9538,0,0,1,.1953-.6972.889.889,0,0,1,.6182-.3653.9246.9246,0,0,1,.6972.1865.899.899,0,0,1,.3653.627q.1494,1.17.2412,2.1006.0908.9286.1328,1.7676t.041,1.7431a7.66,7.66,0,0,1-.76,3.9014,2.8382,2.8382,0,0,1-2.6269,1.2285.9487.9487,0,0,1-.9375-.9375Z"/><path class="cls-3" d="M378.2,59.6414a.4143.4143,0,0,1,.0205-.3487.4623.4623,0,0,1,.2695-.249l1.0293-.3574a1.4152,1.4152,0,0,1-.5811-.5274,1.5408,1.5408,0,0,1-.2158-.834,1.7908,1.7908,0,0,1,.5147-1.3154,1.91,1.91,0,0,1,1.42-.5185,3.4938,3.4938,0,0,1,.5644.041.504.504,0,0,1,.3106.1787.42.42,0,0,1,.1035.3193.4734.4734,0,0,1-.17.3194.3945.3945,0,0,1-.3438.1045,1.7589,1.7589,0,0,0-.35-.0333,1.1724,1.1724,0,0,0-.8418.2735.9122.9122,0,0,0-.2871.6894.7016.7016,0,0,0,.25.5811,1.0589,1.0589,0,0,0,.68.1992,2.4752,2.4752,0,0,0,.5156-.0586,6.7263,6.7263,0,0,0,.7715-.2324.4287.4287,0,0,1,.3691.0371.442.442,0,0,1,.2208.2949.4853.4853,0,0,1-.0459.3448.3859.3859,0,0,1-.2452.2031l-3.3613,1.1787a.4353.4353,0,0,1-.3574-.02A.4728.4728,0,0,1,378.2,59.6414Zm1.2109-16.004a.9154.9154,0,0,1,.1914-.6972.9375.9375,0,0,1,1.6768.4482q.1494,1.0709.2324,1.8965t.1162,1.6182c.0224.5293.0332,1.122.0332,1.7812q0,1.1529-.041,2.3487t-.1328,2.2246a.9242.9242,0,0,1-.3321.64.9021.9021,0,0,1-.6894.2236.9158.9158,0,0,1-.6387-.332.8854.8854,0,0,1-.2246-.6807q.0907-1.0282.1328-2.2119t.041-2.3037q0-.9213-.0332-1.64t-.1113-1.4854Q379.5522,44.7,379.4105,43.6374Z"/><path class="cls-3" d="M391.3236,47.5632a2.8836,2.8836,0,0,1,1.7265.502,3.1614,3.1614,0,0,1,1.0577,1.3281,4.63,4.63,0,0,1,.3779,1.7979,1.7324,1.7324,0,0,0,.6514.539,3.2141,3.2141,0,0,0,1.1669.1494h.0079a.8874.8874,0,0,1,.6718.2784.9517.9517,0,0,1,0,1.3193.8876.8876,0,0,1-.6718.2783h-.0079a5.4808,5.4808,0,0,1-1.3906-.1572,3.489,3.489,0,0,1-1.0508-.4649,2.5016,2.5016,0,0,1-1.1621.7012,5.5444,5.5444,0,0,1-1.5761.2119,10.0378,10.0378,0,0,1-1.3829-.0957q-.684-.0953-1.2822-.2031a1.2241,1.2241,0,0,0-.6553.0166q-.2079.0907-.1914.4561l.2989,5.1962a.9689.9689,0,0,1-.2578.7178.878.878,0,0,1-.68.3037.9062.9062,0,0,1-.6436-.2539.8775.8775,0,0,1-.2861-.626l-.3164-5.62a1.9724,1.9724,0,0,1,.52-1.6181,2.2109,2.2109,0,0,1,1.5234-.5733.9736.9736,0,0,1,.0079-.34,7.5255,7.5255,0,0,1,.4062-1.37,5.2555,5.2555,0,0,1,.7061-1.2413,3.3645,3.3645,0,0,1,1.038-.8964A2.828,2.828,0,0,1,391.3236,47.5632Zm-1.793,4.167a.9578.9578,0,0,1-.084.249c.2988.0616.5977.1094.8965.1456a7.2719,7.2719,0,0,0,.8721.0537,2.3881,2.3881,0,0,0,.9961-.1866.7962.7962,0,0,0,.4072-.8095,2.4417,2.4417,0,0,0-.3037-1.208,1.047,1.047,0,0,0-.9912-.543,1.3111,1.3111,0,0,0-1.1914.6807A5.0414,5.0414,0,0,0,389.5306,51.73Z"/><path class="cls-3" d="M395.3744,52.8181a.8957.8957,0,0,1,.2773-.6641.9092.9092,0,0,1,.66-.2744,2.5591,2.5591,0,0,0,1.7558-.5888,3.06,3.06,0,0,0,.7754-2.1338,1.0179,1.0179,0,0,1,.084-.3067.8788.8788,0,0,1,.7217-.54.94.94,0,0,1,.2158-.0078.9654.9654,0,0,1,.4394.1572.8969.8969,0,0,1,.4239.73,3.1472,3.1472,0,0,0,.59,1.7763,10.0539,10.0539,0,0,1,2.2529-2.8925,4.217,4.217,0,0,1,2.794-1.0664,3.3208,3.3208,0,0,1,1.6142.3857,2.8938,2.8938,0,0,1,1.12,1.07,3.0438,3.0438,0,0,1,.4111,1.5987,3.1464,3.1464,0,0,1-.1572.996,1.278,1.278,0,0,0,.5976.6309,2.9274,2.9274,0,0,0,1.22.19h.0087a.938.938,0,0,1,0,1.876H411.17a4.6137,4.6137,0,0,1-1.6729-.29,3.6192,3.6192,0,0,1-1.2734-.8135,5.1609,5.1609,0,0,1-1.6983.875,7.0577,7.0577,0,0,1-2.1289.3115,6.9087,6.9087,0,0,1-2.5234-.4394c-.0772.166-.1553.3369-.2324.5146a.7533.7533,0,0,1-.4942.46.7611.7611,0,0,1-.61-.0615.7059.7059,0,0,1-.3233-.4278.9557.9557,0,0,1,.042-.6181q.1318-.3325.2656-.64a4.2007,4.2007,0,0,1-.6562-.6475,3.85,3.85,0,0,1-1.4815,1.3155,4.5147,4.5147,0,0,1-2.0712.4609.9487.9487,0,0,1-.9375-.9375ZM406.1478,48.9a2.673,2.673,0,0,0-1.834.7842,8.9023,8.9023,0,0,0-1.6191,2.0957,6.7434,6.7434,0,0,0,1.7021.1826,5.5152,5.5152,0,0,0,2.32-.4228,1.4113,1.4113,0,0,0,.9092-1.3535,1.1269,1.1269,0,0,0-.44-.95A1.6577,1.6577,0,0,0,406.1478,48.9Zm-.7969-4.8144a.9775.9775,0,0,1,.2783-.6768.93.93,0,0,1,.7178-.3027.9906.9906,0,0,1,.5313.1328,1.0529,1.0529,0,0,1,.3408.3233,1.03,1.03,0,0,1,.166.5312,1.3316,1.3316,0,0,1-.2119.668.8648.8648,0,0,1-.8174.3613.9528.9528,0,0,1-.627-.1787,1.025,1.025,0,0,1-.3027-.41A1.3665,1.3665,0,0,1,405.3509,44.0857Z"/><path class="cls-3" d="M410.2406,52.8181a.8957.8957,0,0,1,.2773-.6641.9094.9094,0,0,1,.66-.2744,2.8439,2.8439,0,0,0,1.5937-.34,1.48,1.48,0,0,0,.4815-1.2871c0-.2207-.0166-.5049-.05-.8506s-.0831-.6934-.15-1.042a.9142.9142,0,0,1,.1866-.6934.93.93,0,0,1,.6191-.3691.886.886,0,0,1,.6973.1787.9637.9637,0,0,1,.373.6182q.1158.6152.1738,1.1787a9.7266,9.7266,0,0,1,.0586.9883,3.28,3.28,0,0,1-1.0166,2.5976,4.3576,4.3576,0,0,1-2.9677.8965.9487.9487,0,0,1-.9375-.9375Zm1.6093-8.11a.9768.9768,0,0,1,.2784-.6768.9327.9327,0,0,1,.7177-.3027.9994.9994,0,0,1,.5313.1328,1.0553,1.0553,0,0,1,.3408.3242,1.0265,1.0265,0,0,1,.166.5312,1.3371,1.3371,0,0,1-.2119.668.8666.8666,0,0,1-.8174.3613.9521.9521,0,0,1-.6269-.1787,1.0263,1.0263,0,0,1-.3028-.4111A1.3586,1.3586,0,0,1,411.85,44.7078Z"/><path class="cls-3" d="M416.764,43.6374a.9158.9158,0,0,1,.1914-.6972.9375.9375,0,0,1,1.6768.4482q.1494,1.0709.2324,1.8965t.1162,1.6182c.0225.5293.0332,1.122.0332,1.7812q0,1.1529-.041,2.3487t-.1328,2.2246a.9239.9239,0,0,1-.3321.64.9019.9019,0,0,1-.6894.2236.9158.9158,0,0,1-.6387-.332.8854.8854,0,0,1-.2246-.6807q.0909-1.0282.1328-2.2119t.041-2.3037q0-.9213-.0332-1.64t-.1113-1.4854Q416.9057,44.7,416.764,43.6374Z"/></g></svg>