<svg xmlns="http://www.w3.org/2000/svg" viewBox="0 0 500.6876 116.4255"><defs><style>.cls-1{fill:#ffb900;}</style></defs><g id="_3" data-name="3"><path class="cls-1" d="M119.3851,33.2369a1.7153,1.7153,0,0,1-.0254-1.147,2.4128,2.4128,0,0,1,1.7129-1.5688,1.9947,1.9947,0,0,1,.6465-.0528,2.1069,2.1069,0,0,1,1.3379.5406,2.2455,2.2455,0,0,1,.7187,1.1469l.0264.0791a8.3588,8.3588,0,0,0,1.4043,3.1436,2.2493,2.2493,0,0,0,1.707.8769h.0127a2.15,2.15,0,0,1,1.5889.6592,2.2659,2.2659,0,0,1,0,3.1836,2.1371,2.1371,0,0,1-1.5889.666h-.0127a4.513,4.513,0,0,1-1.3906-.2177,6.1423,6.1423,0,0,1-1.3115-.6,9.6752,9.6752,0,0,1-2.4727,4.9375,10.943,10.943,0,0,1-4.4629,2.8017,2.0954,2.0954,0,0,1-1.8183-.165,2.247,2.247,0,0,1-1.0547-1.2989,2.1271,2.1271,0,0,1,.1836-1.8125,2.3459,2.3459,0,0,1,1.24-1.0087,6.2218,6.2218,0,0,0,3.0586-2.1163,6.5152,6.5152,0,0,0,1.1074-4.0273,15.7973,15.7973,0,0,0-.5674-3.915A.5148.5148,0,0,0,119.3851,33.2369Z"/><path class="cls-1" d="M124.6585,38.51a2.1531,2.1531,0,0,1,.6729-1.5957,2.2,2.2,0,0,1,1.5947-.6592h1.3184a2.1918,2.1918,0,0,1,1.6015.6592,2.2578,2.2578,0,0,1-1.6015,3.85h-1.3184a2.1872,2.1872,0,0,1-1.5947-.666A2.1558,2.1558,0,0,1,124.6585,38.51Z"/><path class="cls-1" d="M125.08,45.6158a1.7077,1.7077,0,0,1,.1582-1.3379,1.8463,1.8463,0,0,1,1.082-.8769,10.4875,10.4875,0,0,1,1.7266-.3428,16.043,16.043,0,0,1,1.9375-.1182,10.781,10.781,0,0,1,1.8535.1445,6.6216,6.6216,0,0,1,1.3906.3829,1.8208,1.8208,0,0,1,.9161,1.1992,1.837,1.837,0,0,1-1.16,2.1426,2.12,2.12,0,0,1-1.0879.0459q-.3824-.0792-.916-.1387a9.1426,9.1426,0,0,0-.9961-.0586q-.8818,0-1.5684.0527a6.9209,6.9209,0,0,0-1.1074.1582,1.8719,1.8719,0,0,1-2.2285-1.2529Zm.91-7.1055a2.2623,2.2623,0,0,1,2.2539-2.2549,3.815,3.815,0,0,0,2.0566-.3955,1.7652,1.7652,0,0,0,.5674-1.542q0-.4482-.0459-1.0283t-.1387-1.3052a2.2443,2.2443,0,0,1,.461-1.6679,2.2333,2.2333,0,0,1,3.1445-.4151,2.2614,2.2614,0,0,1,.8769,1.49,19.6878,19.6878,0,0,1,.2774,2.9531,6.0975,6.0975,0,0,1-1.8535,4.6992,7.5709,7.5709,0,0,1-5.3457,1.7207,2.2742,2.2742,0,0,1-2.2539-2.2539Z"/><path class="cls-1" d="M142.4163,40.7642A6.1886,6.1886,0,0,1,138.1,39.4a5.1258,5.1258,0,0,1-1.497-3.9883,7.4268,7.4268,0,0,1,.77-3.4141,6.3081,6.3081,0,0,1,2.0508-2.393,4.8654,4.8654,0,0,1,2.8086-.8765,4.9769,4.9769,0,0,1,3.0312.9819,6.8206,6.8206,0,0,1,2.1231,2.69,10.2931,10.2931,0,0,1,.8964,3.8559h.4219a2.1476,2.1476,0,0,1,1.5879.6592,2.2659,2.2659,0,0,1,0,3.1836,2.1349,2.1349,0,0,1-1.5879.666h-1.1865a10.8407,10.8407,0,0,1-2.0567,3.2627,12.1164,12.1164,0,0,1-2.9931,2.3936,11.2709,11.2709,0,0,1-3.4932,1.292,2.1471,2.1471,0,0,1-1.6806-.3692,2.1971,2.1971,0,0,1-.9561-1.45,2.0253,2.0253,0,0,1,.376-1.6484,2.6251,2.6251,0,0,1,1.43-.9883,10.4976,10.4976,0,0,0,2.5117-1.0488,7.676,7.676,0,0,0,1.8-1.4434Zm-.039-4.5088h1.5293a7.2809,7.2809,0,0,0-.3106-1.51,3.6578,3.6578,0,0,0-.6-1.1792,1.0877,1.0877,0,0,0-.8691-.4614,1.1659,1.1659,0,0,0-.9238.4877,2.168,2.168,0,0,0-.3946,1.397,1.1287,1.1287,0,0,0,.3887.9951A2.0746,2.0746,0,0,0,142.3773,36.2554Z"/><path class="cls-1" d="M146.4642,38.4967a2.239,2.239,0,0,1,2.2412-2.2413h.29c.0352-.1054.0752-.206.1182-.3027q.3692-.7778.7783-1.4766c.0088-.0966.0176-.1894.0264-.2773q.0791-.6585.1055-1.4165t.0263-1.668q0-1.45-.0654-2.96-.0674-1.5088-.1582-2.7813-.0937-1.2722-.1982-2.0107a1.946,1.946,0,0,1,.4873-1.6216,2.3207,2.3207,0,0,1,1.4238-.8306,2.08,2.08,0,0,1,1.7471.4878,2.4666,2.4666,0,0,1,.8506,1.5293q.1186.7383.2246,1.8457t.1709,2.32q.0659,1.2129.0654,2.2544v.2373a7.8484,7.8484,0,0,1,3.8769-1.0547,5.95,5.95,0,0,1,2.9.6856,4.8829,4.8829,0,0,1,1.9512,1.938,6.0039,6.0039,0,0,1,.6982,2.9658,7.1919,7.1919,0,0,1-.1318,1.4111,1.6692,1.6692,0,0,0,.5469.5137,1.9071,1.9071,0,0,0,.9824.2109h.0137a2.1507,2.1507,0,0,1,1.5879.6592,2.2684,2.2684,0,0,1,0,3.1836,2.1381,2.1381,0,0,1-1.5879.666h-.0137a6.0781,6.0781,0,0,1-4.31-1.582,10.9733,10.9733,0,0,1-3.7442,1.2,31.66,31.66,0,0,1-4.707.3291h-3.9551a2.1573,2.1573,0,0,1-1.582-.6592A2.1273,2.1273,0,0,1,146.4642,38.4967ZM157.92,33.0655a3.4229,3.4229,0,0,0-2.0762.8174,8.786,8.786,0,0,0-2.0235,2.3725q2.2017-.0262,3.4415-.1709a3.8593,3.8593,0,0,0,1.746-.5146,1.2271,1.2271,0,0,0,.5079-1.0547,1.399,1.399,0,0,0-.4082-1.061A1.6616,1.6616,0,0,0,157.92,33.0655Z"/><path class="cls-1" d="M163.1683,38.51a2.1522,2.1522,0,0,1,.6719-1.5957,2.2025,2.2025,0,0,1,1.5957-.6592,5.7294,5.7294,0,0,0,2.3125-.3427,1.6985,1.6985,0,0,0,.9375-1.1407,10.9829,10.9829,0,0,0,.2959-2.1547,2.1735,2.1735,0,0,1,.77-1.6216,2.2661,2.2661,0,0,1,1.6553-.5142,2.1205,2.1205,0,0,1,1.55.7715,2.1868,2.1868,0,0,1,.5468,1.6279,3.7563,3.7563,0,0,0,.4219,2.5972,2.6064,2.6064,0,0,0,2.1875.7773h.0137a2.1476,2.1476,0,0,1,1.5879.6592,2.2659,2.2659,0,0,1,0,3.1836,2.1349,2.1349,0,0,1-1.5879.666h-.0137a7.0147,7.0147,0,0,1-2.8076-.5468,4.8693,4.8693,0,0,1-2.1221-1.8262,5.6112,5.6112,0,0,1-2.5449,1.8857,9.85,9.85,0,0,1-3.2031.4873,2.1893,2.1893,0,0,1-1.5957-.666A2.1549,2.1549,0,0,1,163.1683,38.51Zm1.6738-11.3642A1.7009,1.7009,0,0,1,165,25.8077a1.8472,1.8472,0,0,1,1.0811-.8765,10.5318,10.5318,0,0,1,1.7275-.3427,16.0318,16.0318,0,0,1,1.9375-.1187,10.7285,10.7285,0,0,1,1.8516.145,6.6018,6.6018,0,0,1,1.3916.3823,1.8234,1.8234,0,0,1,.917,1.2,1.8384,1.8384,0,0,1-1.16,2.142,2.1091,2.1091,0,0,1-1.0879.0464c-.2558-.0527-.56-.0991-.916-.1382a8.9738,8.9738,0,0,0-.9961-.0595q-.8832,0-1.5683.0527a6.9206,6.9206,0,0,0-1.1075.1582,1.8711,1.8711,0,0,1-2.2285-1.2524Z"/><path class="cls-1" d="M173.8734,38.51a2.2606,2.2606,0,0,1,2.2539-2.2549,1.4067,1.4067,0,0,0,1.292-1.0478,9.429,9.429,0,0,0,.4345-3.355q0-.7383-.0722-1.78t-.2305-2.643q-.1582-1.6026-.4355-3.9883a2.2778,2.2778,0,0,1,.455-1.6743,2.1181,2.1181,0,0,1,1.4834-.87,2.2166,2.2166,0,0,1,1.6748.4483,2.1394,2.1394,0,0,1,.8692,1.49q.3574,2.7554.5146,4.6866t.1582,3.5a21.0165,21.0165,0,0,1-.62,5.6749,5.5283,5.5283,0,0,1-1.9707,3.1054,5.9932,5.9932,0,0,1-3.5527.9619,2.2724,2.2724,0,0,1-2.2539-2.2539Z"/><path class="cls-1" d="M184.1156,24.0347a2.2147,2.2147,0,0,1,.4492-1.6743,2.1375,2.1375,0,0,1,1.4892-.87,2.2165,2.2165,0,0,1,1.6748.4482,2.14,2.14,0,0,1,.8692,1.49q.2373,1.78.3691,3.1245t.1856,2.584q.0526,1.2393.0527,2.7158,0,1.9512-.0732,3.8755t-.2041,3.5469a2.2586,2.2586,0,0,1-3.9815,1.2715,2.1648,2.1648,0,0,1-.5273-1.6407q.1319-1.6347.2041-3.5273t.0722-3.7632q0-1.2919-.0459-2.3467t-.1709-2.2676Q184.353,25.7882,184.1156,24.0347Z"/><path class="cls-1" d="M203.3519,28.7281a4.9609,4.9609,0,0,1,3.1445,1.0679,7.1383,7.1383,0,0,1,2.1426,2.9,10.4829,10.4829,0,0,1,.7773,4.1264,10.0975,10.0975,0,0,1-.7646,3.9287,11.3036,11.3036,0,0,1-2.0762,3.2754,12.0307,12.0307,0,0,1-2.9863,2.3936,11.2793,11.2793,0,0,1-3.4932,1.292,2.15,2.15,0,0,1-1.6816-.3692,2.1926,2.1926,0,0,1-.9551-1.45,2.0219,2.0219,0,0,1,.375-1.6484,2.6278,2.6278,0,0,1,1.4307-.9883,10.3172,10.3172,0,0,0,2.5967-1.1015,7.677,7.677,0,0,0,1.833-1.5225h-.1582a6.3957,6.3957,0,0,1-4.3174-1.2988,4.9118,4.9118,0,0,1-1.4961-3.9219,7.4268,7.4268,0,0,1,.77-3.4141,6.3059,6.3059,0,0,1,2.05-2.393A4.8679,4.8679,0,0,1,203.3519,28.7281Zm-1.4238,6.499a1.1288,1.1288,0,0,0,.3886.9951,2.0771,2.0771,0,0,0,1.18.27,5.4045,5.4045,0,0,0,.8242-.0595q.39-.0587.7188-.125a7.5929,7.5929,0,0,0-.31-1.5362,3.6726,3.6726,0,0,0-.6064-1.1987,1.1042,1.1042,0,0,0-.877-.4682,1.1156,1.1156,0,0,0-.9228.6064A2.7187,2.7187,0,0,0,201.9281,35.2271Z"/><path class="cls-1" d="M217.5912,33.6456a9.2791,9.2791,0,0,1,.1582-1.6875,14.9872,14.9872,0,0,1,.4345-1.74,2.2522,2.2522,0,0,1,4.2989,1.3448,7.6811,7.6811,0,0,0-.2774,1.16,6.3286,6.3286,0,0,0-.0791.9229,3.0152,3.0152,0,0,0,.39,1.5161,2.6549,2.6549,0,0,0,1.4687,1.0869,9.4281,9.4281,0,0,0,3.1387.4024,16.5507,16.5507,0,0,0,4.7988-.58,6.2055,6.2055,0,0,0,2.8926-1.7334A5.9991,5.9991,0,0,0,236.18,31.47a2.2341,2.2341,0,0,1,.8379-1.3579,2.087,2.087,0,0,1,1.6016-.4351,2.2214,2.2214,0,0,1,1.4892.791,2.109,2.109,0,0,1,.54,1.5952c-.0176.2989-.0332.5845-.045.857q-.02.4086-.02.791a3.1608,3.1608,0,0,0,.4873,1.8516,2.0525,2.0525,0,0,0,1.793.6923h.0137a2.1476,2.1476,0,0,1,1.5879.6592,2.2659,2.2659,0,0,1,0,3.1836,2.1349,2.1349,0,0,1-1.5879.666h-.0137a5.06,5.06,0,0,1-2.998-.87,5.4186,5.4186,0,0,1-1.8662-2.333,10.8007,10.8007,0,0,1-3.1573,2.1416,15.5649,15.5649,0,0,1-3.7246,1.1211,23.6861,23.6861,0,0,1-3.9941.3359,13.1328,13.1328,0,0,1-4.7656-.8369,7.8764,7.8764,0,0,1-3.4688-2.5049A6.5884,6.5884,0,0,1,217.5912,33.6456Zm7.62,11.1528a2.1114,2.1114,0,0,1,.6133-1.4834,2.0182,2.0182,0,0,1,1.5351-.6523,2.1513,2.1513,0,0,1,1.8984,1.0019,2.0858,2.0858,0,0,1,.3438,1.1338,2.8005,2.8005,0,0,1-.1856.9365,1.9211,1.9211,0,0,1-.666.8828,2.1736,2.1736,0,0,1-1.3506.3692,2.1343,2.1343,0,0,1-1.3642-.376,2.021,2.021,0,0,1-.6524-.8633A2.6844,2.6844,0,0,1,225.2113,44.7984Z"/><path class="cls-1" d="M239.7132,45.6158a1.691,1.691,0,0,1,.1582-1.3379,1.8425,1.8425,0,0,1,1.08-.8769,10.5442,10.5442,0,0,1,1.7275-.3428,16.0346,16.0346,0,0,1,1.9385-.1182,10.7415,10.7415,0,0,1,1.8516.1445,6.589,6.589,0,0,1,1.3906.3829,1.8117,1.8117,0,0,1,.916,1.1992,1.8346,1.8346,0,0,1-1.16,2.1426,2.1162,2.1162,0,0,1-1.0869.0459c-.2549-.0528-.56-.0987-.917-.1387a9.1364,9.1364,0,0,0-.9942-.0586q-.8847,0-1.5693.0527a6.9192,6.9192,0,0,0-1.1074.1582,1.869,1.869,0,0,1-2.2276-1.2529Zm.9092-7.1055a2.2606,2.2606,0,0,1,2.2549-2.2549,3.8242,3.8242,0,0,0,2.0566-.3955,1.77,1.77,0,0,0,.5664-1.542q0-.4482-.0468-1.0283t-.1377-1.3052a2.2363,2.2363,0,0,1,.4619-1.6679,2.233,2.233,0,0,1,3.1445-.4151,2.2685,2.2685,0,0,1,.876,1.49,19.6686,19.6686,0,0,1,.2764,2.9531,6.1,6.1,0,0,1-1.8516,4.6992,7.5759,7.5759,0,0,1-5.3457,1.7207,2.2724,2.2724,0,0,1-2.2549-2.2539Z"/><path class="cls-1" d="M256.5081,30.6134a2.1643,2.1643,0,0,1,1.3516-.086,2.3083,2.3083,0,0,1,1.0547.6265,2.1641,2.1641,0,0,1,.56,1.0019,20.03,20.03,0,0,1,.6983,5.1016,11.9216,11.9216,0,0,1-.9229,4.8652A9.6239,9.6239,0,0,1,256.7,45.5963a11.0709,11.0709,0,0,1-3.7247,2.09,2.0976,2.0976,0,0,1-1.8193-.165,2.2474,2.2474,0,0,1-1.0547-1.2989,2.127,2.127,0,0,1,.1846-1.8125,2.3442,2.3442,0,0,1,1.2392-1.0087,6.2214,6.2214,0,0,0,3.0586-2.1163,6.5152,6.5152,0,0,0,1.1075-4.0273,15.8443,15.8443,0,0,0-.58-3.9678,1.9851,1.9851,0,0,1,.2314-1.7138A2.481,2.481,0,0,1,256.5081,30.6134Z"/><path class="cls-1" d="M261.5042,37.983a2.0537,2.0537,0,0,1,1.0411-1.3184,2.5037,2.5037,0,0,1,1.74-.2246q.5419.0923,1.0019.1514a7.93,7.93,0,0,0,1.0157.06,5.5218,5.5218,0,0,0,1.7334-.1973,1.1437,1.1437,0,0,0,.6992-.5274,1.7532,1.7532,0,0,0,.1514-.7382,1.6406,1.6406,0,0,0-.0391-.3565c-.0625-.167-.1231-.3428-.1856-.5273a12.9811,12.9811,0,0,0-.85-1.97q-.561-1.0746-1.3652-2.3536a2.1625,2.1625,0,0,1-.2637-1.707A2.2061,2.2061,0,0,1,267.2,26.8692a2.1541,2.1541,0,0,1,1.707-.2637,2.201,2.201,0,0,1,1.4043,1.0152q.8041,1.2787,1.457,2.4848a17.5781,17.5781,0,0,1,1.166,2.7227,16.5053,16.5053,0,0,0,.8574,2.0435,2.7159,2.7159,0,0,0,.8965,1.0673,2.2769,2.2769,0,0,0,1.2393.3164h.0127a2.15,2.15,0,0,1,1.5889.6592,2.2659,2.2659,0,0,1,0,3.1836,2.1371,2.1371,0,0,1-1.5889.666h-.0127a6.5671,6.5671,0,0,1-2.3926-.4023,6.681,6.681,0,0,1-1.8135-1.0342,6.2429,6.2429,0,0,1-2.5839,1.417,10.5689,10.5689,0,0,1-2.834.415,13.6614,13.6614,0,0,1-1.5957-.0791,14.9339,14.9339,0,0,1-1.6475-.3164,2.067,2.067,0,0,1-1.3447-1.0615A2.1959,2.1959,0,0,1,261.5042,37.983Z"/><path class="cls-1" d="M273.6722,38.51a2.1531,2.1531,0,0,1,.6729-1.5957,2.2,2.2,0,0,1,1.5947-.6592,5.737,5.737,0,0,0,2.3144-.3427,1.6931,1.6931,0,0,0,.9356-1.1407,10.9718,10.9718,0,0,0,.2969-2.1547,2.1708,2.1708,0,0,1,.7714-1.6216,2.2626,2.2626,0,0,1,1.6543-.5142,2.1167,2.1167,0,0,1,1.5489.7715,2.1787,2.1787,0,0,1,.5468,1.6279,3.7787,3.7787,0,0,0,.4219,2.5972,2.6109,2.6109,0,0,0,2.19.7773h.0117a2.1532,2.1532,0,0,1,1.59.6592,2.2681,2.2681,0,0,1,0,3.1836,2.1405,2.1405,0,0,1-1.59.666H286.62a7.0127,7.0127,0,0,1-2.8086-.5468,4.8827,4.8827,0,0,1-2.1231-1.8262,5.5989,5.5989,0,0,1-2.5439,1.8857,9.8472,9.8472,0,0,1-3.2041.4873,2.1872,2.1872,0,0,1-1.5947-.666A2.1558,2.1558,0,0,1,273.6722,38.51Zm1.6748-11.3642a1.7009,1.7009,0,0,1,.1582-1.3384,1.8472,1.8472,0,0,1,1.0811-.8765,10.5163,10.5163,0,0,1,1.7265-.3427,16.0482,16.0482,0,0,1,1.9385-.1187,10.7476,10.7476,0,0,1,1.8525.145,6.6249,6.6249,0,0,1,1.3907.3823,1.8193,1.8193,0,0,1,.916,1.2,1.8334,1.8334,0,0,1-1.16,2.142,2.1082,2.1082,0,0,1-1.0879.0464c-.2539-.0527-.56-.0991-.916-.1382a8.9288,8.9288,0,0,0-.9951-.0595q-.8834,0-1.5693.0527a6.9174,6.9174,0,0,0-1.1074.1582,1.8707,1.8707,0,0,1-2.2276-1.2524Z"/><path class="cls-1" d="M284.3783,38.51a2.2606,2.2606,0,0,1,2.2539-2.2549,6.0314,6.0314,0,0,0,1.45-.125.8079.8079,0,0,0,.6-.5605,4.7037,4.7037,0,0,0,.1386-1.3311q0-2.0038-.0722-3.7768t-.1983-3.5q-.1245-1.7271-.31-3.6123a2.14,2.14,0,0,1,.5146-1.6548,2.2207,2.2207,0,0,1,1.5293-.8105,2.1556,2.1556,0,0,1,1.6475.5078,2.2015,2.2015,0,0,1,.8174,1.5356q.2636,2.8082.415,5.4185t.165,5.6557a2.1453,2.1453,0,0,1,.0137.2373,2.207,2.207,0,0,0,.4346,1.628,2.7109,2.7109,0,0,0,1.7275.3886h.0127a2.153,2.153,0,0,1,1.5889.6592,2.2684,2.2684,0,0,1,0,3.1836,2.14,2.14,0,0,1-1.5889.666h-.0127a7.73,7.73,0,0,1-2.3535-.3623,6.329,6.329,0,0,1-2.0371-1.0742,6.9393,6.9393,0,0,1-4.4824,1.4365,2.2724,2.2724,0,0,1-2.2539-2.2539Z"/><path class="cls-1" d="M293.264,38.51a2.2606,2.2606,0,0,1,2.2539-2.2549,1.4066,1.4066,0,0,0,1.292-1.0478,9.4285,9.4285,0,0,0,.4346-3.355q0-.7383-.0723-1.78t-.23-2.643q-.1581-1.6026-.4355-3.9883a2.2774,2.2774,0,0,1,.4551-1.6743,2.12,2.12,0,0,1,1.4834-.87,2.2168,2.2168,0,0,1,1.6748.4483,2.1393,2.1393,0,0,1,.8691,1.49q.3574,2.7554.5147,4.6866t.1582,3.5a21.0563,21.0563,0,0,1-.62,5.6749,5.5278,5.5278,0,0,1-1.9707,3.1054,5.993,5.993,0,0,1-3.5527.9619A2.2724,2.2724,0,0,1,293.264,38.51Z"/><path class="cls-1" d="M310.5746,34.1724q0-1.779.0273-3.3413.0249-1.563.0254-3.23t-.0918-3.7242a2.2368,2.2368,0,0,1,.6064-1.6284,2.2621,2.2621,0,0,1,3.9151,1.4439q.0922,2.017.0927,3.6977t-.0332,3.29q-.0321,1.6083-.0322,3.4277a2.3591,2.3591,0,0,0,.4678,1.667,2.1559,2.1559,0,0,0,1.5889.4814h.0127a2.1526,2.1526,0,0,1,1.5888.6592,2.2681,2.2681,0,0,1,0,3.1836,2.14,2.14,0,0,1-1.5888.666h-.0127a8.4151,8.4151,0,0,1-3.4551-.6591,4.8437,4.8437,0,0,1-2.293-2.1094A7.75,7.75,0,0,1,310.5746,34.1724Z"/><path class="cls-1" d="M313.99,45.6158a1.6993,1.6993,0,0,1,.1582-1.3379,1.844,1.844,0,0,1,1.081-.8769,10.5221,10.5221,0,0,1,1.7276-.3428,16.0183,16.0183,0,0,1,1.9375-.1182,10.7614,10.7614,0,0,1,1.8525.1445,6.6072,6.6072,0,0,1,1.3907.3829,1.8153,1.8153,0,0,1,.916,1.1992,1.837,1.837,0,0,1-1.16,2.1426,2.1167,2.1167,0,0,1-1.0869.0459c-.2559-.0528-.5606-.0987-.917-.1387a9.1393,9.1393,0,0,0-.9951-.0586q-.8833,0-1.5684.0527a6.9209,6.9209,0,0,0-1.1074.1582,1.8706,1.8706,0,0,1-2.2285-1.2529Zm.8965-7.1055a2.1562,2.1562,0,0,1,.6718-1.5957,2.2045,2.2045,0,0,1,1.5958-.6592,5.7314,5.7314,0,0,0,2.3134-.3427,1.695,1.695,0,0,0,.9366-1.1407,10.9653,10.9653,0,0,0,.2968-2.1547,2.17,2.17,0,0,1,.7705-1.6216,2.2663,2.2663,0,0,1,1.6553-.5142,2.1181,2.1181,0,0,1,1.5488.7715,2.1828,2.1828,0,0,1,.5469,1.6279,3.7675,3.7675,0,0,0,.4219,2.5972,2.6087,2.6087,0,0,0,2.1885.7773h.0127a2.151,2.151,0,0,1,1.5888.6592,2.2659,2.2659,0,0,1,0,3.1836,2.1383,2.1383,0,0,1-1.5888.666h-.0127a7.0118,7.0118,0,0,1-2.8077-.5468,4.8775,4.8775,0,0,1-2.123-1.8262,5.6066,5.6066,0,0,1-2.5449,1.8857,9.8453,9.8453,0,0,1-3.2031.4873,2.1913,2.1913,0,0,1-1.5958-.666A2.159,2.159,0,0,1,314.8861,38.51Z"/><path class="cls-1" d="M325.5912,38.51a2.2606,2.2606,0,0,1,2.2539-2.2549,3.82,3.82,0,0,0,2.0566-.3955,1.7677,1.7677,0,0,0,.5664-1.542c0-.2988-.0146-.6416-.0459-1.0283s-.0771-.8218-.1377-1.3052a2.2361,2.2361,0,0,1,.4609-1.6679,2.2334,2.2334,0,0,1,3.1446-.4151,2.2693,2.2693,0,0,1,.8769,1.49,19.8018,19.8018,0,0,1,.2764,2.9531,6.0969,6.0969,0,0,1-1.8525,4.6992,7.5726,7.5726,0,0,1-5.3457,1.7207,2.2724,2.2724,0,0,1-2.2539-2.2539Zm1.041,6.2881a2.1079,2.1079,0,0,1,.6132-1.4834,2.0186,2.0186,0,0,1,1.5352-.6523,2.1513,2.1513,0,0,1,1.8984,1.0019,2.0858,2.0858,0,0,1,.3438,1.1338,2.8005,2.8005,0,0,1-.1856.9365,1.9256,1.9256,0,0,1-.665.8828,2.1788,2.1788,0,0,1-1.3516.3692,2.1343,2.1343,0,0,1-1.3642-.376,2.021,2.021,0,0,1-.6524-.8633A2.7069,2.7069,0,0,1,326.6322,44.7984Z"/><path class="cls-1" d="M342.0169,40.7642A6.1926,6.1926,0,0,1,337.7,39.4a5.125,5.125,0,0,1-1.4961-3.9883,7.4268,7.4268,0,0,1,.77-3.4141,6.2972,6.2972,0,0,1,2.05-2.393,4.8654,4.8654,0,0,1,2.8086-.8765,4.98,4.98,0,0,1,3.0322.9819,6.8274,6.8274,0,0,1,2.1221,2.69,10.2931,10.2931,0,0,1,.8964,3.8559h.4219a2.1514,2.1514,0,0,1,1.5889.6592,2.2659,2.2659,0,0,1,0,3.1836,2.1387,2.1387,0,0,1-1.5889.666H347.12a10.88,10.88,0,0,1-2.0567,3.2627,12.1532,12.1532,0,0,1-2.9931,2.3936,11.2793,11.2793,0,0,1-3.4932,1.292,2.1494,2.1494,0,0,1-1.6816-.3692,2.1958,2.1958,0,0,1-.9551-1.45,2.0251,2.0251,0,0,1,.375-1.6484,2.6276,2.6276,0,0,1,1.4306-.9883,10.5123,10.5123,0,0,0,2.5118-1.0488,7.7174,7.7174,0,0,0,1.8-1.4434Zm-.04-4.5088h1.5293a7.2737,7.2737,0,0,0-.31-1.51,3.6578,3.6578,0,0,0-.6-1.1792,1.09,1.09,0,0,0-.87-.4614,1.1644,1.1644,0,0,0-.9229.4877,2.1686,2.1686,0,0,0-.3955,1.397,1.1313,1.1313,0,0,0,.3887.9951A2.0771,2.0771,0,0,0,341.9769,36.2554Z"/><path class="cls-1" d="M346.0374,38.51a2.1563,2.1563,0,0,1,.6719-1.5957,2.2043,2.2043,0,0,1,1.5957-.6592,5.7317,5.7317,0,0,0,2.3135-.3427,1.6946,1.6946,0,0,0,.9365-1.1407,10.9566,10.9566,0,0,0,.2969-2.1547,2.17,2.17,0,0,1,.7705-1.6216,2.2663,2.2663,0,0,1,1.6553-.5142,2.1184,2.1184,0,0,1,1.5488.7715,2.1832,2.1832,0,0,1,.5469,1.6279,3.7664,3.7664,0,0,0,.4219,2.5972,2.6086,2.6086,0,0,0,2.1884.7773h.0127a2.1514,2.1514,0,0,1,1.5889.6592,2.2659,2.2659,0,0,1,0,3.1836,2.1387,2.1387,0,0,1-1.5889.666h-.0127a7.0116,7.0116,0,0,1-2.8076-.5468,4.8775,4.8775,0,0,1-2.123-1.8262,5.6063,5.6063,0,0,1-2.545,1.8857,9.8453,9.8453,0,0,1-3.2031.4873,2.1911,2.1911,0,0,1-1.5957-.666A2.1591,2.1591,0,0,1,346.0374,38.51Zm3.2168-11.6411a2.1075,2.1075,0,0,1,.6133-1.4834,2.0183,2.0183,0,0,1,1.5352-.6523,2.1857,2.1857,0,0,1,1.16.29,2.2089,2.2089,0,0,1,.7383.7119,2.0866,2.0866,0,0,1,.3438,1.1338,2.7979,2.7979,0,0,1-.1856.936,1.9269,1.9269,0,0,1-.665.8833,2.1788,2.1788,0,0,1-1.3516.3692,2.1343,2.1343,0,0,1-1.3642-.376,2.013,2.013,0,0,1-.6524-.8633A2.6845,2.6845,0,0,1,349.2542,26.8692Z"/><path class="cls-1" d="M355.8333,45.6158a1.6993,1.6993,0,0,1,.1582-1.3379,1.8442,1.8442,0,0,1,1.0811-.8769,10.5207,10.5207,0,0,1,1.7275-.3428,16.02,16.02,0,0,1,1.9375-.1182,10.7618,10.7618,0,0,1,1.8526.1445,6.6061,6.6061,0,0,1,1.3906.3829,1.8147,1.8147,0,0,1,.916,1.1992,1.8371,1.8371,0,0,1-1.16,2.1426,2.117,2.117,0,0,1-1.087.0459c-.2558-.0528-.56-.0987-.9169-.1387a9.14,9.14,0,0,0-.9952-.0586q-.8832,0-1.5683.0527a6.9174,6.9174,0,0,0-1.1074.1582,1.8708,1.8708,0,0,1-2.2286-1.2529Zm.91-7.1055a2.2606,2.2606,0,0,1,2.2539-2.2549,3.82,3.82,0,0,0,2.0566-.3955,1.7674,1.7674,0,0,0,.5664-1.542c0-.2988-.0146-.6416-.0458-1.0283s-.0772-.8218-.1377-1.3052a2.2361,2.2361,0,0,1,.4609-1.6679,2.2333,2.2333,0,0,1,3.1445-.4151,2.27,2.27,0,0,1,.877,1.49,19.8,19.8,0,0,1,.2763,2.9531,6.0965,6.0965,0,0,1-1.8525,4.6992,7.5726,7.5726,0,0,1-5.3457,1.7207,2.2724,2.2724,0,0,1-2.2539-2.2539Z"/><path class="cls-1" d="M371.2044,33.2369a1.7092,1.7092,0,0,1-.0254-1.147,2.3155,2.3155,0,0,1,.6456-.9951,2.3456,2.3456,0,0,1,1.0673-.5737,1.9949,1.9949,0,0,1,.6465-.0528,2.1064,2.1064,0,0,1,1.3379.5406,2.24,2.24,0,0,1,.7188,1.1469l.0263.0791a8.36,8.36,0,0,0,1.4043,3.1436,2.2494,2.2494,0,0,0,1.7071.8769h.0126a2.1512,2.1512,0,0,1,1.5889.6592,2.2659,2.2659,0,0,1,0,3.1836,2.1385,2.1385,0,0,1-1.5889.666h-.0126a4.5137,4.5137,0,0,1-1.3907-.2177,6.1445,6.1445,0,0,1-1.3115-.6,9.6829,9.6829,0,0,1-2.4727,4.9375,10.9426,10.9426,0,0,1-4.4628,2.8017,2.0953,2.0953,0,0,1-1.8184-.165,2.2436,2.2436,0,0,1-1.0547-1.2989,2.1306,2.1306,0,0,1,.1836-1.8125,2.3426,2.3426,0,0,1,1.24-1.0087,6.2259,6.2259,0,0,0,3.0586-2.1163,6.5152,6.5152,0,0,0,1.1075-4.0273,15.802,15.802,0,0,0-.5674-3.915A.5153.5153,0,0,0,371.2044,33.2369Z"/><path class="cls-1" d="M376.4915,38.51a2.2607,2.2607,0,0,1,2.2539-2.2549,3.82,3.82,0,0,0,2.0567-.3955,1.7677,1.7677,0,0,0,.5664-1.542c0-.2988-.0147-.6416-.0459-1.0283s-.0772-.8218-.1377-1.3052a2.2361,2.2361,0,0,1,.4609-1.6679,2.2334,2.2334,0,0,1,3.1446-.4151,2.2693,2.2693,0,0,1,.8769,1.49,19.8018,19.8018,0,0,1,.2764,2.9531,6.0969,6.0969,0,0,1-1.8525,4.6992,7.5727,7.5727,0,0,1-5.3458,1.7207,2.2726,2.2726,0,0,1-2.2539-2.2539Zm.7911-12.1289a1.6922,1.6922,0,0,1,.1582-1.3384,1.8452,1.8452,0,0,1,1.08-.8764,10.5539,10.5539,0,0,1,1.7276-.3428,16.0356,16.0356,0,0,1,1.9385-.1186,10.7282,10.7282,0,0,1,1.8515.145,6.5912,6.5912,0,0,1,1.3906.3823,1.82,1.82,0,0,1,.917,1.2,1.836,1.836,0,0,1-1.16,2.1421,2.11,2.11,0,0,1-1.0879.0464q-.3824-.0792-.916-.1382a8.9594,8.9594,0,0,0-.9951-.06q-.8848,0-1.5694.0528a6.8964,6.8964,0,0,0-1.1074.1582,1.8693,1.8693,0,0,1-2.2275-1.2525Z"/><path class="cls-1" d="M127.3011,78.982a2.7866,2.7866,0,0,1-.3086,1.167,3.2125,3.2125,0,0,1-.91,1.1338,2.3128,2.3128,0,0,1-1.4961.4814,3.4535,3.4535,0,0,1-1.1739-.2568,2.9609,2.9609,0,0,1-1.207-.8633,2.4506,2.4506,0,0,1-.5195-1.6484,2.8557,2.8557,0,0,1,2.8476-2.8477,2.4714,2.4714,0,0,1,1.4893.4483,3.0188,3.0188,0,0,1,.9492,1.1074A2.8527,2.8527,0,0,1,127.3011,78.982ZM123.65,59.92a2.1326,2.1326,0,0,1,1.667.4414,2.2165,2.2165,0,0,1,.877,1.4961q.252,1.8062.3828,3.25t.1846,2.9268q.0526,1.4823.0527,3.4072v.8047c0,.2812-.0049.5664-.0127.8574a2.1,2.1,0,0,1-.6728,1.5488,2.2344,2.2344,0,0,1-1.5948.626,2.1791,2.1791,0,0,1-1.6015-.666,2.1166,2.1166,0,0,1-.6533-1.5889q.0131-.3954.0126-.7969V71.441q0-1.8838-.0449-3.2754-.0468-1.39-.1718-2.7158t-.3633-2.9863a2.1433,2.1433,0,0,1,.4414-1.668A2.2231,2.2231,0,0,1,123.65,59.92Z"/><path class="cls-1" d="M134.3675,74.2359a1.7134,1.7134,0,0,1-.0273-1.1465,2.4139,2.4139,0,0,1,1.7148-1.5683,1.9888,1.9888,0,0,1,.6455-.0528,2.1027,2.1027,0,0,1,1.3379.54,2.2415,2.2415,0,0,1,.7188,1.1474l.0263.0782a8.359,8.359,0,0,0,1.4043,3.1445,2.2494,2.2494,0,0,0,1.7071.8769h.0136a2.15,2.15,0,0,1,1.5879.6592,2.2681,2.2681,0,0,1,0,3.1836,2.1378,2.1378,0,0,1-1.5879.666h-.0136a4.5141,4.5141,0,0,1-1.3907-.2177,6.152,6.152,0,0,1-1.3125-.6,9.6824,9.6824,0,0,1-2.4716,4.9375,10.9433,10.9433,0,0,1-4.462,2.8007,2.0994,2.0994,0,0,1-1.82-.164,2.2474,2.2474,0,0,1-1.0547-1.2989,2.127,2.127,0,0,1,.1856-1.8125,2.342,2.342,0,0,1,1.2383-1.0087,6.2218,6.2218,0,0,0,3.0586-2.1163,6.5159,6.5159,0,0,0,1.1074-4.0273,15.81,15.81,0,0,0-.5664-3.916A.5567.5567,0,0,0,134.3675,74.2359Zm-.3037-7.3027a2.1058,2.1058,0,0,1,.6133-1.4834,2.0169,2.0169,0,0,1,1.5361-.6524,2.1849,2.1849,0,0,1,1.16.29,2.207,2.207,0,0,1,.7383.7119,2.0839,2.0839,0,0,1,.3418,1.1338,2.7916,2.7916,0,0,1-.1836.9355,1.9312,1.9312,0,0,1-.6661.8838,2.1782,2.1782,0,0,1-1.3515.3692,2.1406,2.1406,0,0,1-1.3643-.376,2.0292,2.0292,0,0,1-.6533-.8633A2.7265,2.7265,0,0,1,134.0638,66.9332Z"/><path class="cls-1" d="M139.641,79.5094a2.1519,2.1519,0,0,1,.6718-1.5948,2.2028,2.2028,0,0,1,1.5957-.6592h1.3184a2.197,2.197,0,0,1,1.6016.6592,2.2578,2.2578,0,0,1-1.6016,3.85h-1.3184a2.19,2.19,0,0,1-1.5957-.666A2.1573,2.1573,0,0,1,139.641,79.5094Z"/><path class="cls-1" d="M140.0628,86.6158a1.6914,1.6914,0,0,1,.1582-1.3379,1.8425,1.8425,0,0,1,1.08-.8769,10.5434,10.5434,0,0,1,1.7276-.3428,16.0353,16.0353,0,0,1,1.9384-.1192,10.7355,10.7355,0,0,1,1.8516.1455,6.5927,6.5927,0,0,1,1.3906.3819,1.8135,1.8135,0,0,1,.916,1.2,1.8346,1.8346,0,0,1-1.16,2.1426,2.1162,2.1162,0,0,1-1.0869.0459c-.2549-.0528-.56-.0987-.917-.1387a9.1364,9.1364,0,0,0-.9942-.0586c-.59,0-1.1123.0166-1.5693.0527a6.6978,6.6978,0,0,0-1.1074.1582,1.8714,1.8714,0,0,1-2.2276-1.2529Zm.8965-7.1064a2.1516,2.1516,0,0,1,.6719-1.5948,2.2026,2.2026,0,0,1,1.5957-.6592,5.7294,5.7294,0,0,0,2.3125-.3427,1.6985,1.6985,0,0,0,.9375-1.1407,10.9812,10.9812,0,0,0,.2959-2.1552,2.1724,2.1724,0,0,1,.77-1.6211,2.2666,2.2666,0,0,1,1.6553-.5147,2.1188,2.1188,0,0,1,1.55.7715,2.1866,2.1866,0,0,1,.5469,1.6279,3.7567,3.7567,0,0,0,.4218,2.5977,2.6066,2.6066,0,0,0,2.1875.7773h.0137a2.1476,2.1476,0,0,1,1.5879.6592,2.2659,2.2659,0,0,1,0,3.1836,2.1349,2.1349,0,0,1-1.5879.666h-.0137a7.0151,7.0151,0,0,1-2.8076-.5468,4.87,4.87,0,0,1-2.1221-1.8262,5.6177,5.6177,0,0,1-2.5449,1.8857,9.8765,9.8765,0,0,1-3.2031.4873,2.19,2.19,0,0,1-1.5957-.666A2.157,2.157,0,0,1,140.9593,79.5094Z"/><path class="cls-1" d="M151.6644,79.5094a2.2606,2.2606,0,0,1,2.2539-2.254,1.8027,1.8027,0,0,0,1.5293-.8369,19.824,19.824,0,0,0,1.4238-2.5117q.4614-.9228.91-1.7334a9.9406,9.9406,0,0,1,.9355-1.418.2378.2378,0,0,1,.0664-.0654,1.8754,1.8754,0,0,1,1.0479-.6728,2.391,2.391,0,0,1,1.2451.0136,2.2777,2.2777,0,0,1,.8311.4356l.0263.0254a2.255,2.255,0,0,1,1.5821-.5274,2.1409,2.1409,0,0,1,1.5029.6729c.07.0791.1406.1543.2109.2236q.3559.3706.6729.7383a9.5246,9.5246,0,0,1,1.1006,1.5234,13.23,13.23,0,0,1,.7451,1.6407,6.2466,6.2466,0,0,0,1.0342,1.9648,1.9029,1.9029,0,0,0,1.457.5273h.0127a2.15,2.15,0,0,1,1.5889.6592,2.2659,2.2659,0,0,1,0,3.1836,2.1371,2.1371,0,0,1-1.5889.666H170.24a7.1218,7.1218,0,0,1-2.0762-.2763,5.7748,5.7748,0,0,1-1.5752-.7383,6.3423,6.3423,0,0,1-4.3515,1.41,7.6411,7.6411,0,0,1-2.7549-.4482,4.8386,4.8386,0,0,1-1.8858-1.2529,6.1445,6.1445,0,0,1-1.6279.9433,5.5367,5.5367,0,0,1-2.05.3623,2.2724,2.2724,0,0,1-2.2539-2.2548Zm8.9375-2.9786q0,1.1207,1.5166,1.12,1.437,0,1.4365-1.0811a2.2806,2.2806,0,0,0-.3818-1.18,7.4787,7.4787,0,0,0-1.2256-1.4307q-.3955.501-.66.9092c-.1308.211-.25.4092-.3554.5938A2.3661,2.3661,0,0,0,160.6019,76.5308Z"/><path class="cls-1" d="M167.9847,79.5094a2.1525,2.1525,0,0,1,.6729-1.5948,2.2,2.2,0,0,1,1.5947-.6592,5.737,5.737,0,0,0,2.3144-.3427,1.6931,1.6931,0,0,0,.9356-1.1407,10.9777,10.9777,0,0,0,.2969-2.1552,2.17,2.17,0,0,1,.7714-1.6211,2.2629,2.2629,0,0,1,1.6543-.5147,2.1132,2.1132,0,0,1,1.5489.7715,2.178,2.178,0,0,1,.5468,1.6279,3.78,3.78,0,0,0,.4219,2.5977,2.6109,2.6109,0,0,0,2.1895.7773h.0127a2.1526,2.1526,0,0,1,1.5888.6592,2.2681,2.2681,0,0,1,0,3.1836,2.14,2.14,0,0,1-1.5888.666h-.0127a7.0127,7.0127,0,0,1-2.8086-.5468A4.8827,4.8827,0,0,1,176,79.3912a5.6054,5.6054,0,0,1-2.5439,1.8857,9.8741,9.8741,0,0,1-3.2041.4873,2.1872,2.1872,0,0,1-1.5947-.666A2.158,2.158,0,0,1,167.9847,79.5094ZM169.66,68.1461a1.7021,1.7021,0,0,1,.1582-1.3389,1.8465,1.8465,0,0,1,1.0811-.876,10.5163,10.5163,0,0,1,1.7265-.3427,16.0494,16.0494,0,0,1,1.9385-.1192,10.7447,10.7447,0,0,1,1.8525.1455,6.6109,6.6109,0,0,1,1.3907.3819,1.8168,1.8168,0,0,1,.916,1.2,1.8326,1.8326,0,0,1-1.16,2.1416,2.1092,2.1092,0,0,1-1.0879.0468c-.2539-.0527-.56-.1-.916-.1386a8.9062,8.9062,0,0,0-.9951-.06q-.8833,0-1.5693.0527a6.9174,6.9174,0,0,0-1.1074.1582,1.8708,1.8708,0,0,1-2.2276-1.2519Z"/><path class="cls-1" d="M178.69,79.5094a2.2623,2.2623,0,0,1,2.2549-2.254,1.4067,1.4067,0,0,0,1.292-1.0478,9.4275,9.4275,0,0,0,.4355-3.3555q0-.7383-.0732-1.78-.0718-1.04-.23-2.6426t-.4346-3.9883a2.2716,2.2716,0,0,1,.4541-1.6738,2.12,2.12,0,0,1,1.4834-.87,2.2123,2.2123,0,0,1,1.6739.4483,2.1406,2.1406,0,0,1,.871,1.4892q.3546,2.7555.5137,4.6866t.1582,3.5a21.1055,21.1055,0,0,1-.6191,5.6758,5.538,5.538,0,0,1-1.9717,3.1054,6.0027,6.0027,0,0,1-3.5527.9619,2.2741,2.2741,0,0,1-2.2549-2.2548Z"/><path class="cls-1" d="M188.9339,65.0347a2.2146,2.2146,0,0,1,.4473-1.6748,2.1439,2.1439,0,0,1,1.49-.87,2.2119,2.2119,0,0,1,1.6739.4483,2.1427,2.1427,0,0,1,.871,1.49q.2374,1.78.3692,3.124t.1836,2.584q.0526,1.2393.0527,2.7158,0,1.9512-.0722,3.876t-.2042,3.5469a2.1986,2.1986,0,0,1-.7978,1.5351,2.2581,2.2581,0,0,1-3.7109-1.9043q.1318-1.6347.2041-3.5273t.0732-3.7637q0-1.2919-.0469-2.3467t-.1709-2.2675Q189.17,66.7877,188.9339,65.0347Z"/><path class="cls-1" d="M207.2689,69.7281a4.9605,4.9605,0,0,1,3.1445,1.0674,7.12,7.12,0,0,1,2.1416,2.9,10.4458,10.4458,0,0,1,.7783,4.126,10.1023,10.1023,0,0,1-.7646,3.93,11.3191,11.3191,0,0,1-2.0762,3.2754,12.0267,12.0267,0,0,1-2.9863,2.3926,11.3129,11.3129,0,0,1-3.4941,1.293,2.1549,2.1549,0,0,1-1.6807-.3692,2.2063,2.2063,0,0,1-.9561-1.4511,2.0321,2.0321,0,0,1,.376-1.6475,2.6259,2.6259,0,0,1,1.4307-.9893,10.3234,10.3234,0,0,0,2.5976-1.1,7.67,7.67,0,0,0,1.8321-1.5225h-.1582a6.3955,6.3955,0,0,1-4.3174-1.2988,4.9123,4.9123,0,0,1-1.4971-3.9219,7.4272,7.4272,0,0,1,.7715-3.4141,6.2934,6.2934,0,0,1,2.0508-2.3935A4.86,4.86,0,0,1,207.2689,69.7281Zm-1.4238,6.499a1.1311,1.1311,0,0,0,.3886.9951,2.0785,2.0785,0,0,0,1.1807.27,5.4006,5.4006,0,0,0,.8232-.0595c.2588-.0391.4991-.0811.7188-.125a7.5929,7.5929,0,0,0-.31-1.5362,3.6714,3.6714,0,0,0-.6064-1.1992,1.1022,1.1022,0,0,0-.877-.4677,1.1165,1.1165,0,0,0-.9228.6054A2.7244,2.7244,0,0,0,205.8451,76.2271Z"/><path class="cls-1" d="M220.8714,81.5269a8.2069,8.2069,0,0,1,.9365-3.8427,9.9941,9.9941,0,0,1,2.5577-3.1319,5.5575,5.5575,0,0,1-1.3711-1.8056,5.13,5.13,0,0,1-.4883-2.2276,7.3991,7.3991,0,0,1,.8906-3.6328,6.8272,6.8272,0,0,1,2.4121-2.5576,6.35,6.35,0,0,1,3.4082-.9424,7.4961,7.4961,0,0,1,3.9551,1.1475,2.2335,2.2335,0,0,1,.7246,3.0976,2.03,2.03,0,0,1-1.3242.93,2.7855,2.7855,0,0,1-1.8-.2041,3.6469,3.6469,0,0,0-1.5166-.3691,2.1812,2.1812,0,0,0-1.6211.6259,2.2336,2.2336,0,0,0-.6191,1.6416,1.44,1.44,0,0,0,.5732,1.2784,3.31,3.31,0,0,0,1.8389.3955q.4086,0,.9882-.0528a14.85,14.85,0,0,1,2.1758-.1845h.0137a2.46,2.46,0,0,1,.6719.0654v.0137a.1187.1187,0,0,1,.0527.0136h.0264a6.27,6.27,0,0,1,.0791.0254.0124.0124,0,0,1,.0137.0137,2.25,2.25,0,0,1,1.0937.8047,2.2238,2.2238,0,0,1-.1514,2.8271,2.2065,2.2065,0,0,1-1.4306.7315.8634.8634,0,0,1-.1582.0137c-.1319.0087-.2832.0136-.4551.0136a6.9517,6.9517,0,0,0-.7842.0655.6094.6094,0,0,1-.1182.0127,8.3815,8.3815,0,0,0-3.0332,1.0293,6.8935,6.8935,0,0,0-2.1875,1.9238,4.0582,4.0582,0,0,0-.8183,2.4131,2.7728,2.7728,0,0,0,1.2793,2.4257,6.3232,6.3232,0,0,0,3.5859.87,9.672,9.672,0,0,0,4.416-.9356,2.2,2.2,0,0,1,1.7344-.1328,2.132,2.132,0,0,1,1.3115,1.1074,2.1553,2.1553,0,0,1,.1319,1.7149,2.1843,2.1843,0,0,1-1.1075,1.3183,13.4745,13.4745,0,0,1-6.249,1.4366,11.81,11.81,0,0,1-5.0224-1.0088,8.13,8.13,0,0,1-3.3955-2.8008A7.1619,7.1619,0,0,1,220.8714,81.5269Z"/><path class="cls-1" d="M236.0589,65.0347a2.2153,2.2153,0,0,1,.4483-1.6748,2.14,2.14,0,0,1,1.4892-.87,2.215,2.215,0,0,1,1.6748.4483,2.1416,2.1416,0,0,1,.87,1.49q.2374,1.78.3692,3.124t.1846,2.584q.0526,1.2393.0527,2.7158,0,1.9512-.0732,3.876t-.2032,3.5469a2.196,2.196,0,0,1-.7988,1.5351,2.2581,2.2581,0,0,1-3.7109-1.9043q.1318-1.6347.205-3.5273t.0723-3.7637q0-1.2919-.0469-2.3467-.0453-1.0547-.17-2.2675T236.0589,65.0347Z"/><path class="cls-1" d="M242.5579,78.982a2.06,2.06,0,0,1,1.042-1.3184,2.5094,2.5094,0,0,1,1.74-.2236q.5391.0922,1.0019.1514a7.8923,7.8923,0,0,0,1.0147.06,5.49,5.49,0,0,0,1.7334-.1983,1.134,1.134,0,0,0,.6992-.5273,1.7475,1.7475,0,0,0,.1514-.7383,1.5233,1.5233,0,0,0-.04-.3555c-.06-.167-.123-.3428-.1836-.5273a12.9552,12.9552,0,0,0-.8506-1.9707q-.561-1.0752-1.3642-2.3535a2.1463,2.1463,0,0,1-.2637-1.7071,2.1993,2.1993,0,0,1,1.0147-1.4043,2.1542,2.1542,0,0,1,1.707-.2636,2.2037,2.2037,0,0,1,1.4043,1.0156q.8041,1.2788,1.457,2.4844a17.7577,17.7577,0,0,1,1.167,2.7226,16.1424,16.1424,0,0,0,.8565,2.043,2.7124,2.7124,0,0,0,.8964,1.0683,2.2769,2.2769,0,0,0,1.2393.3164h.0137a2.1507,2.1507,0,0,1,1.5879.6592,2.2684,2.2684,0,0,1,0,3.1836,2.1381,2.1381,0,0,1-1.5879.666h-.0137a6.5671,6.5671,0,0,1-2.3926-.4023,6.645,6.645,0,0,1-1.8125-1.0342,6.2785,6.2785,0,0,1-2.584,1.417,10.5859,10.5859,0,0,1-2.8349.415,13.6442,13.6442,0,0,1-1.5947-.0791,14.9452,14.9452,0,0,1-1.6485-.3164,2.067,2.067,0,0,1-1.3447-1.0615A2.1982,2.1982,0,0,1,242.5579,78.982Z"/><path class="cls-1" d="M254.74,79.5094a2.2606,2.2606,0,0,1,2.2549-2.254,3.8242,3.8242,0,0,0,2.0566-.3955,1.7713,1.7713,0,0,0,.5664-1.542q0-.4482-.0469-1.0293-.0453-.5786-.1377-1.3046a2.237,2.237,0,0,1,.462-1.668,2.2329,2.2329,0,0,1,3.1445-.415,2.2693,2.2693,0,0,1,.876,1.4892,19.6913,19.6913,0,0,1,.2763,2.9531,6.1,6.1,0,0,1-1.8515,4.7,7.5759,7.5759,0,0,1-5.3457,1.7207,2.2724,2.2724,0,0,1-2.2549-2.2548Zm1.042,6.289a2.1033,2.1033,0,0,1,.6133-1.4834,2.0182,2.0182,0,0,1,1.5351-.6523,2.1858,2.1858,0,0,1,1.16.29,2.2089,2.2089,0,0,1,.7383.7119,2.0853,2.0853,0,0,1,.3427,1.1338,2.79,2.79,0,0,1-.1845.9356,1.9259,1.9259,0,0,1-.6661.8837,2.1765,2.1765,0,0,1-1.3515.3692,2.1313,2.1313,0,0,1-1.3633-.376,2.0225,2.0225,0,0,1-.6533-.8633A2.7036,2.7036,0,0,1,255.7816,85.7984Z"/><path class="cls-1" d="M265.391,79.0875a2.1981,2.1981,0,0,1,.81-1.5489,2.0971,2.0971,0,0,1,1.6426-.5078q.9492.1069,1.66.1582c.4746.0362.9541.0528,1.4375.0528a11.7269,11.7269,0,0,0,3.3887-.3887,3.4606,3.4606,0,0,0,1.7656-1.0742,2.4649,2.4649,0,0,0,.5274-1.543q0-1.5147-.0655-3.289-.0659-1.7726-.19-3.4805t-.2969-3.0117a2.26,2.26,0,0,1,4.4825-.58q.1962,1.4766.3291,3.2754t.2041,3.6386q.0732,1.84.0722,3.4473a6.5952,6.5952,0,0,1-1.1464,3.7969,7.6074,7.6074,0,0,1-3.5528,2.67,16.4633,16.4633,0,0,1-6.164.9824q-.7237,0-1.3711-.0332-.6445-.0323-1.4766-.125a2.2955,2.2955,0,0,1-1.5293-.8105A2.1269,2.1269,0,0,1,265.391,79.0875Zm.1054,10.7578a1.0736,1.0736,0,0,1,.66-1.3438l1.0019-.3437a3.1319,3.1319,0,0,1-.7656-2.1875,3.0967,3.0967,0,0,1,.8633-2.2481,3.3059,3.3059,0,0,1,2.4863-.8906,5.3,5.3,0,0,1,.8692.0664,1.0755,1.0755,0,0,1,.705.4024.975.975,0,0,1,.2315.7314,1.1076,1.1076,0,0,1-.39.7051.8907.8907,0,0,1-.7578.2314,2.3853,2.3853,0,0,0-.3554-.0273,1.828,1.828,0,0,0-1.2188.33,1.0683,1.0683,0,0,0-.3769.8437q0,.9756,1.24.9756a2.8485,2.8485,0,0,0,.6523-.0791q.3369-.079,1.166-.3691a1,1,0,0,1,.8438.0859.9694.9694,0,0,1,.5019.666,1.05,1.05,0,0,1-.1054.7578.92.92,0,0,1-.5547.4678l-5.3516,1.8857a1.044,1.044,0,0,1-.7988-.0595A1.0287,1.0287,0,0,1,265.4964,89.8453Zm1.5567-24.6133a2.2888,2.2888,0,0,1,1.3711-2.8867,2.1186,2.1186,0,0,1,1.7129.0918,2.2157,2.2157,0,0,1,1.16,1.2793q.501,1.3974.8184,2.4844t.52,2.0771q.205.9888.35,2.083.1466,1.0943.2774,2.5176a2.2795,2.2795,0,0,1-2.07,2.4521,2.27,2.27,0,0,1-2.4384-2.0566q-.1187-1.2657-.2373-2.2275t-.2969-1.8262c-.1192-.5752-.27-1.18-.4551-1.8125Q267.4886,66.4586,267.0531,65.232Z"/><path class="cls-1" d="M283.1615,65.0347a2.2159,2.2159,0,0,1,.4492-1.6748,2.1378,2.1378,0,0,1,1.4892-.87,2.2162,2.2162,0,0,1,1.6748.4483,2.14,2.14,0,0,1,.8692,1.49q.2373,1.78.3691,3.124t.1856,2.584q.0513,1.2393.0527,2.7158,0,1.9512-.0732,3.876t-.2041,3.5469a2.1953,2.1953,0,0,1-.7979,1.5351,2.2581,2.2581,0,0,1-3.7109-1.9043q.1318-1.6347.2041-3.5273t.0722-3.7637q0-1.2919-.0459-2.3467t-.1709-2.2675Q283.3989,66.7877,283.1615,65.0347Z"/><path class="cls-1" d="M295.6839,75.1324a12.8414,12.8414,0,0,1,.1524-1.9443,5.7182,5.7182,0,0,1,.6-1.8389,2.1936,2.1936,0,0,1,1.3183-1.127,2.1653,2.1653,0,0,1,1.7266.125q1.6743.8438,1.002,3.045l-.0655.3164q-.0659.3163-.1318.7256a4.4964,4.4964,0,0,0-.0664.6982,2.4072,2.4072,0,0,0,.376,1.3584,2.4984,2.4984,0,0,0,1.51.8633,14.432,14.432,0,0,0,3.4014.2969,34.1406,34.1406,0,0,0,3.7832-.1846,7.0559,7.0559,0,0,1-1.1465-1.8,4.8081,4.8081,0,0,1-.4082-1.9307,6.5183,6.5183,0,0,1,.7774-3.1777,6.0942,6.0942,0,0,1,2.1289-2.2744,5.5921,5.5921,0,0,1,3.039-.85,5.5228,5.5228,0,0,1,3.0254.85,6.1727,6.1727,0,0,1,2.1231,2.2812,6.5145,6.5145,0,0,1,.7841,3.1836,5.6139,5.6139,0,0,1-1.292,3.4678q.7383.0381,1.5821.039h.0136a2.15,2.15,0,0,1,1.5879.6592,2.2681,2.2681,0,0,1,0,3.1836,2.1378,2.1378,0,0,1-1.5879.666h-.0136a15.7218,15.7218,0,0,1-3.1973-.3232,16.0188,16.0188,0,0,1-2.9463-.9024,18.7024,18.7024,0,0,1-3.8164,1.1924,22.0216,22.0216,0,0,1-4.4365.4287q-1.0414,0-2.3467-.0986a14.4662,14.4662,0,0,1-2.6172-.4482,7.7462,7.7462,0,0,1-2.4121-1.1075,5.5111,5.5111,0,0,1-1.7734-2.0634A7.1959,7.1959,0,0,1,295.6839,75.1324Zm15.86-12.1807a2.1058,2.1058,0,0,1,.6133-1.4834,2.0157,2.0157,0,0,1,1.5361-.6523,2.1881,2.1881,0,0,1,1.16.29,2.2164,2.2164,0,0,1,.7383.7119,2.0917,2.0917,0,0,1,.3418,1.1338,2.8147,2.8147,0,0,1-.1836.9356,1.9379,1.9379,0,0,1-.666.8838,2.1786,2.1786,0,0,1-1.3515.3691,2.14,2.14,0,0,1-1.3643-.376,2.0282,2.0282,0,0,1-.6533-.8632A2.7046,2.7046,0,0,1,311.5443,62.9517Zm.6982,10.7842a2.6914,2.6914,0,0,0,1.4766,2.4512,2.7885,2.7885,0,0,0,1.3847-2.4385,2.0982,2.0982,0,0,0-.3691-1.2783,1.232,1.232,0,0,0-1.0547-.502,1.2465,1.2465,0,0,0-1.0683.502A2.0767,2.0767,0,0,0,312.2425,73.7359Z"/><path class="cls-1" d="M317.6615,79.5094a2.2606,2.2606,0,0,1,2.2539-2.254q2.2544,0,2.7422-2.57.0526-.3954.1318-1.0019a2.2387,2.2387,0,0,1,.8965-1.49,2.1275,2.1275,0,0,1,1.6748-.4218,2.1743,2.1743,0,0,1,1.4892.8965,2.1438,2.1438,0,0,1,.4219,1.6738q-.1187.7793-.1514,1.1074c-.0224.2207-.0332.3828-.0332.4883q0,1.582,1.1465,1.582a1.2328,1.2328,0,0,0,1.0489-.5664,5.3465,5.3465,0,0,0,.6259-2.1494c.0176-.2725.0528-.584.1055-.9365a2.031,2.031,0,0,1,.8037-1.3711.0418.0418,0,0,1,.0274-.0127l.0127-.0127a2.1132,2.1132,0,0,1,1.371-.4356.1117.1117,0,0,1,.04.0137,1.2978,1.2978,0,0,1,.1836.0127,2.1146,2.1146,0,0,1,1.3984.8369,2.0055,2.0055,0,0,1,.4082,1.5762q-.0264.3032-.0791.6191-.0264.29-.0263.5537a2.8607,2.8607,0,0,0,.27,1.3252,1.0816,1.0816,0,0,0,1.0615.52,1.1887,1.1887,0,0,0,.9355-.4023,1.7277,1.7277,0,0,0,.3555-1.18,8.2061,8.2061,0,0,0-.085-1.18c-.0576-.3916-.1347-.8017-.2314-1.2334a2.007,2.007,0,0,1,.2383-1.6074,2.2,2.2,0,0,1,1.4629-1.0947,2.2223,2.2223,0,0,1,2.7031,1.6875l.0254.1055c.08.36.1455.664.1982.9091a11.3624,11.3624,0,0,0,.7715,2.4,2.4678,2.4678,0,0,0,.8828,1.08,2.1871,2.1871,0,0,0,1.1143.2773h.0136a2.15,2.15,0,0,1,1.5879.6592,2.2681,2.2681,0,0,1,0,3.1836,2.1378,2.1378,0,0,1-1.5879.666h-.0136a5.4206,5.4206,0,0,1-2.169-.4287,6.16,6.16,0,0,1-1.8252-1.2187,5.156,5.156,0,0,1-1.78,1.3906,5.288,5.288,0,0,1-2.294.4941,5.673,5.673,0,0,1-2.2871-.455,5.4353,5.4353,0,0,1-1.8262-1.2852,6.3337,6.3337,0,0,1-1.8066,1.3047,4.6394,4.6394,0,0,1-2.0039.4619,4.5566,4.5566,0,0,1-2.1094-.4941,5.2491,5.2491,0,0,1-1.66-1.3389,7.536,7.536,0,0,1-1.958,1.1475,5.9637,5.9637,0,0,1-2.2217.4218,2.2724,2.2724,0,0,1-2.2539-2.2548Zm8.5556-13.1436a4.0139,4.0139,0,0,1,.6133-2.2939,3.8319,3.8319,0,0,1,1.5889-1.3643,4.8922,4.8922,0,0,1,2.0625-.4619,4.769,4.769,0,0,1,2.0635.4482,3.9078,3.9078,0,0,1,1.5888,1.3447,3.8567,3.8567,0,0,1,.6133,2.2354,5.6758,5.6758,0,0,1-.08.9355,3.5592,3.5592,0,0,1-.2636.8838,2.1194,2.1194,0,0,1-.9424,1.0215,1.3762,1.3762,0,0,1-1.4307-.0859,1.494,1.494,0,0,1-.7314-.9092,2.0284,2.0284,0,0,1,.0859-1.2266,1.7643,1.7643,0,0,0,.1055-.3027,1.3042,1.3042,0,0,0,.04-.3164.6822.6822,0,0,0-.3164-.6133,1.2483,1.2483,0,0,0-.7324-.1914,1.3092,1.3092,0,0,0-.7315.2373.7563.7563,0,0,0-.3164.6592,1.3626,1.3626,0,0,0,.1846.6992,5.55,5.55,0,0,0,.7383.8965,1.194,1.194,0,0,1,.3359,1.12,1.8325,1.8325,0,0,1-.5859,1.0547,1.3045,1.3045,0,0,1-1.1807.33,2.176,2.176,0,0,1-1.14-.6074,6.4826,6.4826,0,0,1-1.1075-1.3575,4.0571,4.0571,0,0,1-.4619-2.122Z"/><path class="cls-1" d="M341.6029,79.5094a2.1556,2.1556,0,0,1,.6718-1.5948,2.2045,2.2045,0,0,1,1.5957-.6592,5.7317,5.7317,0,0,0,2.3135-.3427,1.6946,1.6946,0,0,0,.9365-1.1407,10.9625,10.9625,0,0,0,.2969-2.1552,2.1693,2.1693,0,0,1,.77-1.6211,2.2666,2.2666,0,0,1,1.6553-.5147,2.1163,2.1163,0,0,1,1.5488.7715,2.1821,2.1821,0,0,1,.5469,1.6279,3.7684,3.7684,0,0,0,.4219,2.5977,2.6087,2.6087,0,0,0,2.1885.7773h.0127a2.151,2.151,0,0,1,1.5888.6592,2.2659,2.2659,0,0,1,0,3.1836,2.1383,2.1383,0,0,1-1.5888.666h-.0127a7.0118,7.0118,0,0,1-2.8077-.5468,4.8775,4.8775,0,0,1-2.123-1.8262,5.6131,5.6131,0,0,1-2.5449,1.8857,9.8724,9.8724,0,0,1-3.2032.4873,2.1912,2.1912,0,0,1-1.5957-.666A2.1611,2.1611,0,0,1,341.6029,79.5094Zm1.6738-11.3633a1.71,1.71,0,0,1,.1582-1.3389,1.8486,1.8486,0,0,1,1.082-.876,10.4985,10.4985,0,0,1,1.7266-.3427,16.033,16.033,0,0,1,1.9375-.1192,10.7372,10.7372,0,0,1,1.8525.1455,6.62,6.62,0,0,1,1.3916.3819,1.8227,1.8227,0,0,1,.9161,1.2,1.8353,1.8353,0,0,1-1.16,2.1416,2.11,2.11,0,0,1-1.0879.0468c-.2549-.0527-.56-.1-.916-.1386a8.9385,8.9385,0,0,0-.9961-.06q-.8833,0-1.5684.0527a6.9209,6.9209,0,0,0-1.1074.1582,1.7623,1.7623,0,0,1-1.3574-.1845A1.7806,1.7806,0,0,1,343.2767,68.1461Z"/><path class="cls-1" d="M352.2943,79.5094a2.1554,2.1554,0,0,1,.6719-1.5948,2.2041,2.2041,0,0,1,1.5957-.6592,13.1874,13.1874,0,0,0,4.0742-.4355q1.1865-.4337,1.1855-1.08a4.1455,4.1455,0,0,0-1.12-2.3535q-1.1206-1.4048-3.0059-3.3418a9.7362,9.7362,0,0,1-1.0283-1.1934,2.2609,2.2609,0,0,1-.3427-1.3115,2.2341,2.2341,0,0,1,.4414-1.3447,2.356,2.356,0,0,1,1.2334-.8574l8.9511-2.9531a2.8017,2.8017,0,0,1,1.9776.0068,1.9421,1.9421,0,0,1,1.1474,1.3515,2.3444,2.3444,0,0,1-.1259,1.7725,2.0608,2.0608,0,0,1-1.2979,1.0088L360.31,68.41q1.5556,1.8061,2.4326,2.9991a9.6062,9.6062,0,0,1,1.2451,2.1484,5.6809,5.6809,0,0,1,.3692,2.0635,5.1527,5.1527,0,0,1-2.3731,4.5547q-2.373,1.5892-7.4218,1.5888a2.1909,2.1909,0,0,1-1.5957-.666A2.1608,2.1608,0,0,1,352.2943,79.5094Z"/><path class="cls-1" d="M369.9329,65.0347a2.2163,2.2163,0,0,1,.4493-1.6748,2.1378,2.1378,0,0,1,1.4892-.87,2.2162,2.2162,0,0,1,1.6748.4483,2.1408,2.1408,0,0,1,.8692,1.49q.2373,1.78.3691,3.124t.1856,2.584q.0512,1.2393.0527,2.7158,0,1.9512-.0732,3.876t-.2042,3.5469a2.1948,2.1948,0,0,1-.7978,1.5351,2.2581,2.2581,0,0,1-3.7109-1.9043q.1318-1.6347.2041-3.5273t.0722-3.7637q0-1.2919-.0459-2.3467t-.1709-2.2675Q370.17,66.7877,369.9329,65.0347Z"/></g></svg>